<svg width="489" height="100" viewBox="0 0 489 100" fill="none" xmlns="http://www.w3.org/2000/svg">
    <rect x="0.5" y="0.5" width="458" height="145" rx="19.5" fill="white"/>
    <path d="M20.338 40.18C19.478 40.18 18.752 39.99 18.16 39.61C17.568 39.226 17.12 38.696 16.816 38.02C16.512 37.344 16.36 36.564 16.36 35.68C16.36 34.796 16.512 34.016 16.816 33.34C17.12 32.664 17.568 32.136 18.16 31.756C18.752 31.372 19.478 31.18 20.338 31.18C21.202 31.18 21.928 31.372 22.516 31.756C23.108 32.136 23.556 32.664 23.86 33.34C24.168 34.016 24.322 34.796 24.322 35.68C24.322 36.564 24.168 37.344 23.86 38.02C23.556 38.696 23.108 39.226 22.516 39.61C21.928 39.99 21.202 40.18 20.338 40.18ZM20.338 39.334C21.014 39.334 21.578 39.18 22.03 38.872C22.482 38.564 22.82 38.136 23.044 37.588C23.272 37.036 23.386 36.4 23.386 35.68C23.386 34.96 23.272 34.326 23.044 33.778C22.82 33.23 22.482 32.802 22.03 32.494C21.578 32.186 21.014 32.03 20.338 32.026C19.662 32.026 19.1 32.18 18.652 32.488C18.204 32.796 17.866 33.226 17.638 33.778C17.414 34.326 17.3 34.96 17.296 35.68C17.292 36.4 17.402 37.034 17.626 37.582C17.854 38.126 18.194 38.554 18.646 38.866C19.098 39.174 19.662 39.33 20.338 39.334ZM31.0916 41.122V40H25.5176V33.52H26.3996V39.154H29.7896V33.52H30.6716V39.184H31.9736V41.122H31.0916ZM35.6718 40.18C35.0398 40.18 34.4918 40.04 34.0278 39.76C33.5678 39.48 33.2098 39.086 32.9538 38.578C32.6978 38.07 32.5698 37.474 32.5698 36.79C32.5698 36.082 32.6958 35.47 32.9478 34.954C33.1998 34.438 33.5538 34.04 34.0098 33.76C34.4698 33.48 35.0118 33.34 35.6358 33.34C36.2758 33.34 36.8218 33.488 37.2738 33.784C37.7258 34.076 38.0678 34.496 38.2998 35.044C38.5318 35.592 38.6378 36.246 38.6178 37.006H37.7178V36.694C37.7018 35.854 37.5198 35.22 37.1718 34.792C36.8278 34.364 36.3238 34.15 35.6598 34.15C34.9638 34.15 34.4298 34.376 34.0578 34.828C33.6898 35.28 33.5058 35.924 33.5058 36.76C33.5058 37.576 33.6898 38.21 34.0578 38.662C34.4298 39.11 34.9558 39.334 35.6358 39.334C36.0998 39.334 36.5038 39.228 36.8478 39.016C37.1958 38.8 37.4698 38.49 37.6698 38.086L38.4918 38.404C38.2358 38.968 37.8578 39.406 37.3578 39.718C36.8618 40.026 36.2998 40.18 35.6718 40.18ZM33.1938 37.006V36.268H38.1438V37.006H33.1938ZM39.9434 40V33.52H40.8254V36.334H44.4794V33.52H45.3614V40H44.4794V37.18H40.8254V40H39.9434ZM47.0332 40L47.0392 33.52H47.9272V36.64L50.8192 33.52H51.9952L48.9592 36.76L52.3912 40H51.1072L47.9272 36.88V40H47.0332ZM54.8463 40.18C54.3583 40.18 53.9483 40.092 53.6163 39.916C53.2883 39.74 53.0423 39.506 52.8783 39.214C52.7143 38.922 52.6323 38.604 52.6323 38.26C52.6323 37.908 52.7023 37.608 52.8423 37.36C52.9863 37.108 53.1803 36.902 53.4243 36.742C53.6723 36.582 53.9583 36.46 54.2823 36.376C54.6103 36.296 54.9723 36.226 55.3683 36.166C55.7683 36.102 56.1583 36.048 56.5383 36.004C56.9223 35.956 57.2583 35.91 57.5463 35.866L57.2343 36.058C57.2463 35.418 57.1223 34.944 56.8623 34.636C56.6023 34.328 56.1503 34.174 55.5063 34.174C55.0623 34.174 54.6863 34.274 54.3783 34.474C54.0743 34.674 53.8603 34.99 53.7363 35.422L52.8783 35.17C53.0263 34.59 53.3243 34.14 53.7723 33.82C54.2203 33.5 54.8023 33.34 55.5183 33.34C56.1103 33.34 56.6123 33.452 57.0243 33.676C57.4403 33.896 57.7343 34.216 57.9063 34.636C57.9863 34.824 58.0383 35.034 58.0623 35.266C58.0863 35.498 58.0983 35.734 58.0983 35.974V40H57.3123V38.374L57.5403 38.47C57.3203 39.026 56.9783 39.45 56.5143 39.742C56.0503 40.034 55.4943 40.18 54.8463 40.18ZM54.9483 39.418C55.3603 39.418 55.7203 39.344 56.0283 39.196C56.3363 39.048 56.5843 38.846 56.7723 38.59C56.9603 38.33 57.0823 38.038 57.1383 37.714C57.1863 37.506 57.2123 37.278 57.2163 37.03C57.2203 36.778 57.2223 36.59 57.2223 36.466L57.5583 36.64C57.2583 36.68 56.9323 36.72 56.5803 36.76C56.2323 36.8 55.8883 36.846 55.5483 36.898C55.2123 36.95 54.9083 37.012 54.6363 37.084C54.4523 37.136 54.2743 37.21 54.1023 37.306C53.9303 37.398 53.7883 37.522 53.6763 37.678C53.5683 37.834 53.5143 38.028 53.5143 38.26C53.5143 38.448 53.5603 38.63 53.6523 38.806C53.7483 38.982 53.9003 39.128 54.1083 39.244C54.3203 39.36 54.6003 39.418 54.9483 39.418Z" fill="#9EA2B0"/>
    <path d="M68.512 40L72.138 31.117H67.56V29.92H73.475V31.117L69.856 40H68.512ZM74.6845 40V38.628H76.0565V40H74.6845ZM77.9539 39.993L77.9609 38.873L82.4339 34.848C82.8072 34.512 83.0569 34.1947 83.1829 33.896C83.3136 33.5927 83.3789 33.2823 83.3789 32.965C83.3789 32.5777 83.2902 32.2277 83.1129 31.915C82.9356 31.6023 82.6929 31.355 82.3849 31.173C82.0816 30.991 81.7362 30.9 81.3489 30.9C80.9476 30.9 80.5906 30.9957 80.2779 31.187C79.9652 31.3737 79.7179 31.6233 79.5359 31.936C79.3586 32.2487 79.2722 32.5893 79.2769 32.958H78.0029C78.0029 32.3233 78.1499 31.7633 78.4439 31.278C78.7379 30.788 79.1369 30.4053 79.6409 30.13C80.1496 29.85 80.7259 29.71 81.3699 29.71C81.9952 29.71 82.5552 29.8547 83.0499 30.144C83.5446 30.4287 83.9342 30.8183 84.2189 31.313C84.5082 31.803 84.6529 32.3583 84.6529 32.979C84.6529 33.4177 84.5969 33.798 84.4849 34.12C84.3776 34.442 84.2096 34.7407 83.9809 35.016C83.7522 35.2867 83.4652 35.576 83.1199 35.884L79.4029 39.223L79.2419 38.803H84.6529V39.993H77.9539ZM88.8757 29.92H90.1427L87.4547 40H86.1877L88.8757 29.92ZM93.7175 40V31.299L91.8205 32.447V31.054L93.7175 29.92H94.9845V40H93.7175ZM101.05 40.21C100.397 40.21 99.8133 40.063 99.3 39.769C98.7913 39.4703 98.3876 39.0667 98.089 38.558C97.795 38.0447 97.648 37.4613 97.648 36.808V33.112C97.648 32.4587 97.795 31.8753 98.089 31.362C98.3876 30.8487 98.7913 30.445 99.3 30.151C99.8133 29.857 100.397 29.71 101.05 29.71C101.703 29.71 102.287 29.857 102.8 30.151C103.313 30.445 103.717 30.8487 104.011 31.362C104.305 31.8753 104.452 32.4587 104.452 33.112V36.808C104.452 37.4613 104.305 38.0447 104.011 38.558C103.717 39.0667 103.313 39.4703 102.8 39.769C102.287 40.063 101.703 40.21 101.05 40.21ZM101.05 39.013C101.447 39.013 101.806 38.9173 102.128 38.726C102.45 38.5347 102.707 38.278 102.898 37.956C103.089 37.6293 103.185 37.27 103.185 36.878V33.035C103.185 32.6383 103.089 32.279 102.898 31.957C102.707 31.635 102.45 31.3783 102.128 31.187C101.806 30.9957 101.447 30.9 101.05 30.9C100.658 30.9 100.299 30.9957 99.972 31.187C99.65 31.3783 99.3933 31.635 99.202 31.957C99.0106 32.279 98.915 32.6383 98.915 33.035V36.878C98.915 37.27 99.0106 37.6293 99.202 37.956C99.3933 38.278 99.65 38.5347 99.972 38.726C100.299 38.9173 100.658 39.013 101.05 39.013Z" fill="#F62E46"/>
    <path d="M17.12 60V48.48H18.416L22.768 57.656L27.096 48.48H28.408V59.992H27.056V51.608L23.144 60H22.384L18.472 51.608V60H17.12ZM34.5793 60V58.432C33.9873 58.5333 33.4166 58.5067 32.8673 58.352C32.3233 58.1973 31.8353 57.928 31.4033 57.544C30.9766 57.1547 30.6379 56.6533 30.3873 56.04C30.1366 55.4267 30.0113 54.712 30.0113 53.896C30.0113 53.0747 30.1366 52.3573 30.3873 51.744C30.6379 51.1253 30.9766 50.6213 31.4033 50.232C31.8353 49.8373 32.3233 49.5627 32.8673 49.408C33.4166 49.248 33.9873 49.2187 34.5793 49.32V48.48H35.9953V49.32C36.5873 49.2187 37.1579 49.248 37.7073 49.408C38.2566 49.5627 38.7446 49.8373 39.1713 50.232C39.6033 50.6213 39.9446 51.1253 40.1953 51.744C40.4459 52.3573 40.5713 53.0747 40.5713 53.896C40.5713 54.712 40.4459 55.4267 40.1953 56.04C39.9446 56.6533 39.6033 57.1547 39.1713 57.544C38.7446 57.928 38.2566 58.1973 37.7073 58.352C37.1579 58.5067 36.5873 58.5333 35.9953 58.432V60H34.5793ZM34.5793 57.096V50.632C34.0886 50.5573 33.6486 50.592 33.2593 50.736C32.8753 50.8747 32.5499 51.0987 32.2833 51.408C32.0219 51.712 31.8219 52.0773 31.6833 52.504C31.5446 52.9307 31.4753 53.3947 31.4753 53.896C31.4753 54.392 31.5446 54.8507 31.6833 55.272C31.8219 55.6933 32.0219 56.0533 32.2833 56.352C32.5499 56.6507 32.8753 56.8667 33.2593 57C33.6486 57.1333 34.0886 57.1653 34.5793 57.096ZM35.9953 57.096C36.4913 57.1653 36.9313 57.1333 37.3153 57C37.6993 56.8613 38.0246 56.6453 38.2913 56.352C38.5579 56.0587 38.7606 55.704 38.8993 55.288C39.0379 54.8667 39.1073 54.4133 39.1073 53.928C39.1073 53.4373 39.0379 52.9787 38.8993 52.552C38.7606 52.12 38.5579 51.7493 38.2913 51.44C38.0246 51.1253 37.6993 50.8933 37.3153 50.744C36.9313 50.5947 36.4913 50.5573 35.9953 50.632V57.096ZM51.1029 61.6V60H42.1669V48.48H43.5909V58.704H49.8629V48.64H51.2869V58.704H52.5269V61.6H51.1029Z" fill="#0F1015"/>
    <path d="M19.39 97.18C18.942 97.18 18.528 97.088 18.148 96.904C17.768 96.72 17.444 96.466 17.176 96.142C16.908 95.818 16.716 95.446 16.6 95.026L17.446 94.798C17.522 95.11 17.66 95.38 17.86 95.608C18.06 95.832 18.294 96.006 18.562 96.13C18.834 96.254 19.118 96.316 19.414 96.316C19.798 96.316 20.142 96.224 20.446 96.04C20.754 95.852 20.998 95.604 21.178 95.296C21.358 94.988 21.448 94.65 21.448 94.282C21.448 93.902 21.354 93.56 21.166 93.256C20.978 92.948 20.73 92.704 20.422 92.524C20.114 92.344 19.778 92.254 19.414 92.254C19.006 92.254 18.654 92.344 18.358 92.524C18.062 92.7 17.826 92.922 17.65 93.19L16.846 92.854L17.11 88.36H21.724V89.206H17.5L17.938 88.792L17.704 92.626L17.482 92.332C17.73 92.048 18.03 91.826 18.382 91.666C18.734 91.506 19.104 91.426 19.492 91.426C20.024 91.426 20.504 91.554 20.932 91.81C21.36 92.062 21.7 92.404 21.952 92.836C22.204 93.268 22.33 93.75 22.33 94.282C22.33 94.81 22.196 95.294 21.928 95.734C21.66 96.17 21.304 96.52 20.86 96.784C20.416 97.048 19.926 97.18 19.39 97.18ZM26.3158 97.18C25.8678 97.18 25.4538 97.088 25.0738 96.904C24.6938 96.72 24.3698 96.466 24.1018 96.142C23.8338 95.818 23.6418 95.446 23.5258 95.026L24.3718 94.798C24.4478 95.11 24.5858 95.38 24.7858 95.608C24.9858 95.832 25.2198 96.006 25.4878 96.13C25.7598 96.254 26.0438 96.316 26.3398 96.316C26.7238 96.316 27.0678 96.224 27.3718 96.04C27.6798 95.852 27.9238 95.604 28.1038 95.296C28.2838 94.988 28.3738 94.65 28.3738 94.282C28.3738 93.902 28.2798 93.56 28.0918 93.256C27.9038 92.948 27.6558 92.704 27.3478 92.524C27.0398 92.344 26.7038 92.254 26.3398 92.254C25.9318 92.254 25.5798 92.344 25.2838 92.524C24.9878 92.7 24.7518 92.922 24.5758 93.19L23.7718 92.854L24.0358 88.36H28.6498V89.206H24.4258L24.8638 88.792L24.6298 92.626L24.4078 92.332C24.6558 92.048 24.9558 91.826 25.3078 91.666C25.6598 91.506 26.0298 91.426 26.4178 91.426C26.9498 91.426 27.4298 91.554 27.8578 91.81C28.2858 92.062 28.6258 92.404 28.8778 92.836C29.1298 93.268 29.2558 93.75 29.2558 94.282C29.2558 94.81 29.1218 95.294 28.8538 95.734C28.5858 96.17 28.2298 96.52 27.7858 96.784C27.3418 97.048 26.8518 97.18 26.3158 97.18ZM30.8596 97V95.974H31.8856V97H30.8596ZM34.2004 97L37.3804 89.218H33.3784V88.36H38.3224V89.218L35.1484 97H34.2004ZM42.5819 97.18C42.0499 97.18 41.5699 97.056 41.1419 96.808C40.7179 96.56 40.3819 96.224 40.1339 95.8C39.8859 95.372 39.7619 94.892 39.7619 94.36V91C39.7619 90.468 39.8859 89.99 40.1339 89.566C40.3819 89.138 40.7179 88.8 41.1419 88.552C41.5699 88.304 42.0499 88.18 42.5819 88.18C43.1139 88.18 43.5919 88.304 44.0159 88.552C44.4439 88.8 44.7819 89.138 45.0299 89.566C45.2779 89.99 45.4019 90.468 45.4019 91V94.36C45.4019 94.892 45.2779 95.372 45.0299 95.8C44.7819 96.224 44.4439 96.56 44.0159 96.808C43.5919 97.056 43.1139 97.18 42.5819 97.18ZM42.5819 96.328C42.9379 96.328 43.2619 96.242 43.5539 96.07C43.8459 95.894 44.0779 95.66 44.2499 95.368C44.4219 95.076 44.5079 94.754 44.5079 94.402V90.958C44.5079 90.602 44.4219 90.278 44.2499 89.986C44.0779 89.694 43.8459 89.462 43.5539 89.29C43.2619 89.114 42.9379 89.026 42.5819 89.026C42.2259 89.026 41.9019 89.114 41.6099 89.29C41.3179 89.462 41.0859 89.694 40.9139 89.986C40.7419 90.278 40.6559 90.602 40.6559 90.958V94.402C40.6559 94.754 40.7419 95.076 40.9139 95.368C41.0859 95.66 41.3179 95.894 41.6099 96.07C41.9019 96.242 42.2259 96.328 42.5819 96.328ZM50.0081 97.18C49.4681 97.18 48.9761 97.05 48.5321 96.79C48.0921 96.526 47.7401 96.17 47.4761 95.722C47.2161 95.27 47.0861 94.762 47.0861 94.198V91.204C47.0861 90.624 47.2161 90.108 47.4761 89.656C47.7361 89.2 48.0901 88.842 48.5381 88.582C48.9901 88.318 49.5021 88.186 50.0741 88.186C50.5661 88.186 51.0221 88.294 51.4421 88.51C51.8661 88.726 52.2121 89.028 52.4801 89.416L51.8021 89.974C51.6181 89.686 51.3741 89.456 51.0701 89.284C50.7661 89.112 50.4341 89.026 50.0741 89.026C49.6701 89.026 49.3101 89.124 48.9941 89.32C48.6781 89.516 48.4301 89.774 48.2501 90.094C48.0701 90.41 47.9801 90.754 47.9801 91.126V93.01L47.7581 92.758C48.0101 92.362 48.3401 92.042 48.7481 91.798C49.1601 91.554 49.6081 91.432 50.0921 91.432C50.6281 91.432 51.1101 91.56 51.5381 91.816C51.9661 92.068 52.3061 92.41 52.5581 92.842C52.8101 93.274 52.9361 93.758 52.9361 94.294C52.9361 94.826 52.8021 95.31 52.5341 95.746C52.2701 96.182 51.9161 96.53 51.4721 96.79C51.0321 97.05 50.5441 97.18 50.0081 97.18ZM50.0081 96.322C50.3841 96.322 50.7261 96.232 51.0341 96.052C51.3461 95.872 51.5921 95.628 51.7721 95.32C51.9561 95.012 52.0481 94.67 52.0481 94.294C52.0481 93.918 51.9561 93.576 51.7721 93.268C51.5921 92.956 51.3481 92.71 51.0401 92.53C50.7321 92.346 50.3901 92.254 50.0141 92.254C49.6381 92.254 49.2961 92.346 48.9881 92.53C48.6801 92.71 48.4341 92.956 48.2501 93.268C48.0701 93.576 47.9801 93.918 47.9801 94.294C47.9801 94.666 48.0701 95.006 48.2501 95.314C48.4301 95.622 48.6741 95.868 48.9821 96.052C49.2901 96.232 49.6321 96.322 50.0081 96.322ZM57.1615 97.18C56.6215 97.18 56.1435 97.072 55.7275 96.856C55.3155 96.64 54.9915 96.338 54.7555 95.95C54.5235 95.558 54.4075 95.1 54.4075 94.576C54.4075 94.04 54.5375 93.564 54.7975 93.148C55.0575 92.728 55.4535 92.41 55.9855 92.194L55.9735 92.542C55.5295 92.378 55.1915 92.11 54.9595 91.738C54.7275 91.366 54.6115 90.954 54.6115 90.502C54.6115 90.022 54.7215 89.61 54.9415 89.266C55.1615 88.918 55.4615 88.65 55.8415 88.462C56.2255 88.274 56.6655 88.18 57.1615 88.18C57.6575 88.18 58.0975 88.274 58.4815 88.462C58.8655 88.65 59.1675 88.918 59.3875 89.266C59.6075 89.61 59.7175 90.022 59.7175 90.502C59.7175 90.954 59.6055 91.364 59.3815 91.732C59.1615 92.1 58.8235 92.37 58.3675 92.542L58.3375 92.194C58.8695 92.406 59.2675 92.722 59.5315 93.142C59.7995 93.562 59.9335 94.04 59.9335 94.576C59.9335 95.1 59.8155 95.558 59.5795 95.95C59.3435 96.338 59.0175 96.64 58.6015 96.856C58.1855 97.072 57.7055 97.18 57.1615 97.18ZM57.1615 96.334C57.7055 96.334 58.1475 96.184 58.4875 95.884C58.8275 95.58 58.9975 95.144 58.9975 94.576C58.9975 94 58.8295 93.564 58.4935 93.268C58.1575 92.968 57.7135 92.818 57.1615 92.818C56.6095 92.818 56.1675 92.968 55.8355 93.268C55.5035 93.564 55.3375 94 55.3375 94.576C55.3375 95.144 55.5055 95.58 55.8415 95.884C56.1775 96.184 56.6175 96.334 57.1615 96.334ZM57.1615 91.966C57.6415 91.966 58.0315 91.844 58.3315 91.6C58.6315 91.352 58.7815 90.986 58.7815 90.502C58.7815 90.018 58.6315 89.656 58.3315 89.416C58.0315 89.172 57.6415 89.05 57.1615 89.05C56.6815 89.05 56.2915 89.172 55.9915 89.416C55.6955 89.656 55.5475 90.018 55.5475 90.502C55.5475 90.986 55.6955 91.352 55.9915 91.6C56.2915 91.844 56.6815 91.966 57.1615 91.966ZM64.3084 97.18C63.7764 97.18 63.2964 97.056 62.8684 96.808C62.4444 96.56 62.1084 96.224 61.8604 95.8C61.6124 95.372 61.4884 94.892 61.4884 94.36V91C61.4884 90.468 61.6124 89.99 61.8604 89.566C62.1084 89.138 62.4444 88.8 62.8684 88.552C63.2964 88.304 63.7764 88.18 64.3084 88.18C64.8404 88.18 65.3184 88.304 65.7424 88.552C66.1704 88.8 66.5084 89.138 66.7564 89.566C67.0044 89.99 67.1284 90.468 67.1284 91V94.36C67.1284 94.892 67.0044 95.372 66.7564 95.8C66.5084 96.224 66.1704 96.56 65.7424 96.808C65.3184 97.056 64.8404 97.18 64.3084 97.18ZM64.3084 96.328C64.6644 96.328 64.9884 96.242 65.2804 96.07C65.5724 95.894 65.8044 95.66 65.9764 95.368C66.1484 95.076 66.2344 94.754 66.2344 94.402V90.958C66.2344 90.602 66.1484 90.278 65.9764 89.986C65.8044 89.694 65.5724 89.462 65.2804 89.29C64.9884 89.114 64.6644 89.026 64.3084 89.026C63.9524 89.026 63.6284 89.114 63.3364 89.29C63.0444 89.462 62.8124 89.694 62.6404 89.986C62.4684 90.278 62.3824 90.602 62.3824 90.958V94.402C62.3824 94.754 62.4684 95.076 62.6404 95.368C62.8124 95.66 63.0444 95.894 63.3364 96.07C63.6284 96.242 63.9524 96.328 64.3084 96.328ZM71.7347 97.18C71.1947 97.18 70.7027 97.05 70.2587 96.79C69.8187 96.526 69.4667 96.17 69.2027 95.722C68.9427 95.27 68.8127 94.762 68.8127 94.198V91.204C68.8127 90.624 68.9427 90.108 69.2027 89.656C69.4627 89.2 69.8167 88.842 70.2647 88.582C70.7167 88.318 71.2287 88.186 71.8007 88.186C72.2927 88.186 72.7487 88.294 73.1687 88.51C73.5927 88.726 73.9387 89.028 74.2067 89.416L73.5287 89.974C73.3447 89.686 73.1007 89.456 72.7967 89.284C72.4927 89.112 72.1607 89.026 71.8007 89.026C71.3967 89.026 71.0367 89.124 70.7207 89.32C70.4047 89.516 70.1567 89.774 69.9767 90.094C69.7967 90.41 69.7067 90.754 69.7067 91.126V93.01L69.4847 92.758C69.7367 92.362 70.0667 92.042 70.4747 91.798C70.8867 91.554 71.3347 91.432 71.8187 91.432C72.3547 91.432 72.8367 91.56 73.2647 91.816C73.6927 92.068 74.0327 92.41 74.2847 92.842C74.5367 93.274 74.6627 93.758 74.6627 94.294C74.6627 94.826 74.5287 95.31 74.2607 95.746C73.9967 96.182 73.6427 96.53 73.1987 96.79C72.7587 97.05 72.2707 97.18 71.7347 97.18ZM71.7347 96.322C72.1107 96.322 72.4527 96.232 72.7607 96.052C73.0727 95.872 73.3187 95.628 73.4987 95.32C73.6827 95.012 73.7747 94.67 73.7747 94.294C73.7747 93.918 73.6827 93.576 73.4987 93.268C73.3187 92.956 73.0747 92.71 72.7667 92.53C72.4587 92.346 72.1167 92.254 71.7407 92.254C71.3647 92.254 71.0227 92.346 70.7147 92.53C70.4067 92.71 70.1607 92.956 69.9767 93.268C69.7967 93.576 69.7067 93.918 69.7067 94.294C69.7067 94.666 69.7967 95.006 69.9767 95.314C70.1567 95.622 70.4007 95.868 70.7087 96.052C71.0167 96.232 71.3587 96.322 71.7347 96.322ZM76.1341 98.254L76.1881 97.816C76.3481 97.828 76.4641 97.796 76.5361 97.72C76.6081 97.644 76.6521 97.542 76.6681 97.414C76.6841 97.286 76.6881 97.148 76.6801 97H76.1341V95.734H77.1601V97.24C77.1601 97.608 77.0661 97.884 76.8781 98.068C76.6941 98.252 76.4461 98.314 76.1341 98.254ZM84.1659 97.174C83.7379 97.174 83.3439 97.098 82.9839 96.946C82.6239 96.794 82.3139 96.578 82.0539 96.298C81.7939 96.014 81.6039 95.676 81.4839 95.284L82.3239 95.032C82.4679 95.46 82.7039 95.784 83.0319 96.004C83.3639 96.224 83.7379 96.33 84.1539 96.322C84.5379 96.314 84.8679 96.228 85.1439 96.064C85.4239 95.9 85.6379 95.672 85.7859 95.38C85.9339 95.088 86.0079 94.75 86.0079 94.366C86.0079 93.778 85.8359 93.306 85.4919 92.95C85.1519 92.59 84.7019 92.41 84.1419 92.41C83.9859 92.41 83.8219 92.432 83.6499 92.476C83.4779 92.516 83.3179 92.574 83.1699 92.65L82.7259 91.948L86.0859 88.846L86.2299 89.206H81.8259V88.36H86.8179V89.218L83.8899 92.014L83.8779 91.666C84.4779 91.59 85.0059 91.658 85.4619 91.87C85.9179 92.082 86.2739 92.406 86.5299 92.842C86.7899 93.274 86.9199 93.782 86.9199 94.366C86.9199 94.918 86.7999 95.406 86.5599 95.83C86.3239 96.25 85.9979 96.58 85.5819 96.82C85.1659 97.056 84.6939 97.174 84.1659 97.174ZM88.9387 97L92.1187 89.218H88.1167V88.36H93.0607V89.218L89.8867 97H88.9387ZM93.8713 97V95.974H94.8973V97H93.8713ZM99.6722 97.18C99.1322 97.18 98.6402 97.05 98.1962 96.79C97.7562 96.526 97.4042 96.17 97.1402 95.722C96.8802 95.27 96.7502 94.762 96.7502 94.198V91.204C96.7502 90.624 96.8802 90.108 97.1402 89.656C97.4002 89.2 97.7542 88.842 98.2022 88.582C98.6542 88.318 99.1662 88.186 99.7382 88.186C100.23 88.186 100.686 88.294 101.106 88.51C101.53 88.726 101.876 89.028 102.144 89.416L101.466 89.974C101.282 89.686 101.038 89.456 100.734 89.284C100.43 89.112 100.098 89.026 99.7382 89.026C99.3342 89.026 98.9742 89.124 98.6582 89.32C98.3422 89.516 98.0942 89.774 97.9142 90.094C97.7342 90.41 97.6442 90.754 97.6442 91.126V93.01L97.4222 92.758C97.6742 92.362 98.0042 92.042 98.4122 91.798C98.8242 91.554 99.2722 91.432 99.7562 91.432C100.292 91.432 100.774 91.56 101.202 91.816C101.63 92.068 101.97 92.41 102.222 92.842C102.474 93.274 102.6 93.758 102.6 94.294C102.6 94.826 102.466 95.31 102.198 95.746C101.934 96.182 101.58 96.53 101.136 96.79C100.696 97.05 100.208 97.18 99.6722 97.18ZM99.6722 96.322C100.048 96.322 100.39 96.232 100.698 96.052C101.01 95.872 101.256 95.628 101.436 95.32C101.62 95.012 101.712 94.67 101.712 94.294C101.712 93.918 101.62 93.576 101.436 93.268C101.256 92.956 101.012 92.71 100.704 92.53C100.396 92.346 100.054 92.254 99.6782 92.254C99.3022 92.254 98.9602 92.346 98.6522 92.53C98.3442 92.71 98.0982 92.956 97.9142 93.268C97.7342 93.576 97.6442 93.918 97.6442 94.294C97.6442 94.666 97.7342 95.006 97.9142 95.314C98.0942 95.622 98.3382 95.868 98.6462 96.052C98.9542 96.232 99.2962 96.322 99.6722 96.322ZM106.742 97.18C106.294 97.18 105.88 97.088 105.5 96.904C105.12 96.72 104.796 96.466 104.528 96.142C104.26 95.818 104.068 95.446 103.952 95.026L104.798 94.798C104.874 95.11 105.012 95.38 105.212 95.608C105.412 95.832 105.646 96.006 105.914 96.13C106.186 96.254 106.47 96.316 106.766 96.316C107.15 96.316 107.494 96.224 107.798 96.04C108.106 95.852 108.35 95.604 108.53 95.296C108.71 94.988 108.8 94.65 108.8 94.282C108.8 93.902 108.706 93.56 108.518 93.256C108.33 92.948 108.082 92.704 107.774 92.524C107.466 92.344 107.13 92.254 106.766 92.254C106.358 92.254 106.006 92.344 105.71 92.524C105.414 92.7 105.178 92.922 105.002 93.19L104.198 92.854L104.462 88.36H109.076V89.206H104.852L105.29 88.792L105.056 92.626L104.834 92.332C105.082 92.048 105.382 91.826 105.734 91.666C106.086 91.506 106.456 91.426 106.844 91.426C107.376 91.426 107.856 91.554 108.284 91.81C108.712 92.062 109.052 92.404 109.304 92.836C109.556 93.268 109.682 93.75 109.682 94.282C109.682 94.81 109.548 95.294 109.28 95.734C109.012 96.17 108.656 96.52 108.212 96.784C107.768 97.048 107.278 97.18 106.742 97.18ZM113.751 97.18C113.211 97.18 112.733 97.072 112.317 96.856C111.905 96.64 111.581 96.338 111.345 95.95C111.113 95.558 110.997 95.1 110.997 94.576C110.997 94.04 111.127 93.564 111.387 93.148C111.647 92.728 112.043 92.41 112.575 92.194L112.563 92.542C112.119 92.378 111.781 92.11 111.549 91.738C111.317 91.366 111.201 90.954 111.201 90.502C111.201 90.022 111.311 89.61 111.531 89.266C111.751 88.918 112.051 88.65 112.431 88.462C112.815 88.274 113.255 88.18 113.751 88.18C114.247 88.18 114.687 88.274 115.071 88.462C115.455 88.65 115.757 88.918 115.977 89.266C116.197 89.61 116.307 90.022 116.307 90.502C116.307 90.954 116.195 91.364 115.971 91.732C115.751 92.1 115.413 92.37 114.957 92.542L114.927 92.194C115.459 92.406 115.857 92.722 116.121 93.142C116.389 93.562 116.523 94.04 116.523 94.576C116.523 95.1 116.405 95.558 116.169 95.95C115.933 96.338 115.607 96.64 115.191 96.856C114.775 97.072 114.295 97.18 113.751 97.18ZM113.751 96.334C114.295 96.334 114.737 96.184 115.077 95.884C115.417 95.58 115.587 95.144 115.587 94.576C115.587 94 115.419 93.564 115.083 93.268C114.747 92.968 114.303 92.818 113.751 92.818C113.199 92.818 112.757 92.968 112.425 93.268C112.093 93.564 111.927 94 111.927 94.576C111.927 95.144 112.095 95.58 112.431 95.884C112.767 96.184 113.207 96.334 113.751 96.334ZM113.751 91.966C114.231 91.966 114.621 91.844 114.921 91.6C115.221 91.352 115.371 90.986 115.371 90.502C115.371 90.018 115.221 89.656 114.921 89.416C114.621 89.172 114.231 89.05 113.751 89.05C113.271 89.05 112.881 89.172 112.581 89.416C112.285 89.656 112.137 90.018 112.137 90.502C112.137 90.986 112.285 91.352 112.581 91.6C112.881 91.844 113.271 91.966 113.751 91.966ZM117.838 96.994L117.844 96.19L121.75 92.662C122.086 92.358 122.308 92.07 122.416 91.798C122.528 91.522 122.584 91.234 122.584 90.934C122.584 90.578 122.5 90.256 122.332 89.968C122.164 89.68 121.938 89.452 121.654 89.284C121.37 89.112 121.052 89.026 120.7 89.026C120.332 89.026 120.004 89.114 119.716 89.29C119.428 89.466 119.2 89.698 119.032 89.986C118.868 90.274 118.788 90.588 118.792 90.928H117.892C117.892 90.404 118.016 89.934 118.264 89.518C118.512 89.102 118.848 88.776 119.272 88.54C119.696 88.3 120.176 88.18 120.712 88.18C121.236 88.18 121.706 88.304 122.122 88.552C122.542 88.796 122.872 89.128 123.112 89.548C123.356 89.964 123.478 90.428 123.478 90.94C123.478 91.3 123.434 91.618 123.346 91.894C123.262 92.166 123.128 92.42 122.944 92.656C122.764 92.888 122.534 93.128 122.254 93.376L118.786 96.508L118.648 96.148H123.478V96.994H117.838ZM127.244 97.174C126.816 97.174 126.422 97.098 126.062 96.946C125.702 96.794 125.392 96.578 125.132 96.298C124.872 96.014 124.682 95.676 124.562 95.284L125.402 95.032C125.546 95.46 125.782 95.784 126.11 96.004C126.442 96.224 126.816 96.33 127.232 96.322C127.616 96.314 127.946 96.228 128.222 96.064C128.502 95.9 128.716 95.672 128.864 95.38C129.012 95.088 129.086 94.75 129.086 94.366C129.086 93.778 128.914 93.306 128.57 92.95C128.23 92.59 127.78 92.41 127.22 92.41C127.064 92.41 126.9 92.432 126.728 92.476C126.556 92.516 126.396 92.574 126.248 92.65L125.804 91.948L129.164 88.846L129.308 89.206H124.904V88.36H129.896V89.218L126.968 92.014L126.956 91.666C127.556 91.59 128.084 91.658 128.54 91.87C128.996 92.082 129.352 92.406 129.608 92.842C129.868 93.274 129.998 93.782 129.998 94.366C129.998 94.918 129.878 95.406 129.638 95.83C129.402 96.25 129.076 96.58 128.66 96.82C128.244 97.056 127.772 97.174 127.244 97.174ZM134.399 88.186C134.943 88.186 135.435 88.318 135.875 88.582C136.319 88.842 136.671 89.198 136.931 89.65C137.191 90.098 137.321 90.602 137.321 91.162V94.162C137.321 94.738 137.191 95.254 136.931 95.71C136.671 96.166 136.315 96.526 135.863 96.79C135.415 97.05 134.905 97.18 134.333 97.18C133.841 97.18 133.385 97.072 132.965 96.856C132.549 96.636 132.205 96.334 131.933 95.95L132.605 95.392C132.789 95.676 133.033 95.904 133.337 96.076C133.645 96.248 133.977 96.334 134.333 96.334C134.741 96.334 135.101 96.238 135.413 96.046C135.729 95.85 135.977 95.594 136.157 95.278C136.341 94.958 136.433 94.612 136.433 94.24V92.356L136.649 92.608C136.401 93.004 136.071 93.324 135.659 93.568C135.251 93.812 134.803 93.934 134.315 93.934C133.783 93.934 133.301 93.806 132.869 93.55C132.441 93.294 132.101 92.95 131.849 92.518C131.601 92.086 131.477 91.604 131.477 91.072C131.477 90.54 131.609 90.056 131.873 89.62C132.137 89.18 132.491 88.832 132.935 88.576C133.379 88.316 133.867 88.186 134.399 88.186ZM134.399 89.038C134.023 89.038 133.681 89.13 133.373 89.314C133.065 89.494 132.819 89.738 132.635 90.046C132.455 90.354 132.365 90.696 132.365 91.072C132.365 91.448 132.455 91.79 132.635 92.098C132.815 92.406 133.059 92.652 133.367 92.836C133.675 93.016 134.017 93.106 134.393 93.106C134.769 93.106 135.111 93.016 135.419 92.836C135.731 92.652 135.977 92.406 136.157 92.098C136.341 91.79 136.433 91.448 136.433 91.072C136.433 90.7 136.341 90.36 136.157 90.052C135.977 89.744 135.733 89.498 135.425 89.314C135.117 89.13 134.775 89.038 134.399 89.038Z" fill="#9EA2B0"/>
    <rect x="349.5" y="30.5" width="19" height="19" rx="3.5" fill="white" stroke="#9EA2B0"/>
    <path d="M387.338 45.18C386.478 45.18 385.752 44.99 385.16 44.61C384.568 44.226 384.12 43.696 383.816 43.02C383.512 42.344 383.36 41.564 383.36 40.68C383.36 39.796 383.512 39.016 383.816 38.34C384.12 37.664 384.568 37.136 385.16 36.756C385.752 36.372 386.478 36.18 387.338 36.18C388.342 36.18 389.162 36.438 389.798 36.954C390.434 37.466 390.87 38.154 391.106 39.018L390.206 39.252C390.022 38.568 389.692 38.026 389.216 37.626C388.74 37.226 388.114 37.026 387.338 37.026C386.662 37.026 386.1 37.18 385.652 37.488C385.204 37.796 384.866 38.226 384.638 38.778C384.414 39.326 384.298 39.96 384.29 40.68C384.286 41.4 384.396 42.034 384.62 42.582C384.848 43.13 385.188 43.56 385.64 43.872C386.096 44.18 386.662 44.334 387.338 44.334C388.114 44.334 388.74 44.134 389.216 43.734C389.692 43.33 390.022 42.788 390.206 42.108L391.106 42.342C390.87 43.206 390.434 43.896 389.798 44.412C389.162 44.924 388.342 45.18 387.338 45.18ZM395.34 45.18C394.744 45.18 394.24 45.03 393.828 44.73C393.416 44.426 393.104 44.016 392.892 43.5C392.68 42.98 392.574 42.398 392.574 41.754C392.574 41.098 392.68 40.514 392.892 40.002C393.108 39.486 393.424 39.08 393.84 38.784C394.256 38.488 394.768 38.34 395.376 38.34C395.968 38.34 396.476 38.49 396.9 38.79C397.324 39.09 397.648 39.498 397.872 40.014C398.1 40.53 398.214 41.11 398.214 41.754C398.214 42.402 398.1 42.984 397.872 43.5C397.644 44.016 397.316 44.426 396.888 44.73C396.46 45.03 395.944 45.18 395.34 45.18ZM392.424 47.88V38.52H393.216V43.398H393.312V47.88H392.424ZM395.25 44.358C395.702 44.358 396.078 44.244 396.378 44.016C396.678 43.788 396.902 43.478 397.05 43.086C397.202 42.69 397.278 42.246 397.278 41.754C397.278 41.266 397.204 40.826 397.056 40.434C396.908 40.042 396.682 39.732 396.378 39.504C396.078 39.276 395.696 39.162 395.232 39.162C394.78 39.162 394.404 39.272 394.104 39.492C393.808 39.712 393.586 40.018 393.438 40.41C393.29 40.798 393.216 41.246 393.216 41.754C393.216 42.254 393.29 42.702 393.438 43.098C393.586 43.49 393.81 43.798 394.11 44.022C394.41 44.246 394.79 44.358 395.25 44.358ZM401.385 45.18C400.897 45.18 400.487 45.092 400.155 44.916C399.827 44.74 399.581 44.506 399.417 44.214C399.253 43.922 399.171 43.604 399.171 43.26C399.171 42.908 399.241 42.608 399.381 42.36C399.525 42.108 399.719 41.902 399.963 41.742C400.211 41.582 400.497 41.46 400.821 41.376C401.149 41.296 401.511 41.226 401.907 41.166C402.307 41.102 402.697 41.048 403.077 41.004C403.461 40.956 403.797 40.91 404.085 40.866L403.773 41.058C403.785 40.418 403.661 39.944 403.401 39.636C403.141 39.328 402.689 39.174 402.045 39.174C401.601 39.174 401.225 39.274 400.917 39.474C400.613 39.674 400.399 39.99 400.275 40.422L399.417 40.17C399.565 39.59 399.863 39.14 400.311 38.82C400.759 38.5 401.341 38.34 402.057 38.34C402.649 38.34 403.151 38.452 403.563 38.676C403.979 38.896 404.273 39.216 404.445 39.636C404.525 39.824 404.577 40.034 404.601 40.266C404.625 40.498 404.637 40.734 404.637 40.974V45H403.851V43.374L404.079 43.47C403.859 44.026 403.517 44.45 403.053 44.742C402.589 45.034 402.033 45.18 401.385 45.18ZM401.487 44.418C401.899 44.418 402.259 44.344 402.567 44.196C402.875 44.048 403.123 43.846 403.311 43.59C403.499 43.33 403.621 43.038 403.677 42.714C403.725 42.506 403.751 42.278 403.755 42.03C403.759 41.778 403.761 41.59 403.761 41.466L404.097 41.64C403.797 41.68 403.471 41.72 403.119 41.76C402.771 41.8 402.427 41.846 402.087 41.898C401.751 41.95 401.447 42.012 401.175 42.084C400.991 42.136 400.813 42.21 400.641 42.306C400.469 42.398 400.327 42.522 400.215 42.678C400.107 42.834 400.053 43.028 400.053 43.26C400.053 43.448 400.099 43.63 400.191 43.806C400.287 43.982 400.439 44.128 400.647 44.244C400.859 44.36 401.139 44.418 401.487 44.418ZM406.193 45V38.52H408.863C408.999 38.52 409.163 38.528 409.355 38.544C409.551 38.56 409.733 38.59 409.901 38.634C410.265 38.73 410.557 38.926 410.777 39.222C411.001 39.518 411.113 39.874 411.113 40.29C411.113 40.522 411.077 40.73 411.005 40.914C410.937 41.094 410.839 41.25 410.711 41.382C410.651 41.45 410.585 41.51 410.513 41.562C410.441 41.61 410.371 41.65 410.303 41.682C410.431 41.706 410.569 41.762 410.717 41.85C410.949 41.986 411.125 42.17 411.245 42.402C411.365 42.63 411.425 42.908 411.425 43.236C411.425 43.68 411.319 44.042 411.107 44.322C410.895 44.602 410.611 44.794 410.255 44.898C410.095 44.942 409.921 44.97 409.733 44.982C409.549 44.994 409.375 45 409.211 45H406.193ZM407.081 44.25H409.169C409.253 44.25 409.359 44.244 409.487 44.232C409.615 44.216 409.729 44.196 409.829 44.172C410.065 44.112 410.237 43.992 410.345 43.812C410.457 43.628 410.513 43.428 410.513 43.212C410.513 42.928 410.429 42.696 410.261 42.516C410.097 42.332 409.877 42.22 409.601 42.18C409.509 42.16 409.413 42.148 409.313 42.144C409.213 42.14 409.123 42.138 409.043 42.138H407.081V44.25ZM407.081 41.382H408.893C408.997 41.382 409.113 41.376 409.241 41.364C409.373 41.348 409.487 41.322 409.583 41.286C409.791 41.214 409.943 41.09 410.039 40.914C410.139 40.738 410.189 40.546 410.189 40.338C410.189 40.11 410.135 39.91 410.027 39.738C409.923 39.566 409.765 39.446 409.553 39.378C409.409 39.326 409.253 39.296 409.085 39.288C408.921 39.28 408.817 39.276 408.773 39.276H407.081V41.382ZM412.615 45V38.52H413.497V41.334H417.151V38.52H418.033V45H417.151V42.18H413.497V45H412.615ZM424.859 38.52V45H424.001V39.954L420.449 45H419.705V38.52H420.563V43.524L424.121 38.52H424.859ZM428.301 45V39.336H426.003V38.52H431.481V39.336H429.183V45H428.301ZM432.631 45L432.619 38.52H433.507V40.962H435.025C435.213 40.962 435.397 40.966 435.577 40.974C435.761 40.982 435.923 40.998 436.063 41.022C436.383 41.082 436.667 41.188 436.915 41.34C437.167 41.492 437.363 41.702 437.503 41.97C437.647 42.238 437.719 42.574 437.719 42.978C437.719 43.534 437.575 43.972 437.287 44.292C437.003 44.612 436.643 44.82 436.207 44.916C436.043 44.952 435.865 44.976 435.673 44.988C435.481 44.996 435.291 45 435.103 45H432.631ZM433.507 44.244H435.067C435.203 44.244 435.355 44.24 435.523 44.232C435.691 44.224 435.839 44.202 435.967 44.166C436.179 44.106 436.371 43.986 436.543 43.806C436.719 43.622 436.807 43.346 436.807 42.978C436.807 42.614 436.723 42.34 436.555 42.156C436.387 41.968 436.163 41.844 435.883 41.784C435.759 41.756 435.625 41.738 435.481 41.73C435.337 41.722 435.199 41.718 435.067 41.718H433.507V44.244Z" fill="#0F1015"/>
    <rect x="347" y="78" width="44" height="44" rx="12" fill="#F5F6F9"/>
    <path d="M366.158 94.7881C364.098 94.7881 362.429 96.4578 362.429 98.5174C362.429 100.582 363.254 101.615 366.711 104.303L368.298 105.538C368.711 105.859 369.289 105.859 369.702 105.538L371.29 104.303C374.746 101.615 375.572 100.582 375.572 98.5174C375.572 96.4578 373.902 94.7881 371.842 94.7881C370.773 94.7881 369.821 95.274 369 96.209C368.18 95.274 367.227 94.7881 366.158 94.7881Z" fill="#F62E46"/>
    <rect x="399" y="78" width="44" height="44" rx="12" fill="#F5F6F9"/>
    <path fill-rule="evenodd" clip-rule="evenodd" d="M421 97.7147C421 97.3991 420.744 97.1433 420.429 97.1433C420.113 97.1433 419.857 97.3991 419.857 97.7147V98.8576H418.714C418.399 98.8576 418.143 99.1134 418.143 99.429C418.143 99.7446 418.399 100 418.714 100H419.857V101.143C419.857 101.459 420.113 101.715 420.429 101.715C420.744 101.715 421 101.459 421 101.143V100H422.143C422.458 100 422.714 99.7446 422.714 99.429C422.714 99.1134 422.458 98.8576 422.143 98.8576H421V97.7147Z" fill="#555D74"/>
    <path fill-rule="evenodd" clip-rule="evenodd" d="M420.429 94.2861C417.588 94.2861 415.286 96.5887 415.286 99.429C415.286 102.269 417.588 104.572 420.429 104.572C421.643 104.572 422.759 104.151 423.639 103.447L426.31 106.119C426.533 106.342 426.895 106.342 427.118 106.119C427.341 105.896 427.341 105.534 427.118 105.311L424.447 102.639C425.151 101.759 425.571 100.643 425.571 99.429C425.571 96.5887 423.269 94.2861 420.429 94.2861ZM420.429 95.429C418.219 95.429 416.429 97.2199 416.429 99.429C416.429 101.638 418.219 103.429 420.429 103.429C422.638 103.429 424.429 101.638 424.429 99.429C424.429 97.2199 422.638 95.429 420.429 95.429Z" fill="#555D74"/>
    <rect x="0.5" y="0.5" width="458" height="145" rx="19.5" stroke="#EBEDF2"/>
</svg>