<svg width="489" height="146" viewBox="0 0 489 146" fill="none" xmlns="http://www.w3.org/2000/svg">
    <rect x="0.5" y="0.5" width="458" height="145" rx="19.5" fill="white"/>
    <path d="M20.338 40.18C19.478 40.18 18.752 39.99 18.16 39.61C17.568 39.226 17.12 38.696 16.816 38.02C16.512 37.344 16.36 36.564 16.36 35.68C16.36 34.796 16.512 34.016 16.816 33.34C17.12 32.664 17.568 32.136 18.16 31.756C18.752 31.372 19.478 31.18 20.338 31.18C21.202 31.18 21.928 31.372 22.516 31.756C23.108 32.136 23.556 32.664 23.86 33.34C24.168 34.016 24.322 34.796 24.322 35.68C24.322 36.564 24.168 37.344 23.86 38.02C23.556 38.696 23.108 39.226 22.516 39.61C21.928 39.99 21.202 40.18 20.338 40.18ZM20.338 39.334C21.014 39.334 21.578 39.18 22.03 38.872C22.482 38.564 22.82 38.136 23.044 37.588C23.272 37.036 23.386 36.4 23.386 35.68C23.386 34.96 23.272 34.326 23.044 33.778C22.82 33.23 22.482 32.802 22.03 32.494C21.578 32.186 21.014 32.03 20.338 32.026C19.662 32.026 19.1 32.18 18.652 32.488C18.204 32.796 17.866 33.226 17.638 33.778C17.414 34.326 17.3 34.96 17.296 35.68C17.292 36.4 17.402 37.034 17.626 37.582C17.854 38.126 18.194 38.554 18.646 38.866C19.098 39.174 19.662 39.33 20.338 39.334ZM31.0916 41.122V40H25.5176V33.52H26.3996V39.154H29.7896V33.52H30.6716V39.184H31.9736V41.122H31.0916ZM35.6718 40.18C35.0398 40.18 34.4918 40.04 34.0278 39.76C33.5678 39.48 33.2098 39.086 32.9538 38.578C32.6978 38.07 32.5698 37.474 32.5698 36.79C32.5698 36.082 32.6958 35.47 32.9478 34.954C33.1998 34.438 33.5538 34.04 34.0098 33.76C34.4698 33.48 35.0118 33.34 35.6358 33.34C36.2758 33.34 36.8218 33.488 37.2738 33.784C37.7258 34.076 38.0678 34.496 38.2998 35.044C38.5318 35.592 38.6378 36.246 38.6178 37.006H37.7178V36.694C37.7018 35.854 37.5198 35.22 37.1718 34.792C36.8278 34.364 36.3238 34.15 35.6598 34.15C34.9638 34.15 34.4298 34.376 34.0578 34.828C33.6898 35.28 33.5058 35.924 33.5058 36.76C33.5058 37.576 33.6898 38.21 34.0578 38.662C34.4298 39.11 34.9558 39.334 35.6358 39.334C36.0998 39.334 36.5038 39.228 36.8478 39.016C37.1958 38.8 37.4698 38.49 37.6698 38.086L38.4918 38.404C38.2358 38.968 37.8578 39.406 37.3578 39.718C36.8618 40.026 36.2998 40.18 35.6718 40.18ZM33.1938 37.006V36.268H38.1438V37.006H33.1938ZM39.9434 40V33.52H40.8254V36.334H44.4794V33.52H45.3614V40H44.4794V37.18H40.8254V40H39.9434ZM47.0332 40L47.0392 33.52H47.9272V36.64L50.8192 33.52H51.9952L48.9592 36.76L52.3912 40H51.1072L47.9272 36.88V40H47.0332ZM54.8463 40.18C54.3583 40.18 53.9483 40.092 53.6163 39.916C53.2883 39.74 53.0423 39.506 52.8783 39.214C52.7143 38.922 52.6323 38.604 52.6323 38.26C52.6323 37.908 52.7023 37.608 52.8423 37.36C52.9863 37.108 53.1803 36.902 53.4243 36.742C53.6723 36.582 53.9583 36.46 54.2823 36.376C54.6103 36.296 54.9723 36.226 55.3683 36.166C55.7683 36.102 56.1583 36.048 56.5383 36.004C56.9223 35.956 57.2583 35.91 57.5463 35.866L57.2343 36.058C57.2463 35.418 57.1223 34.944 56.8623 34.636C56.6023 34.328 56.1503 34.174 55.5063 34.174C55.0623 34.174 54.6863 34.274 54.3783 34.474C54.0743 34.674 53.8603 34.99 53.7363 35.422L52.8783 35.17C53.0263 34.59 53.3243 34.14 53.7723 33.82C54.2203 33.5 54.8023 33.34 55.5183 33.34C56.1103 33.34 56.6123 33.452 57.0243 33.676C57.4403 33.896 57.7343 34.216 57.9063 34.636C57.9863 34.824 58.0383 35.034 58.0623 35.266C58.0863 35.498 58.0983 35.734 58.0983 35.974V40H57.3123V38.374L57.5403 38.47C57.3203 39.026 56.9783 39.45 56.5143 39.742C56.0503 40.034 55.4943 40.18 54.8463 40.18ZM54.9483 39.418C55.3603 39.418 55.7203 39.344 56.0283 39.196C56.3363 39.048 56.5843 38.846 56.7723 38.59C56.9603 38.33 57.0823 38.038 57.1383 37.714C57.1863 37.506 57.2123 37.278 57.2163 37.03C57.2203 36.778 57.2223 36.59 57.2223 36.466L57.5583 36.64C57.2583 36.68 56.9323 36.72 56.5803 36.76C56.2323 36.8 55.8883 36.846 55.5483 36.898C55.2123 36.95 54.9083 37.012 54.6363 37.084C54.4523 37.136 54.2743 37.21 54.1023 37.306C53.9303 37.398 53.7883 37.522 53.6763 37.678C53.5683 37.834 53.5143 38.028 53.5143 38.26C53.5143 38.448 53.5603 38.63 53.6523 38.806C53.7483 38.982 53.9003 39.128 54.1083 39.244C54.3203 39.36 54.6003 39.418 54.9483 39.418Z" fill="#9EA2B0"/>
    <path d="M71.13 40.21C70.486 40.21 69.9167 40.0817 69.422 39.825C68.9273 39.5637 68.54 39.202 68.26 38.74C67.98 38.278 67.84 37.739 67.84 37.123C67.84 36.521 67.9823 35.9773 68.267 35.492C68.5563 35.0067 68.9903 34.6333 69.569 34.372L69.548 34.827C69.0767 34.5983 68.715 34.2763 68.463 33.861C68.211 33.441 68.085 32.9767 68.085 32.468C68.085 31.8987 68.2157 31.4087 68.477 30.998C68.7383 30.5873 69.0977 30.27 69.555 30.046C70.0123 29.822 70.5373 29.71 71.13 29.71C71.7227 29.71 72.2477 29.822 72.705 30.046C73.1623 30.27 73.5217 30.5873 73.783 30.998C74.0443 31.4087 74.175 31.8987 74.175 32.468C74.175 32.9767 74.056 33.4387 73.818 33.854C73.58 34.2647 73.2137 34.589 72.719 34.827L72.691 34.379C73.2697 34.631 73.7037 35.002 73.993 35.492C74.287 35.9773 74.434 36.521 74.434 37.123C74.434 37.739 74.2917 38.278 74.007 38.74C73.727 39.202 73.3373 39.5637 72.838 39.825C72.3433 40.0817 71.774 40.21 71.13 40.21ZM71.13 39.02C71.718 39.02 72.194 38.859 72.558 38.537C72.9267 38.2103 73.111 37.739 73.111 37.123C73.111 36.5023 72.929 36.031 72.565 35.709C72.2057 35.3823 71.7273 35.219 71.13 35.219C70.5373 35.219 70.059 35.3823 69.695 35.709C69.3357 36.031 69.156 36.5023 69.156 37.123C69.156 37.739 69.338 38.2103 69.702 38.537C70.066 38.859 70.542 39.02 71.13 39.02ZM71.13 34.022C71.6433 34.022 72.0587 33.8937 72.376 33.637C72.6933 33.3757 72.852 32.986 72.852 32.468C72.852 31.95 72.6933 31.5627 72.376 31.306C72.0587 31.0447 71.6433 30.914 71.13 30.914C70.6213 30.914 70.206 31.0447 69.884 31.306C69.5667 31.5627 69.408 31.95 69.408 32.468C69.408 32.986 69.5667 33.3757 69.884 33.637C70.206 33.8937 70.6213 34.022 71.13 34.022ZM76.4755 40V38.628H77.8475V40H76.4755ZM84.3789 40V38.145H79.7449V36.962L83.0699 29.92H84.4839L81.1589 36.962H84.3789V34.127H85.6389V36.962H86.6889V38.145H85.6389V40H84.3789ZM90.9128 29.92H92.1798L89.4918 40H88.2248L90.9128 29.92ZM95.7546 40V31.299L93.8576 32.447V31.054L95.7546 29.92H97.0216V40H95.7546ZM103.087 40.21C102.434 40.21 101.85 40.063 101.337 39.769C100.828 39.4703 100.425 39.0667 100.126 38.558C99.8321 38.0447 99.6851 37.4613 99.6851 36.808V33.112C99.6851 32.4587 99.8321 31.8753 100.126 31.362C100.425 30.8487 100.828 30.445 101.337 30.151C101.85 29.857 102.434 29.71 103.087 29.71C103.74 29.71 104.324 29.857 104.837 30.151C105.35 30.445 105.754 30.8487 106.048 31.362C106.342 31.8753 106.489 32.4587 106.489 33.112V36.808C106.489 37.4613 106.342 38.0447 106.048 38.558C105.754 39.0667 105.35 39.4703 104.837 39.769C104.324 40.063 103.74 40.21 103.087 40.21ZM103.087 39.013C103.484 39.013 103.843 38.9173 104.165 38.726C104.487 38.5347 104.744 38.278 104.935 37.956C105.126 37.6293 105.222 37.27 105.222 36.878V33.035C105.222 32.6383 105.126 32.279 104.935 31.957C104.744 31.635 104.487 31.3783 104.165 31.187C103.843 30.9957 103.484 30.9 103.087 30.9C102.695 30.9 102.336 30.9957 102.009 31.187C101.687 31.3783 101.43 31.635 101.239 31.957C101.048 32.279 100.952 32.6383 100.952 33.035V36.878C100.952 37.27 101.048 37.6293 101.239 37.956C101.43 38.278 101.687 38.5347 102.009 38.726C102.336 38.9173 102.695 39.013 103.087 39.013Z" fill="#F62E46"/>
    <path d="M17.12 60V48.48H24.432V49.832H18.544V52.896H21.672C21.784 52.896 21.9173 52.9013 22.072 52.912C22.2267 52.9173 22.376 52.9307 22.52 52.952C23.128 53.0267 23.6427 53.2293 24.064 53.56C24.4907 53.8853 24.8133 54.2987 25.032 54.8C25.256 55.3013 25.368 55.8507 25.368 56.448C25.368 57.04 25.2587 57.5867 25.04 58.088C24.8213 58.5893 24.4987 59.0053 24.072 59.336C23.6507 59.6613 23.1333 59.864 22.52 59.944C22.376 59.96 22.2267 59.9733 22.072 59.984C21.9173 59.9947 21.784 60 21.672 60H17.12ZM18.544 58.648H21.624C21.7253 58.648 21.84 58.6427 21.968 58.632C22.1013 58.6213 22.2267 58.6053 22.344 58.584C22.8987 58.472 23.2987 58.208 23.544 57.792C23.7893 57.3707 23.912 56.9227 23.912 56.448C23.912 55.9627 23.7893 55.5147 23.544 55.104C23.2987 54.688 22.8987 54.424 22.344 54.312C22.2267 54.2853 22.1013 54.2693 21.968 54.264C21.84 54.2533 21.7253 54.248 21.624 54.248H18.544V58.648ZM34.0358 51.36V60H32.6598V53.632L28.1318 60H26.9558V51.36H28.3318V57.64L32.8678 51.36H34.0358ZM39.7883 60.248C38.9723 60.2427 38.2763 60.0667 37.7003 59.72C37.1243 59.368 36.6763 58.8533 36.3563 58.176C36.0363 57.4987 35.8576 56.6693 35.8203 55.688C35.7989 55.2347 35.8043 54.736 35.8363 54.192C35.8736 53.648 35.9323 53.1253 36.0123 52.624C36.0976 52.1227 36.2043 51.7093 36.3322 51.384C36.4763 50.9947 36.6789 50.6347 36.9403 50.304C37.2069 49.968 37.5056 49.6907 37.8363 49.472C38.1723 49.2427 38.5483 49.064 38.9643 48.936C39.3803 48.808 39.8149 48.7093 40.2683 48.64C40.7269 48.5653 41.1856 48.5013 41.6443 48.448C42.1029 48.3893 42.5403 48.32 42.9563 48.24L43.1003 49.52C42.8069 49.584 42.4603 49.64 42.0603 49.688C41.6603 49.7307 41.2443 49.7813 40.8123 49.84C40.3856 49.8987 39.9749 49.9813 39.5803 50.088C39.1909 50.1893 38.8549 50.3307 38.5723 50.512C38.1563 50.7627 37.8363 51.1387 37.6123 51.64C37.3936 52.136 37.2603 52.6933 37.2122 53.312C37.5429 52.8 37.9723 52.424 38.5003 52.184C39.0283 51.944 39.5909 51.824 40.1883 51.824C40.9616 51.824 41.6283 52.0053 42.1883 52.368C42.7483 52.7253 43.1776 53.2187 43.4763 53.848C43.7803 54.4773 43.9323 55.1947 43.9323 56C43.9323 56.8533 43.7616 57.6 43.4202 58.24C43.0789 58.88 42.5963 59.376 41.9723 59.728C41.3536 60.08 40.6256 60.2533 39.7883 60.248ZM39.8763 58.896C40.7136 58.896 41.3483 58.6373 41.7803 58.12C42.2123 57.5973 42.4283 56.904 42.4283 56.04C42.4283 55.1547 42.2043 54.4587 41.7563 53.952C41.3083 53.44 40.6789 53.184 39.8683 53.184C39.0469 53.184 38.4176 53.44 37.9803 53.952C37.5483 54.4587 37.3323 55.1547 37.3323 56.04C37.3323 56.9307 37.5509 57.6293 37.9883 58.136C38.4256 58.6427 39.0549 58.896 39.8763 58.896ZM44.8981 60V58.776C45.2181 58.8347 45.4608 58.824 45.6261 58.744C45.7968 58.6587 45.9221 58.512 46.0021 58.304C46.0875 58.0907 46.1568 57.824 46.2101 57.504C46.3008 56.9973 46.3781 56.432 46.4421 55.808C46.5115 55.184 46.5728 54.5013 46.6261 53.76C46.6848 53.0133 46.7381 52.2133 46.7861 51.36H52.8261V60H51.4021V52.712H48.0821C48.0501 53.2027 48.0101 53.7067 47.9621 54.224C47.9195 54.7413 47.8741 55.2453 47.8261 55.736C47.7781 56.2213 47.7248 56.6747 47.6661 57.096C47.6128 57.512 47.5541 57.872 47.4901 58.176C47.3888 58.6987 47.2475 59.1173 47.0661 59.432C46.8848 59.7413 46.6235 59.9413 46.2821 60.032C45.9408 60.128 45.4795 60.1173 44.8981 60ZM62.1451 51.36V60H60.7691V53.632L56.2411 60H55.0651V51.36H56.4411V57.64L60.9771 51.36H62.1451ZM68.0656 60.24C67.207 60.24 66.4656 60.0453 65.8416 59.656C65.223 59.2667 64.7456 58.728 64.4096 58.04C64.0736 57.352 63.9056 56.5627 63.9056 55.672C63.9056 54.7653 64.0763 53.9707 64.4176 53.288C64.759 52.6053 65.2416 52.0747 65.8656 51.696C66.4896 51.312 67.223 51.12 68.0656 51.12C68.9296 51.12 69.6736 51.3147 70.2976 51.704C70.9216 52.088 71.399 52.624 71.7296 53.312C72.0656 53.9947 72.2336 54.7813 72.2336 55.672C72.2336 56.5733 72.0656 57.368 71.7296 58.056C71.3936 58.7387 70.9136 59.2747 70.2896 59.664C69.6656 60.048 68.9243 60.24 68.0656 60.24ZM68.0656 58.888C68.9616 58.888 69.6283 58.5893 70.0656 57.992C70.503 57.3947 70.7216 56.6213 70.7216 55.672C70.7216 54.696 70.5003 53.92 70.0576 53.344C69.615 52.7627 68.951 52.472 68.0656 52.472C67.463 52.472 66.967 52.608 66.5776 52.88C66.1883 53.152 65.8976 53.528 65.7056 54.008C65.5136 54.488 65.4176 55.0427 65.4176 55.672C65.4176 56.6427 65.6416 57.4213 66.0896 58.008C66.5376 58.5947 67.1963 58.888 68.0656 58.888ZM76.0955 60V52.656H73.0875V51.36H80.5275V52.656H77.5195V60H76.0955ZM85.7859 60.24C84.9379 60.24 84.1965 60.0533 83.5619 59.68C82.9325 59.3013 82.4419 58.776 82.0899 58.104C81.7379 57.4267 81.5619 56.6373 81.5619 55.736C81.5619 54.792 81.7352 53.976 82.0819 53.288C82.4285 52.5947 82.9112 52.0613 83.5299 51.688C84.1539 51.3093 84.8845 51.12 85.7219 51.12C86.5912 51.12 87.3299 51.32 87.9379 51.72C88.5512 52.12 89.0099 52.6907 89.3139 53.432C89.6232 54.1733 89.7565 55.056 89.7139 56.08H88.2739V55.568C88.2579 54.5067 88.0419 53.7147 87.6259 53.192C87.2099 52.664 86.5912 52.4 85.7699 52.4C84.8899 52.4 84.2205 52.6827 83.7619 53.248C83.3032 53.8133 83.0739 54.624 83.0739 55.68C83.0739 56.6987 83.3032 57.488 83.7619 58.048C84.2205 58.608 84.8739 58.888 85.7219 58.888C86.2925 58.888 86.7885 58.7573 87.2099 58.496C87.6312 58.2347 87.9619 57.8587 88.2019 57.368L89.5699 57.84C89.2339 58.6027 88.7272 59.1947 88.0499 59.616C87.3779 60.032 86.6232 60.24 85.7859 60.24ZM82.5939 56.08V54.936H88.9779V56.08H82.5939ZM91.487 60L91.495 51.36H92.935V55.52L96.559 51.36H98.407L94.591 55.68L98.855 60H96.863L92.935 55.84V60H91.487ZM102.107 60.24C101.462 60.24 100.921 60.1227 100.483 59.888C100.051 59.648 99.7233 59.3333 99.4993 58.944C99.2806 58.5547 99.1713 58.128 99.1713 57.664C99.1713 57.2107 99.2566 56.8187 99.4273 56.488C99.6033 56.152 99.8486 55.8747 100.163 55.656C100.478 55.432 100.854 55.256 101.291 55.128C101.702 55.016 102.161 54.92 102.667 54.84C103.179 54.7547 103.697 54.6773 104.219 54.608C104.742 54.5387 105.23 54.472 105.683 54.408L105.171 54.704C105.187 53.936 105.033 53.368 104.707 53C104.387 52.632 103.833 52.448 103.043 52.448C102.521 52.448 102.062 52.568 101.667 52.808C101.278 53.0427 101.003 53.4267 100.843 53.96L99.4913 53.552C99.6993 52.7947 100.102 52.2 100.699 51.768C101.297 51.336 102.083 51.12 103.059 51.12C103.843 51.12 104.515 51.2613 105.075 51.544C105.641 51.8213 106.046 52.2427 106.291 52.808C106.414 53.0747 106.491 53.3653 106.523 53.68C106.555 53.9893 106.571 54.3147 106.571 54.656V60H105.307V57.928L105.603 58.12C105.278 58.8187 104.822 59.3467 104.235 59.704C103.654 60.0613 102.945 60.24 102.107 60.24ZM102.323 59.048C102.835 59.048 103.278 58.9573 103.651 58.776C104.03 58.5893 104.334 58.3467 104.563 58.048C104.793 57.744 104.942 57.4133 105.011 57.056C105.091 56.7893 105.134 56.4933 105.139 56.168C105.15 55.8373 105.155 55.584 105.155 55.408L105.651 55.624C105.187 55.688 104.731 55.7493 104.283 55.808C103.835 55.8667 103.411 55.9307 103.011 56C102.611 56.064 102.251 56.1413 101.931 56.232C101.697 56.3067 101.475 56.4027 101.267 56.52C101.065 56.6373 100.899 56.7893 100.771 56.976C100.649 57.1573 100.587 57.384 100.587 57.656C100.587 57.8907 100.646 58.1147 100.763 58.328C100.886 58.5413 101.073 58.7147 101.323 58.848C101.579 58.9813 101.913 59.048 102.323 59.048Z" fill="#0F1015"/>
    <path d="M19.39 97.18C18.942 97.18 18.528 97.088 18.148 96.904C17.768 96.72 17.444 96.466 17.176 96.142C16.908 95.818 16.716 95.446 16.6 95.026L17.446 94.798C17.522 95.11 17.66 95.38 17.86 95.608C18.06 95.832 18.294 96.006 18.562 96.13C18.834 96.254 19.118 96.316 19.414 96.316C19.798 96.316 20.142 96.224 20.446 96.04C20.754 95.852 20.998 95.604 21.178 95.296C21.358 94.988 21.448 94.65 21.448 94.282C21.448 93.902 21.354 93.56 21.166 93.256C20.978 92.948 20.73 92.704 20.422 92.524C20.114 92.344 19.778 92.254 19.414 92.254C19.006 92.254 18.654 92.344 18.358 92.524C18.062 92.7 17.826 92.922 17.65 93.19L16.846 92.854L17.11 88.36H21.724V89.206H17.5L17.938 88.792L17.704 92.626L17.482 92.332C17.73 92.048 18.03 91.826 18.382 91.666C18.734 91.506 19.104 91.426 19.492 91.426C20.024 91.426 20.504 91.554 20.932 91.81C21.36 92.062 21.7 92.404 21.952 92.836C22.204 93.268 22.33 93.75 22.33 94.282C22.33 94.81 22.196 95.294 21.928 95.734C21.66 96.17 21.304 96.52 20.86 96.784C20.416 97.048 19.926 97.18 19.39 97.18ZM26.3158 97.18C25.8678 97.18 25.4538 97.088 25.0738 96.904C24.6938 96.72 24.3698 96.466 24.1018 96.142C23.8338 95.818 23.6418 95.446 23.5258 95.026L24.3718 94.798C24.4478 95.11 24.5858 95.38 24.7858 95.608C24.9858 95.832 25.2198 96.006 25.4878 96.13C25.7598 96.254 26.0438 96.316 26.3398 96.316C26.7238 96.316 27.0678 96.224 27.3718 96.04C27.6798 95.852 27.9238 95.604 28.1038 95.296C28.2838 94.988 28.3738 94.65 28.3738 94.282C28.3738 93.902 28.2798 93.56 28.0918 93.256C27.9038 92.948 27.6558 92.704 27.3478 92.524C27.0398 92.344 26.7038 92.254 26.3398 92.254C25.9318 92.254 25.5798 92.344 25.2838 92.524C24.9878 92.7 24.7518 92.922 24.5758 93.19L23.7718 92.854L24.0358 88.36H28.6498V89.206H24.4258L24.8638 88.792L24.6298 92.626L24.4078 92.332C24.6558 92.048 24.9558 91.826 25.3078 91.666C25.6598 91.506 26.0298 91.426 26.4178 91.426C26.9498 91.426 27.4298 91.554 27.8578 91.81C28.2858 92.062 28.6258 92.404 28.8778 92.836C29.1298 93.268 29.2558 93.75 29.2558 94.282C29.2558 94.81 29.1218 95.294 28.8538 95.734C28.5858 96.17 28.2298 96.52 27.7858 96.784C27.3418 97.048 26.8518 97.18 26.3158 97.18ZM30.8596 97V95.974H31.8856V97H30.8596ZM34.2004 97L37.3804 89.218H33.3784V88.36H38.3224V89.218L35.1484 97H34.2004ZM42.5819 97.18C42.0499 97.18 41.5699 97.056 41.1419 96.808C40.7179 96.56 40.3819 96.224 40.1339 95.8C39.8859 95.372 39.7619 94.892 39.7619 94.36V91C39.7619 90.468 39.8859 89.99 40.1339 89.566C40.3819 89.138 40.7179 88.8 41.1419 88.552C41.5699 88.304 42.0499 88.18 42.5819 88.18C43.1139 88.18 43.5919 88.304 44.0159 88.552C44.4439 88.8 44.7819 89.138 45.0299 89.566C45.2779 89.99 45.4019 90.468 45.4019 91V94.36C45.4019 94.892 45.2779 95.372 45.0299 95.8C44.7819 96.224 44.4439 96.56 44.0159 96.808C43.5919 97.056 43.1139 97.18 42.5819 97.18ZM42.5819 96.328C42.9379 96.328 43.2619 96.242 43.5539 96.07C43.8459 95.894 44.0779 95.66 44.2499 95.368C44.4219 95.076 44.5079 94.754 44.5079 94.402V90.958C44.5079 90.602 44.4219 90.278 44.2499 89.986C44.0779 89.694 43.8459 89.462 43.5539 89.29C43.2619 89.114 42.9379 89.026 42.5819 89.026C42.2259 89.026 41.9019 89.114 41.6099 89.29C41.3179 89.462 41.0859 89.694 40.9139 89.986C40.7419 90.278 40.6559 90.602 40.6559 90.958V94.402C40.6559 94.754 40.7419 95.076 40.9139 95.368C41.0859 95.66 41.3179 95.894 41.6099 96.07C41.9019 96.242 42.2259 96.328 42.5819 96.328ZM50.0081 97.18C49.4681 97.18 48.9761 97.05 48.5321 96.79C48.0921 96.526 47.7401 96.17 47.4761 95.722C47.2161 95.27 47.0861 94.762 47.0861 94.198V91.204C47.0861 90.624 47.2161 90.108 47.4761 89.656C47.7361 89.2 48.0901 88.842 48.5381 88.582C48.9901 88.318 49.5021 88.186 50.0741 88.186C50.5661 88.186 51.0221 88.294 51.4421 88.51C51.8661 88.726 52.2121 89.028 52.4801 89.416L51.8021 89.974C51.6181 89.686 51.3741 89.456 51.0701 89.284C50.7661 89.112 50.4341 89.026 50.0741 89.026C49.6701 89.026 49.3101 89.124 48.9941 89.32C48.6781 89.516 48.4301 89.774 48.2501 90.094C48.0701 90.41 47.9801 90.754 47.9801 91.126V93.01L47.7581 92.758C48.0101 92.362 48.3401 92.042 48.7481 91.798C49.1601 91.554 49.6081 91.432 50.0921 91.432C50.6281 91.432 51.1101 91.56 51.5381 91.816C51.9661 92.068 52.3061 92.41 52.5581 92.842C52.8101 93.274 52.9361 93.758 52.9361 94.294C52.9361 94.826 52.8021 95.31 52.5341 95.746C52.2701 96.182 51.9161 96.53 51.4721 96.79C51.0321 97.05 50.5441 97.18 50.0081 97.18ZM50.0081 96.322C50.3841 96.322 50.7261 96.232 51.0341 96.052C51.3461 95.872 51.5921 95.628 51.7721 95.32C51.9561 95.012 52.0481 94.67 52.0481 94.294C52.0481 93.918 51.9561 93.576 51.7721 93.268C51.5921 92.956 51.3481 92.71 51.0401 92.53C50.7321 92.346 50.3901 92.254 50.0141 92.254C49.6381 92.254 49.2961 92.346 48.9881 92.53C48.6801 92.71 48.4341 92.956 48.2501 93.268C48.0701 93.576 47.9801 93.918 47.9801 94.294C47.9801 94.666 48.0701 95.006 48.2501 95.314C48.4301 95.622 48.6741 95.868 48.9821 96.052C49.2901 96.232 49.6321 96.322 50.0081 96.322ZM57.1615 97.18C56.6215 97.18 56.1435 97.072 55.7275 96.856C55.3155 96.64 54.9915 96.338 54.7555 95.95C54.5235 95.558 54.4075 95.1 54.4075 94.576C54.4075 94.04 54.5375 93.564 54.7975 93.148C55.0575 92.728 55.4535 92.41 55.9855 92.194L55.9735 92.542C55.5295 92.378 55.1915 92.11 54.9595 91.738C54.7275 91.366 54.6115 90.954 54.6115 90.502C54.6115 90.022 54.7215 89.61 54.9415 89.266C55.1615 88.918 55.4615 88.65 55.8415 88.462C56.2255 88.274 56.6655 88.18 57.1615 88.18C57.6575 88.18 58.0975 88.274 58.4815 88.462C58.8655 88.65 59.1675 88.918 59.3875 89.266C59.6075 89.61 59.7175 90.022 59.7175 90.502C59.7175 90.954 59.6055 91.364 59.3815 91.732C59.1615 92.1 58.8235 92.37 58.3675 92.542L58.3375 92.194C58.8695 92.406 59.2675 92.722 59.5315 93.142C59.7995 93.562 59.9335 94.04 59.9335 94.576C59.9335 95.1 59.8155 95.558 59.5795 95.95C59.3435 96.338 59.0175 96.64 58.6015 96.856C58.1855 97.072 57.7055 97.18 57.1615 97.18ZM57.1615 96.334C57.7055 96.334 58.1475 96.184 58.4875 95.884C58.8275 95.58 58.9975 95.144 58.9975 94.576C58.9975 94 58.8295 93.564 58.4935 93.268C58.1575 92.968 57.7135 92.818 57.1615 92.818C56.6095 92.818 56.1675 92.968 55.8355 93.268C55.5035 93.564 55.3375 94 55.3375 94.576C55.3375 95.144 55.5055 95.58 55.8415 95.884C56.1775 96.184 56.6175 96.334 57.1615 96.334ZM57.1615 91.966C57.6415 91.966 58.0315 91.844 58.3315 91.6C58.6315 91.352 58.7815 90.986 58.7815 90.502C58.7815 90.018 58.6315 89.656 58.3315 89.416C58.0315 89.172 57.6415 89.05 57.1615 89.05C56.6815 89.05 56.2915 89.172 55.9915 89.416C55.6955 89.656 55.5475 90.018 55.5475 90.502C55.5475 90.986 55.6955 91.352 55.9915 91.6C56.2915 91.844 56.6815 91.966 57.1615 91.966ZM62.9944 97V89.344L61.3684 90.322V89.332L62.9944 88.36H63.8884V97H62.9944ZM67.6702 97V89.344L66.0442 90.322V89.332L67.6702 88.36H68.5642V97H67.6702ZM70.2395 98.254L70.2935 97.816C70.4535 97.828 70.5695 97.796 70.6415 97.72C70.7135 97.644 70.7575 97.542 70.7735 97.414C70.7895 97.286 70.7935 97.148 70.7855 97H70.2395V95.734H71.2655V97.24C71.2655 97.608 71.1715 97.884 70.9835 98.068C70.7995 98.252 70.5515 98.314 70.2395 98.254ZM78.2714 97.174C77.8434 97.174 77.4494 97.098 77.0894 96.946C76.7294 96.794 76.4194 96.578 76.1594 96.298C75.8994 96.014 75.7094 95.676 75.5894 95.284L76.4294 95.032C76.5734 95.46 76.8094 95.784 77.1374 96.004C77.4694 96.224 77.8434 96.33 78.2594 96.322C78.6434 96.314 78.9734 96.228 79.2494 96.064C79.5294 95.9 79.7434 95.672 79.8914 95.38C80.0394 95.088 80.1134 94.75 80.1134 94.366C80.1134 93.778 79.9414 93.306 79.5974 92.95C79.2574 92.59 78.8074 92.41 78.2474 92.41C78.0914 92.41 77.9274 92.432 77.7554 92.476C77.5834 92.516 77.4234 92.574 77.2754 92.65L76.8314 91.948L80.1914 88.846L80.3354 89.206H75.9314V88.36H80.9234V89.218L77.9954 92.014L77.9834 91.666C78.5834 91.59 79.1114 91.658 79.5674 91.87C80.0234 92.082 80.3794 92.406 80.6354 92.842C80.8954 93.274 81.0254 93.782 81.0254 94.366C81.0254 94.918 80.9054 95.406 80.6654 95.83C80.4294 96.25 80.1034 96.58 79.6874 96.82C79.2714 97.056 78.7994 97.174 78.2714 97.174ZM83.0442 97L86.2242 89.218H82.2222V88.36H87.1662V89.218L83.9922 97H83.0442ZM87.9768 97V95.974H89.0028V97H87.9768ZM93.7776 97.18C93.2376 97.18 92.7456 97.05 92.3016 96.79C91.8616 96.526 91.5096 96.17 91.2456 95.722C90.9856 95.27 90.8556 94.762 90.8556 94.198V91.204C90.8556 90.624 90.9856 90.108 91.2456 89.656C91.5056 89.2 91.8596 88.842 92.3076 88.582C92.7596 88.318 93.2716 88.186 93.8436 88.186C94.3356 88.186 94.7916 88.294 95.2116 88.51C95.6356 88.726 95.9816 89.028 96.2496 89.416L95.5716 89.974C95.3876 89.686 95.1436 89.456 94.8396 89.284C94.5356 89.112 94.2036 89.026 93.8436 89.026C93.4396 89.026 93.0796 89.124 92.7636 89.32C92.4476 89.516 92.1996 89.774 92.0196 90.094C91.8396 90.41 91.7496 90.754 91.7496 91.126V93.01L91.5276 92.758C91.7796 92.362 92.1096 92.042 92.5176 91.798C92.9296 91.554 93.3776 91.432 93.8616 91.432C94.3976 91.432 94.8796 91.56 95.3076 91.816C95.7356 92.068 96.0756 92.41 96.3276 92.842C96.5796 93.274 96.7056 93.758 96.7056 94.294C96.7056 94.826 96.5716 95.31 96.3036 95.746C96.0396 96.182 95.6856 96.53 95.2416 96.79C94.8016 97.05 94.3136 97.18 93.7776 97.18ZM93.7776 96.322C94.1536 96.322 94.4956 96.232 94.8036 96.052C95.1156 95.872 95.3616 95.628 95.5416 95.32C95.7256 95.012 95.8176 94.67 95.8176 94.294C95.8176 93.918 95.7256 93.576 95.5416 93.268C95.3616 92.956 95.1176 92.71 94.8096 92.53C94.5016 92.346 94.1596 92.254 93.7836 92.254C93.4076 92.254 93.0656 92.346 92.7576 92.53C92.4496 92.71 92.2036 92.956 92.0196 93.268C91.8396 93.576 91.7496 93.918 91.7496 94.294C91.7496 94.666 91.8396 95.006 92.0196 95.314C92.1996 95.622 92.4436 95.868 92.7516 96.052C93.0596 96.232 93.4016 96.322 93.7776 96.322ZM100.847 97.18C100.399 97.18 99.985 97.088 99.605 96.904C99.225 96.72 98.901 96.466 98.633 96.142C98.365 95.818 98.173 95.446 98.057 95.026L98.903 94.798C98.979 95.11 99.117 95.38 99.317 95.608C99.517 95.832 99.751 96.006 100.019 96.13C100.291 96.254 100.575 96.316 100.871 96.316C101.255 96.316 101.599 96.224 101.903 96.04C102.211 95.852 102.455 95.604 102.635 95.296C102.815 94.988 102.905 94.65 102.905 94.282C102.905 93.902 102.811 93.56 102.623 93.256C102.435 92.948 102.187 92.704 101.879 92.524C101.571 92.344 101.235 92.254 100.871 92.254C100.463 92.254 100.111 92.344 99.815 92.524C99.519 92.7 99.283 92.922 99.107 93.19L98.303 92.854L98.567 88.36H103.181V89.206H98.957L99.395 88.792L99.161 92.626L98.939 92.332C99.187 92.048 99.487 91.826 99.839 91.666C100.191 91.506 100.561 91.426 100.949 91.426C101.481 91.426 101.961 91.554 102.389 91.81C102.817 92.062 103.157 92.404 103.409 92.836C103.661 93.268 103.787 93.75 103.787 94.282C103.787 94.81 103.653 95.294 103.385 95.734C103.117 96.17 102.761 96.52 102.317 96.784C101.873 97.048 101.383 97.18 100.847 97.18ZM107.857 97.18C107.317 97.18 106.839 97.072 106.423 96.856C106.011 96.64 105.687 96.338 105.451 95.95C105.219 95.558 105.103 95.1 105.103 94.576C105.103 94.04 105.233 93.564 105.493 93.148C105.753 92.728 106.149 92.41 106.681 92.194L106.669 92.542C106.225 92.378 105.887 92.11 105.655 91.738C105.423 91.366 105.307 90.954 105.307 90.502C105.307 90.022 105.417 89.61 105.637 89.266C105.857 88.918 106.157 88.65 106.537 88.462C106.921 88.274 107.361 88.18 107.857 88.18C108.353 88.18 108.793 88.274 109.177 88.462C109.561 88.65 109.863 88.918 110.083 89.266C110.303 89.61 110.413 90.022 110.413 90.502C110.413 90.954 110.301 91.364 110.077 91.732C109.857 92.1 109.519 92.37 109.063 92.542L109.033 92.194C109.565 92.406 109.963 92.722 110.227 93.142C110.495 93.562 110.629 94.04 110.629 94.576C110.629 95.1 110.511 95.558 110.275 95.95C110.039 96.338 109.713 96.64 109.297 96.856C108.881 97.072 108.401 97.18 107.857 97.18ZM107.857 96.334C108.401 96.334 108.843 96.184 109.183 95.884C109.523 95.58 109.693 95.144 109.693 94.576C109.693 94 109.525 93.564 109.189 93.268C108.853 92.968 108.409 92.818 107.857 92.818C107.305 92.818 106.863 92.968 106.531 93.268C106.199 93.564 106.033 94 106.033 94.576C106.033 95.144 106.201 95.58 106.537 95.884C106.873 96.184 107.313 96.334 107.857 96.334ZM107.857 91.966C108.337 91.966 108.727 91.844 109.027 91.6C109.327 91.352 109.477 90.986 109.477 90.502C109.477 90.018 109.327 89.656 109.027 89.416C108.727 89.172 108.337 89.05 107.857 89.05C107.377 89.05 106.987 89.172 106.687 89.416C106.391 89.656 106.243 90.018 106.243 90.502C106.243 90.986 106.391 91.352 106.687 91.6C106.987 91.844 107.377 91.966 107.857 91.966ZM115.004 97.18C114.472 97.18 113.992 97.056 113.564 96.808C113.14 96.56 112.804 96.224 112.556 95.8C112.308 95.372 112.184 94.892 112.184 94.36V91C112.184 90.468 112.308 89.99 112.556 89.566C112.804 89.138 113.14 88.8 113.564 88.552C113.992 88.304 114.472 88.18 115.004 88.18C115.536 88.18 116.014 88.304 116.438 88.552C116.866 88.8 117.204 89.138 117.452 89.566C117.7 89.99 117.824 90.468 117.824 91V94.36C117.824 94.892 117.7 95.372 117.452 95.8C117.204 96.224 116.866 96.56 116.438 96.808C116.014 97.056 115.536 97.18 115.004 97.18ZM115.004 96.328C115.36 96.328 115.684 96.242 115.976 96.07C116.268 95.894 116.5 95.66 116.672 95.368C116.844 95.076 116.93 94.754 116.93 94.402V90.958C116.93 90.602 116.844 90.278 116.672 89.986C116.5 89.694 116.268 89.462 115.976 89.29C115.684 89.114 115.36 89.026 115.004 89.026C114.648 89.026 114.324 89.114 114.032 89.29C113.74 89.462 113.508 89.694 113.336 89.986C113.164 90.278 113.078 90.602 113.078 90.958V94.402C113.078 94.754 113.164 95.076 113.336 95.368C113.508 95.66 113.74 95.894 114.032 96.07C114.324 96.242 114.648 96.328 115.004 96.328ZM122.328 97.18C121.796 97.18 121.316 97.056 120.888 96.808C120.464 96.56 120.128 96.224 119.88 95.8C119.632 95.372 119.508 94.892 119.508 94.36V91C119.508 90.468 119.632 89.99 119.88 89.566C120.128 89.138 120.464 88.8 120.888 88.552C121.316 88.304 121.796 88.18 122.328 88.18C122.86 88.18 123.338 88.304 123.762 88.552C124.19 88.8 124.528 89.138 124.776 89.566C125.024 89.99 125.148 90.468 125.148 91V94.36C125.148 94.892 125.024 95.372 124.776 95.8C124.528 96.224 124.19 96.56 123.762 96.808C123.338 97.056 122.86 97.18 122.328 97.18ZM122.328 96.328C122.684 96.328 123.008 96.242 123.3 96.07C123.592 95.894 123.824 95.66 123.996 95.368C124.168 95.076 124.254 94.754 124.254 94.402V90.958C124.254 90.602 124.168 90.278 123.996 89.986C123.824 89.694 123.592 89.462 123.3 89.29C123.008 89.114 122.684 89.026 122.328 89.026C121.972 89.026 121.648 89.114 121.356 89.29C121.064 89.462 120.832 89.694 120.66 89.986C120.488 90.278 120.402 90.602 120.402 90.958V94.402C120.402 94.754 120.488 95.076 120.66 95.368C120.832 95.66 121.064 95.894 121.356 96.07C121.648 96.242 121.972 96.328 122.328 96.328ZM130.636 97V95.326H126.592V94.486L129.484 88.36H130.474L127.582 94.486H130.636V91.966H131.524V94.486H132.466V95.326H131.524V97H130.636Z" fill="#9EA2B0"/>
    <path d="M19.066 117V109.374H16.12V108.36H23.08V109.374H20.134V117H19.066ZM25.0336 117.18C24.5496 117.18 24.1436 117.092 23.8156 116.916C23.4916 116.736 23.2456 116.5 23.0776 116.208C22.9136 115.916 22.8316 115.596 22.8316 115.248C22.8316 114.908 22.8956 114.614 23.0236 114.366C23.1556 114.114 23.3396 113.906 23.5756 113.742C23.8116 113.574 24.0936 113.442 24.4216 113.346C24.7296 113.262 25.0736 113.19 25.4536 113.13C25.8376 113.066 26.2256 113.008 26.6176 112.956C27.0096 112.904 27.3756 112.854 27.7156 112.806L27.3316 113.028C27.3436 112.452 27.2276 112.026 26.9836 111.75C26.7436 111.474 26.3276 111.336 25.7356 111.336C25.3436 111.336 24.9996 111.426 24.7036 111.606C24.4116 111.782 24.2056 112.07 24.0856 112.47L23.0716 112.164C23.2276 111.596 23.5296 111.15 23.9776 110.826C24.4256 110.502 25.0156 110.34 25.7476 110.34C26.3356 110.34 26.8396 110.446 27.2596 110.658C27.6836 110.866 27.9876 111.182 28.1716 111.606C28.2636 111.806 28.3216 112.024 28.3456 112.26C28.3696 112.492 28.3816 112.736 28.3816 112.992V117H27.4336V115.446L27.6556 115.59C27.4116 116.114 27.0696 116.51 26.6296 116.778C26.1936 117.046 25.6616 117.18 25.0336 117.18ZM25.1956 116.286C25.5796 116.286 25.9116 116.218 26.1916 116.082C26.4756 115.942 26.7036 115.76 26.8756 115.536C27.0476 115.308 27.1596 115.06 27.2116 114.792C27.2716 114.592 27.3036 114.37 27.3076 114.126C27.3156 113.878 27.3196 113.688 27.3196 113.556L27.6916 113.718C27.3436 113.766 27.0016 113.812 26.6656 113.856C26.3296 113.9 26.0116 113.948 25.7116 114C25.4116 114.048 25.1416 114.106 24.9016 114.174C24.7256 114.23 24.5596 114.302 24.4036 114.39C24.2516 114.478 24.1276 114.592 24.0316 114.732C23.9396 114.868 23.8936 115.038 23.8936 115.242C23.8936 115.418 23.9376 115.586 24.0256 115.746C24.1176 115.906 24.2576 116.036 24.4456 116.136C24.6376 116.236 24.8876 116.286 25.1956 116.286ZM29.9356 117V110.52H30.9676V116.028H33.1996V110.52H34.2316V116.028H36.4576V110.52H37.4896V117H29.9356ZM39.1582 117L39.1642 110.52H40.2442V113.64L42.9622 110.52H44.3482L41.4862 113.76L44.6842 117H43.1902L40.2442 113.88V117H39.1582ZM47.855 117.18C47.219 117.18 46.663 117.04 46.187 116.76C45.715 116.476 45.347 116.082 45.083 115.578C44.819 115.07 44.687 114.478 44.687 113.802C44.687 113.094 44.817 112.482 45.077 111.966C45.337 111.446 45.699 111.046 46.163 110.766C46.631 110.482 47.179 110.34 47.807 110.34C48.459 110.34 49.013 110.49 49.469 110.79C49.929 111.09 50.273 111.518 50.501 112.074C50.733 112.63 50.833 113.292 50.801 114.06H49.721V113.676C49.709 112.88 49.547 112.286 49.235 111.894C48.923 111.498 48.459 111.3 47.843 111.3C47.183 111.3 46.681 111.512 46.337 111.936C45.993 112.36 45.821 112.968 45.821 113.76C45.821 114.524 45.993 115.116 46.337 115.536C46.681 115.956 47.171 116.166 47.807 116.166C48.235 116.166 48.607 116.068 48.923 115.872C49.239 115.676 49.487 115.394 49.667 115.026L50.693 115.38C50.441 115.952 50.061 116.396 49.553 116.712C49.049 117.024 48.483 117.18 47.855 117.18ZM45.461 114.06V113.202H50.249V114.06H45.461ZM52.1309 117V110.52H53.1989V113.25H56.6069V110.52H57.6749V117H56.6069V114.264H53.1989V117H52.1309ZM61.0716 117V111.492H58.8156V110.52H64.3956V111.492H62.1396V117H61.0716ZM68.1442 117.18C67.4882 117.18 66.9302 117.034 66.4702 116.742C66.0142 116.446 65.6662 116.04 65.4262 115.524C65.1862 115.008 65.0622 114.42 65.0542 113.76C65.0622 113.084 65.1882 112.49 65.4322 111.978C65.6802 111.462 66.0342 111.06 66.4942 110.772C66.9542 110.484 67.5082 110.34 68.1562 110.34C68.8402 110.34 69.4282 110.508 69.9202 110.844C70.4162 111.18 70.7482 111.64 70.9162 112.224L69.8602 112.542C69.7242 112.166 69.5022 111.874 69.1942 111.666C68.8902 111.458 68.5402 111.354 68.1442 111.354C67.7002 111.354 67.3342 111.458 67.0462 111.666C66.7582 111.87 66.5442 112.154 66.4042 112.518C66.2642 112.878 66.1922 113.292 66.1882 113.76C66.1962 114.48 66.3622 115.062 66.6862 115.506C67.0142 115.946 67.5002 116.166 68.1442 116.166C68.5682 116.166 68.9202 116.07 69.2002 115.878C69.4802 115.682 69.6922 115.4 69.8362 115.032L70.9162 115.314C70.6922 115.918 70.3422 116.38 69.8662 116.7C69.3902 117.02 68.8162 117.18 68.1442 117.18ZM72.1348 117L72.1408 110.52H73.2208V113.64L75.9388 110.52H77.3248L74.4628 113.76L77.6608 117H76.1668L73.2208 113.88V117H72.1348ZM80.1 117.18C79.616 117.18 79.21 117.092 78.882 116.916C78.558 116.736 78.312 116.5 78.144 116.208C77.98 115.916 77.898 115.596 77.898 115.248C77.898 114.908 77.962 114.614 78.09 114.366C78.222 114.114 78.406 113.906 78.642 113.742C78.878 113.574 79.16 113.442 79.488 113.346C79.796 113.262 80.14 113.19 80.52 113.13C80.904 113.066 81.292 113.008 81.684 112.956C82.076 112.904 82.442 112.854 82.782 112.806L82.398 113.028C82.41 112.452 82.294 112.026 82.05 111.75C81.81 111.474 81.394 111.336 80.802 111.336C80.41 111.336 80.066 111.426 79.77 111.606C79.478 111.782 79.272 112.07 79.152 112.47L78.138 112.164C78.294 111.596 78.596 111.15 79.044 110.826C79.492 110.502 80.082 110.34 80.814 110.34C81.402 110.34 81.906 110.446 82.326 110.658C82.75 110.866 83.054 111.182 83.238 111.606C83.33 111.806 83.388 112.024 83.412 112.26C83.436 112.492 83.448 112.736 83.448 112.992V117H82.5V115.446L82.722 115.59C82.478 116.114 82.136 116.51 81.696 116.778C81.26 117.046 80.728 117.18 80.1 117.18ZM80.262 116.286C80.646 116.286 80.978 116.218 81.258 116.082C81.542 115.942 81.77 115.76 81.942 115.536C82.114 115.308 82.226 115.06 82.278 114.792C82.338 114.592 82.37 114.37 82.374 114.126C82.382 113.878 82.386 113.688 82.386 113.556L82.758 113.718C82.41 113.766 82.068 113.812 81.732 113.856C81.396 113.9 81.078 113.948 80.778 114C80.478 114.048 80.208 114.106 79.968 114.174C79.792 114.23 79.626 114.302 79.47 114.39C79.318 114.478 79.194 114.592 79.098 114.732C79.006 114.868 78.96 115.038 78.96 115.242C78.96 115.418 79.004 115.586 79.092 115.746C79.184 115.906 79.324 116.036 79.512 116.136C79.704 116.236 79.954 116.286 80.262 116.286ZM89.01 117V114.654H87.612C87.448 114.654 87.266 114.648 87.066 114.636C86.87 114.62 86.686 114.598 86.514 114.57C86.046 114.482 85.65 114.276 85.326 113.952C85.006 113.628 84.846 113.18 84.846 112.608C84.846 112.052 84.996 111.606 85.296 111.27C85.6 110.93 85.974 110.71 86.418 110.61C86.618 110.562 86.82 110.536 87.024 110.532C87.232 110.524 87.408 110.52 87.552 110.52H90.078L90.084 117H89.01ZM84.648 117L86.37 114.36H87.522L85.8 117H84.648ZM87.534 113.772H89.01V111.402H87.534C87.442 111.402 87.32 111.406 87.168 111.414C87.02 111.422 86.878 111.446 86.742 111.486C86.614 111.522 86.488 111.588 86.364 111.684C86.244 111.78 86.144 111.904 86.064 112.056C85.984 112.208 85.944 112.388 85.944 112.596C85.944 112.896 86.028 113.14 86.196 113.328C86.364 113.512 86.568 113.636 86.808 113.7C86.94 113.732 87.07 113.752 87.198 113.76C87.33 113.768 87.442 113.772 87.534 113.772ZM91.6497 118.344L91.7157 117.846C91.8837 117.858 92.0097 117.826 92.0937 117.75C92.1777 117.674 92.2317 117.57 92.2557 117.438C92.2797 117.306 92.2837 117.16 92.2677 117H91.6497V115.644H92.8257V117.18C92.8257 117.6 92.7217 117.916 92.5137 118.128C92.3097 118.34 92.0217 118.412 91.6497 118.344ZM97.2719 116.994L97.2779 116.034L101.112 112.584C101.432 112.296 101.646 112.024 101.754 111.768C101.866 111.508 101.922 111.242 101.922 110.97C101.922 110.638 101.846 110.338 101.694 110.07C101.542 109.802 101.334 109.59 101.07 109.434C100.81 109.278 100.514 109.2 100.182 109.2C99.8379 109.2 99.5319 109.282 99.2639 109.446C98.9959 109.606 98.7839 109.82 98.6279 110.088C98.4759 110.356 98.4019 110.648 98.4059 110.964H97.3139C97.3139 110.42 97.4399 109.94 97.6919 109.524C97.9439 109.104 98.2859 108.776 98.7179 108.54C99.1539 108.3 99.6479 108.18 100.2 108.18C100.736 108.18 101.216 108.304 101.64 108.552C102.064 108.796 102.398 109.13 102.642 109.554C102.89 109.974 103.014 110.45 103.014 110.982C103.014 111.358 102.966 111.684 102.87 111.96C102.778 112.236 102.634 112.492 102.438 112.728C102.242 112.96 101.996 113.208 101.7 113.472L98.5139 116.334L98.3759 115.974H103.014V116.994H97.2719ZM107.365 117.18C106.805 117.18 106.305 117.054 105.865 116.802C105.429 116.546 105.083 116.2 104.827 115.764C104.575 115.324 104.449 114.824 104.449 114.264V111.096C104.449 110.536 104.575 110.036 104.827 109.596C105.083 109.156 105.429 108.81 105.865 108.558C106.305 108.306 106.805 108.18 107.365 108.18C107.925 108.18 108.425 108.306 108.865 108.558C109.305 108.81 109.651 109.156 109.903 109.596C110.155 110.036 110.281 110.536 110.281 111.096V114.264C110.281 114.824 110.155 115.324 109.903 115.764C109.651 116.2 109.305 116.546 108.865 116.802C108.425 117.054 107.925 117.18 107.365 117.18ZM107.365 116.154C107.705 116.154 108.013 116.072 108.289 115.908C108.565 115.744 108.785 115.524 108.949 115.248C109.113 114.968 109.195 114.66 109.195 114.324V111.03C109.195 110.69 109.113 110.382 108.949 110.106C108.785 109.83 108.565 109.61 108.289 109.446C108.013 109.282 107.705 109.2 107.365 109.2C107.029 109.2 106.721 109.282 106.441 109.446C106.165 109.61 105.945 109.83 105.781 110.106C105.617 110.382 105.535 110.69 105.535 111.03V114.324C105.535 114.66 105.617 114.968 105.781 115.248C105.945 115.524 106.165 115.744 106.441 115.908C106.721 116.072 107.029 116.154 107.365 116.154Z" fill="#0F1015"/>
    <rect x="349.5" y="30.5" width="19" height="19" rx="3.5" fill="white" stroke="#9EA2B0"/>
    <path d="M387.338 45.18C386.478 45.18 385.752 44.99 385.16 44.61C384.568 44.226 384.12 43.696 383.816 43.02C383.512 42.344 383.36 41.564 383.36 40.68C383.36 39.796 383.512 39.016 383.816 38.34C384.12 37.664 384.568 37.136 385.16 36.756C385.752 36.372 386.478 36.18 387.338 36.18C388.342 36.18 389.162 36.438 389.798 36.954C390.434 37.466 390.87 38.154 391.106 39.018L390.206 39.252C390.022 38.568 389.692 38.026 389.216 37.626C388.74 37.226 388.114 37.026 387.338 37.026C386.662 37.026 386.1 37.18 385.652 37.488C385.204 37.796 384.866 38.226 384.638 38.778C384.414 39.326 384.298 39.96 384.29 40.68C384.286 41.4 384.396 42.034 384.62 42.582C384.848 43.13 385.188 43.56 385.64 43.872C386.096 44.18 386.662 44.334 387.338 44.334C388.114 44.334 388.74 44.134 389.216 43.734C389.692 43.33 390.022 42.788 390.206 42.108L391.106 42.342C390.87 43.206 390.434 43.896 389.798 44.412C389.162 44.924 388.342 45.18 387.338 45.18ZM395.34 45.18C394.744 45.18 394.24 45.03 393.828 44.73C393.416 44.426 393.104 44.016 392.892 43.5C392.68 42.98 392.574 42.398 392.574 41.754C392.574 41.098 392.68 40.514 392.892 40.002C393.108 39.486 393.424 39.08 393.84 38.784C394.256 38.488 394.768 38.34 395.376 38.34C395.968 38.34 396.476 38.49 396.9 38.79C397.324 39.09 397.648 39.498 397.872 40.014C398.1 40.53 398.214 41.11 398.214 41.754C398.214 42.402 398.1 42.984 397.872 43.5C397.644 44.016 397.316 44.426 396.888 44.73C396.46 45.03 395.944 45.18 395.34 45.18ZM392.424 47.88V38.52H393.216V43.398H393.312V47.88H392.424ZM395.25 44.358C395.702 44.358 396.078 44.244 396.378 44.016C396.678 43.788 396.902 43.478 397.05 43.086C397.202 42.69 397.278 42.246 397.278 41.754C397.278 41.266 397.204 40.826 397.056 40.434C396.908 40.042 396.682 39.732 396.378 39.504C396.078 39.276 395.696 39.162 395.232 39.162C394.78 39.162 394.404 39.272 394.104 39.492C393.808 39.712 393.586 40.018 393.438 40.41C393.29 40.798 393.216 41.246 393.216 41.754C393.216 42.254 393.29 42.702 393.438 43.098C393.586 43.49 393.81 43.798 394.11 44.022C394.41 44.246 394.79 44.358 395.25 44.358ZM401.385 45.18C400.897 45.18 400.487 45.092 400.155 44.916C399.827 44.74 399.581 44.506 399.417 44.214C399.253 43.922 399.171 43.604 399.171 43.26C399.171 42.908 399.241 42.608 399.381 42.36C399.525 42.108 399.719 41.902 399.963 41.742C400.211 41.582 400.497 41.46 400.821 41.376C401.149 41.296 401.511 41.226 401.907 41.166C402.307 41.102 402.697 41.048 403.077 41.004C403.461 40.956 403.797 40.91 404.085 40.866L403.773 41.058C403.785 40.418 403.661 39.944 403.401 39.636C403.141 39.328 402.689 39.174 402.045 39.174C401.601 39.174 401.225 39.274 400.917 39.474C400.613 39.674 400.399 39.99 400.275 40.422L399.417 40.17C399.565 39.59 399.863 39.14 400.311 38.82C400.759 38.5 401.341 38.34 402.057 38.34C402.649 38.34 403.151 38.452 403.563 38.676C403.979 38.896 404.273 39.216 404.445 39.636C404.525 39.824 404.577 40.034 404.601 40.266C404.625 40.498 404.637 40.734 404.637 40.974V45H403.851V43.374L404.079 43.47C403.859 44.026 403.517 44.45 403.053 44.742C402.589 45.034 402.033 45.18 401.385 45.18ZM401.487 44.418C401.899 44.418 402.259 44.344 402.567 44.196C402.875 44.048 403.123 43.846 403.311 43.59C403.499 43.33 403.621 43.038 403.677 42.714C403.725 42.506 403.751 42.278 403.755 42.03C403.759 41.778 403.761 41.59 403.761 41.466L404.097 41.64C403.797 41.68 403.471 41.72 403.119 41.76C402.771 41.8 402.427 41.846 402.087 41.898C401.751 41.95 401.447 42.012 401.175 42.084C400.991 42.136 400.813 42.21 400.641 42.306C400.469 42.398 400.327 42.522 400.215 42.678C400.107 42.834 400.053 43.028 400.053 43.26C400.053 43.448 400.099 43.63 400.191 43.806C400.287 43.982 400.439 44.128 400.647 44.244C400.859 44.36 401.139 44.418 401.487 44.418ZM406.193 45V38.52H408.863C408.999 38.52 409.163 38.528 409.355 38.544C409.551 38.56 409.733 38.59 409.901 38.634C410.265 38.73 410.557 38.926 410.777 39.222C411.001 39.518 411.113 39.874 411.113 40.29C411.113 40.522 411.077 40.73 411.005 40.914C410.937 41.094 410.839 41.25 410.711 41.382C410.651 41.45 410.585 41.51 410.513 41.562C410.441 41.61 410.371 41.65 410.303 41.682C410.431 41.706 410.569 41.762 410.717 41.85C410.949 41.986 411.125 42.17 411.245 42.402C411.365 42.63 411.425 42.908 411.425 43.236C411.425 43.68 411.319 44.042 411.107 44.322C410.895 44.602 410.611 44.794 410.255 44.898C410.095 44.942 409.921 44.97 409.733 44.982C409.549 44.994 409.375 45 409.211 45H406.193ZM407.081 44.25H409.169C409.253 44.25 409.359 44.244 409.487 44.232C409.615 44.216 409.729 44.196 409.829 44.172C410.065 44.112 410.237 43.992 410.345 43.812C410.457 43.628 410.513 43.428 410.513 43.212C410.513 42.928 410.429 42.696 410.261 42.516C410.097 42.332 409.877 42.22 409.601 42.18C409.509 42.16 409.413 42.148 409.313 42.144C409.213 42.14 409.123 42.138 409.043 42.138H407.081V44.25ZM407.081 41.382H408.893C408.997 41.382 409.113 41.376 409.241 41.364C409.373 41.348 409.487 41.322 409.583 41.286C409.791 41.214 409.943 41.09 410.039 40.914C410.139 40.738 410.189 40.546 410.189 40.338C410.189 40.11 410.135 39.91 410.027 39.738C409.923 39.566 409.765 39.446 409.553 39.378C409.409 39.326 409.253 39.296 409.085 39.288C408.921 39.28 408.817 39.276 408.773 39.276H407.081V41.382ZM412.615 45V38.52H413.497V41.334H417.151V38.52H418.033V45H417.151V42.18H413.497V45H412.615ZM424.859 38.52V45H424.001V39.954L420.449 45H419.705V38.52H420.563V43.524L424.121 38.52H424.859ZM428.301 45V39.336H426.003V38.52H431.481V39.336H429.183V45H428.301ZM432.631 45L432.619 38.52H433.507V40.962H435.025C435.213 40.962 435.397 40.966 435.577 40.974C435.761 40.982 435.923 40.998 436.063 41.022C436.383 41.082 436.667 41.188 436.915 41.34C437.167 41.492 437.363 41.702 437.503 41.97C437.647 42.238 437.719 42.574 437.719 42.978C437.719 43.534 437.575 43.972 437.287 44.292C437.003 44.612 436.643 44.82 436.207 44.916C436.043 44.952 435.865 44.976 435.673 44.988C435.481 44.996 435.291 45 435.103 45H432.631ZM433.507 44.244H435.067C435.203 44.244 435.355 44.24 435.523 44.232C435.691 44.224 435.839 44.202 435.967 44.166C436.179 44.106 436.371 43.986 436.543 43.806C436.719 43.622 436.807 43.346 436.807 42.978C436.807 42.614 436.723 42.34 436.555 42.156C436.387 41.968 436.163 41.844 435.883 41.784C435.759 41.756 435.625 41.738 435.481 41.73C435.337 41.722 435.199 41.718 435.067 41.718H433.507V44.244Z" fill="#0F1015"/>
    <rect x="347" y="78" width="44" height="44" rx="12" fill="#F5F6F9"/>
    <path d="M366.158 94.7881C364.098 94.7881 362.429 96.4578 362.429 98.5174C362.429 100.582 363.254 101.615 366.711 104.303L368.298 105.538C368.711 105.859 369.289 105.859 369.702 105.538L371.29 104.303C374.746 101.615 375.572 100.582 375.572 98.5174C375.572 96.4578 373.902 94.7881 371.842 94.7881C370.773 94.7881 369.821 95.274 369 96.209C368.18 95.274 367.227 94.7881 366.158 94.7881Z" fill="#F62E46"/>
    <rect x="399" y="78" width="44" height="44" rx="12" fill="#F5F6F9"/>
    <path fill-rule="evenodd" clip-rule="evenodd" d="M421 97.7147C421 97.3991 420.744 97.1433 420.429 97.1433C420.113 97.1433 419.857 97.3991 419.857 97.7147V98.8576H418.714C418.399 98.8576 418.143 99.1134 418.143 99.429C418.143 99.7446 418.399 100 418.714 100H419.857V101.143C419.857 101.459 420.113 101.715 420.429 101.715C420.744 101.715 421 101.459 421 101.143V100H422.143C422.458 100 422.714 99.7446 422.714 99.429C422.714 99.1134 422.458 98.8576 422.143 98.8576H421V97.7147Z" fill="#555D74"/>
    <path fill-rule="evenodd" clip-rule="evenodd" d="M420.429 94.2861C417.588 94.2861 415.286 96.5887 415.286 99.429C415.286 102.269 417.588 104.572 420.429 104.572C421.643 104.572 422.759 104.151 423.639 103.447L426.31 106.119C426.533 106.342 426.895 106.342 427.118 106.119C427.341 105.896 427.341 105.534 427.118 105.311L424.447 102.639C425.151 101.759 425.571 100.643 425.571 99.429C425.571 96.5887 423.269 94.2861 420.429 94.2861ZM420.429 95.429C418.219 95.429 416.429 97.2199 416.429 99.429C416.429 101.638 418.219 103.429 420.429 103.429C422.638 103.429 424.429 101.638 424.429 99.429C424.429 97.2199 422.638 95.429 420.429 95.429Z" fill="#555D74"/>
    <rect x="0.5" y="0.5" width="458" height="145" rx="19.5" stroke="#EBEDF2"/>
</svg>