<svg width="489" height="146" viewBox="0 0 489 146" fill="none" xmlns="http://www.w3.org/2000/svg">
    <rect x="0.5" y="0.5" width="458" height="145" rx="19.5" fill="white"/>
    <path d="M20.338 40.18C19.478 40.18 18.752 39.99 18.16 39.61C17.568 39.226 17.12 38.696 16.816 38.02C16.512 37.344 16.36 36.564 16.36 35.68C16.36 34.796 16.512 34.016 16.816 33.34C17.12 32.664 17.568 32.136 18.16 31.756C18.752 31.372 19.478 31.18 20.338 31.18C21.202 31.18 21.928 31.372 22.516 31.756C23.108 32.136 23.556 32.664 23.86 33.34C24.168 34.016 24.322 34.796 24.322 35.68C24.322 36.564 24.168 37.344 23.86 38.02C23.556 38.696 23.108 39.226 22.516 39.61C21.928 39.99 21.202 40.18 20.338 40.18ZM20.338 39.334C21.014 39.334 21.578 39.18 22.03 38.872C22.482 38.564 22.82 38.136 23.044 37.588C23.272 37.036 23.386 36.4 23.386 35.68C23.386 34.96 23.272 34.326 23.044 33.778C22.82 33.23 22.482 32.802 22.03 32.494C21.578 32.186 21.014 32.03 20.338 32.026C19.662 32.026 19.1 32.18 18.652 32.488C18.204 32.796 17.866 33.226 17.638 33.778C17.414 34.326 17.3 34.96 17.296 35.68C17.292 36.4 17.402 37.034 17.626 37.582C17.854 38.126 18.194 38.554 18.646 38.866C19.098 39.174 19.662 39.33 20.338 39.334ZM31.0916 41.122V40H25.5176V33.52H26.3996V39.154H29.7896V33.52H30.6716V39.184H31.9736V41.122H31.0916ZM35.6718 40.18C35.0398 40.18 34.4918 40.04 34.0278 39.76C33.5678 39.48 33.2098 39.086 32.9538 38.578C32.6978 38.07 32.5698 37.474 32.5698 36.79C32.5698 36.082 32.6958 35.47 32.9478 34.954C33.1998 34.438 33.5538 34.04 34.0098 33.76C34.4698 33.48 35.0118 33.34 35.6358 33.34C36.2758 33.34 36.8218 33.488 37.2738 33.784C37.7258 34.076 38.0678 34.496 38.2998 35.044C38.5318 35.592 38.6378 36.246 38.6178 37.006H37.7178V36.694C37.7018 35.854 37.5198 35.22 37.1718 34.792C36.8278 34.364 36.3238 34.15 35.6598 34.15C34.9638 34.15 34.4298 34.376 34.0578 34.828C33.6898 35.28 33.5058 35.924 33.5058 36.76C33.5058 37.576 33.6898 38.21 34.0578 38.662C34.4298 39.11 34.9558 39.334 35.6358 39.334C36.0998 39.334 36.5038 39.228 36.8478 39.016C37.1958 38.8 37.4698 38.49 37.6698 38.086L38.4918 38.404C38.2358 38.968 37.8578 39.406 37.3578 39.718C36.8618 40.026 36.2998 40.18 35.6718 40.18ZM33.1938 37.006V36.268H38.1438V37.006H33.1938ZM39.9434 40V33.52H40.8254V36.334H44.4794V33.52H45.3614V40H44.4794V37.18H40.8254V40H39.9434ZM47.0332 40L47.0392 33.52H47.9272V36.64L50.8192 33.52H51.9952L48.9592 36.76L52.3912 40H51.1072L47.9272 36.88V40H47.0332ZM54.8463 40.18C54.3583 40.18 53.9483 40.092 53.6163 39.916C53.2883 39.74 53.0423 39.506 52.8783 39.214C52.7143 38.922 52.6323 38.604 52.6323 38.26C52.6323 37.908 52.7023 37.608 52.8423 37.36C52.9863 37.108 53.1803 36.902 53.4243 36.742C53.6723 36.582 53.9583 36.46 54.2823 36.376C54.6103 36.296 54.9723 36.226 55.3683 36.166C55.7683 36.102 56.1583 36.048 56.5383 36.004C56.9223 35.956 57.2583 35.91 57.5463 35.866L57.2343 36.058C57.2463 35.418 57.1223 34.944 56.8623 34.636C56.6023 34.328 56.1503 34.174 55.5063 34.174C55.0623 34.174 54.6863 34.274 54.3783 34.474C54.0743 34.674 53.8603 34.99 53.7363 35.422L52.8783 35.17C53.0263 34.59 53.3243 34.14 53.7723 33.82C54.2203 33.5 54.8023 33.34 55.5183 33.34C56.1103 33.34 56.6123 33.452 57.0243 33.676C57.4403 33.896 57.7343 34.216 57.9063 34.636C57.9863 34.824 58.0383 35.034 58.0623 35.266C58.0863 35.498 58.0983 35.734 58.0983 35.974V40H57.3123V38.374L57.5403 38.47C57.3203 39.026 56.9783 39.45 56.5143 39.742C56.0503 40.034 55.4943 40.18 54.8463 40.18ZM54.9483 39.418C55.3603 39.418 55.7203 39.344 56.0283 39.196C56.3363 39.048 56.5843 38.846 56.7723 38.59C56.9603 38.33 57.0823 38.038 57.1383 37.714C57.1863 37.506 57.2123 37.278 57.2163 37.03C57.2203 36.778 57.2223 36.59 57.2223 36.466L57.5583 36.64C57.2583 36.68 56.9323 36.72 56.5803 36.76C56.2323 36.8 55.8883 36.846 55.5483 36.898C55.2123 36.95 54.9083 37.012 54.6363 37.084C54.4523 37.136 54.2743 37.21 54.1023 37.306C53.9303 37.398 53.7883 37.522 53.6763 37.678C53.5683 37.834 53.5143 38.028 53.5143 38.26C53.5143 38.448 53.5603 38.63 53.6523 38.806C53.7483 38.982 53.9003 39.128 54.1083 39.244C54.3203 39.36 54.6003 39.418 54.9483 39.418Z" fill="#9EA2B0"/>
    <path d="M68.512 40L72.138 31.117H67.56V29.92H73.475V31.117L69.856 40H68.512ZM74.6845 40V38.628H76.0565V40H74.6845ZM81.5309 29.717C82.1749 29.717 82.7559 29.871 83.2739 30.179C83.7919 30.487 84.2026 30.907 84.5059 31.439C84.8139 31.971 84.9679 32.5753 84.9679 33.252V36.605C84.9679 37.3097 84.8162 37.9327 84.5129 38.474C84.2096 39.0153 83.7896 39.44 83.2529 39.748C82.7209 40.056 82.1096 40.21 81.4189 40.21C80.8682 40.21 80.3526 40.0957 79.8719 39.867C79.3959 39.6383 78.9922 39.314 78.6609 38.894L79.5919 38.068C79.7972 38.3573 80.0609 38.5907 80.3829 38.768C80.7049 38.9407 81.0502 39.027 81.4189 39.027C81.8669 39.027 82.2612 38.9197 82.6019 38.705C82.9472 38.4903 83.2156 38.2103 83.4069 37.865C83.6029 37.5197 83.7009 37.1463 83.7009 36.745V34.722L83.9739 35.03C83.6846 35.45 83.3136 35.786 82.8609 36.038C82.4082 36.29 81.9159 36.416 81.3839 36.416C80.7586 36.416 80.1986 36.269 79.7039 35.975C79.2092 35.681 78.8172 35.2843 78.5279 34.785C78.2386 34.281 78.0939 33.7163 78.0939 33.091C78.0939 32.4657 78.2502 31.8987 78.5629 31.39C78.8756 30.8767 79.2909 30.4707 79.8089 30.172C80.3316 29.8687 80.9056 29.717 81.5309 29.717ZM81.5309 30.921C81.1296 30.921 80.7632 31.019 80.4319 31.215C80.1052 31.4063 79.8439 31.6677 79.6479 31.999C79.4519 32.3257 79.3539 32.6897 79.3539 33.091C79.3539 33.4923 79.4496 33.8587 79.6409 34.19C79.8369 34.5167 80.0982 34.778 80.4249 34.974C80.7562 35.17 81.1226 35.268 81.5239 35.268C81.9252 35.268 82.2916 35.17 82.6229 34.974C82.9542 34.778 83.2156 34.5167 83.4069 34.19C83.6029 33.8587 83.7009 33.4923 83.7009 33.091C83.7009 32.6943 83.6029 32.3327 83.4069 32.006C83.2156 31.6747 82.9542 31.411 82.6229 31.215C82.2962 31.019 81.9322 30.921 81.5309 30.921ZM89.4772 29.92H90.7442L88.0562 40H86.7892L89.4772 29.92ZM94.319 40V31.299L92.422 32.447V31.054L94.319 29.92H95.586V40H94.319ZM101.652 40.21C100.998 40.21 100.415 40.063 99.9015 39.769C99.3929 39.4703 98.9892 39.0667 98.6905 38.558C98.3965 38.0447 98.2495 37.4613 98.2495 36.808V33.112C98.2495 32.4587 98.3965 31.8753 98.6905 31.362C98.9892 30.8487 99.3929 30.445 99.9015 30.151C100.415 29.857 100.998 29.71 101.652 29.71C102.305 29.71 102.888 29.857 103.402 30.151C103.915 30.445 104.319 30.8487 104.613 31.362C104.907 31.8753 105.054 32.4587 105.054 33.112V36.808C105.054 37.4613 104.907 38.0447 104.613 38.558C104.319 39.0667 103.915 39.4703 103.402 39.769C102.888 40.063 102.305 40.21 101.652 40.21ZM101.652 39.013C102.048 39.013 102.408 38.9173 102.73 38.726C103.052 38.5347 103.308 38.278 103.5 37.956C103.691 37.6293 103.787 37.27 103.787 36.878V33.035C103.787 32.6383 103.691 32.279 103.5 31.957C103.308 31.635 103.052 31.3783 102.73 31.187C102.408 30.9957 102.048 30.9 101.652 30.9C101.26 30.9 100.9 30.9957 100.574 31.187C100.252 31.3783 99.9949 31.635 99.8035 31.957C99.6122 32.279 99.5165 32.6383 99.5165 33.035V36.878C99.5165 37.27 99.6122 37.6293 99.8035 37.956C99.9949 38.278 100.252 38.5347 100.574 38.726C100.9 38.9173 101.26 39.013 101.652 39.013Z" fill="#F62E46"/>
    <path d="M17.12 60V48.48H26.112V60H24.688V49.832H18.544V60H17.12ZM30.8104 60.24C30.165 60.24 29.6237 60.1227 29.1864 59.888C28.7544 59.648 28.4264 59.3333 28.2024 58.944C27.9837 58.5547 27.8744 58.128 27.8744 57.664C27.8744 57.2107 27.9597 56.8187 28.1304 56.488C28.3064 56.152 28.5517 55.8747 28.8664 55.656C29.181 55.432 29.557 55.256 29.9944 55.128C30.405 55.016 30.8637 54.92 31.3704 54.84C31.8824 54.7547 32.3997 54.6773 32.9224 54.608C33.445 54.5387 33.933 54.472 34.3864 54.408L33.8744 54.704C33.8904 53.936 33.7357 53.368 33.4104 53C33.0904 52.632 32.5357 52.448 31.7464 52.448C31.2237 52.448 30.765 52.568 30.3704 52.808C29.981 53.0427 29.7064 53.4267 29.5464 53.96L28.1944 53.552C28.4024 52.7947 28.805 52.2 29.4024 51.768C29.9997 51.336 30.7864 51.12 31.7624 51.12C32.5464 51.12 33.2184 51.2613 33.7784 51.544C34.3437 51.8213 34.749 52.2427 34.9944 52.808C35.117 53.0747 35.1944 53.3653 35.2264 53.68C35.2584 53.9893 35.2744 54.3147 35.2744 54.656V60H34.0104V57.928L34.3064 58.12C33.981 58.8187 33.525 59.3467 32.9384 59.704C32.357 60.0613 31.6477 60.24 30.8104 60.24ZM31.0264 59.048C31.5384 59.048 31.981 58.9573 32.3544 58.776C32.733 58.5893 33.037 58.3467 33.2664 58.048C33.4957 57.744 33.645 57.4133 33.7144 57.056C33.7944 56.7893 33.837 56.4933 33.8424 56.168C33.853 55.8373 33.8584 55.584 33.8584 55.408L34.3544 55.624C33.8904 55.688 33.4344 55.7493 32.9864 55.808C32.5384 55.8667 32.1144 55.9307 31.7144 56C31.3144 56.064 30.9544 56.1413 30.6344 56.232C30.3997 56.3067 30.1784 56.4027 29.9704 56.52C29.7677 56.6373 29.6024 56.7893 29.4744 56.976C29.3517 57.1573 29.2904 57.384 29.2904 57.656C29.2904 57.8907 29.349 58.1147 29.4664 58.328C29.589 58.5413 29.7757 58.7147 30.0264 58.848C30.2824 58.9813 30.6157 59.048 31.0264 59.048ZM41.3224 60.24C40.5117 60.24 39.829 60.04 39.2744 59.64C38.7197 59.2347 38.2984 58.688 38.0104 58C37.7277 57.3067 37.5864 56.5307 37.5864 55.672C37.5864 54.8027 37.7277 54.024 38.0104 53.336C38.2984 52.648 38.7197 52.1067 39.2744 51.712C39.8344 51.3173 40.5197 51.12 41.3304 51.12C42.1304 51.12 42.8184 51.32 43.3944 51.72C43.9757 52.1147 44.421 52.656 44.7304 53.344C45.0397 54.032 45.1944 54.808 45.1944 55.672C45.1944 56.536 45.0397 57.312 44.7304 58C44.421 58.688 43.9757 59.2347 43.3944 59.64C42.8184 60.04 42.1277 60.24 41.3224 60.24ZM37.3464 63.84V51.36H38.6184V57.72H38.7784V63.84H37.3464ZM41.1464 58.936C41.717 58.936 42.189 58.792 42.5624 58.504C42.9357 58.216 43.2157 57.8267 43.4024 57.336C43.589 56.84 43.6824 56.2853 43.6824 55.672C43.6824 55.064 43.589 54.5147 43.4024 54.024C43.221 53.5333 42.9384 53.144 42.5544 52.856C42.1757 52.568 41.693 52.424 41.1064 52.424C40.5464 52.424 40.0824 52.5627 39.7144 52.84C39.3464 53.112 39.0717 53.4933 38.8904 53.984C38.709 54.4693 38.6184 55.032 38.6184 55.672C38.6184 56.3013 38.7064 56.864 38.8824 57.36C39.0637 57.8507 39.341 58.2373 39.7144 58.52C40.0877 58.7973 40.565 58.936 41.1464 58.936ZM46.9401 60L46.9481 51.36H48.3881V55.52L52.0121 51.36H53.8601L50.0441 55.68L54.3081 60H52.3161L48.3881 55.84V60H46.9401ZM58.6281 60.24C57.7695 60.24 57.0281 60.0453 56.4041 59.656C55.7855 59.2667 55.3081 58.728 54.9721 58.04C54.6361 57.352 54.4681 56.5627 54.4681 55.672C54.4681 54.7653 54.6388 53.9707 54.9801 53.288C55.3215 52.6053 55.8041 52.0747 56.4281 51.696C57.0521 51.312 57.7855 51.12 58.6281 51.12C59.4921 51.12 60.2361 51.3147 60.8601 51.704C61.4841 52.088 61.9615 52.624 62.2921 53.312C62.6281 53.9947 62.7961 54.7813 62.7961 55.672C62.7961 56.5733 62.6281 57.368 62.2921 58.056C61.9561 58.7387 61.4761 59.2747 60.8521 59.664C60.2281 60.048 59.4868 60.24 58.6281 60.24ZM58.6281 58.888C59.5241 58.888 60.1908 58.5893 60.6281 57.992C61.0655 57.3947 61.2841 56.6213 61.2841 55.672C61.2841 54.696 61.0628 53.92 60.6201 53.344C60.1775 52.7627 59.5135 52.472 58.6281 52.472C58.0255 52.472 57.5295 52.608 57.1401 52.88C56.7508 53.152 56.4601 53.528 56.2681 54.008C56.0761 54.488 55.9801 55.0427 55.9801 55.672C55.9801 56.6427 56.2041 57.4213 56.6521 58.008C57.1001 58.5947 57.7588 58.888 58.6281 58.888ZM64.5495 60V51.36H68.2295C68.4482 51.36 68.6828 51.3733 68.9335 51.4C69.1895 51.4213 69.4215 51.4613 69.6295 51.52C70.0935 51.6427 70.4748 51.896 70.7735 52.28C71.0775 52.6587 71.2295 53.1387 71.2295 53.72C71.2295 54.0453 71.1788 54.328 71.0775 54.568C70.9815 54.808 70.8428 55.016 70.6615 55.192C70.5815 55.272 70.4935 55.344 70.3975 55.408C70.3015 55.472 70.2055 55.5227 70.1095 55.56C70.2962 55.592 70.4855 55.664 70.6775 55.776C70.9815 55.9413 71.2188 56.1733 71.3895 56.472C71.5655 56.7707 71.6535 57.152 71.6535 57.616C71.6535 58.2027 71.5122 58.688 71.2295 59.072C70.9468 59.4507 70.5575 59.712 70.0615 59.856C69.8535 59.9147 69.6242 59.9547 69.3735 59.976C69.1228 59.992 68.8802 60 68.6455 60H64.5495ZM65.9895 58.84H68.5655C68.6775 58.84 68.8108 58.8293 68.9655 58.808C69.1255 58.7867 69.2668 58.76 69.3895 58.728C69.6668 58.648 69.8668 58.4987 69.9895 58.28C70.1175 58.0613 70.1815 57.824 70.1815 57.568C70.1815 57.2267 70.0855 56.9493 69.8935 56.736C69.7068 56.5227 69.4588 56.3893 69.1495 56.336C69.0375 56.304 68.9148 56.2853 68.7815 56.28C68.6535 56.2747 68.5388 56.272 68.4375 56.272H65.9895V58.84ZM65.9895 55.096H68.1335C68.2828 55.096 68.4402 55.088 68.6055 55.072C68.7708 55.0507 68.9148 55.016 69.0375 54.968C69.2828 54.8773 69.4615 54.728 69.5735 54.52C69.6908 54.3067 69.7495 54.0747 69.7495 53.824C69.7495 53.5467 69.6855 53.304 69.5575 53.096C69.4348 52.8827 69.2455 52.736 68.9895 52.656C68.8188 52.592 68.6268 52.5573 68.4135 52.552C68.2055 52.5413 68.0722 52.536 68.0135 52.536H65.9895V55.096ZM73.2526 60L73.2606 51.36H74.7006V55.52L78.3246 51.36H80.1726L76.3566 55.68L80.6206 60H78.6286L74.7006 55.84V60H73.2526ZM83.8729 60.24C83.2275 60.24 82.6862 60.1227 82.2489 59.888C81.8169 59.648 81.4889 59.3333 81.2649 58.944C81.0462 58.5547 80.9369 58.128 80.9369 57.664C80.9369 57.2107 81.0222 56.8187 81.1929 56.488C81.3689 56.152 81.6142 55.8747 81.9289 55.656C82.2435 55.432 82.6195 55.256 83.0569 55.128C83.4675 55.016 83.9262 54.92 84.4329 54.84C84.9449 54.7547 85.4622 54.6773 85.9849 54.608C86.5075 54.5387 86.9955 54.472 87.4489 54.408L86.9369 54.704C86.9529 53.936 86.7982 53.368 86.4729 53C86.1529 52.632 85.5982 52.448 84.8089 52.448C84.2862 52.448 83.8275 52.568 83.4329 52.808C83.0435 53.0427 82.7689 53.4267 82.6089 53.96L81.2569 53.552C81.4649 52.7947 81.8675 52.2 82.4649 51.768C83.0622 51.336 83.8489 51.12 84.8249 51.12C85.6089 51.12 86.2809 51.2613 86.8409 51.544C87.4062 51.8213 87.8115 52.2427 88.0569 52.808C88.1795 53.0747 88.2569 53.3653 88.2889 53.68C88.3209 53.9893 88.3369 54.3147 88.3369 54.656V60H87.0729V57.928L87.3689 58.12C87.0435 58.8187 86.5875 59.3467 86.0009 59.704C85.4195 60.0613 84.7102 60.24 83.8729 60.24ZM84.0889 59.048C84.6009 59.048 85.0435 58.9573 85.4169 58.776C85.7955 58.5893 86.0995 58.3467 86.3289 58.048C86.5582 57.744 86.7075 57.4133 86.7769 57.056C86.8569 56.7893 86.8995 56.4933 86.9049 56.168C86.9155 55.8373 86.9209 55.584 86.9209 55.408L87.4169 55.624C86.9529 55.688 86.4969 55.7493 86.0489 55.808C85.6009 55.8667 85.1769 55.9307 84.7769 56C84.3769 56.064 84.0169 56.1413 83.6969 56.232C83.4622 56.3067 83.2409 56.4027 83.0329 56.52C82.8302 56.6373 82.6649 56.7893 82.5369 56.976C82.4142 57.1573 82.3529 57.384 82.3529 57.656C82.3529 57.8907 82.4115 58.1147 82.5289 58.328C82.6515 58.5413 82.8382 58.7147 83.0889 58.848C83.3449 58.9813 83.6782 59.048 84.0889 59.048Z" fill="#0F1015"/>
    <path d="M19.39 97.18C18.942 97.18 18.528 97.088 18.148 96.904C17.768 96.72 17.444 96.466 17.176 96.142C16.908 95.818 16.716 95.446 16.6 95.026L17.446 94.798C17.522 95.11 17.66 95.38 17.86 95.608C18.06 95.832 18.294 96.006 18.562 96.13C18.834 96.254 19.118 96.316 19.414 96.316C19.798 96.316 20.142 96.224 20.446 96.04C20.754 95.852 20.998 95.604 21.178 95.296C21.358 94.988 21.448 94.65 21.448 94.282C21.448 93.902 21.354 93.56 21.166 93.256C20.978 92.948 20.73 92.704 20.422 92.524C20.114 92.344 19.778 92.254 19.414 92.254C19.006 92.254 18.654 92.344 18.358 92.524C18.062 92.7 17.826 92.922 17.65 93.19L16.846 92.854L17.11 88.36H21.724V89.206H17.5L17.938 88.792L17.704 92.626L17.482 92.332C17.73 92.048 18.03 91.826 18.382 91.666C18.734 91.506 19.104 91.426 19.492 91.426C20.024 91.426 20.504 91.554 20.932 91.81C21.36 92.062 21.7 92.404 21.952 92.836C22.204 93.268 22.33 93.75 22.33 94.282C22.33 94.81 22.196 95.294 21.928 95.734C21.66 96.17 21.304 96.52 20.86 96.784C20.416 97.048 19.926 97.18 19.39 97.18ZM26.3158 97.18C25.8678 97.18 25.4538 97.088 25.0738 96.904C24.6938 96.72 24.3698 96.466 24.1018 96.142C23.8338 95.818 23.6418 95.446 23.5258 95.026L24.3718 94.798C24.4478 95.11 24.5858 95.38 24.7858 95.608C24.9858 95.832 25.2198 96.006 25.4878 96.13C25.7598 96.254 26.0438 96.316 26.3398 96.316C26.7238 96.316 27.0678 96.224 27.3718 96.04C27.6798 95.852 27.9238 95.604 28.1038 95.296C28.2838 94.988 28.3738 94.65 28.3738 94.282C28.3738 93.902 28.2798 93.56 28.0918 93.256C27.9038 92.948 27.6558 92.704 27.3478 92.524C27.0398 92.344 26.7038 92.254 26.3398 92.254C25.9318 92.254 25.5798 92.344 25.2838 92.524C24.9878 92.7 24.7518 92.922 24.5758 93.19L23.7718 92.854L24.0358 88.36H28.6498V89.206H24.4258L24.8638 88.792L24.6298 92.626L24.4078 92.332C24.6558 92.048 24.9558 91.826 25.3078 91.666C25.6598 91.506 26.0298 91.426 26.4178 91.426C26.9498 91.426 27.4298 91.554 27.8578 91.81C28.2858 92.062 28.6258 92.404 28.8778 92.836C29.1298 93.268 29.2558 93.75 29.2558 94.282C29.2558 94.81 29.1218 95.294 28.8538 95.734C28.5858 96.17 28.2298 96.52 27.7858 96.784C27.3418 97.048 26.8518 97.18 26.3158 97.18ZM30.8596 97V95.974H31.8856V97H30.8596ZM34.2004 97L37.3804 89.218H33.3784V88.36H38.3224V89.218L35.1484 97H34.2004ZM42.5819 97.18C42.0499 97.18 41.5699 97.056 41.1419 96.808C40.7179 96.56 40.3819 96.224 40.1339 95.8C39.8859 95.372 39.7619 94.892 39.7619 94.36V91C39.7619 90.468 39.8859 89.99 40.1339 89.566C40.3819 89.138 40.7179 88.8 41.1419 88.552C41.5699 88.304 42.0499 88.18 42.5819 88.18C43.1139 88.18 43.5919 88.304 44.0159 88.552C44.4439 88.8 44.7819 89.138 45.0299 89.566C45.2779 89.99 45.4019 90.468 45.4019 91V94.36C45.4019 94.892 45.2779 95.372 45.0299 95.8C44.7819 96.224 44.4439 96.56 44.0159 96.808C43.5919 97.056 43.1139 97.18 42.5819 97.18ZM42.5819 96.328C42.9379 96.328 43.2619 96.242 43.5539 96.07C43.8459 95.894 44.0779 95.66 44.2499 95.368C44.4219 95.076 44.5079 94.754 44.5079 94.402V90.958C44.5079 90.602 44.4219 90.278 44.2499 89.986C44.0779 89.694 43.8459 89.462 43.5539 89.29C43.2619 89.114 42.9379 89.026 42.5819 89.026C42.2259 89.026 41.9019 89.114 41.6099 89.29C41.3179 89.462 41.0859 89.694 40.9139 89.986C40.7419 90.278 40.6559 90.602 40.6559 90.958V94.402C40.6559 94.754 40.7419 95.076 40.9139 95.368C41.0859 95.66 41.3179 95.894 41.6099 96.07C41.9019 96.242 42.2259 96.328 42.5819 96.328ZM50.0081 97.18C49.4681 97.18 48.9761 97.05 48.5321 96.79C48.0921 96.526 47.7401 96.17 47.4761 95.722C47.2161 95.27 47.0861 94.762 47.0861 94.198V91.204C47.0861 90.624 47.2161 90.108 47.4761 89.656C47.7361 89.2 48.0901 88.842 48.5381 88.582C48.9901 88.318 49.5021 88.186 50.0741 88.186C50.5661 88.186 51.0221 88.294 51.4421 88.51C51.8661 88.726 52.2121 89.028 52.4801 89.416L51.8021 89.974C51.6181 89.686 51.3741 89.456 51.0701 89.284C50.7661 89.112 50.4341 89.026 50.0741 89.026C49.6701 89.026 49.3101 89.124 48.9941 89.32C48.6781 89.516 48.4301 89.774 48.2501 90.094C48.0701 90.41 47.9801 90.754 47.9801 91.126V93.01L47.7581 92.758C48.0101 92.362 48.3401 92.042 48.7481 91.798C49.1601 91.554 49.6081 91.432 50.0921 91.432C50.6281 91.432 51.1101 91.56 51.5381 91.816C51.9661 92.068 52.3061 92.41 52.5581 92.842C52.8101 93.274 52.9361 93.758 52.9361 94.294C52.9361 94.826 52.8021 95.31 52.5341 95.746C52.2701 96.182 51.9161 96.53 51.4721 96.79C51.0321 97.05 50.5441 97.18 50.0081 97.18ZM50.0081 96.322C50.3841 96.322 50.7261 96.232 51.0341 96.052C51.3461 95.872 51.5921 95.628 51.7721 95.32C51.9561 95.012 52.0481 94.67 52.0481 94.294C52.0481 93.918 51.9561 93.576 51.7721 93.268C51.5921 92.956 51.3481 92.71 51.0401 92.53C50.7321 92.346 50.3901 92.254 50.0141 92.254C49.6381 92.254 49.2961 92.346 48.9881 92.53C48.6801 92.71 48.4341 92.956 48.2501 93.268C48.0701 93.576 47.9801 93.918 47.9801 94.294C47.9801 94.666 48.0701 95.006 48.2501 95.314C48.4301 95.622 48.6741 95.868 48.9821 96.052C49.2901 96.232 49.6321 96.322 50.0081 96.322ZM57.1615 97.18C56.6215 97.18 56.1435 97.072 55.7275 96.856C55.3155 96.64 54.9915 96.338 54.7555 95.95C54.5235 95.558 54.4075 95.1 54.4075 94.576C54.4075 94.04 54.5375 93.564 54.7975 93.148C55.0575 92.728 55.4535 92.41 55.9855 92.194L55.9735 92.542C55.5295 92.378 55.1915 92.11 54.9595 91.738C54.7275 91.366 54.6115 90.954 54.6115 90.502C54.6115 90.022 54.7215 89.61 54.9415 89.266C55.1615 88.918 55.4615 88.65 55.8415 88.462C56.2255 88.274 56.6655 88.18 57.1615 88.18C57.6575 88.18 58.0975 88.274 58.4815 88.462C58.8655 88.65 59.1675 88.918 59.3875 89.266C59.6075 89.61 59.7175 90.022 59.7175 90.502C59.7175 90.954 59.6055 91.364 59.3815 91.732C59.1615 92.1 58.8235 92.37 58.3675 92.542L58.3375 92.194C58.8695 92.406 59.2675 92.722 59.5315 93.142C59.7995 93.562 59.9335 94.04 59.9335 94.576C59.9335 95.1 59.8155 95.558 59.5795 95.95C59.3435 96.338 59.0175 96.64 58.6015 96.856C58.1855 97.072 57.7055 97.18 57.1615 97.18ZM57.1615 96.334C57.7055 96.334 58.1475 96.184 58.4875 95.884C58.8275 95.58 58.9975 95.144 58.9975 94.576C58.9975 94 58.8295 93.564 58.4935 93.268C58.1575 92.968 57.7135 92.818 57.1615 92.818C56.6095 92.818 56.1675 92.968 55.8355 93.268C55.5035 93.564 55.3375 94 55.3375 94.576C55.3375 95.144 55.5055 95.58 55.8415 95.884C56.1775 96.184 56.6175 96.334 57.1615 96.334ZM57.1615 91.966C57.6415 91.966 58.0315 91.844 58.3315 91.6C58.6315 91.352 58.7815 90.986 58.7815 90.502C58.7815 90.018 58.6315 89.656 58.3315 89.416C58.0315 89.172 57.6415 89.05 57.1615 89.05C56.6815 89.05 56.2915 89.172 55.9915 89.416C55.6955 89.656 55.5475 90.018 55.5475 90.502C55.5475 90.986 55.6955 91.352 55.9915 91.6C56.2915 91.844 56.6815 91.966 57.1615 91.966ZM64.3084 97.18C63.7764 97.18 63.2964 97.056 62.8684 96.808C62.4444 96.56 62.1084 96.224 61.8604 95.8C61.6124 95.372 61.4884 94.892 61.4884 94.36V91C61.4884 90.468 61.6124 89.99 61.8604 89.566C62.1084 89.138 62.4444 88.8 62.8684 88.552C63.2964 88.304 63.7764 88.18 64.3084 88.18C64.8404 88.18 65.3184 88.304 65.7424 88.552C66.1704 88.8 66.5084 89.138 66.7564 89.566C67.0044 89.99 67.1284 90.468 67.1284 91V94.36C67.1284 94.892 67.0044 95.372 66.7564 95.8C66.5084 96.224 66.1704 96.56 65.7424 96.808C65.3184 97.056 64.8404 97.18 64.3084 97.18ZM64.3084 96.328C64.6644 96.328 64.9884 96.242 65.2804 96.07C65.5724 95.894 65.8044 95.66 65.9764 95.368C66.1484 95.076 66.2344 94.754 66.2344 94.402V90.958C66.2344 90.602 66.1484 90.278 65.9764 89.986C65.8044 89.694 65.5724 89.462 65.2804 89.29C64.9884 89.114 64.6644 89.026 64.3084 89.026C63.9524 89.026 63.6284 89.114 63.3364 89.29C63.0444 89.462 62.8124 89.694 62.6404 89.986C62.4684 90.278 62.3824 90.602 62.3824 90.958V94.402C62.3824 94.754 62.4684 95.076 62.6404 95.368C62.8124 95.66 63.0444 95.894 63.3364 96.07C63.6284 96.242 63.9524 96.328 64.3084 96.328ZM70.3187 97V89.344L68.6927 90.322V89.332L70.3187 88.36H71.2127V97H70.3187ZM72.888 98.254L72.942 97.816C73.102 97.828 73.218 97.796 73.29 97.72C73.362 97.644 73.406 97.542 73.422 97.414C73.438 97.286 73.442 97.148 73.434 97H72.888V95.734H73.914V97.24C73.914 97.608 73.82 97.884 73.632 98.068C73.448 98.252 73.2 98.314 72.888 98.254ZM80.9198 97.174C80.4918 97.174 80.0978 97.098 79.7378 96.946C79.3778 96.794 79.0678 96.578 78.8078 96.298C78.5478 96.014 78.3578 95.676 78.2378 95.284L79.0778 95.032C79.2218 95.46 79.4578 95.784 79.7858 96.004C80.1178 96.224 80.4918 96.33 80.9078 96.322C81.2918 96.314 81.6218 96.228 81.8978 96.064C82.1778 95.9 82.3918 95.672 82.5398 95.38C82.6878 95.088 82.7618 94.75 82.7618 94.366C82.7618 93.778 82.5898 93.306 82.2458 92.95C81.9058 92.59 81.4558 92.41 80.8958 92.41C80.7398 92.41 80.5758 92.432 80.4038 92.476C80.2318 92.516 80.0718 92.574 79.9238 92.65L79.4798 91.948L82.8398 88.846L82.9838 89.206H78.5798V88.36H83.5718V89.218L80.6438 92.014L80.6318 91.666C81.2318 91.59 81.7598 91.658 82.2158 91.87C82.6718 92.082 83.0278 92.406 83.2838 92.842C83.5438 93.274 83.6738 93.782 83.6738 94.366C83.6738 94.918 83.5538 95.406 83.3138 95.83C83.0778 96.25 82.7518 96.58 82.3358 96.82C81.9198 97.056 81.4478 97.174 80.9198 97.174ZM85.6926 97L88.8726 89.218H84.8706V88.36H89.8146V89.218L86.6406 97H85.6926ZM90.6252 97V95.974H91.6512V97H90.6252ZM96.4261 97.18C95.8861 97.18 95.3941 97.05 94.9501 96.79C94.5101 96.526 94.1581 96.17 93.8941 95.722C93.6341 95.27 93.5041 94.762 93.5041 94.198V91.204C93.5041 90.624 93.6341 90.108 93.8941 89.656C94.1541 89.2 94.5081 88.842 94.9561 88.582C95.4081 88.318 95.9201 88.186 96.4921 88.186C96.9841 88.186 97.4401 88.294 97.8601 88.51C98.2841 88.726 98.6301 89.028 98.8981 89.416L98.2201 89.974C98.0361 89.686 97.7921 89.456 97.4881 89.284C97.1841 89.112 96.8521 89.026 96.4921 89.026C96.0881 89.026 95.7281 89.124 95.4121 89.32C95.0961 89.516 94.8481 89.774 94.6681 90.094C94.4881 90.41 94.3981 90.754 94.3981 91.126V93.01L94.1761 92.758C94.4281 92.362 94.7581 92.042 95.1661 91.798C95.5781 91.554 96.0261 91.432 96.5101 91.432C97.0461 91.432 97.5281 91.56 97.9561 91.816C98.3841 92.068 98.7241 92.41 98.9761 92.842C99.2281 93.274 99.3541 93.758 99.3541 94.294C99.3541 94.826 99.2201 95.31 98.9521 95.746C98.6881 96.182 98.3341 96.53 97.8901 96.79C97.4501 97.05 96.9621 97.18 96.4261 97.18ZM96.4261 96.322C96.8021 96.322 97.1441 96.232 97.4521 96.052C97.7641 95.872 98.0101 95.628 98.1901 95.32C98.3741 95.012 98.4661 94.67 98.4661 94.294C98.4661 93.918 98.3741 93.576 98.1901 93.268C98.0101 92.956 97.7661 92.71 97.4581 92.53C97.1501 92.346 96.8081 92.254 96.4321 92.254C96.0561 92.254 95.7141 92.346 95.4061 92.53C95.0981 92.71 94.8521 92.956 94.6681 93.268C94.4881 93.576 94.3981 93.918 94.3981 94.294C94.3981 94.666 94.4881 95.006 94.6681 95.314C94.8481 95.622 95.0921 95.868 95.4001 96.052C95.7081 96.232 96.0501 96.322 96.4261 96.322ZM103.495 97.18C103.047 97.18 102.633 97.088 102.253 96.904C101.873 96.72 101.549 96.466 101.281 96.142C101.013 95.818 100.821 95.446 100.705 95.026L101.551 94.798C101.627 95.11 101.765 95.38 101.965 95.608C102.165 95.832 102.399 96.006 102.667 96.13C102.939 96.254 103.223 96.316 103.519 96.316C103.903 96.316 104.247 96.224 104.551 96.04C104.859 95.852 105.103 95.604 105.283 95.296C105.463 94.988 105.553 94.65 105.553 94.282C105.553 93.902 105.459 93.56 105.271 93.256C105.083 92.948 104.835 92.704 104.527 92.524C104.219 92.344 103.883 92.254 103.519 92.254C103.111 92.254 102.759 92.344 102.463 92.524C102.167 92.7 101.931 92.922 101.755 93.19L100.951 92.854L101.215 88.36H105.829V89.206H101.605L102.043 88.792L101.809 92.626L101.587 92.332C101.835 92.048 102.135 91.826 102.487 91.666C102.839 91.506 103.209 91.426 103.597 91.426C104.129 91.426 104.609 91.554 105.037 91.81C105.465 92.062 105.805 92.404 106.057 92.836C106.309 93.268 106.435 93.75 106.435 94.282C106.435 94.81 106.301 95.294 106.033 95.734C105.765 96.17 105.409 96.52 104.965 96.784C104.521 97.048 104.031 97.18 103.495 97.18ZM110.505 97.18C109.965 97.18 109.487 97.072 109.071 96.856C108.659 96.64 108.335 96.338 108.099 95.95C107.867 95.558 107.751 95.1 107.751 94.576C107.751 94.04 107.881 93.564 108.141 93.148C108.401 92.728 108.797 92.41 109.329 92.194L109.317 92.542C108.873 92.378 108.535 92.11 108.303 91.738C108.071 91.366 107.955 90.954 107.955 90.502C107.955 90.022 108.065 89.61 108.285 89.266C108.505 88.918 108.805 88.65 109.185 88.462C109.569 88.274 110.009 88.18 110.505 88.18C111.001 88.18 111.441 88.274 111.825 88.462C112.209 88.65 112.511 88.918 112.731 89.266C112.951 89.61 113.061 90.022 113.061 90.502C113.061 90.954 112.949 91.364 112.725 91.732C112.505 92.1 112.167 92.37 111.711 92.542L111.681 92.194C112.213 92.406 112.611 92.722 112.875 93.142C113.143 93.562 113.277 94.04 113.277 94.576C113.277 95.1 113.159 95.558 112.923 95.95C112.687 96.338 112.361 96.64 111.945 96.856C111.529 97.072 111.049 97.18 110.505 97.18ZM110.505 96.334C111.049 96.334 111.491 96.184 111.831 95.884C112.171 95.58 112.341 95.144 112.341 94.576C112.341 94 112.173 93.564 111.837 93.268C111.501 92.968 111.057 92.818 110.505 92.818C109.953 92.818 109.511 92.968 109.179 93.268C108.847 93.564 108.681 94 108.681 94.576C108.681 95.144 108.849 95.58 109.185 95.884C109.521 96.184 109.961 96.334 110.505 96.334ZM110.505 91.966C110.985 91.966 111.375 91.844 111.675 91.6C111.975 91.352 112.125 90.986 112.125 90.502C112.125 90.018 111.975 89.656 111.675 89.416C111.375 89.172 110.985 89.05 110.505 89.05C110.025 89.05 109.635 89.172 109.335 89.416C109.039 89.656 108.891 90.018 108.891 90.502C108.891 90.986 109.039 91.352 109.335 91.6C109.635 91.844 110.025 91.966 110.505 91.966ZM114.592 96.994L114.598 96.19L118.504 92.662C118.84 92.358 119.062 92.07 119.17 91.798C119.282 91.522 119.338 91.234 119.338 90.934C119.338 90.578 119.254 90.256 119.086 89.968C118.918 89.68 118.692 89.452 118.408 89.284C118.124 89.112 117.806 89.026 117.454 89.026C117.086 89.026 116.758 89.114 116.47 89.29C116.182 89.466 115.954 89.698 115.786 89.986C115.622 90.274 115.542 90.588 115.546 90.928H114.646C114.646 90.404 114.77 89.934 115.018 89.518C115.266 89.102 115.602 88.776 116.026 88.54C116.45 88.3 116.93 88.18 117.466 88.18C117.99 88.18 118.46 88.304 118.876 88.552C119.296 88.796 119.626 89.128 119.866 89.548C120.11 89.964 120.232 90.428 120.232 90.94C120.232 91.3 120.188 91.618 120.1 91.894C120.016 92.166 119.882 92.42 119.698 92.656C119.518 92.888 119.288 93.128 119.008 93.376L115.54 96.508L115.402 96.148H120.232V96.994H114.592ZM124.496 97.18C123.964 97.18 123.484 97.056 123.056 96.808C122.632 96.56 122.296 96.224 122.048 95.8C121.8 95.372 121.676 94.892 121.676 94.36V91C121.676 90.468 121.8 89.99 122.048 89.566C122.296 89.138 122.632 88.8 123.056 88.552C123.484 88.304 123.964 88.18 124.496 88.18C125.028 88.18 125.506 88.304 125.93 88.552C126.358 88.8 126.696 89.138 126.944 89.566C127.192 89.99 127.316 90.468 127.316 91V94.36C127.316 94.892 127.192 95.372 126.944 95.8C126.696 96.224 126.358 96.56 125.93 96.808C125.506 97.056 125.028 97.18 124.496 97.18ZM124.496 96.328C124.852 96.328 125.176 96.242 125.468 96.07C125.76 95.894 125.992 95.66 126.164 95.368C126.336 95.076 126.422 94.754 126.422 94.402V90.958C126.422 90.602 126.336 90.278 126.164 89.986C125.992 89.694 125.76 89.462 125.468 89.29C125.176 89.114 124.852 89.026 124.496 89.026C124.14 89.026 123.816 89.114 123.524 89.29C123.232 89.462 123 89.694 122.828 89.986C122.656 90.278 122.57 90.602 122.57 90.958V94.402C122.57 94.754 122.656 95.076 122.828 95.368C123 95.66 123.232 95.894 123.524 96.07C123.816 96.242 124.14 96.328 124.496 96.328ZM131.82 97.18C131.288 97.18 130.808 97.056 130.38 96.808C129.956 96.56 129.62 96.224 129.372 95.8C129.124 95.372 129 94.892 129 94.36V91C129 90.468 129.124 89.99 129.372 89.566C129.62 89.138 129.956 88.8 130.38 88.552C130.808 88.304 131.288 88.18 131.82 88.18C132.352 88.18 132.83 88.304 133.254 88.552C133.682 88.8 134.02 89.138 134.268 89.566C134.516 89.99 134.64 90.468 134.64 91V94.36C134.64 94.892 134.516 95.372 134.268 95.8C134.02 96.224 133.682 96.56 133.254 96.808C132.83 97.056 132.352 97.18 131.82 97.18ZM131.82 96.328C132.176 96.328 132.5 96.242 132.792 96.07C133.084 95.894 133.316 95.66 133.488 95.368C133.66 95.076 133.746 94.754 133.746 94.402V90.958C133.746 90.602 133.66 90.278 133.488 89.986C133.316 89.694 133.084 89.462 132.792 89.29C132.5 89.114 132.176 89.026 131.82 89.026C131.464 89.026 131.14 89.114 130.848 89.29C130.556 89.462 130.324 89.694 130.152 89.986C129.98 90.278 129.894 90.602 129.894 90.958V94.402C129.894 94.754 129.98 95.076 130.152 95.368C130.324 95.66 130.556 95.894 130.848 96.07C131.14 96.242 131.464 96.328 131.82 96.328Z" fill="#9EA2B0"/>
    <path d="M19.066 117V109.374H16.12V108.36H23.08V109.374H20.134V117H19.066ZM25.0336 117.18C24.5496 117.18 24.1436 117.092 23.8156 116.916C23.4916 116.736 23.2456 116.5 23.0776 116.208C22.9136 115.916 22.8316 115.596 22.8316 115.248C22.8316 114.908 22.8956 114.614 23.0236 114.366C23.1556 114.114 23.3396 113.906 23.5756 113.742C23.8116 113.574 24.0936 113.442 24.4216 113.346C24.7296 113.262 25.0736 113.19 25.4536 113.13C25.8376 113.066 26.2256 113.008 26.6176 112.956C27.0096 112.904 27.3756 112.854 27.7156 112.806L27.3316 113.028C27.3436 112.452 27.2276 112.026 26.9836 111.75C26.7436 111.474 26.3276 111.336 25.7356 111.336C25.3436 111.336 24.9996 111.426 24.7036 111.606C24.4116 111.782 24.2056 112.07 24.0856 112.47L23.0716 112.164C23.2276 111.596 23.5296 111.15 23.9776 110.826C24.4256 110.502 25.0156 110.34 25.7476 110.34C26.3356 110.34 26.8396 110.446 27.2596 110.658C27.6836 110.866 27.9876 111.182 28.1716 111.606C28.2636 111.806 28.3216 112.024 28.3456 112.26C28.3696 112.492 28.3816 112.736 28.3816 112.992V117H27.4336V115.446L27.6556 115.59C27.4116 116.114 27.0696 116.51 26.6296 116.778C26.1936 117.046 25.6616 117.18 25.0336 117.18ZM25.1956 116.286C25.5796 116.286 25.9116 116.218 26.1916 116.082C26.4756 115.942 26.7036 115.76 26.8756 115.536C27.0476 115.308 27.1596 115.06 27.2116 114.792C27.2716 114.592 27.3036 114.37 27.3076 114.126C27.3156 113.878 27.3196 113.688 27.3196 113.556L27.6916 113.718C27.3436 113.766 27.0016 113.812 26.6656 113.856C26.3296 113.9 26.0116 113.948 25.7116 114C25.4116 114.048 25.1416 114.106 24.9016 114.174C24.7256 114.23 24.5596 114.302 24.4036 114.39C24.2516 114.478 24.1276 114.592 24.0316 114.732C23.9396 114.868 23.8936 115.038 23.8936 115.242C23.8936 115.418 23.9376 115.586 24.0256 115.746C24.1176 115.906 24.2576 116.036 24.4456 116.136C24.6376 116.236 24.8876 116.286 25.1956 116.286ZM29.9356 117V110.52H30.9676V116.028H33.1996V110.52H34.2316V116.028H36.4576V110.52H37.4896V117H29.9356ZM39.1582 117L39.1642 110.52H40.2442V113.64L42.9622 110.52H44.3482L41.4862 113.76L44.6842 117H43.1902L40.2442 113.88V117H39.1582ZM47.855 117.18C47.219 117.18 46.663 117.04 46.187 116.76C45.715 116.476 45.347 116.082 45.083 115.578C44.819 115.07 44.687 114.478 44.687 113.802C44.687 113.094 44.817 112.482 45.077 111.966C45.337 111.446 45.699 111.046 46.163 110.766C46.631 110.482 47.179 110.34 47.807 110.34C48.459 110.34 49.013 110.49 49.469 110.79C49.929 111.09 50.273 111.518 50.501 112.074C50.733 112.63 50.833 113.292 50.801 114.06H49.721V113.676C49.709 112.88 49.547 112.286 49.235 111.894C48.923 111.498 48.459 111.3 47.843 111.3C47.183 111.3 46.681 111.512 46.337 111.936C45.993 112.36 45.821 112.968 45.821 113.76C45.821 114.524 45.993 115.116 46.337 115.536C46.681 115.956 47.171 116.166 47.807 116.166C48.235 116.166 48.607 116.068 48.923 115.872C49.239 115.676 49.487 115.394 49.667 115.026L50.693 115.38C50.441 115.952 50.061 116.396 49.553 116.712C49.049 117.024 48.483 117.18 47.855 117.18ZM45.461 114.06V113.202H50.249V114.06H45.461ZM52.1309 117V110.52H53.1989V113.25H56.6069V110.52H57.6749V117H56.6069V114.264H53.1989V117H52.1309ZM61.0716 117V111.492H58.8156V110.52H64.3956V111.492H62.1396V117H61.0716ZM68.1442 117.18C67.4882 117.18 66.9302 117.034 66.4702 116.742C66.0142 116.446 65.6662 116.04 65.4262 115.524C65.1862 115.008 65.0622 114.42 65.0542 113.76C65.0622 113.084 65.1882 112.49 65.4322 111.978C65.6802 111.462 66.0342 111.06 66.4942 110.772C66.9542 110.484 67.5082 110.34 68.1562 110.34C68.8402 110.34 69.4282 110.508 69.9202 110.844C70.4162 111.18 70.7482 111.64 70.9162 112.224L69.8602 112.542C69.7242 112.166 69.5022 111.874 69.1942 111.666C68.8902 111.458 68.5402 111.354 68.1442 111.354C67.7002 111.354 67.3342 111.458 67.0462 111.666C66.7582 111.87 66.5442 112.154 66.4042 112.518C66.2642 112.878 66.1922 113.292 66.1882 113.76C66.1962 114.48 66.3622 115.062 66.6862 115.506C67.0142 115.946 67.5002 116.166 68.1442 116.166C68.5682 116.166 68.9202 116.07 69.2002 115.878C69.4802 115.682 69.6922 115.4 69.8362 115.032L70.9162 115.314C70.6922 115.918 70.3422 116.38 69.8662 116.7C69.3902 117.02 68.8162 117.18 68.1442 117.18ZM72.1348 117L72.1408 110.52H73.2208V113.64L75.9388 110.52H77.3248L74.4628 113.76L77.6608 117H76.1668L73.2208 113.88V117H72.1348ZM80.1 117.18C79.616 117.18 79.21 117.092 78.882 116.916C78.558 116.736 78.312 116.5 78.144 116.208C77.98 115.916 77.898 115.596 77.898 115.248C77.898 114.908 77.962 114.614 78.09 114.366C78.222 114.114 78.406 113.906 78.642 113.742C78.878 113.574 79.16 113.442 79.488 113.346C79.796 113.262 80.14 113.19 80.52 113.13C80.904 113.066 81.292 113.008 81.684 112.956C82.076 112.904 82.442 112.854 82.782 112.806L82.398 113.028C82.41 112.452 82.294 112.026 82.05 111.75C81.81 111.474 81.394 111.336 80.802 111.336C80.41 111.336 80.066 111.426 79.77 111.606C79.478 111.782 79.272 112.07 79.152 112.47L78.138 112.164C78.294 111.596 78.596 111.15 79.044 110.826C79.492 110.502 80.082 110.34 80.814 110.34C81.402 110.34 81.906 110.446 82.326 110.658C82.75 110.866 83.054 111.182 83.238 111.606C83.33 111.806 83.388 112.024 83.412 112.26C83.436 112.492 83.448 112.736 83.448 112.992V117H82.5V115.446L82.722 115.59C82.478 116.114 82.136 116.51 81.696 116.778C81.26 117.046 80.728 117.18 80.1 117.18ZM80.262 116.286C80.646 116.286 80.978 116.218 81.258 116.082C81.542 115.942 81.77 115.76 81.942 115.536C82.114 115.308 82.226 115.06 82.278 114.792C82.338 114.592 82.37 114.37 82.374 114.126C82.382 113.878 82.386 113.688 82.386 113.556L82.758 113.718C82.41 113.766 82.068 113.812 81.732 113.856C81.396 113.9 81.078 113.948 80.778 114C80.478 114.048 80.208 114.106 79.968 114.174C79.792 114.23 79.626 114.302 79.47 114.39C79.318 114.478 79.194 114.592 79.098 114.732C79.006 114.868 78.96 115.038 78.96 115.242C78.96 115.418 79.004 115.586 79.092 115.746C79.184 115.906 79.324 116.036 79.512 116.136C79.704 116.236 79.954 116.286 80.262 116.286ZM89.01 117V114.654H87.612C87.448 114.654 87.266 114.648 87.066 114.636C86.87 114.62 86.686 114.598 86.514 114.57C86.046 114.482 85.65 114.276 85.326 113.952C85.006 113.628 84.846 113.18 84.846 112.608C84.846 112.052 84.996 111.606 85.296 111.27C85.6 110.93 85.974 110.71 86.418 110.61C86.618 110.562 86.82 110.536 87.024 110.532C87.232 110.524 87.408 110.52 87.552 110.52H90.078L90.084 117H89.01ZM84.648 117L86.37 114.36H87.522L85.8 117H84.648ZM87.534 113.772H89.01V111.402H87.534C87.442 111.402 87.32 111.406 87.168 111.414C87.02 111.422 86.878 111.446 86.742 111.486C86.614 111.522 86.488 111.588 86.364 111.684C86.244 111.78 86.144 111.904 86.064 112.056C85.984 112.208 85.944 112.388 85.944 112.596C85.944 112.896 86.028 113.14 86.196 113.328C86.364 113.512 86.568 113.636 86.808 113.7C86.94 113.732 87.07 113.752 87.198 113.76C87.33 113.768 87.442 113.772 87.534 113.772ZM91.6497 118.344L91.7157 117.846C91.8837 117.858 92.0097 117.826 92.0937 117.75C92.1777 117.674 92.2317 117.57 92.2557 117.438C92.2797 117.306 92.2837 117.16 92.2677 117H91.6497V115.644H92.8257V117.18C92.8257 117.6 92.7217 117.916 92.5137 118.128C92.3097 118.34 92.0217 118.412 91.6497 118.344ZM99.8819 117.168C99.4539 117.168 99.0559 117.09 98.6879 116.934C98.3199 116.774 98.0019 116.55 97.7339 116.262C97.4699 115.97 97.2759 115.624 97.1519 115.224L98.1779 114.93C98.3099 115.33 98.5299 115.634 98.8379 115.842C99.1459 116.05 99.4919 116.152 99.8759 116.148C100.228 116.14 100.532 116.06 100.788 115.908C101.048 115.752 101.248 115.54 101.388 115.272C101.532 115.004 101.604 114.694 101.604 114.342C101.604 113.806 101.444 113.372 101.124 113.04C100.804 112.704 100.384 112.536 99.8639 112.536C99.7199 112.536 99.5679 112.556 99.4079 112.596C99.2519 112.636 99.1059 112.692 98.9699 112.764L98.4539 111.918L101.658 109.02L101.796 109.38H97.4939V108.36H102.588V109.386L99.8579 112.002L99.8459 111.624C100.418 111.584 100.918 111.678 101.346 111.906C101.774 112.134 102.106 112.46 102.342 112.884C102.582 113.308 102.702 113.794 102.702 114.342C102.702 114.894 102.578 115.382 102.33 115.806C102.082 116.23 101.746 116.564 101.322 116.808C100.898 117.048 100.418 117.168 99.8819 117.168ZM104.022 116.994L104.028 116.034L107.862 112.584C108.182 112.296 108.396 112.024 108.504 111.768C108.616 111.508 108.672 111.242 108.672 110.97C108.672 110.638 108.596 110.338 108.444 110.07C108.292 109.802 108.084 109.59 107.82 109.434C107.56 109.278 107.264 109.2 106.932 109.2C106.588 109.2 106.282 109.282 106.014 109.446C105.746 109.606 105.534 109.82 105.378 110.088C105.226 110.356 105.152 110.648 105.156 110.964H104.064C104.064 110.42 104.19 109.94 104.442 109.524C104.694 109.104 105.036 108.776 105.468 108.54C105.904 108.3 106.398 108.18 106.95 108.18C107.486 108.18 107.966 108.304 108.39 108.552C108.814 108.796 109.148 109.13 109.392 109.554C109.64 109.974 109.764 110.45 109.764 110.982C109.764 111.358 109.716 111.684 109.62 111.96C109.528 112.236 109.384 112.492 109.188 112.728C108.992 112.96 108.746 113.208 108.45 113.472L105.264 116.334L105.126 115.974H109.764V116.994H104.022ZM113.383 108.36H114.469L112.165 117H111.079L113.383 108.36ZM115.788 116.994L115.794 116.034L119.628 112.584C119.948 112.296 120.162 112.024 120.27 111.768C120.382 111.508 120.438 111.242 120.438 110.97C120.438 110.638 120.362 110.338 120.21 110.07C120.058 109.802 119.85 109.59 119.586 109.434C119.326 109.278 119.03 109.2 118.698 109.2C118.354 109.2 118.048 109.282 117.78 109.446C117.512 109.606 117.3 109.82 117.144 110.088C116.992 110.356 116.918 110.648 116.922 110.964H115.83C115.83 110.42 115.956 109.94 116.208 109.524C116.46 109.104 116.802 108.776 117.234 108.54C117.67 108.3 118.164 108.18 118.715 108.18C119.252 108.18 119.732 108.304 120.156 108.552C120.58 108.796 120.914 109.13 121.158 109.554C121.406 109.974 121.53 110.45 121.53 110.982C121.53 111.358 121.482 111.684 121.385 111.96C121.293 112.236 121.15 112.492 120.954 112.728C120.758 112.96 120.512 113.208 120.216 113.472L117.03 116.334L116.892 115.974H121.53V116.994H115.788Z" fill="#0F1015"/>
    <path fill-rule="evenodd" clip-rule="evenodd" d="M353 30C350.791 30 349 31.7909 349 34V46C349 48.2091 350.791 50 353 50H365C367.209 50 369 48.2091 369 46V34C369 31.7909 367.209 30 365 30H353ZM364.795 37.4827C365.235 37.0437 365.235 36.3314 364.796 35.8917C364.357 35.452 363.645 35.4514 363.205 35.8904L357.364 41.7219L354.795 39.157C354.355 38.718 353.643 38.7186 353.204 39.1583C352.765 39.598 352.765 40.3103 353.205 40.7493L356.569 44.1077C357.008 44.5461 357.72 44.5461 358.159 44.1077L364.795 37.4827Z" fill="#3B3C3C"/>
    <path d="M387.338 45.18C386.478 45.18 385.752 44.99 385.16 44.61C384.568 44.226 384.12 43.696 383.816 43.02C383.512 42.344 383.36 41.564 383.36 40.68C383.36 39.796 383.512 39.016 383.816 38.34C384.12 37.664 384.568 37.136 385.16 36.756C385.752 36.372 386.478 36.18 387.338 36.18C388.342 36.18 389.162 36.438 389.798 36.954C390.434 37.466 390.87 38.154 391.106 39.018L390.206 39.252C390.022 38.568 389.692 38.026 389.216 37.626C388.74 37.226 388.114 37.026 387.338 37.026C386.662 37.026 386.1 37.18 385.652 37.488C385.204 37.796 384.866 38.226 384.638 38.778C384.414 39.326 384.298 39.96 384.29 40.68C384.286 41.4 384.396 42.034 384.62 42.582C384.848 43.13 385.188 43.56 385.64 43.872C386.096 44.18 386.662 44.334 387.338 44.334C388.114 44.334 388.74 44.134 389.216 43.734C389.692 43.33 390.022 42.788 390.206 42.108L391.106 42.342C390.87 43.206 390.434 43.896 389.798 44.412C389.162 44.924 388.342 45.18 387.338 45.18ZM395.34 45.18C394.744 45.18 394.24 45.03 393.828 44.73C393.416 44.426 393.104 44.016 392.892 43.5C392.68 42.98 392.574 42.398 392.574 41.754C392.574 41.098 392.68 40.514 392.892 40.002C393.108 39.486 393.424 39.08 393.84 38.784C394.256 38.488 394.768 38.34 395.376 38.34C395.968 38.34 396.476 38.49 396.9 38.79C397.324 39.09 397.648 39.498 397.872 40.014C398.1 40.53 398.214 41.11 398.214 41.754C398.214 42.402 398.1 42.984 397.872 43.5C397.644 44.016 397.316 44.426 396.888 44.73C396.46 45.03 395.944 45.18 395.34 45.18ZM392.424 47.88V38.52H393.216V43.398H393.312V47.88H392.424ZM395.25 44.358C395.702 44.358 396.078 44.244 396.378 44.016C396.678 43.788 396.902 43.478 397.05 43.086C397.202 42.69 397.278 42.246 397.278 41.754C397.278 41.266 397.204 40.826 397.056 40.434C396.908 40.042 396.682 39.732 396.378 39.504C396.078 39.276 395.696 39.162 395.232 39.162C394.78 39.162 394.404 39.272 394.104 39.492C393.808 39.712 393.586 40.018 393.438 40.41C393.29 40.798 393.216 41.246 393.216 41.754C393.216 42.254 393.29 42.702 393.438 43.098C393.586 43.49 393.81 43.798 394.11 44.022C394.41 44.246 394.79 44.358 395.25 44.358ZM401.385 45.18C400.897 45.18 400.487 45.092 400.155 44.916C399.827 44.74 399.581 44.506 399.417 44.214C399.253 43.922 399.171 43.604 399.171 43.26C399.171 42.908 399.241 42.608 399.381 42.36C399.525 42.108 399.719 41.902 399.963 41.742C400.211 41.582 400.497 41.46 400.821 41.376C401.149 41.296 401.511 41.226 401.907 41.166C402.307 41.102 402.697 41.048 403.077 41.004C403.461 40.956 403.797 40.91 404.085 40.866L403.773 41.058C403.785 40.418 403.661 39.944 403.401 39.636C403.141 39.328 402.689 39.174 402.045 39.174C401.601 39.174 401.225 39.274 400.917 39.474C400.613 39.674 400.399 39.99 400.275 40.422L399.417 40.17C399.565 39.59 399.863 39.14 400.311 38.82C400.759 38.5 401.341 38.34 402.057 38.34C402.649 38.34 403.151 38.452 403.563 38.676C403.979 38.896 404.273 39.216 404.445 39.636C404.525 39.824 404.577 40.034 404.601 40.266C404.625 40.498 404.637 40.734 404.637 40.974V45H403.851V43.374L404.079 43.47C403.859 44.026 403.517 44.45 403.053 44.742C402.589 45.034 402.033 45.18 401.385 45.18ZM401.487 44.418C401.899 44.418 402.259 44.344 402.567 44.196C402.875 44.048 403.123 43.846 403.311 43.59C403.499 43.33 403.621 43.038 403.677 42.714C403.725 42.506 403.751 42.278 403.755 42.03C403.759 41.778 403.761 41.59 403.761 41.466L404.097 41.64C403.797 41.68 403.471 41.72 403.119 41.76C402.771 41.8 402.427 41.846 402.087 41.898C401.751 41.95 401.447 42.012 401.175 42.084C400.991 42.136 400.813 42.21 400.641 42.306C400.469 42.398 400.327 42.522 400.215 42.678C400.107 42.834 400.053 43.028 400.053 43.26C400.053 43.448 400.099 43.63 400.191 43.806C400.287 43.982 400.439 44.128 400.647 44.244C400.859 44.36 401.139 44.418 401.487 44.418ZM406.193 45V38.52H408.863C408.999 38.52 409.163 38.528 409.355 38.544C409.551 38.56 409.733 38.59 409.901 38.634C410.265 38.73 410.557 38.926 410.777 39.222C411.001 39.518 411.113 39.874 411.113 40.29C411.113 40.522 411.077 40.73 411.005 40.914C410.937 41.094 410.839 41.25 410.711 41.382C410.651 41.45 410.585 41.51 410.513 41.562C410.441 41.61 410.371 41.65 410.303 41.682C410.431 41.706 410.569 41.762 410.717 41.85C410.949 41.986 411.125 42.17 411.245 42.402C411.365 42.63 411.425 42.908 411.425 43.236C411.425 43.68 411.319 44.042 411.107 44.322C410.895 44.602 410.611 44.794 410.255 44.898C410.095 44.942 409.921 44.97 409.733 44.982C409.549 44.994 409.375 45 409.211 45H406.193ZM407.081 44.25H409.169C409.253 44.25 409.359 44.244 409.487 44.232C409.615 44.216 409.729 44.196 409.829 44.172C410.065 44.112 410.237 43.992 410.345 43.812C410.457 43.628 410.513 43.428 410.513 43.212C410.513 42.928 410.429 42.696 410.261 42.516C410.097 42.332 409.877 42.22 409.601 42.18C409.509 42.16 409.413 42.148 409.313 42.144C409.213 42.14 409.123 42.138 409.043 42.138H407.081V44.25ZM407.081 41.382H408.893C408.997 41.382 409.113 41.376 409.241 41.364C409.373 41.348 409.487 41.322 409.583 41.286C409.791 41.214 409.943 41.09 410.039 40.914C410.139 40.738 410.189 40.546 410.189 40.338C410.189 40.11 410.135 39.91 410.027 39.738C409.923 39.566 409.765 39.446 409.553 39.378C409.409 39.326 409.253 39.296 409.085 39.288C408.921 39.28 408.817 39.276 408.773 39.276H407.081V41.382ZM412.615 45V38.52H413.497V41.334H417.151V38.52H418.033V45H417.151V42.18H413.497V45H412.615ZM424.859 38.52V45H424.001V39.954L420.449 45H419.705V38.52H420.563V43.524L424.121 38.52H424.859ZM428.301 45V39.336H426.003V38.52H431.481V39.336H429.183V45H428.301ZM432.631 45L432.619 38.52H433.507V40.962H435.025C435.213 40.962 435.397 40.966 435.577 40.974C435.761 40.982 435.923 40.998 436.063 41.022C436.383 41.082 436.667 41.188 436.915 41.34C437.167 41.492 437.363 41.702 437.503 41.97C437.647 42.238 437.719 42.574 437.719 42.978C437.719 43.534 437.575 43.972 437.287 44.292C437.003 44.612 436.643 44.82 436.207 44.916C436.043 44.952 435.865 44.976 435.673 44.988C435.481 44.996 435.291 45 435.103 45H432.631ZM433.507 44.244H435.067C435.203 44.244 435.355 44.24 435.523 44.232C435.691 44.224 435.839 44.202 435.967 44.166C436.179 44.106 436.371 43.986 436.543 43.806C436.719 43.622 436.807 43.346 436.807 42.978C436.807 42.614 436.723 42.34 436.555 42.156C436.387 41.968 436.163 41.844 435.883 41.784C435.759 41.756 435.625 41.738 435.481 41.73C435.337 41.722 435.199 41.718 435.067 41.718H433.507V44.244Z" fill="#0F1015"/>
    <rect x="347" y="78" width="44" height="44" rx="12" fill="#F5F6F9"/>
    <path d="M366.158 94.7881C364.098 94.7881 362.429 96.4578 362.429 98.5174C362.429 100.582 363.254 101.615 366.711 104.303L368.298 105.538C368.711 105.859 369.289 105.859 369.702 105.538L371.29 104.303C374.746 101.615 375.572 100.582 375.572 98.5174C375.572 96.4578 373.902 94.7881 371.842 94.7881C370.773 94.7881 369.821 95.274 369 96.209C368.18 95.274 367.227 94.7881 366.158 94.7881Z" fill="#F62E46"/>
    <rect x="399" y="78" width="44" height="44" rx="12" fill="#F5F6F9"/>
    <path fill-rule="evenodd" clip-rule="evenodd" d="M421 97.7147C421 97.3991 420.744 97.1433 420.429 97.1433C420.113 97.1433 419.857 97.3991 419.857 97.7147V98.8576H418.714C418.399 98.8576 418.143 99.1134 418.143 99.429C418.143 99.7446 418.399 100 418.714 100H419.857V101.143C419.857 101.459 420.113 101.715 420.429 101.715C420.744 101.715 421 101.459 421 101.143V100H422.143C422.458 100 422.714 99.7446 422.714 99.429C422.714 99.1134 422.458 98.8576 422.143 98.8576H421V97.7147Z" fill="#555D74"/>
    <path fill-rule="evenodd" clip-rule="evenodd" d="M420.429 94.2861C417.588 94.2861 415.286 96.5887 415.286 99.429C415.286 102.269 417.588 104.572 420.429 104.572C421.643 104.572 422.759 104.151 423.639 103.447L426.31 106.119C426.533 106.342 426.895 106.342 427.118 106.119C427.341 105.896 427.341 105.534 427.118 105.311L424.447 102.639C425.151 101.759 425.571 100.643 425.571 99.429C425.571 96.5887 423.269 94.2861 420.429 94.2861ZM420.429 95.429C418.219 95.429 416.429 97.2199 416.429 99.429C416.429 101.638 418.219 103.429 420.429 103.429C422.638 103.429 424.429 101.638 424.429 99.429C424.429 97.2199 422.638 95.429 420.429 95.429Z" fill="#555D74"/>
    <rect x="0.5" y="0.5" width="458" height="145" rx="19.5" stroke="#EBEDF2"/>
</svg>