<svg width="489" height="146" viewBox="0 0 489 146" fill="none" xmlns="http://www.w3.org/2000/svg">
    <rect x="0.5" y="0.5" width="458" height="145" rx="19.5" fill="white"/>
    <path d="M20.338 40.18C19.478 40.18 18.752 39.99 18.16 39.61C17.568 39.226 17.12 38.696 16.816 38.02C16.512 37.344 16.36 36.564 16.36 35.68C16.36 34.796 16.512 34.016 16.816 33.34C17.12 32.664 17.568 32.136 18.16 31.756C18.752 31.372 19.478 31.18 20.338 31.18C21.202 31.18 21.928 31.372 22.516 31.756C23.108 32.136 23.556 32.664 23.86 33.34C24.168 34.016 24.322 34.796 24.322 35.68C24.322 36.564 24.168 37.344 23.86 38.02C23.556 38.696 23.108 39.226 22.516 39.61C21.928 39.99 21.202 40.18 20.338 40.18ZM20.338 39.334C21.014 39.334 21.578 39.18 22.03 38.872C22.482 38.564 22.82 38.136 23.044 37.588C23.272 37.036 23.386 36.4 23.386 35.68C23.386 34.96 23.272 34.326 23.044 33.778C22.82 33.23 22.482 32.802 22.03 32.494C21.578 32.186 21.014 32.03 20.338 32.026C19.662 32.026 19.1 32.18 18.652 32.488C18.204 32.796 17.866 33.226 17.638 33.778C17.414 34.326 17.3 34.96 17.296 35.68C17.292 36.4 17.402 37.034 17.626 37.582C17.854 38.126 18.194 38.554 18.646 38.866C19.098 39.174 19.662 39.33 20.338 39.334ZM31.0916 41.122V40H25.5176V33.52H26.3996V39.154H29.7896V33.52H30.6716V39.184H31.9736V41.122H31.0916ZM35.6718 40.18C35.0398 40.18 34.4918 40.04 34.0278 39.76C33.5678 39.48 33.2098 39.086 32.9538 38.578C32.6978 38.07 32.5698 37.474 32.5698 36.79C32.5698 36.082 32.6958 35.47 32.9478 34.954C33.1998 34.438 33.5538 34.04 34.0098 33.76C34.4698 33.48 35.0118 33.34 35.6358 33.34C36.2758 33.34 36.8218 33.488 37.2738 33.784C37.7258 34.076 38.0678 34.496 38.2998 35.044C38.5318 35.592 38.6378 36.246 38.6178 37.006H37.7178V36.694C37.7018 35.854 37.5198 35.22 37.1718 34.792C36.8278 34.364 36.3238 34.15 35.6598 34.15C34.9638 34.15 34.4298 34.376 34.0578 34.828C33.6898 35.28 33.5058 35.924 33.5058 36.76C33.5058 37.576 33.6898 38.21 34.0578 38.662C34.4298 39.11 34.9558 39.334 35.6358 39.334C36.0998 39.334 36.5038 39.228 36.8478 39.016C37.1958 38.8 37.4698 38.49 37.6698 38.086L38.4918 38.404C38.2358 38.968 37.8578 39.406 37.3578 39.718C36.8618 40.026 36.2998 40.18 35.6718 40.18ZM33.1938 37.006V36.268H38.1438V37.006H33.1938ZM39.9434 40V33.52H40.8254V36.334H44.4794V33.52H45.3614V40H44.4794V37.18H40.8254V40H39.9434ZM47.0332 40L47.0392 33.52H47.9272V36.64L50.8192 33.52H51.9952L48.9592 36.76L52.3912 40H51.1072L47.9272 36.88V40H47.0332ZM54.8463 40.18C54.3583 40.18 53.9483 40.092 53.6163 39.916C53.2883 39.74 53.0423 39.506 52.8783 39.214C52.7143 38.922 52.6323 38.604 52.6323 38.26C52.6323 37.908 52.7023 37.608 52.8423 37.36C52.9863 37.108 53.1803 36.902 53.4243 36.742C53.6723 36.582 53.9583 36.46 54.2823 36.376C54.6103 36.296 54.9723 36.226 55.3683 36.166C55.7683 36.102 56.1583 36.048 56.5383 36.004C56.9223 35.956 57.2583 35.91 57.5463 35.866L57.2343 36.058C57.2463 35.418 57.1223 34.944 56.8623 34.636C56.6023 34.328 56.1503 34.174 55.5063 34.174C55.0623 34.174 54.6863 34.274 54.3783 34.474C54.0743 34.674 53.8603 34.99 53.7363 35.422L52.8783 35.17C53.0263 34.59 53.3243 34.14 53.7723 33.82C54.2203 33.5 54.8023 33.34 55.5183 33.34C56.1103 33.34 56.6123 33.452 57.0243 33.676C57.4403 33.896 57.7343 34.216 57.9063 34.636C57.9863 34.824 58.0383 35.034 58.0623 35.266C58.0863 35.498 58.0983 35.734 58.0983 35.974V40H57.3123V38.374L57.5403 38.47C57.3203 39.026 56.9783 39.45 56.5143 39.742C56.0503 40.034 55.4943 40.18 54.8463 40.18ZM54.9483 39.418C55.3603 39.418 55.7203 39.344 56.0283 39.196C56.3363 39.048 56.5843 38.846 56.7723 38.59C56.9603 38.33 57.0823 38.038 57.1383 37.714C57.1863 37.506 57.2123 37.278 57.2163 37.03C57.2203 36.778 57.2223 36.59 57.2223 36.466L57.5583 36.64C57.2583 36.68 56.9323 36.72 56.5803 36.76C56.2323 36.8 55.8883 36.846 55.5483 36.898C55.2123 36.95 54.9083 37.012 54.6363 37.084C54.4523 37.136 54.2743 37.21 54.1023 37.306C53.9303 37.398 53.7883 37.522 53.6763 37.678C53.5683 37.834 53.5143 38.028 53.5143 38.26C53.5143 38.448 53.5603 38.63 53.6523 38.806C53.7483 38.982 53.9003 39.128 54.1083 39.244C54.3203 39.36 54.6003 39.418 54.9483 39.418Z" fill="#9EA2B0"/>
    <path d="M71.13 40.21C70.486 40.21 69.9167 40.0817 69.422 39.825C68.9273 39.5637 68.54 39.202 68.26 38.74C67.98 38.278 67.84 37.739 67.84 37.123C67.84 36.521 67.9823 35.9773 68.267 35.492C68.5563 35.0067 68.9903 34.6333 69.569 34.372L69.548 34.827C69.0767 34.5983 68.715 34.2763 68.463 33.861C68.211 33.441 68.085 32.9767 68.085 32.468C68.085 31.8987 68.2157 31.4087 68.477 30.998C68.7383 30.5873 69.0977 30.27 69.555 30.046C70.0123 29.822 70.5373 29.71 71.13 29.71C71.7227 29.71 72.2477 29.822 72.705 30.046C73.1623 30.27 73.5217 30.5873 73.783 30.998C74.0443 31.4087 74.175 31.8987 74.175 32.468C74.175 32.9767 74.056 33.4387 73.818 33.854C73.58 34.2647 73.2137 34.589 72.719 34.827L72.691 34.379C73.2697 34.631 73.7037 35.002 73.993 35.492C74.287 35.9773 74.434 36.521 74.434 37.123C74.434 37.739 74.2917 38.278 74.007 38.74C73.727 39.202 73.3373 39.5637 72.838 39.825C72.3433 40.0817 71.774 40.21 71.13 40.21ZM71.13 39.02C71.718 39.02 72.194 38.859 72.558 38.537C72.9267 38.2103 73.111 37.739 73.111 37.123C73.111 36.5023 72.929 36.031 72.565 35.709C72.2057 35.3823 71.7273 35.219 71.13 35.219C70.5373 35.219 70.059 35.3823 69.695 35.709C69.3357 36.031 69.156 36.5023 69.156 37.123C69.156 37.739 69.338 38.2103 69.702 38.537C70.066 38.859 70.542 39.02 71.13 39.02ZM71.13 34.022C71.6433 34.022 72.0587 33.8937 72.376 33.637C72.6933 33.3757 72.852 32.986 72.852 32.468C72.852 31.95 72.6933 31.5627 72.376 31.306C72.0587 31.0447 71.6433 30.914 71.13 30.914C70.6213 30.914 70.206 31.0447 69.884 31.306C69.5667 31.5627 69.408 31.95 69.408 32.468C69.408 32.986 69.5667 33.3757 69.884 33.637C70.206 33.8937 70.6213 34.022 71.13 34.022ZM76.4755 40V38.628H77.8475V40H76.4755ZM79.7449 39.993L79.7519 38.873L84.2249 34.848C84.5983 34.512 84.8479 34.1947 84.9739 33.896C85.1046 33.5927 85.1699 33.2823 85.1699 32.965C85.1699 32.5777 85.0813 32.2277 84.9039 31.915C84.7266 31.6023 84.4839 31.355 84.1759 31.173C83.8726 30.991 83.5273 30.9 83.1399 30.9C82.7386 30.9 82.3816 30.9957 82.0689 31.187C81.7563 31.3737 81.5089 31.6233 81.3269 31.936C81.1496 32.2487 81.0633 32.5893 81.0679 32.958H79.7939C79.7939 32.3233 79.9409 31.7633 80.2349 31.278C80.5289 30.788 80.9279 30.4053 81.4319 30.13C81.9406 29.85 82.5169 29.71 83.1609 29.71C83.7863 29.71 84.3463 29.8547 84.8409 30.144C85.3356 30.4287 85.7253 30.8183 86.0099 31.313C86.2993 31.803 86.4439 32.3583 86.4439 32.979C86.4439 33.4177 86.3879 33.798 86.2759 34.12C86.1686 34.442 86.0006 34.7407 85.7719 35.016C85.5433 35.2867 85.2563 35.576 84.9109 35.884L81.1939 39.223L81.0329 38.803H86.4439V39.993H79.7449ZM90.6667 29.92H91.9337L89.2457 40H87.9787L90.6667 29.92ZM95.5085 40V31.299L93.6115 32.447V31.054L95.5085 29.92H96.7755V40H95.5085ZM102.841 40.21C102.188 40.21 101.604 40.063 101.091 39.769C100.582 39.4703 100.179 39.0667 99.88 38.558C99.586 38.0447 99.439 37.4613 99.439 36.808V33.112C99.439 32.4587 99.586 31.8753 99.88 31.362C100.179 30.8487 100.582 30.445 101.091 30.151C101.604 29.857 102.188 29.71 102.841 29.71C103.494 29.71 104.078 29.857 104.591 30.151C105.104 30.445 105.508 30.8487 105.802 31.362C106.096 31.8753 106.243 32.4587 106.243 33.112V36.808C106.243 37.4613 106.096 38.0447 105.802 38.558C105.508 39.0667 105.104 39.4703 104.591 39.769C104.078 40.063 103.494 40.21 102.841 40.21ZM102.841 39.013C103.238 39.013 103.597 38.9173 103.919 38.726C104.241 38.5347 104.498 38.278 104.689 37.956C104.88 37.6293 104.976 37.27 104.976 36.878V33.035C104.976 32.6383 104.88 32.279 104.689 31.957C104.498 31.635 104.241 31.3783 103.919 31.187C103.597 30.9957 103.238 30.9 102.841 30.9C102.449 30.9 102.09 30.9957 101.763 31.187C101.441 31.3783 101.184 31.635 100.993 31.957C100.802 32.279 100.706 32.6383 100.706 33.035V36.878C100.706 37.27 100.802 37.6293 100.993 37.956C101.184 38.278 101.441 38.5347 101.763 38.726C102.09 38.9173 102.449 39.013 102.841 39.013Z" fill="#F62E46"/>
    <path d="M17.12 60V48.48H18.544V53.888L23.584 48.48H25.376L20.144 54.072L25.784 60H23.944L18.544 54.368V60H17.12ZM33.9733 51.36V60H32.5973V53.632L28.0693 60H26.8933V51.36H28.2693V57.64L32.8053 51.36H33.9733ZM39.8938 60.24C39.0351 60.24 38.2938 60.0453 37.6698 59.656C37.0511 59.2667 36.5738 58.728 36.2378 58.04C35.9018 57.352 35.7338 56.5627 35.7338 55.672C35.7338 54.7653 35.9044 53.9707 36.2458 53.288C36.5871 52.6053 37.0698 52.0747 37.6938 51.696C38.3178 51.312 39.0511 51.12 39.8938 51.12C40.7578 51.12 41.5018 51.3147 42.1258 51.704C42.7498 52.088 43.2271 52.624 43.5578 53.312C43.8938 53.9947 44.0618 54.7813 44.0618 55.672C44.0618 56.5733 43.8938 57.368 43.5578 58.056C43.2218 58.7387 42.7418 59.2747 42.1178 59.664C41.4938 60.048 40.7524 60.24 39.8938 60.24ZM39.8938 58.888C40.7898 58.888 41.4564 58.5893 41.8938 57.992C42.3311 57.3947 42.5498 56.6213 42.5498 55.672C42.5498 54.696 42.3284 53.92 41.8858 53.344C41.4431 52.7627 40.7791 52.472 39.8938 52.472C39.2911 52.472 38.7951 52.608 38.4058 52.88C38.0164 53.152 37.7258 53.528 37.5338 54.008C37.3418 54.488 37.2458 55.0427 37.2458 55.672C37.2458 56.6427 37.4698 57.4213 37.9178 58.008C38.3658 58.5947 39.0244 58.888 39.8938 58.888ZM49.4631 60.24C48.5885 60.24 47.8445 60.0453 47.2311 59.656C46.6231 59.2613 46.1591 58.72 45.8391 58.032C45.5191 57.344 45.3538 56.56 45.3431 55.68C45.3538 54.7787 45.5218 53.9867 45.8471 53.304C46.1778 52.616 46.6498 52.08 47.2631 51.696C47.8765 51.312 48.6151 51.12 49.4791 51.12C50.3911 51.12 51.1751 51.344 51.8311 51.792C52.4925 52.24 52.9351 52.8533 53.1591 53.632L51.7511 54.056C51.5698 53.5547 51.2738 53.1653 50.8631 52.888C50.4578 52.6107 49.9911 52.472 49.4631 52.472C48.8711 52.472 48.3831 52.6107 47.9991 52.888C47.6151 53.16 47.3298 53.5387 47.1431 54.024C46.9565 54.504 46.8605 55.056 46.8551 55.68C46.8658 56.64 47.0871 57.416 47.5191 58.008C47.9565 58.5947 48.6045 58.888 49.4631 58.888C50.0285 58.888 50.4978 58.76 50.8711 58.504C51.2445 58.2427 51.5271 57.8667 51.7191 57.376L53.1591 57.752C52.8605 58.5573 52.3938 59.1733 51.7591 59.6C51.1245 60.0267 50.3591 60.24 49.4631 60.24ZM54.7839 60L54.7919 51.36H56.2319V55.52L59.8559 51.36H61.7039L57.8879 55.68L62.1519 60H60.1599L56.2319 55.84V60H54.7839ZM66.1433 60V51.36H73.2233V60H71.7993V52.712H67.5673V60H66.1433ZM79.2078 60.24C78.3598 60.24 77.6184 60.0533 76.9838 59.68C76.3544 59.3013 75.8638 58.776 75.5118 58.104C75.1598 57.4267 74.9838 56.6373 74.9838 55.736C74.9838 54.792 75.1571 53.976 75.5038 53.288C75.8504 52.5947 76.3331 52.0613 76.9518 51.688C77.5758 51.3093 78.3064 51.12 79.1438 51.12C80.0131 51.12 80.7518 51.32 81.3598 51.72C81.9731 52.12 82.4318 52.6907 82.7358 53.432C83.0451 54.1733 83.1784 55.056 83.1358 56.08H81.6958V55.568C81.6798 54.5067 81.4638 53.7147 81.0478 53.192C80.6318 52.664 80.0131 52.4 79.1918 52.4C78.3118 52.4 77.6424 52.6827 77.1838 53.248C76.7251 53.8133 76.4958 54.624 76.4958 55.68C76.4958 56.6987 76.7251 57.488 77.1838 58.048C77.6424 58.608 78.2958 58.888 79.1438 58.888C79.7144 58.888 80.2104 58.7573 80.6318 58.496C81.0531 58.2347 81.3838 57.8587 81.6238 57.368L82.9918 57.84C82.6558 58.6027 82.1491 59.1947 81.4718 59.616C80.7998 60.032 80.0451 60.24 79.2078 60.24ZM76.0158 56.08V54.936H82.3998V56.08H76.0158ZM90.1169 60V56.888C89.8289 57.032 89.4795 57.1547 89.0689 57.256C88.6635 57.3573 88.2289 57.408 87.7649 57.408C86.8849 57.408 86.1755 57.2107 85.6369 56.816C85.0982 56.4213 84.7462 55.8533 84.5809 55.112C84.5329 54.888 84.4982 54.656 84.4769 54.416C84.4609 54.176 84.4502 53.9573 84.4449 53.76C84.4395 53.5627 84.4369 53.4187 84.4369 53.328V51.36H85.8769V53.328C85.8769 53.4827 85.8822 53.6747 85.8929 53.904C85.9035 54.128 85.9302 54.3467 85.9729 54.56C86.0795 55.088 86.3009 55.4853 86.6369 55.752C86.9782 56.0187 87.4582 56.152 88.0769 56.152C88.4929 56.152 88.8769 56.0987 89.2289 55.992C89.5809 55.8853 89.8769 55.744 90.1169 55.568V51.36H91.5489V60H90.1169ZM96.2479 60.24C95.6025 60.24 95.0612 60.1227 94.6239 59.888C94.1919 59.648 93.8639 59.3333 93.6399 58.944C93.4212 58.5547 93.3119 58.128 93.3119 57.664C93.3119 57.2107 93.3972 56.8187 93.5679 56.488C93.7439 56.152 93.9892 55.8747 94.3039 55.656C94.6185 55.432 94.9945 55.256 95.4319 55.128C95.8425 55.016 96.3012 54.92 96.8079 54.84C97.3199 54.7547 97.8372 54.6773 98.3599 54.608C98.8825 54.5387 99.3705 54.472 99.8239 54.408L99.3119 54.704C99.3279 53.936 99.1732 53.368 98.8479 53C98.5279 52.632 97.9732 52.448 97.1839 52.448C96.6612 52.448 96.2025 52.568 95.8079 52.808C95.4185 53.0427 95.1439 53.4267 94.9839 53.96L93.6319 53.552C93.8399 52.7947 94.2425 52.2 94.8399 51.768C95.4372 51.336 96.2239 51.12 97.1999 51.12C97.9839 51.12 98.6559 51.2613 99.2159 51.544C99.7812 51.8213 100.187 52.2427 100.432 52.808C100.555 53.0747 100.632 53.3653 100.664 53.68C100.696 53.9893 100.712 54.3147 100.712 54.656V60H99.4479V57.928L99.7439 58.12C99.4185 58.8187 98.9625 59.3467 98.3759 59.704C97.7945 60.0613 97.0852 60.24 96.2479 60.24ZM96.4639 59.048C96.9759 59.048 97.4185 58.9573 97.7919 58.776C98.1705 58.5893 98.4745 58.3467 98.7039 58.048C98.9332 57.744 99.0825 57.4133 99.1519 57.056C99.2319 56.7893 99.2745 56.4933 99.2799 56.168C99.2905 55.8373 99.2959 55.584 99.2959 55.408L99.7919 55.624C99.3279 55.688 98.8719 55.7493 98.4239 55.808C97.9759 55.8667 97.5519 55.9307 97.1519 56C96.7519 56.064 96.3919 56.1413 96.0719 56.232C95.8372 56.3067 95.6159 56.4027 95.4079 56.52C95.2052 56.6373 95.0399 56.7893 94.9119 56.976C94.7892 57.1573 94.7279 57.384 94.7279 57.656C94.7279 57.8907 94.7865 58.1147 94.9039 58.328C95.0265 58.5413 95.2132 58.7147 95.4639 58.848C95.7199 58.9813 96.0532 59.048 96.4639 59.048ZM105.08 60V52.656H102.072V51.36H109.512V52.656H106.504V60H105.08ZM111.018 60V51.36H112.442V55H116.986V51.36H118.41V60H116.986V56.352H112.442V60H111.018ZM124.331 60.24C123.473 60.24 122.731 60.0453 122.107 59.656C121.489 59.2667 121.011 58.728 120.675 58.04C120.339 57.352 120.171 56.5627 120.171 55.672C120.171 54.7653 120.342 53.9707 120.683 53.288C121.025 52.6053 121.507 52.0747 122.131 51.696C122.755 51.312 123.489 51.12 124.331 51.12C125.195 51.12 125.939 51.3147 126.563 51.704C127.187 52.088 127.665 52.624 127.995 53.312C128.331 53.9947 128.499 54.7813 128.499 55.672C128.499 56.5733 128.331 57.368 127.995 58.056C127.659 58.7387 127.179 59.2747 126.555 59.664C125.931 60.048 125.19 60.24 124.331 60.24ZM124.331 58.888C125.227 58.888 125.894 58.5893 126.331 57.992C126.769 57.3947 126.987 56.6213 126.987 55.672C126.987 54.696 126.766 53.92 126.323 53.344C125.881 52.7627 125.217 52.472 124.331 52.472C123.729 52.472 123.233 52.608 122.843 52.88C122.454 53.152 122.163 53.528 121.971 54.008C121.779 54.488 121.683 55.0427 121.683 55.672C121.683 56.6427 121.907 57.4213 122.355 58.008C122.803 58.5947 123.462 58.888 124.331 58.888ZM133.981 50.352C133.581 50.352 133.215 50.2533 132.885 50.056C132.554 49.8587 132.29 49.5973 132.093 49.272C131.895 48.9413 131.797 48.5733 131.797 48.168H132.949C132.949 48.4507 133.05 48.6933 133.253 48.896C133.455 49.0987 133.698 49.2 133.981 49.2C134.269 49.2 134.511 49.0987 134.709 48.896C134.911 48.6933 135.013 48.4507 135.013 48.168H136.165C136.165 48.5733 136.066 48.9413 135.869 49.272C135.677 49.5973 135.413 49.8587 135.077 50.056C134.746 50.2533 134.381 50.352 133.981 50.352ZM137.333 51.36V60H135.957V53.632L131.429 60H130.253V51.36H131.629V57.64L136.165 51.36H137.333ZM142.768 60V51.36H149.848V60H148.424V52.712H144.192V60H142.768ZM156.057 60.24C155.246 60.24 154.563 60.04 154.009 59.64C153.454 59.2347 153.033 58.688 152.745 58C152.462 57.3067 152.321 56.5307 152.321 55.672C152.321 54.8027 152.462 54.024 152.745 53.336C153.033 52.648 153.454 52.1067 154.009 51.712C154.569 51.3173 155.254 51.12 156.065 51.12C156.865 51.12 157.553 51.32 158.129 51.72C158.71 52.1147 159.155 52.656 159.465 53.344C159.774 54.032 159.929 54.808 159.929 55.672C159.929 56.536 159.774 57.312 159.465 58C159.155 58.688 158.71 59.2347 158.129 59.64C157.553 60.04 156.862 60.24 156.057 60.24ZM152.081 63.84V51.36H153.353V57.72H153.513V63.84H152.081ZM155.881 58.936C156.451 58.936 156.923 58.792 157.297 58.504C157.67 58.216 157.95 57.8267 158.137 57.336C158.323 56.84 158.417 56.2853 158.417 55.672C158.417 55.064 158.323 54.5147 158.137 54.024C157.955 53.5333 157.673 53.144 157.289 52.856C156.91 52.568 156.427 52.424 155.841 52.424C155.281 52.424 154.817 52.5627 154.449 52.84C154.081 53.112 153.806 53.4933 153.625 53.984C153.443 54.4693 153.353 55.032 153.353 55.672C153.353 56.3013 153.441 56.864 153.617 57.36C153.798 57.8507 154.075 58.2373 154.449 58.52C154.822 58.7973 155.299 58.936 155.881 58.936ZM165.363 60.24C164.504 60.24 163.763 60.0453 163.139 59.656C162.52 59.2667 162.043 58.728 161.707 58.04C161.371 57.352 161.203 56.5627 161.203 55.672C161.203 54.7653 161.373 53.9707 161.715 53.288C162.056 52.6053 162.539 52.0747 163.163 51.696C163.787 51.312 164.52 51.12 165.363 51.12C166.227 51.12 166.971 51.3147 167.595 51.704C168.219 52.088 168.696 52.624 169.027 53.312C169.363 53.9947 169.531 54.7813 169.531 55.672C169.531 56.5733 169.363 57.368 169.027 58.056C168.691 58.7387 168.211 59.2747 167.587 59.664C166.963 60.048 166.221 60.24 165.363 60.24ZM165.363 58.888C166.259 58.888 166.925 58.5893 167.363 57.992C167.8 57.3947 168.019 56.6213 168.019 55.672C168.019 54.696 167.797 53.92 167.355 53.344C166.912 52.7627 166.248 52.472 165.363 52.472C164.76 52.472 164.264 52.608 163.875 52.88C163.485 53.152 163.195 53.528 163.003 54.008C162.811 54.488 162.715 55.0427 162.715 55.672C162.715 56.6427 162.939 57.4213 163.387 58.008C163.835 58.5947 164.493 58.888 165.363 58.888ZM170.652 61.92V58.824C171.137 58.824 171.484 58.6667 171.692 58.352C171.9 58.032 172.068 57.5067 172.196 56.776C172.281 56.3173 172.351 55.8267 172.404 55.304C172.457 54.7813 172.503 54.2 172.54 53.56C172.583 52.9147 172.623 52.1813 172.66 51.36H178.612V58.824H179.452V61.92H178.092V60H172.012V61.92H170.652ZM172.844 58.824H177.188V52.536H173.948C173.932 52.9147 173.911 53.312 173.884 53.728C173.857 54.1387 173.825 54.5493 173.788 54.96C173.756 55.3707 173.716 55.76 173.668 56.128C173.625 56.4907 173.575 56.816 173.516 57.104C173.447 57.504 173.367 57.8427 173.276 58.12C173.185 58.3973 173.041 58.632 172.844 58.824ZM182.258 63.84L183.93 59.296L183.954 60.64L180.178 51.36H181.674L184.634 58.824H184.122L186.898 51.36H188.345L183.642 63.84H182.258ZM189.659 60L189.667 51.36H191.107V55.52L194.731 51.36H196.579L192.763 55.68L197.027 60H195.035L191.107 55.84V60H189.659ZM205.183 61.6V60H197.815V51.36H199.239V58.648H203.471V51.36H204.895V58.704H206.607V61.6H205.183ZM214.958 51.36V60H213.582V53.632L209.054 60H207.878V51.36H209.254V57.64L213.79 51.36H214.958ZM224.27 51.36V60H222.894V53.632L218.366 60H217.19V51.36H218.566V57.64L223.102 51.36H224.27Z" fill="#0F1015"/>
    <path d="M19.39 97.18C18.942 97.18 18.528 97.088 18.148 96.904C17.768 96.72 17.444 96.466 17.176 96.142C16.908 95.818 16.716 95.446 16.6 95.026L17.446 94.798C17.522 95.11 17.66 95.38 17.86 95.608C18.06 95.832 18.294 96.006 18.562 96.13C18.834 96.254 19.118 96.316 19.414 96.316C19.798 96.316 20.142 96.224 20.446 96.04C20.754 95.852 20.998 95.604 21.178 95.296C21.358 94.988 21.448 94.65 21.448 94.282C21.448 93.902 21.354 93.56 21.166 93.256C20.978 92.948 20.73 92.704 20.422 92.524C20.114 92.344 19.778 92.254 19.414 92.254C19.006 92.254 18.654 92.344 18.358 92.524C18.062 92.7 17.826 92.922 17.65 93.19L16.846 92.854L17.11 88.36H21.724V89.206H17.5L17.938 88.792L17.704 92.626L17.482 92.332C17.73 92.048 18.03 91.826 18.382 91.666C18.734 91.506 19.104 91.426 19.492 91.426C20.024 91.426 20.504 91.554 20.932 91.81C21.36 92.062 21.7 92.404 21.952 92.836C22.204 93.268 22.33 93.75 22.33 94.282C22.33 94.81 22.196 95.294 21.928 95.734C21.66 96.17 21.304 96.52 20.86 96.784C20.416 97.048 19.926 97.18 19.39 97.18ZM26.3158 97.18C25.8678 97.18 25.4538 97.088 25.0738 96.904C24.6938 96.72 24.3698 96.466 24.1018 96.142C23.8338 95.818 23.6418 95.446 23.5258 95.026L24.3718 94.798C24.4478 95.11 24.5858 95.38 24.7858 95.608C24.9858 95.832 25.2198 96.006 25.4878 96.13C25.7598 96.254 26.0438 96.316 26.3398 96.316C26.7238 96.316 27.0678 96.224 27.3718 96.04C27.6798 95.852 27.9238 95.604 28.1038 95.296C28.2838 94.988 28.3738 94.65 28.3738 94.282C28.3738 93.902 28.2798 93.56 28.0918 93.256C27.9038 92.948 27.6558 92.704 27.3478 92.524C27.0398 92.344 26.7038 92.254 26.3398 92.254C25.9318 92.254 25.5798 92.344 25.2838 92.524C24.9878 92.7 24.7518 92.922 24.5758 93.19L23.7718 92.854L24.0358 88.36H28.6498V89.206H24.4258L24.8638 88.792L24.6298 92.626L24.4078 92.332C24.6558 92.048 24.9558 91.826 25.3078 91.666C25.6598 91.506 26.0298 91.426 26.4178 91.426C26.9498 91.426 27.4298 91.554 27.8578 91.81C28.2858 92.062 28.6258 92.404 28.8778 92.836C29.1298 93.268 29.2558 93.75 29.2558 94.282C29.2558 94.81 29.1218 95.294 28.8538 95.734C28.5858 96.17 28.2298 96.52 27.7858 96.784C27.3418 97.048 26.8518 97.18 26.3158 97.18ZM30.8596 97V95.974H31.8856V97H30.8596ZM34.2004 97L37.3804 89.218H33.3784V88.36H38.3224V89.218L35.1484 97H34.2004ZM42.5819 97.18C42.0499 97.18 41.5699 97.056 41.1419 96.808C40.7179 96.56 40.3819 96.224 40.1339 95.8C39.8859 95.372 39.7619 94.892 39.7619 94.36V91C39.7619 90.468 39.8859 89.99 40.1339 89.566C40.3819 89.138 40.7179 88.8 41.1419 88.552C41.5699 88.304 42.0499 88.18 42.5819 88.18C43.1139 88.18 43.5919 88.304 44.0159 88.552C44.4439 88.8 44.7819 89.138 45.0299 89.566C45.2779 89.99 45.4019 90.468 45.4019 91V94.36C45.4019 94.892 45.2779 95.372 45.0299 95.8C44.7819 96.224 44.4439 96.56 44.0159 96.808C43.5919 97.056 43.1139 97.18 42.5819 97.18ZM42.5819 96.328C42.9379 96.328 43.2619 96.242 43.5539 96.07C43.8459 95.894 44.0779 95.66 44.2499 95.368C44.4219 95.076 44.5079 94.754 44.5079 94.402V90.958C44.5079 90.602 44.4219 90.278 44.2499 89.986C44.0779 89.694 43.8459 89.462 43.5539 89.29C43.2619 89.114 42.9379 89.026 42.5819 89.026C42.2259 89.026 41.9019 89.114 41.6099 89.29C41.3179 89.462 41.0859 89.694 40.9139 89.986C40.7419 90.278 40.6559 90.602 40.6559 90.958V94.402C40.6559 94.754 40.7419 95.076 40.9139 95.368C41.0859 95.66 41.3179 95.894 41.6099 96.07C41.9019 96.242 42.2259 96.328 42.5819 96.328ZM50.0081 97.18C49.4681 97.18 48.9761 97.05 48.5321 96.79C48.0921 96.526 47.7401 96.17 47.4761 95.722C47.2161 95.27 47.0861 94.762 47.0861 94.198V91.204C47.0861 90.624 47.2161 90.108 47.4761 89.656C47.7361 89.2 48.0901 88.842 48.5381 88.582C48.9901 88.318 49.5021 88.186 50.0741 88.186C50.5661 88.186 51.0221 88.294 51.4421 88.51C51.8661 88.726 52.2121 89.028 52.4801 89.416L51.8021 89.974C51.6181 89.686 51.3741 89.456 51.0701 89.284C50.7661 89.112 50.4341 89.026 50.0741 89.026C49.6701 89.026 49.3101 89.124 48.9941 89.32C48.6781 89.516 48.4301 89.774 48.2501 90.094C48.0701 90.41 47.9801 90.754 47.9801 91.126V93.01L47.7581 92.758C48.0101 92.362 48.3401 92.042 48.7481 91.798C49.1601 91.554 49.6081 91.432 50.0921 91.432C50.6281 91.432 51.1101 91.56 51.5381 91.816C51.9661 92.068 52.3061 92.41 52.5581 92.842C52.8101 93.274 52.9361 93.758 52.9361 94.294C52.9361 94.826 52.8021 95.31 52.5341 95.746C52.2701 96.182 51.9161 96.53 51.4721 96.79C51.0321 97.05 50.5441 97.18 50.0081 97.18ZM50.0081 96.322C50.3841 96.322 50.7261 96.232 51.0341 96.052C51.3461 95.872 51.5921 95.628 51.7721 95.32C51.9561 95.012 52.0481 94.67 52.0481 94.294C52.0481 93.918 51.9561 93.576 51.7721 93.268C51.5921 92.956 51.3481 92.71 51.0401 92.53C50.7321 92.346 50.3901 92.254 50.0141 92.254C49.6381 92.254 49.2961 92.346 48.9881 92.53C48.6801 92.71 48.4341 92.956 48.2501 93.268C48.0701 93.576 47.9801 93.918 47.9801 94.294C47.9801 94.666 48.0701 95.006 48.2501 95.314C48.4301 95.622 48.6741 95.868 48.9821 96.052C49.2901 96.232 49.6321 96.322 50.0081 96.322ZM57.1615 97.18C56.6215 97.18 56.1435 97.072 55.7275 96.856C55.3155 96.64 54.9915 96.338 54.7555 95.95C54.5235 95.558 54.4075 95.1 54.4075 94.576C54.4075 94.04 54.5375 93.564 54.7975 93.148C55.0575 92.728 55.4535 92.41 55.9855 92.194L55.9735 92.542C55.5295 92.378 55.1915 92.11 54.9595 91.738C54.7275 91.366 54.6115 90.954 54.6115 90.502C54.6115 90.022 54.7215 89.61 54.9415 89.266C55.1615 88.918 55.4615 88.65 55.8415 88.462C56.2255 88.274 56.6655 88.18 57.1615 88.18C57.6575 88.18 58.0975 88.274 58.4815 88.462C58.8655 88.65 59.1675 88.918 59.3875 89.266C59.6075 89.61 59.7175 90.022 59.7175 90.502C59.7175 90.954 59.6055 91.364 59.3815 91.732C59.1615 92.1 58.8235 92.37 58.3675 92.542L58.3375 92.194C58.8695 92.406 59.2675 92.722 59.5315 93.142C59.7995 93.562 59.9335 94.04 59.9335 94.576C59.9335 95.1 59.8155 95.558 59.5795 95.95C59.3435 96.338 59.0175 96.64 58.6015 96.856C58.1855 97.072 57.7055 97.18 57.1615 97.18ZM57.1615 96.334C57.7055 96.334 58.1475 96.184 58.4875 95.884C58.8275 95.58 58.9975 95.144 58.9975 94.576C58.9975 94 58.8295 93.564 58.4935 93.268C58.1575 92.968 57.7135 92.818 57.1615 92.818C56.6095 92.818 56.1675 92.968 55.8355 93.268C55.5035 93.564 55.3375 94 55.3375 94.576C55.3375 95.144 55.5055 95.58 55.8415 95.884C56.1775 96.184 56.6175 96.334 57.1615 96.334ZM57.1615 91.966C57.6415 91.966 58.0315 91.844 58.3315 91.6C58.6315 91.352 58.7815 90.986 58.7815 90.502C58.7815 90.018 58.6315 89.656 58.3315 89.416C58.0315 89.172 57.6415 89.05 57.1615 89.05C56.6815 89.05 56.2915 89.172 55.9915 89.416C55.6955 89.656 55.5475 90.018 55.5475 90.502C55.5475 90.986 55.6955 91.352 55.9915 91.6C56.2915 91.844 56.6815 91.966 57.1615 91.966ZM64.3084 97.18C63.7764 97.18 63.2964 97.056 62.8684 96.808C62.4444 96.56 62.1084 96.224 61.8604 95.8C61.6124 95.372 61.4884 94.892 61.4884 94.36V91C61.4884 90.468 61.6124 89.99 61.8604 89.566C62.1084 89.138 62.4444 88.8 62.8684 88.552C63.2964 88.304 63.7764 88.18 64.3084 88.18C64.8404 88.18 65.3184 88.304 65.7424 88.552C66.1704 88.8 66.5084 89.138 66.7564 89.566C67.0044 89.99 67.1284 90.468 67.1284 91V94.36C67.1284 94.892 67.0044 95.372 66.7564 95.8C66.5084 96.224 66.1704 96.56 65.7424 96.808C65.3184 97.056 64.8404 97.18 64.3084 97.18ZM64.3084 96.328C64.6644 96.328 64.9884 96.242 65.2804 96.07C65.5724 95.894 65.8044 95.66 65.9764 95.368C66.1484 95.076 66.2344 94.754 66.2344 94.402V90.958C66.2344 90.602 66.1484 90.278 65.9764 89.986C65.8044 89.694 65.5724 89.462 65.2804 89.29C64.9884 89.114 64.6644 89.026 64.3084 89.026C63.9524 89.026 63.6284 89.114 63.3364 89.29C63.0444 89.462 62.8124 89.694 62.6404 89.986C62.4684 90.278 62.3824 90.602 62.3824 90.958V94.402C62.3824 94.754 62.4684 95.076 62.6404 95.368C62.8124 95.66 63.0444 95.894 63.3364 96.07C63.6284 96.242 63.9524 96.328 64.3084 96.328ZM71.7347 97.18C71.1947 97.18 70.7027 97.05 70.2587 96.79C69.8187 96.526 69.4667 96.17 69.2027 95.722C68.9427 95.27 68.8127 94.762 68.8127 94.198V91.204C68.8127 90.624 68.9427 90.108 69.2027 89.656C69.4627 89.2 69.8167 88.842 70.2647 88.582C70.7167 88.318 71.2287 88.186 71.8007 88.186C72.2927 88.186 72.7487 88.294 73.1687 88.51C73.5927 88.726 73.9387 89.028 74.2067 89.416L73.5287 89.974C73.3447 89.686 73.1007 89.456 72.7967 89.284C72.4927 89.112 72.1607 89.026 71.8007 89.026C71.3967 89.026 71.0367 89.124 70.7207 89.32C70.4047 89.516 70.1567 89.774 69.9767 90.094C69.7967 90.41 69.7067 90.754 69.7067 91.126V93.01L69.4847 92.758C69.7367 92.362 70.0667 92.042 70.4747 91.798C70.8867 91.554 71.3347 91.432 71.8187 91.432C72.3547 91.432 72.8367 91.56 73.2647 91.816C73.6927 92.068 74.0327 92.41 74.2847 92.842C74.5367 93.274 74.6627 93.758 74.6627 94.294C74.6627 94.826 74.5287 95.31 74.2607 95.746C73.9967 96.182 73.6427 96.53 73.1987 96.79C72.7587 97.05 72.2707 97.18 71.7347 97.18ZM71.7347 96.322C72.1107 96.322 72.4527 96.232 72.7607 96.052C73.0727 95.872 73.3187 95.628 73.4987 95.32C73.6827 95.012 73.7747 94.67 73.7747 94.294C73.7747 93.918 73.6827 93.576 73.4987 93.268C73.3187 92.956 73.0747 92.71 72.7667 92.53C72.4587 92.346 72.1167 92.254 71.7407 92.254C71.3647 92.254 71.0227 92.346 70.7147 92.53C70.4067 92.71 70.1607 92.956 69.9767 93.268C69.7967 93.576 69.7067 93.918 69.7067 94.294C69.7067 94.666 69.7967 95.006 69.9767 95.314C70.1567 95.622 70.4007 95.868 70.7087 96.052C71.0167 96.232 71.3587 96.322 71.7347 96.322ZM76.1341 98.254L76.1881 97.816C76.3481 97.828 76.4641 97.796 76.5361 97.72C76.6081 97.644 76.6521 97.542 76.6681 97.414C76.6841 97.286 76.6881 97.148 76.6801 97H76.1341V95.734H77.1601V97.24C77.1601 97.608 77.0661 97.884 76.8781 98.068C76.6941 98.252 76.4461 98.314 76.1341 98.254ZM84.1659 97.174C83.7379 97.174 83.3439 97.098 82.9839 96.946C82.6239 96.794 82.3139 96.578 82.0539 96.298C81.7939 96.014 81.6039 95.676 81.4839 95.284L82.3239 95.032C82.4679 95.46 82.7039 95.784 83.0319 96.004C83.3639 96.224 83.7379 96.33 84.1539 96.322C84.5379 96.314 84.8679 96.228 85.1439 96.064C85.4239 95.9 85.6379 95.672 85.7859 95.38C85.9339 95.088 86.0079 94.75 86.0079 94.366C86.0079 93.778 85.8359 93.306 85.4919 92.95C85.1519 92.59 84.7019 92.41 84.1419 92.41C83.9859 92.41 83.8219 92.432 83.6499 92.476C83.4779 92.516 83.3179 92.574 83.1699 92.65L82.7259 91.948L86.0859 88.846L86.2299 89.206H81.8259V88.36H86.8179V89.218L83.8899 92.014L83.8779 91.666C84.4779 91.59 85.0059 91.658 85.4619 91.87C85.9179 92.082 86.2739 92.406 86.5299 92.842C86.7899 93.274 86.9199 93.782 86.9199 94.366C86.9199 94.918 86.7999 95.406 86.5599 95.83C86.3239 96.25 85.9979 96.58 85.5819 96.82C85.1659 97.056 84.6939 97.174 84.1659 97.174ZM88.9387 97L92.1187 89.218H88.1167V88.36H93.0607V89.218L89.8867 97H88.9387ZM93.8713 97V95.974H94.8973V97H93.8713ZM99.6722 97.18C99.1322 97.18 98.6402 97.05 98.1962 96.79C97.7562 96.526 97.4042 96.17 97.1402 95.722C96.8802 95.27 96.7502 94.762 96.7502 94.198V91.204C96.7502 90.624 96.8802 90.108 97.1402 89.656C97.4002 89.2 97.7542 88.842 98.2022 88.582C98.6542 88.318 99.1662 88.186 99.7382 88.186C100.23 88.186 100.686 88.294 101.106 88.51C101.53 88.726 101.876 89.028 102.144 89.416L101.466 89.974C101.282 89.686 101.038 89.456 100.734 89.284C100.43 89.112 100.098 89.026 99.7382 89.026C99.3342 89.026 98.9742 89.124 98.6582 89.32C98.3422 89.516 98.0942 89.774 97.9142 90.094C97.7342 90.41 97.6442 90.754 97.6442 91.126V93.01L97.4222 92.758C97.6742 92.362 98.0042 92.042 98.4122 91.798C98.8242 91.554 99.2722 91.432 99.7562 91.432C100.292 91.432 100.774 91.56 101.202 91.816C101.63 92.068 101.97 92.41 102.222 92.842C102.474 93.274 102.6 93.758 102.6 94.294C102.6 94.826 102.466 95.31 102.198 95.746C101.934 96.182 101.58 96.53 101.136 96.79C100.696 97.05 100.208 97.18 99.6722 97.18ZM99.6722 96.322C100.048 96.322 100.39 96.232 100.698 96.052C101.01 95.872 101.256 95.628 101.436 95.32C101.62 95.012 101.712 94.67 101.712 94.294C101.712 93.918 101.62 93.576 101.436 93.268C101.256 92.956 101.012 92.71 100.704 92.53C100.396 92.346 100.054 92.254 99.6782 92.254C99.3022 92.254 98.9602 92.346 98.6522 92.53C98.3442 92.71 98.0982 92.956 97.9142 93.268C97.7342 93.576 97.6442 93.918 97.6442 94.294C97.6442 94.666 97.7342 95.006 97.9142 95.314C98.0942 95.622 98.3382 95.868 98.6462 96.052C98.9542 96.232 99.2962 96.322 99.6722 96.322ZM106.742 97.18C106.294 97.18 105.88 97.088 105.5 96.904C105.12 96.72 104.796 96.466 104.528 96.142C104.26 95.818 104.068 95.446 103.952 95.026L104.798 94.798C104.874 95.11 105.012 95.38 105.212 95.608C105.412 95.832 105.646 96.006 105.914 96.13C106.186 96.254 106.47 96.316 106.766 96.316C107.15 96.316 107.494 96.224 107.798 96.04C108.106 95.852 108.35 95.604 108.53 95.296C108.71 94.988 108.8 94.65 108.8 94.282C108.8 93.902 108.706 93.56 108.518 93.256C108.33 92.948 108.082 92.704 107.774 92.524C107.466 92.344 107.13 92.254 106.766 92.254C106.358 92.254 106.006 92.344 105.71 92.524C105.414 92.7 105.178 92.922 105.002 93.19L104.198 92.854L104.462 88.36H109.076V89.206H104.852L105.29 88.792L105.056 92.626L104.834 92.332C105.082 92.048 105.382 91.826 105.734 91.666C106.086 91.506 106.456 91.426 106.844 91.426C107.376 91.426 107.856 91.554 108.284 91.81C108.712 92.062 109.052 92.404 109.304 92.836C109.556 93.268 109.682 93.75 109.682 94.282C109.682 94.81 109.548 95.294 109.28 95.734C109.012 96.17 108.656 96.52 108.212 96.784C107.768 97.048 107.278 97.18 106.742 97.18ZM113.751 97.18C113.211 97.18 112.733 97.072 112.317 96.856C111.905 96.64 111.581 96.338 111.345 95.95C111.113 95.558 110.997 95.1 110.997 94.576C110.997 94.04 111.127 93.564 111.387 93.148C111.647 92.728 112.043 92.41 112.575 92.194L112.563 92.542C112.119 92.378 111.781 92.11 111.549 91.738C111.317 91.366 111.201 90.954 111.201 90.502C111.201 90.022 111.311 89.61 111.531 89.266C111.751 88.918 112.051 88.65 112.431 88.462C112.815 88.274 113.255 88.18 113.751 88.18C114.247 88.18 114.687 88.274 115.071 88.462C115.455 88.65 115.757 88.918 115.977 89.266C116.197 89.61 116.307 90.022 116.307 90.502C116.307 90.954 116.195 91.364 115.971 91.732C115.751 92.1 115.413 92.37 114.957 92.542L114.927 92.194C115.459 92.406 115.857 92.722 116.121 93.142C116.389 93.562 116.523 94.04 116.523 94.576C116.523 95.1 116.405 95.558 116.169 95.95C115.933 96.338 115.607 96.64 115.191 96.856C114.775 97.072 114.295 97.18 113.751 97.18ZM113.751 96.334C114.295 96.334 114.737 96.184 115.077 95.884C115.417 95.58 115.587 95.144 115.587 94.576C115.587 94 115.419 93.564 115.083 93.268C114.747 92.968 114.303 92.818 113.751 92.818C113.199 92.818 112.757 92.968 112.425 93.268C112.093 93.564 111.927 94 111.927 94.576C111.927 95.144 112.095 95.58 112.431 95.884C112.767 96.184 113.207 96.334 113.751 96.334ZM113.751 91.966C114.231 91.966 114.621 91.844 114.921 91.6C115.221 91.352 115.371 90.986 115.371 90.502C115.371 90.018 115.221 89.656 114.921 89.416C114.621 89.172 114.231 89.05 113.751 89.05C113.271 89.05 112.881 89.172 112.581 89.416C112.285 89.656 112.137 90.018 112.137 90.502C112.137 90.986 112.285 91.352 112.581 91.6C112.881 91.844 113.271 91.966 113.751 91.966ZM117.838 96.994L117.844 96.19L121.75 92.662C122.086 92.358 122.308 92.07 122.416 91.798C122.528 91.522 122.584 91.234 122.584 90.934C122.584 90.578 122.5 90.256 122.332 89.968C122.164 89.68 121.938 89.452 121.654 89.284C121.37 89.112 121.052 89.026 120.7 89.026C120.332 89.026 120.004 89.114 119.716 89.29C119.428 89.466 119.2 89.698 119.032 89.986C118.868 90.274 118.788 90.588 118.792 90.928H117.892C117.892 90.404 118.016 89.934 118.264 89.518C118.512 89.102 118.848 88.776 119.272 88.54C119.696 88.3 120.176 88.18 120.712 88.18C121.236 88.18 121.706 88.304 122.122 88.552C122.542 88.796 122.872 89.128 123.112 89.548C123.356 89.964 123.478 90.428 123.478 90.94C123.478 91.3 123.434 91.618 123.346 91.894C123.262 92.166 123.128 92.42 122.944 92.656C122.764 92.888 122.534 93.128 122.254 93.376L118.786 96.508L118.648 96.148H123.478V96.994H117.838ZM127.244 97.174C126.816 97.174 126.422 97.098 126.062 96.946C125.702 96.794 125.392 96.578 125.132 96.298C124.872 96.014 124.682 95.676 124.562 95.284L125.402 95.032C125.546 95.46 125.782 95.784 126.11 96.004C126.442 96.224 126.816 96.33 127.232 96.322C127.616 96.314 127.946 96.228 128.222 96.064C128.502 95.9 128.716 95.672 128.864 95.38C129.012 95.088 129.086 94.75 129.086 94.366C129.086 93.778 128.914 93.306 128.57 92.95C128.23 92.59 127.78 92.41 127.22 92.41C127.064 92.41 126.9 92.432 126.728 92.476C126.556 92.516 126.396 92.574 126.248 92.65L125.804 91.948L129.164 88.846L129.308 89.206H124.904V88.36H129.896V89.218L126.968 92.014L126.956 91.666C127.556 91.59 128.084 91.658 128.54 91.87C128.996 92.082 129.352 92.406 129.608 92.842C129.868 93.274 129.998 93.782 129.998 94.366C129.998 94.918 129.878 95.406 129.638 95.83C129.402 96.25 129.076 96.58 128.66 96.82C128.244 97.056 127.772 97.174 127.244 97.174ZM134.399 88.186C134.943 88.186 135.435 88.318 135.875 88.582C136.319 88.842 136.671 89.198 136.931 89.65C137.191 90.098 137.321 90.602 137.321 91.162V94.162C137.321 94.738 137.191 95.254 136.931 95.71C136.671 96.166 136.315 96.526 135.863 96.79C135.415 97.05 134.905 97.18 134.333 97.18C133.841 97.18 133.385 97.072 132.965 96.856C132.549 96.636 132.205 96.334 131.933 95.95L132.605 95.392C132.789 95.676 133.033 95.904 133.337 96.076C133.645 96.248 133.977 96.334 134.333 96.334C134.741 96.334 135.101 96.238 135.413 96.046C135.729 95.85 135.977 95.594 136.157 95.278C136.341 94.958 136.433 94.612 136.433 94.24V92.356L136.649 92.608C136.401 93.004 136.071 93.324 135.659 93.568C135.251 93.812 134.803 93.934 134.315 93.934C133.783 93.934 133.301 93.806 132.869 93.55C132.441 93.294 132.101 92.95 131.849 92.518C131.601 92.086 131.477 91.604 131.477 91.072C131.477 90.54 131.609 90.056 131.873 89.62C132.137 89.18 132.491 88.832 132.935 88.576C133.379 88.316 133.867 88.186 134.399 88.186ZM134.399 89.038C134.023 89.038 133.681 89.13 133.373 89.314C133.065 89.494 132.819 89.738 132.635 90.046C132.455 90.354 132.365 90.696 132.365 91.072C132.365 91.448 132.455 91.79 132.635 92.098C132.815 92.406 133.059 92.652 133.367 92.836C133.675 93.016 134.017 93.106 134.393 93.106C134.769 93.106 135.111 93.016 135.419 92.836C135.731 92.652 135.977 92.406 136.157 92.098C136.341 91.79 136.433 91.448 136.433 91.072C136.433 90.7 136.341 90.36 136.157 90.052C135.977 89.744 135.733 89.498 135.425 89.314C135.117 89.13 134.775 89.038 134.399 89.038Z" fill="#9EA2B0"/>
    <path d="M16.6 116.994L16.606 116.034L20.44 112.584C20.76 112.296 20.974 112.024 21.082 111.768C21.194 111.508 21.25 111.242 21.25 110.97C21.25 110.638 21.174 110.338 21.022 110.07C20.87 109.802 20.662 109.59 20.398 109.434C20.138 109.278 19.842 109.2 19.51 109.2C19.166 109.2 18.86 109.282 18.592 109.446C18.324 109.606 18.112 109.82 17.956 110.088C17.804 110.356 17.73 110.648 17.734 110.964H16.642C16.642 110.42 16.768 109.94 17.02 109.524C17.272 109.104 17.614 108.776 18.046 108.54C18.482 108.3 18.976 108.18 19.528 108.18C20.064 108.18 20.544 108.304 20.968 108.552C21.392 108.796 21.726 109.13 21.97 109.554C22.218 109.974 22.342 110.45 22.342 110.982C22.342 111.358 22.294 111.684 22.198 111.96C22.106 112.236 21.962 112.492 21.766 112.728C21.57 112.96 21.324 113.208 21.028 113.472L17.842 116.334L17.704 115.974H22.342V116.994H16.6ZM23.6575 113.658V112.776H27.2575V113.658H23.6575ZM31.6066 109.764C31.3066 109.764 31.0326 109.69 30.7846 109.542C30.5366 109.394 30.3386 109.198 30.1906 108.954C30.0426 108.706 29.9686 108.43 29.9686 108.126H30.8326C30.8326 108.338 30.9086 108.52 31.0606 108.672C31.2126 108.824 31.3946 108.9 31.6066 108.9C31.8226 108.9 32.0046 108.824 32.1526 108.672C32.3046 108.52 32.3806 108.338 32.3806 108.126H33.2446C33.2446 108.43 33.1706 108.706 33.0226 108.954C32.8786 109.198 32.6806 109.394 32.4286 109.542C32.1806 109.69 31.9066 109.764 31.6066 109.764ZM34.1206 110.52V117H33.0886V112.224L29.6926 117H28.8106V110.52H29.8426V115.23L33.2446 110.52H34.1206ZM37.6033 117L40.4953 108.36H41.9833L44.8753 117H43.7653L41.0593 108.984H41.3953L38.7133 117H37.6033ZM38.9953 114.978V113.976H43.4833V114.978H38.9953ZM45.9434 117V110.52H48.7034C48.8674 110.52 49.0434 110.53 49.2314 110.55C49.4234 110.566 49.5974 110.596 49.7534 110.64C50.1014 110.732 50.3874 110.922 50.6114 111.21C50.8394 111.494 50.9534 111.854 50.9534 112.29C50.9534 112.534 50.9154 112.746 50.8394 112.926C50.7674 113.106 50.6634 113.262 50.5274 113.394C50.4674 113.454 50.4014 113.508 50.3294 113.556C50.2574 113.604 50.1854 113.642 50.1134 113.67C50.2534 113.694 50.3954 113.748 50.5394 113.832C50.7674 113.956 50.9454 114.13 51.0734 114.354C51.2054 114.578 51.2714 114.864 51.2714 115.212C51.2714 115.652 51.1654 116.016 50.9534 116.304C50.7414 116.588 50.4494 116.784 50.0774 116.892C49.9214 116.936 49.7494 116.966 49.5614 116.982C49.3734 116.994 49.1914 117 49.0154 117H45.9434ZM47.0234 116.13H48.9554C49.0394 116.13 49.1394 116.122 49.2554 116.106C49.3754 116.09 49.4814 116.07 49.5734 116.046C49.7814 115.986 49.9314 115.874 50.0234 115.71C50.1194 115.546 50.1674 115.368 50.1674 115.176C50.1674 114.92 50.0954 114.712 49.9514 114.552C49.8114 114.392 49.6254 114.292 49.3934 114.252C49.3094 114.228 49.2174 114.214 49.1174 114.21C49.0214 114.206 48.9354 114.204 48.8594 114.204H47.0234V116.13ZM47.0234 113.322H48.6314C48.7434 113.322 48.8614 113.316 48.9854 113.304C49.1094 113.288 49.2174 113.262 49.3094 113.226C49.4934 113.158 49.6274 113.046 49.7114 112.89C49.7994 112.73 49.8434 112.556 49.8434 112.368C49.8434 112.16 49.7954 111.978 49.6994 111.822C49.6074 111.662 49.4654 111.552 49.2734 111.492C49.1454 111.444 49.0014 111.418 48.8414 111.414C48.6854 111.406 48.5854 111.402 48.5414 111.402H47.0234V113.322ZM54.1927 117V111.492H51.9367V110.52H57.5167V111.492H55.2607V117H54.1927ZM61.2953 117.18C60.6513 117.18 60.0953 117.034 59.6273 116.742C59.1633 116.45 58.8053 116.046 58.5533 115.53C58.3013 115.014 58.1753 114.422 58.1753 113.754C58.1753 113.074 58.3033 112.478 58.5593 111.966C58.8153 111.454 59.1773 111.056 59.6453 110.772C60.1133 110.484 60.6633 110.34 61.2953 110.34C61.9433 110.34 62.5013 110.486 62.9693 110.778C63.4373 111.066 63.7953 111.468 64.0433 111.984C64.2953 112.496 64.4213 113.086 64.4213 113.754C64.4213 114.43 64.2953 115.026 64.0433 115.542C63.7913 116.054 63.4313 116.456 62.9633 116.748C62.4953 117.036 61.9393 117.18 61.2953 117.18ZM61.2953 116.166C61.9673 116.166 62.4673 115.942 62.7953 115.494C63.1233 115.046 63.2873 114.466 63.2873 113.754C63.2873 113.022 63.1213 112.44 62.7893 112.008C62.4573 111.572 61.9593 111.354 61.2953 111.354C60.8433 111.354 60.4713 111.456 60.1793 111.66C59.8873 111.864 59.6693 112.146 59.5253 112.506C59.3813 112.866 59.3093 113.282 59.3093 113.754C59.3093 114.482 59.4773 115.066 59.8133 115.506C60.1493 115.946 60.6433 116.166 61.2953 116.166ZM67.912 117.18C67.272 117.18 66.706 117.042 66.214 116.766C65.722 116.486 65.334 116.102 65.05 115.614L65.902 115.062C66.138 115.418 66.42 115.692 66.748 115.884C67.076 116.072 67.45 116.166 67.87 116.166C68.31 116.166 68.66 116.066 68.92 115.866C69.18 115.662 69.31 115.388 69.31 115.044C69.31 114.788 69.246 114.592 69.118 114.456C68.99 114.32 68.806 114.226 68.566 114.174C68.326 114.122 68.04 114.096 67.708 114.096H67.036V113.214H67.702C68.122 113.214 68.464 113.146 68.728 113.01C68.992 112.874 69.124 112.642 69.124 112.314C69.124 111.978 69 111.734 68.752 111.582C68.508 111.426 68.216 111.348 67.876 111.348C67.516 111.348 67.172 111.424 66.844 111.576C66.516 111.724 66.234 111.912 65.998 112.14L65.35 111.414C65.686 111.07 66.072 110.806 66.508 110.622C66.948 110.434 67.426 110.34 67.942 110.34C68.358 110.34 68.738 110.414 69.082 110.562C69.43 110.706 69.706 110.92 69.91 111.204C70.118 111.484 70.222 111.826 70.222 112.23C70.222 112.574 70.142 112.88 69.982 113.148C69.822 113.416 69.586 113.65 69.274 113.85L69.232 113.472C69.496 113.536 69.714 113.654 69.886 113.826C70.062 113.994 70.192 114.194 70.276 114.426C70.36 114.658 70.402 114.9 70.402 115.152C70.402 115.576 70.29 115.94 70.066 116.244C69.846 116.544 69.548 116.776 69.172 116.94C68.796 117.1 68.376 117.18 67.912 117.18ZM73.5609 117.18C73.0769 117.18 72.6709 117.092 72.3429 116.916C72.0189 116.736 71.7729 116.5 71.6049 116.208C71.4409 115.916 71.3589 115.596 71.3589 115.248C71.3589 114.908 71.4229 114.614 71.5509 114.366C71.6829 114.114 71.8669 113.906 72.1029 113.742C72.3389 113.574 72.6209 113.442 72.9489 113.346C73.2569 113.262 73.6009 113.19 73.9809 113.13C74.3649 113.066 74.7529 113.008 75.1449 112.956C75.5369 112.904 75.9029 112.854 76.2429 112.806L75.8589 113.028C75.8709 112.452 75.7549 112.026 75.5109 111.75C75.2709 111.474 74.8549 111.336 74.2629 111.336C73.8709 111.336 73.5269 111.426 73.2309 111.606C72.9389 111.782 72.7329 112.07 72.6129 112.47L71.5989 112.164C71.7549 111.596 72.0569 111.15 72.5049 110.826C72.9529 110.502 73.5429 110.34 74.2749 110.34C74.8629 110.34 75.3669 110.446 75.7869 110.658C76.2109 110.866 76.5149 111.182 76.6989 111.606C76.7909 111.806 76.8489 112.024 76.8729 112.26C76.8969 112.492 76.9089 112.736 76.9089 112.992V117H75.9609V115.446L76.1829 115.59C75.9389 116.114 75.5969 116.51 75.1569 116.778C74.7209 117.046 74.1889 117.18 73.5609 117.18ZM73.7229 116.286C74.1069 116.286 74.4389 116.218 74.7189 116.082C75.0029 115.942 75.2309 115.76 75.4029 115.536C75.5749 115.308 75.6869 115.06 75.7389 114.792C75.7989 114.592 75.8309 114.37 75.8349 114.126C75.8429 113.878 75.8469 113.688 75.8469 113.556L76.2189 113.718C75.8709 113.766 75.5289 113.812 75.1929 113.856C74.8569 113.9 74.5389 113.948 74.2389 114C73.9389 114.048 73.6689 114.106 73.4289 114.174C73.2529 114.23 73.0869 114.302 72.9309 114.39C72.7789 114.478 72.6549 114.592 72.5589 114.732C72.4669 114.868 72.4209 115.038 72.4209 115.242C72.4209 115.418 72.4649 115.586 72.5529 115.746C72.6449 115.906 72.7849 116.036 72.9729 116.136C73.1649 116.236 73.4149 116.286 73.7229 116.286ZM78.4629 117V110.52H81.2229C81.3869 110.52 81.5629 110.53 81.7509 110.55C81.9429 110.566 82.1169 110.596 82.2729 110.64C82.6209 110.732 82.9069 110.922 83.1309 111.21C83.3589 111.494 83.4729 111.854 83.4729 112.29C83.4729 112.534 83.4349 112.746 83.3589 112.926C83.2869 113.106 83.1829 113.262 83.0469 113.394C82.9869 113.454 82.9209 113.508 82.8489 113.556C82.7769 113.604 82.7049 113.642 82.6329 113.67C82.7729 113.694 82.9149 113.748 83.0589 113.832C83.2869 113.956 83.4649 114.13 83.5929 114.354C83.7249 114.578 83.7909 114.864 83.7909 115.212C83.7909 115.652 83.6849 116.016 83.4729 116.304C83.2609 116.588 82.9689 116.784 82.5969 116.892C82.4409 116.936 82.2689 116.966 82.0809 116.982C81.8929 116.994 81.7109 117 81.5349 117H78.4629ZM79.5429 116.13H81.4749C81.5589 116.13 81.6589 116.122 81.7749 116.106C81.8949 116.09 82.0009 116.07 82.0929 116.046C82.3009 115.986 82.4509 115.874 82.5429 115.71C82.6389 115.546 82.6869 115.368 82.6869 115.176C82.6869 114.92 82.6149 114.712 82.4709 114.552C82.3309 114.392 82.1449 114.292 81.9129 114.252C81.8289 114.228 81.7369 114.214 81.6369 114.21C81.5409 114.206 81.4549 114.204 81.3789 114.204H79.5429V116.13ZM79.5429 113.322H81.1509C81.2629 113.322 81.3809 113.316 81.5049 113.304C81.6289 113.288 81.7369 113.262 81.8289 113.226C82.0129 113.158 82.1469 113.046 82.2309 112.89C82.3189 112.73 82.3629 112.556 82.3629 112.368C82.3629 112.16 82.3149 111.978 82.2189 111.822C82.1269 111.662 81.9849 111.552 81.7929 111.492C81.6649 111.444 81.5209 111.418 81.3609 111.414C81.2049 111.406 81.1049 111.402 81.0609 111.402H79.5429V113.322ZM87.7563 117.18C87.1123 117.18 86.5563 117.034 86.0883 116.742C85.6243 116.45 85.2663 116.046 85.0143 115.53C84.7623 115.014 84.6363 114.422 84.6363 113.754C84.6363 113.074 84.7643 112.478 85.0203 111.966C85.2763 111.454 85.6383 111.056 86.1063 110.772C86.5743 110.484 87.1243 110.34 87.7563 110.34C88.4043 110.34 88.9623 110.486 89.4303 110.778C89.8983 111.066 90.2563 111.468 90.5043 111.984C90.7563 112.496 90.8823 113.086 90.8823 113.754C90.8823 114.43 90.7563 115.026 90.5043 115.542C90.2523 116.054 89.8923 116.456 89.4243 116.748C88.9563 117.036 88.4003 117.18 87.7563 117.18ZM87.7563 116.166C88.4283 116.166 88.9283 115.942 89.2563 115.494C89.5843 115.046 89.7483 114.466 89.7483 113.754C89.7483 113.022 89.5823 112.44 89.2503 112.008C88.9183 111.572 88.4203 111.354 87.7563 111.354C87.3043 111.354 86.9323 111.456 86.6403 111.66C86.3483 111.864 86.1303 112.146 85.9863 112.506C85.8423 112.866 85.7703 113.282 85.7703 113.754C85.7703 114.482 85.9383 115.066 86.2743 115.506C86.6103 115.946 87.1043 116.166 87.7563 116.166ZM91.7233 118.44V116.118C92.0873 116.118 92.3473 116 92.5033 115.764C92.6593 115.524 92.7853 115.13 92.8813 114.582C92.9453 114.238 92.9973 113.87 93.0373 113.478C93.0773 113.086 93.1113 112.65 93.1393 112.17C93.1713 111.686 93.2013 111.136 93.2293 110.52H97.6933V116.118H98.3233V118.44H97.3033V117H92.7433V118.44H91.7233ZM93.3673 116.118H96.6253V111.402H94.1953C94.1833 111.686 94.1673 111.984 94.1473 112.296C94.1273 112.604 94.1033 112.912 94.0753 113.22C94.0513 113.528 94.0213 113.82 93.9853 114.096C93.9533 114.368 93.9153 114.612 93.8713 114.828C93.8193 115.128 93.7593 115.382 93.6913 115.59C93.6233 115.798 93.5153 115.974 93.3673 116.118ZM102.258 117.18C101.602 117.18 101.044 117.034 100.584 116.742C100.128 116.446 99.7795 116.04 99.5395 115.524C99.2995 115.008 99.1755 114.42 99.1675 113.76C99.1755 113.084 99.3015 112.49 99.5455 111.978C99.7935 111.462 100.148 111.06 100.608 110.772C101.068 110.484 101.622 110.34 102.27 110.34C102.954 110.34 103.542 110.508 104.034 110.844C104.53 111.18 104.862 111.64 105.03 112.224L103.974 112.542C103.838 112.166 103.616 111.874 103.308 111.666C103.004 111.458 102.654 111.354 102.258 111.354C101.814 111.354 101.448 111.458 101.16 111.666C100.872 111.87 100.658 112.154 100.518 112.518C100.378 112.878 100.306 113.292 100.302 113.76C100.31 114.48 100.476 115.062 100.8 115.506C101.128 115.946 101.614 116.166 102.258 116.166C102.682 116.166 103.034 116.07 103.314 115.878C103.594 115.682 103.806 115.4 103.95 115.032L105.03 115.314C104.806 115.918 104.456 116.38 103.98 116.7C103.504 117.02 102.93 117.18 102.258 117.18ZM106.248 117L106.254 110.52H107.334V113.64L110.052 110.52H111.438L108.576 113.76L111.774 117H110.28L107.334 113.88V117H106.248ZM117.675 110.52V117H116.643V112.224L113.247 117H112.365V110.52H113.397V115.23L116.799 110.52H117.675ZM122.146 109.764C121.846 109.764 121.572 109.69 121.324 109.542C121.076 109.394 120.878 109.198 120.73 108.954C120.582 108.706 120.508 108.43 120.508 108.126H121.372C121.372 108.338 121.448 108.52 121.6 108.672C121.752 108.824 121.934 108.9 122.146 108.9C122.362 108.9 122.544 108.824 122.692 108.672C122.844 108.52 122.92 108.338 122.92 108.126H123.784C123.784 108.43 123.71 108.706 123.562 108.954C123.418 109.198 123.22 109.394 122.968 109.542C122.72 109.69 122.446 109.764 122.146 109.764ZM124.66 110.52V117H123.628V112.224L120.232 117H119.35V110.52H120.382V115.23L123.784 110.52H124.66ZM128.736 117V110.52H134.046V117H132.978V111.534H129.804V117H128.736ZM138.703 117.18C138.095 117.18 137.583 117.03 137.167 116.73C136.751 116.426 136.435 116.016 136.219 115.5C136.007 114.98 135.901 114.398 135.901 113.754C135.901 113.102 136.007 112.518 136.219 112.002C136.435 111.486 136.751 111.08 137.167 110.784C137.587 110.488 138.101 110.34 138.709 110.34C139.309 110.34 139.825 110.49 140.257 110.79C140.693 111.086 141.027 111.492 141.259 112.008C141.491 112.524 141.607 113.106 141.607 113.754C141.607 114.402 141.491 114.984 141.259 115.5C141.027 116.016 140.693 116.426 140.257 116.73C139.825 117.03 139.307 117.18 138.703 117.18ZM135.721 119.88V110.52H136.675V115.29H136.795V119.88H135.721ZM138.571 116.202C138.999 116.202 139.353 116.094 139.633 115.878C139.913 115.662 140.123 115.37 140.263 115.002C140.403 114.63 140.473 114.214 140.473 113.754C140.473 113.298 140.403 112.886 140.263 112.518C140.127 112.15 139.915 111.858 139.627 111.642C139.343 111.426 138.981 111.318 138.541 111.318C138.121 111.318 137.773 111.422 137.497 111.63C137.221 111.834 137.015 112.12 136.879 112.488C136.743 112.852 136.675 113.274 136.675 113.754C136.675 114.226 136.741 114.648 136.873 115.02C137.009 115.388 137.217 115.678 137.497 115.89C137.777 116.098 138.135 116.202 138.571 116.202ZM145.682 117.18C145.038 117.18 144.482 117.034 144.014 116.742C143.55 116.45 143.192 116.046 142.94 115.53C142.688 115.014 142.562 114.422 142.562 113.754C142.562 113.074 142.69 112.478 142.946 111.966C143.202 111.454 143.564 111.056 144.032 110.772C144.5 110.484 145.05 110.34 145.682 110.34C146.33 110.34 146.888 110.486 147.356 110.778C147.824 111.066 148.182 111.468 148.43 111.984C148.682 112.496 148.808 113.086 148.808 113.754C148.808 114.43 148.682 115.026 148.43 115.542C148.178 116.054 147.818 116.456 147.35 116.748C146.882 117.036 146.326 117.18 145.682 117.18ZM145.682 116.166C146.354 116.166 146.854 115.942 147.182 115.494C147.51 115.046 147.674 114.466 147.674 113.754C147.674 113.022 147.508 112.44 147.176 112.008C146.844 111.572 146.346 111.354 145.682 111.354C145.23 111.354 144.858 111.456 144.566 111.66C144.274 111.864 144.056 112.146 143.912 112.506C143.768 112.866 143.696 113.282 143.696 113.754C143.696 114.482 143.864 115.066 144.2 115.506C144.536 115.946 145.03 116.166 145.682 116.166ZM152.937 117.18C152.301 117.18 151.745 117.04 151.269 116.76C150.797 116.476 150.429 116.082 150.165 115.578C149.901 115.07 149.769 114.478 149.769 113.802C149.769 113.094 149.899 112.482 150.159 111.966C150.419 111.446 150.781 111.046 151.245 110.766C151.713 110.482 152.261 110.34 152.889 110.34C153.541 110.34 154.095 110.49 154.551 110.79C155.011 111.09 155.355 111.518 155.583 112.074C155.815 112.63 155.915 113.292 155.883 114.06H154.803V113.676C154.791 112.88 154.629 112.286 154.317 111.894C154.005 111.498 153.541 111.3 152.925 111.3C152.265 111.3 151.763 111.512 151.419 111.936C151.075 112.36 150.903 112.968 150.903 113.76C150.903 114.524 151.075 115.116 151.419 115.536C151.763 115.956 152.253 116.166 152.889 116.166C153.317 116.166 153.689 116.068 154.005 115.872C154.321 115.676 154.569 115.394 154.749 115.026L155.775 115.38C155.523 115.952 155.143 116.396 154.635 116.712C154.131 117.024 153.565 117.18 152.937 117.18ZM150.543 114.06V113.202H155.331V114.06H150.543ZM159.307 117.18C158.667 117.18 158.101 117.042 157.609 116.766C157.117 116.486 156.729 116.102 156.445 115.614L157.297 115.062C157.533 115.418 157.815 115.692 158.143 115.884C158.471 116.072 158.845 116.166 159.265 116.166C159.705 116.166 160.055 116.066 160.315 115.866C160.575 115.662 160.705 115.388 160.705 115.044C160.705 114.788 160.641 114.592 160.513 114.456C160.385 114.32 160.201 114.226 159.961 114.174C159.721 114.122 159.435 114.096 159.103 114.096H158.431V113.214H159.097C159.517 113.214 159.859 113.146 160.123 113.01C160.387 112.874 160.519 112.642 160.519 112.314C160.519 111.978 160.395 111.734 160.147 111.582C159.903 111.426 159.611 111.348 159.271 111.348C158.911 111.348 158.567 111.424 158.239 111.576C157.911 111.724 157.629 111.912 157.393 112.14L156.745 111.414C157.081 111.07 157.467 110.806 157.903 110.622C158.343 110.434 158.821 110.34 159.337 110.34C159.753 110.34 160.133 110.414 160.477 110.562C160.825 110.706 161.101 110.92 161.305 111.204C161.513 111.484 161.617 111.826 161.617 112.23C161.617 112.574 161.537 112.88 161.377 113.148C161.217 113.416 160.981 113.65 160.669 113.85L160.627 113.472C160.891 113.536 161.109 113.654 161.281 113.826C161.457 113.994 161.587 114.194 161.671 114.426C161.755 114.658 161.797 114.9 161.797 115.152C161.797 115.576 161.685 115.94 161.461 116.244C161.241 116.544 160.943 116.776 160.567 116.94C160.191 117.1 159.771 117.18 159.307 117.18ZM162.633 118.44V116.118C162.997 116.118 163.257 116 163.413 115.764C163.569 115.524 163.695 115.13 163.791 114.582C163.855 114.238 163.907 113.87 163.947 113.478C163.987 113.086 164.021 112.65 164.049 112.17C164.081 111.686 164.111 111.136 164.139 110.52H168.603V116.118H169.233V118.44H168.213V117H163.653V118.44H162.633ZM164.277 116.118H167.535V111.402H165.105C165.093 111.686 165.077 111.984 165.057 112.296C165.037 112.604 165.013 112.912 164.985 113.22C164.961 113.528 164.931 113.82 164.895 114.096C164.863 114.368 164.825 114.612 164.781 114.828C164.729 115.128 164.669 115.382 164.601 115.59C164.533 115.798 164.425 115.974 164.277 116.118ZM170.318 118.344L170.384 117.846C170.552 117.858 170.678 117.826 170.762 117.75C170.846 117.674 170.9 117.57 170.924 117.438C170.948 117.306 170.952 117.16 170.936 117H170.318V115.644H171.494V117.18C171.494 117.6 171.39 117.916 171.182 118.128C170.978 118.34 170.69 118.412 170.318 118.344ZM177.686 117V109.542L176.06 110.526V109.332L177.686 108.36H178.772V117H177.686ZM183.239 108.36H184.325L182.021 117H180.935L183.239 108.36ZM188.709 108.186C189.261 108.186 189.759 108.318 190.203 108.582C190.647 108.846 190.999 109.206 191.259 109.662C191.523 110.118 191.655 110.636 191.655 111.216V114.09C191.655 114.694 191.525 115.228 191.265 115.692C191.005 116.156 190.645 116.52 190.185 116.784C189.729 117.048 189.205 117.18 188.613 117.18C188.141 117.18 187.699 117.082 187.287 116.886C186.879 116.69 186.533 116.412 186.249 116.052L187.047 115.344C187.223 115.592 187.449 115.792 187.725 115.944C188.001 116.092 188.297 116.166 188.613 116.166C188.997 116.166 189.335 116.074 189.627 115.89C189.923 115.706 190.153 115.466 190.317 115.17C190.485 114.874 190.569 114.554 190.569 114.21V112.476L190.803 112.74C190.555 113.1 190.237 113.388 189.849 113.604C189.461 113.82 189.039 113.928 188.583 113.928C188.047 113.928 187.567 113.802 187.143 113.55C186.719 113.298 186.383 112.958 186.135 112.53C185.887 112.098 185.763 111.614 185.763 111.078C185.763 110.542 185.897 110.056 186.165 109.62C186.433 109.18 186.789 108.832 187.233 108.576C187.681 108.316 188.173 108.186 188.709 108.186ZM188.709 109.218C188.365 109.218 188.051 109.302 187.767 109.47C187.487 109.634 187.263 109.858 187.095 110.142C186.927 110.422 186.843 110.734 186.843 111.078C186.843 111.422 186.925 111.736 187.089 112.02C187.257 112.3 187.481 112.524 187.761 112.692C188.045 112.86 188.359 112.944 188.703 112.944C189.047 112.944 189.361 112.86 189.645 112.692C189.929 112.524 190.153 112.3 190.317 112.02C190.485 111.736 190.569 111.422 190.569 111.078C190.569 110.738 190.485 110.428 190.317 110.148C190.153 109.864 189.929 109.638 189.645 109.47C189.365 109.302 189.053 109.218 188.709 109.218Z" fill="#0F1015"/>
    <rect x="349.5" y="30.5" width="19" height="19" rx="3.5" fill="white" stroke="#9EA2B0"/>
    <path d="M387.338 45.18C386.478 45.18 385.752 44.99 385.16 44.61C384.568 44.226 384.12 43.696 383.816 43.02C383.512 42.344 383.36 41.564 383.36 40.68C383.36 39.796 383.512 39.016 383.816 38.34C384.12 37.664 384.568 37.136 385.16 36.756C385.752 36.372 386.478 36.18 387.338 36.18C388.342 36.18 389.162 36.438 389.798 36.954C390.434 37.466 390.87 38.154 391.106 39.018L390.206 39.252C390.022 38.568 389.692 38.026 389.216 37.626C388.74 37.226 388.114 37.026 387.338 37.026C386.662 37.026 386.1 37.18 385.652 37.488C385.204 37.796 384.866 38.226 384.638 38.778C384.414 39.326 384.298 39.96 384.29 40.68C384.286 41.4 384.396 42.034 384.62 42.582C384.848 43.13 385.188 43.56 385.64 43.872C386.096 44.18 386.662 44.334 387.338 44.334C388.114 44.334 388.74 44.134 389.216 43.734C389.692 43.33 390.022 42.788 390.206 42.108L391.106 42.342C390.87 43.206 390.434 43.896 389.798 44.412C389.162 44.924 388.342 45.18 387.338 45.18ZM395.34 45.18C394.744 45.18 394.24 45.03 393.828 44.73C393.416 44.426 393.104 44.016 392.892 43.5C392.68 42.98 392.574 42.398 392.574 41.754C392.574 41.098 392.68 40.514 392.892 40.002C393.108 39.486 393.424 39.08 393.84 38.784C394.256 38.488 394.768 38.34 395.376 38.34C395.968 38.34 396.476 38.49 396.9 38.79C397.324 39.09 397.648 39.498 397.872 40.014C398.1 40.53 398.214 41.11 398.214 41.754C398.214 42.402 398.1 42.984 397.872 43.5C397.644 44.016 397.316 44.426 396.888 44.73C396.46 45.03 395.944 45.18 395.34 45.18ZM392.424 47.88V38.52H393.216V43.398H393.312V47.88H392.424ZM395.25 44.358C395.702 44.358 396.078 44.244 396.378 44.016C396.678 43.788 396.902 43.478 397.05 43.086C397.202 42.69 397.278 42.246 397.278 41.754C397.278 41.266 397.204 40.826 397.056 40.434C396.908 40.042 396.682 39.732 396.378 39.504C396.078 39.276 395.696 39.162 395.232 39.162C394.78 39.162 394.404 39.272 394.104 39.492C393.808 39.712 393.586 40.018 393.438 40.41C393.29 40.798 393.216 41.246 393.216 41.754C393.216 42.254 393.29 42.702 393.438 43.098C393.586 43.49 393.81 43.798 394.11 44.022C394.41 44.246 394.79 44.358 395.25 44.358ZM401.385 45.18C400.897 45.18 400.487 45.092 400.155 44.916C399.827 44.74 399.581 44.506 399.417 44.214C399.253 43.922 399.171 43.604 399.171 43.26C399.171 42.908 399.241 42.608 399.381 42.36C399.525 42.108 399.719 41.902 399.963 41.742C400.211 41.582 400.497 41.46 400.821 41.376C401.149 41.296 401.511 41.226 401.907 41.166C402.307 41.102 402.697 41.048 403.077 41.004C403.461 40.956 403.797 40.91 404.085 40.866L403.773 41.058C403.785 40.418 403.661 39.944 403.401 39.636C403.141 39.328 402.689 39.174 402.045 39.174C401.601 39.174 401.225 39.274 400.917 39.474C400.613 39.674 400.399 39.99 400.275 40.422L399.417 40.17C399.565 39.59 399.863 39.14 400.311 38.82C400.759 38.5 401.341 38.34 402.057 38.34C402.649 38.34 403.151 38.452 403.563 38.676C403.979 38.896 404.273 39.216 404.445 39.636C404.525 39.824 404.577 40.034 404.601 40.266C404.625 40.498 404.637 40.734 404.637 40.974V45H403.851V43.374L404.079 43.47C403.859 44.026 403.517 44.45 403.053 44.742C402.589 45.034 402.033 45.18 401.385 45.18ZM401.487 44.418C401.899 44.418 402.259 44.344 402.567 44.196C402.875 44.048 403.123 43.846 403.311 43.59C403.499 43.33 403.621 43.038 403.677 42.714C403.725 42.506 403.751 42.278 403.755 42.03C403.759 41.778 403.761 41.59 403.761 41.466L404.097 41.64C403.797 41.68 403.471 41.72 403.119 41.76C402.771 41.8 402.427 41.846 402.087 41.898C401.751 41.95 401.447 42.012 401.175 42.084C400.991 42.136 400.813 42.21 400.641 42.306C400.469 42.398 400.327 42.522 400.215 42.678C400.107 42.834 400.053 43.028 400.053 43.26C400.053 43.448 400.099 43.63 400.191 43.806C400.287 43.982 400.439 44.128 400.647 44.244C400.859 44.36 401.139 44.418 401.487 44.418ZM406.193 45V38.52H408.863C408.999 38.52 409.163 38.528 409.355 38.544C409.551 38.56 409.733 38.59 409.901 38.634C410.265 38.73 410.557 38.926 410.777 39.222C411.001 39.518 411.113 39.874 411.113 40.29C411.113 40.522 411.077 40.73 411.005 40.914C410.937 41.094 410.839 41.25 410.711 41.382C410.651 41.45 410.585 41.51 410.513 41.562C410.441 41.61 410.371 41.65 410.303 41.682C410.431 41.706 410.569 41.762 410.717 41.85C410.949 41.986 411.125 42.17 411.245 42.402C411.365 42.63 411.425 42.908 411.425 43.236C411.425 43.68 411.319 44.042 411.107 44.322C410.895 44.602 410.611 44.794 410.255 44.898C410.095 44.942 409.921 44.97 409.733 44.982C409.549 44.994 409.375 45 409.211 45H406.193ZM407.081 44.25H409.169C409.253 44.25 409.359 44.244 409.487 44.232C409.615 44.216 409.729 44.196 409.829 44.172C410.065 44.112 410.237 43.992 410.345 43.812C410.457 43.628 410.513 43.428 410.513 43.212C410.513 42.928 410.429 42.696 410.261 42.516C410.097 42.332 409.877 42.22 409.601 42.18C409.509 42.16 409.413 42.148 409.313 42.144C409.213 42.14 409.123 42.138 409.043 42.138H407.081V44.25ZM407.081 41.382H408.893C408.997 41.382 409.113 41.376 409.241 41.364C409.373 41.348 409.487 41.322 409.583 41.286C409.791 41.214 409.943 41.09 410.039 40.914C410.139 40.738 410.189 40.546 410.189 40.338C410.189 40.11 410.135 39.91 410.027 39.738C409.923 39.566 409.765 39.446 409.553 39.378C409.409 39.326 409.253 39.296 409.085 39.288C408.921 39.28 408.817 39.276 408.773 39.276H407.081V41.382ZM412.615 45V38.52H413.497V41.334H417.151V38.52H418.033V45H417.151V42.18H413.497V45H412.615ZM424.859 38.52V45H424.001V39.954L420.449 45H419.705V38.52H420.563V43.524L424.121 38.52H424.859ZM428.301 45V39.336H426.003V38.52H431.481V39.336H429.183V45H428.301ZM432.631 45L432.619 38.52H433.507V40.962H435.025C435.213 40.962 435.397 40.966 435.577 40.974C435.761 40.982 435.923 40.998 436.063 41.022C436.383 41.082 436.667 41.188 436.915 41.34C437.167 41.492 437.363 41.702 437.503 41.97C437.647 42.238 437.719 42.574 437.719 42.978C437.719 43.534 437.575 43.972 437.287 44.292C437.003 44.612 436.643 44.82 436.207 44.916C436.043 44.952 435.865 44.976 435.673 44.988C435.481 44.996 435.291 45 435.103 45H432.631ZM433.507 44.244H435.067C435.203 44.244 435.355 44.24 435.523 44.232C435.691 44.224 435.839 44.202 435.967 44.166C436.179 44.106 436.371 43.986 436.543 43.806C436.719 43.622 436.807 43.346 436.807 42.978C436.807 42.614 436.723 42.34 436.555 42.156C436.387 41.968 436.163 41.844 435.883 41.784C435.759 41.756 435.625 41.738 435.481 41.73C435.337 41.722 435.199 41.718 435.067 41.718H433.507V44.244Z" fill="#0F1015"/>
    <rect x="347" y="78" width="44" height="44" rx="12" fill="#F5F6F9"/>
    <path d="M366.158 94.7881C364.098 94.7881 362.429 96.4578 362.429 98.5174C362.429 100.582 363.254 101.615 366.711 104.303L368.298 105.538C368.711 105.859 369.289 105.859 369.702 105.538L371.29 104.303C374.746 101.615 375.572 100.582 375.572 98.5174C375.572 96.4578 373.902 94.7881 371.842 94.7881C370.773 94.7881 369.821 95.274 369 96.209C368.18 95.274 367.227 94.7881 366.158 94.7881Z" fill="#F62E46"/>
    <rect x="399" y="78" width="44" height="44" rx="12" fill="#F5F6F9"/>
    <path fill-rule="evenodd" clip-rule="evenodd" d="M421 97.7147C421 97.3991 420.744 97.1433 420.429 97.1433C420.113 97.1433 419.857 97.3991 419.857 97.7147V98.8576H418.714C418.399 98.8576 418.143 99.1134 418.143 99.429C418.143 99.7446 418.399 100 418.714 100H419.857V101.143C419.857 101.459 420.113 101.715 420.429 101.715C420.744 101.715 421 101.459 421 101.143V100H422.143C422.458 100 422.714 99.7446 422.714 99.429C422.714 99.1134 422.458 98.8576 422.143 98.8576H421V97.7147Z" fill="#555D74"/>
    <path fill-rule="evenodd" clip-rule="evenodd" d="M420.429 94.2861C417.588 94.2861 415.286 96.5887 415.286 99.429C415.286 102.269 417.588 104.572 420.429 104.572C421.643 104.572 422.759 104.151 423.639 103.447L426.31 106.119C426.533 106.342 426.895 106.342 427.118 106.119C427.341 105.896 427.341 105.534 427.118 105.311L424.447 102.639C425.151 101.759 425.571 100.643 425.571 99.429C425.571 96.5887 423.269 94.2861 420.429 94.2861ZM420.429 95.429C418.219 95.429 416.429 97.2199 416.429 99.429C416.429 101.638 418.219 103.429 420.429 103.429C422.638 103.429 424.429 101.638 424.429 99.429C424.429 97.2199 422.638 95.429 420.429 95.429Z" fill="#555D74"/>
    <rect x="0.5" y="0.5" width="458" height="145" rx="19.5" stroke="#EBEDF2"/>
</svg>