<svg width="489" height="146" viewBox="0 0 489 146" fill="none" xmlns="http://www.w3.org/2000/svg">
    <rect x="0.5" y="0.5" width="458" height="145" rx="19.5" fill="white"/>
    <path d="M20.338 40.18C19.478 40.18 18.752 39.99 18.16 39.61C17.568 39.226 17.12 38.696 16.816 38.02C16.512 37.344 16.36 36.564 16.36 35.68C16.36 34.796 16.512 34.016 16.816 33.34C17.12 32.664 17.568 32.136 18.16 31.756C18.752 31.372 19.478 31.18 20.338 31.18C21.202 31.18 21.928 31.372 22.516 31.756C23.108 32.136 23.556 32.664 23.86 33.34C24.168 34.016 24.322 34.796 24.322 35.68C24.322 36.564 24.168 37.344 23.86 38.02C23.556 38.696 23.108 39.226 22.516 39.61C21.928 39.99 21.202 40.18 20.338 40.18ZM20.338 39.334C21.014 39.334 21.578 39.18 22.03 38.872C22.482 38.564 22.82 38.136 23.044 37.588C23.272 37.036 23.386 36.4 23.386 35.68C23.386 34.96 23.272 34.326 23.044 33.778C22.82 33.23 22.482 32.802 22.03 32.494C21.578 32.186 21.014 32.03 20.338 32.026C19.662 32.026 19.1 32.18 18.652 32.488C18.204 32.796 17.866 33.226 17.638 33.778C17.414 34.326 17.3 34.96 17.296 35.68C17.292 36.4 17.402 37.034 17.626 37.582C17.854 38.126 18.194 38.554 18.646 38.866C19.098 39.174 19.662 39.33 20.338 39.334ZM31.0916 41.122V40H25.5176V33.52H26.3996V39.154H29.7896V33.52H30.6716V39.184H31.9736V41.122H31.0916ZM35.6718 40.18C35.0398 40.18 34.4918 40.04 34.0278 39.76C33.5678 39.48 33.2098 39.086 32.9538 38.578C32.6978 38.07 32.5698 37.474 32.5698 36.79C32.5698 36.082 32.6958 35.47 32.9478 34.954C33.1998 34.438 33.5538 34.04 34.0098 33.76C34.4698 33.48 35.0118 33.34 35.6358 33.34C36.2758 33.34 36.8218 33.488 37.2738 33.784C37.7258 34.076 38.0678 34.496 38.2998 35.044C38.5318 35.592 38.6378 36.246 38.6178 37.006H37.7178V36.694C37.7018 35.854 37.5198 35.22 37.1718 34.792C36.8278 34.364 36.3238 34.15 35.6598 34.15C34.9638 34.15 34.4298 34.376 34.0578 34.828C33.6898 35.28 33.5058 35.924 33.5058 36.76C33.5058 37.576 33.6898 38.21 34.0578 38.662C34.4298 39.11 34.9558 39.334 35.6358 39.334C36.0998 39.334 36.5038 39.228 36.8478 39.016C37.1958 38.8 37.4698 38.49 37.6698 38.086L38.4918 38.404C38.2358 38.968 37.8578 39.406 37.3578 39.718C36.8618 40.026 36.2998 40.18 35.6718 40.18ZM33.1938 37.006V36.268H38.1438V37.006H33.1938ZM39.9434 40V33.52H40.8254V36.334H44.4794V33.52H45.3614V40H44.4794V37.18H40.8254V40H39.9434ZM47.0332 40L47.0392 33.52H47.9272V36.64L50.8192 33.52H51.9952L48.9592 36.76L52.3912 40H51.1072L47.9272 36.88V40H47.0332ZM54.8463 40.18C54.3583 40.18 53.9483 40.092 53.6163 39.916C53.2883 39.74 53.0423 39.506 52.8783 39.214C52.7143 38.922 52.6323 38.604 52.6323 38.26C52.6323 37.908 52.7023 37.608 52.8423 37.36C52.9863 37.108 53.1803 36.902 53.4243 36.742C53.6723 36.582 53.9583 36.46 54.2823 36.376C54.6103 36.296 54.9723 36.226 55.3683 36.166C55.7683 36.102 56.1583 36.048 56.5383 36.004C56.9223 35.956 57.2583 35.91 57.5463 35.866L57.2343 36.058C57.2463 35.418 57.1223 34.944 56.8623 34.636C56.6023 34.328 56.1503 34.174 55.5063 34.174C55.0623 34.174 54.6863 34.274 54.3783 34.474C54.0743 34.674 53.8603 34.99 53.7363 35.422L52.8783 35.17C53.0263 34.59 53.3243 34.14 53.7723 33.82C54.2203 33.5 54.8023 33.34 55.5183 33.34C56.1103 33.34 56.6123 33.452 57.0243 33.676C57.4403 33.896 57.7343 34.216 57.9063 34.636C57.9863 34.824 58.0383 35.034 58.0623 35.266C58.0863 35.498 58.0983 35.734 58.0983 35.974V40H57.3123V38.374L57.5403 38.47C57.3203 39.026 56.9783 39.45 56.5143 39.742C56.0503 40.034 55.4943 40.18 54.8463 40.18ZM54.9483 39.418C55.3603 39.418 55.7203 39.344 56.0283 39.196C56.3363 39.048 56.5843 38.846 56.7723 38.59C56.9603 38.33 57.0823 38.038 57.1383 37.714C57.1863 37.506 57.2123 37.278 57.2163 37.03C57.2203 36.778 57.2223 36.59 57.2223 36.466L57.5583 36.64C57.2583 36.68 56.9323 36.72 56.5803 36.76C56.2323 36.8 55.8883 36.846 55.5483 36.898C55.2123 36.95 54.9083 37.012 54.6363 37.084C54.4523 37.136 54.2743 37.21 54.1023 37.306C53.9303 37.398 53.7883 37.522 53.6763 37.678C53.5683 37.834 53.5143 38.028 53.5143 38.26C53.5143 38.448 53.5603 38.63 53.6523 38.806C53.7483 38.982 53.9003 39.128 54.1083 39.244C54.3203 39.36 54.6003 39.418 54.9483 39.418Z" fill="#9EA2B0"/>
    <path d="M68.512 40L72.138 31.117H67.56V29.92H73.475V31.117L69.856 40H68.512ZM74.6845 40V38.628H76.0565V40H74.6845ZM81.5309 29.717C82.1749 29.717 82.7559 29.871 83.2739 30.179C83.7919 30.487 84.2026 30.907 84.5059 31.439C84.8139 31.971 84.9679 32.5753 84.9679 33.252V36.605C84.9679 37.3097 84.8162 37.9327 84.5129 38.474C84.2096 39.0153 83.7896 39.44 83.2529 39.748C82.7209 40.056 82.1096 40.21 81.4189 40.21C80.8682 40.21 80.3526 40.0957 79.8719 39.867C79.3959 39.6383 78.9922 39.314 78.6609 38.894L79.5919 38.068C79.7972 38.3573 80.0609 38.5907 80.3829 38.768C80.7049 38.9407 81.0502 39.027 81.4189 39.027C81.8669 39.027 82.2612 38.9197 82.6019 38.705C82.9472 38.4903 83.2156 38.2103 83.4069 37.865C83.6029 37.5197 83.7009 37.1463 83.7009 36.745V34.722L83.9739 35.03C83.6846 35.45 83.3136 35.786 82.8609 36.038C82.4082 36.29 81.9159 36.416 81.3839 36.416C80.7586 36.416 80.1986 36.269 79.7039 35.975C79.2092 35.681 78.8172 35.2843 78.5279 34.785C78.2386 34.281 78.0939 33.7163 78.0939 33.091C78.0939 32.4657 78.2502 31.8987 78.5629 31.39C78.8756 30.8767 79.2909 30.4707 79.8089 30.172C80.3316 29.8687 80.9056 29.717 81.5309 29.717ZM81.5309 30.921C81.1296 30.921 80.7632 31.019 80.4319 31.215C80.1052 31.4063 79.8439 31.6677 79.6479 31.999C79.4519 32.3257 79.3539 32.6897 79.3539 33.091C79.3539 33.4923 79.4496 33.8587 79.6409 34.19C79.8369 34.5167 80.0982 34.778 80.4249 34.974C80.7562 35.17 81.1226 35.268 81.5239 35.268C81.9252 35.268 82.2916 35.17 82.6229 34.974C82.9542 34.778 83.2156 34.5167 83.4069 34.19C83.6029 33.8587 83.7009 33.4923 83.7009 33.091C83.7009 32.6943 83.6029 32.3327 83.4069 32.006C83.2156 31.6747 82.9542 31.411 82.6229 31.215C82.2962 31.019 81.9322 30.921 81.5309 30.921ZM89.4772 29.92H90.7442L88.0562 40H86.7892L89.4772 29.92ZM94.319 40V31.299L92.422 32.447V31.054L94.319 29.92H95.586V40H94.319ZM101.652 40.21C100.998 40.21 100.415 40.063 99.9015 39.769C99.3929 39.4703 98.9892 39.0667 98.6905 38.558C98.3965 38.0447 98.2495 37.4613 98.2495 36.808V33.112C98.2495 32.4587 98.3965 31.8753 98.6905 31.362C98.9892 30.8487 99.3929 30.445 99.9015 30.151C100.415 29.857 100.998 29.71 101.652 29.71C102.305 29.71 102.888 29.857 103.402 30.151C103.915 30.445 104.319 30.8487 104.613 31.362C104.907 31.8753 105.054 32.4587 105.054 33.112V36.808C105.054 37.4613 104.907 38.0447 104.613 38.558C104.319 39.0667 103.915 39.4703 103.402 39.769C102.888 40.063 102.305 40.21 101.652 40.21ZM101.652 39.013C102.048 39.013 102.408 38.9173 102.73 38.726C103.052 38.5347 103.308 38.278 103.5 37.956C103.691 37.6293 103.787 37.27 103.787 36.878V33.035C103.787 32.6383 103.691 32.279 103.5 31.957C103.308 31.635 103.052 31.3783 102.73 31.187C102.408 30.9957 102.048 30.9 101.652 30.9C101.26 30.9 100.9 30.9957 100.574 31.187C100.252 31.3783 99.9949 31.635 99.8035 31.957C99.6122 32.279 99.5165 32.6383 99.5165 33.035V36.878C99.5165 37.27 99.6122 37.6293 99.8035 37.956C99.9949 38.278 100.252 38.5347 100.574 38.726C100.9 38.9173 101.26 39.013 101.652 39.013Z" fill="#F62E46"/>
    <path d="M17.12 60V48.48H26.112V60H24.688V49.832H18.544V60H17.12ZM32.0344 60.24C31.1757 60.24 30.4344 60.0453 29.8104 59.656C29.1917 59.2667 28.7144 58.728 28.3784 58.04C28.0424 57.352 27.8744 56.5627 27.8744 55.672C27.8744 54.7653 28.045 53.9707 28.3864 53.288C28.7277 52.6053 29.2104 52.0747 29.8344 51.696C30.4584 51.312 31.1917 51.12 32.0344 51.12C32.8984 51.12 33.6424 51.3147 34.2664 51.704C34.8904 52.088 35.3677 52.624 35.6984 53.312C36.0344 53.9947 36.2024 54.7813 36.2024 55.672C36.2024 56.5733 36.0344 57.368 35.6984 58.056C35.3624 58.7387 34.8824 59.2747 34.2584 59.664C33.6344 60.048 32.893 60.24 32.0344 60.24ZM32.0344 58.888C32.9304 58.888 33.597 58.5893 34.0344 57.992C34.4717 57.3947 34.6904 56.6213 34.6904 55.672C34.6904 54.696 34.469 53.92 34.0264 53.344C33.5837 52.7627 32.9197 52.472 32.0344 52.472C31.4317 52.472 30.9357 52.608 30.5464 52.88C30.157 53.152 29.8664 53.528 29.6744 54.008C29.4824 54.488 29.3864 55.0427 29.3864 55.672C29.3864 56.6427 29.6104 57.4213 30.0584 58.008C30.5064 58.5947 31.165 58.888 32.0344 58.888ZM37.1638 60V58.776C37.4838 58.8347 37.7264 58.824 37.8918 58.744C38.0624 58.6587 38.1878 58.512 38.2678 58.304C38.3531 58.0907 38.4224 57.824 38.4758 57.504C38.5664 56.9973 38.6438 56.432 38.7078 55.808C38.7771 55.184 38.8384 54.5013 38.8918 53.76C38.9504 53.0133 39.0038 52.2133 39.0518 51.36H45.0918V60H43.6678V52.712H40.3478C40.3158 53.2027 40.2758 53.7067 40.2278 54.224C40.1851 54.7413 40.1398 55.2453 40.0918 55.736C40.0438 56.2213 39.9904 56.6747 39.9318 57.096C39.8784 57.512 39.8198 57.872 39.7558 58.176C39.6544 58.6987 39.5131 59.1173 39.3318 59.432C39.1504 59.7413 38.8891 59.9413 38.5478 60.032C38.2064 60.128 37.7451 60.1173 37.1638 60ZM54.4108 51.36V60H53.0348V53.632L48.5068 60H47.3308V51.36H48.7068V57.64L53.2428 51.36H54.4108ZM56.6433 60L56.6513 51.36H58.0913V55.52L61.7153 51.36H63.5633L59.7473 55.68L64.0113 60H62.0193L58.0913 55.84V60H56.6433ZM63.8513 60V58.776C64.1713 58.8347 64.4139 58.824 64.5793 58.744C64.7499 58.6587 64.8753 58.512 64.9553 58.304C65.0406 58.0907 65.1099 57.824 65.1633 57.504C65.2539 56.9973 65.3313 56.432 65.3953 55.808C65.4646 55.184 65.5259 54.5013 65.5793 53.76C65.6379 53.0133 65.6913 52.2133 65.7393 51.36H71.7793V60H70.3553V52.712H67.0353C67.0033 53.2027 66.9633 53.7067 66.9153 54.224C66.8726 54.7413 66.8273 55.2453 66.7793 55.736C66.7313 56.2213 66.6779 56.6747 66.6193 57.096C66.5659 57.512 66.5073 57.872 66.4433 58.176C66.3419 58.6987 66.2006 59.1173 66.0193 59.432C65.8379 59.7413 65.5766 59.9413 65.2353 60.032C64.8939 60.128 64.4326 60.1173 63.8513 60ZM81.0983 51.36V60H79.7223V53.632L75.1943 60H74.0183V51.36H75.3943V57.64L79.9303 51.36H81.0983ZM83.3308 60V51.36H84.7548V55H89.2988V51.36H90.7228V60H89.2988V56.352H84.7548V60H83.3308ZM100.036 51.36V60H98.6598V53.632L94.1318 60H92.9558V51.36H94.3318V57.64L98.8678 51.36H100.036ZM102.268 60L102.276 51.36H103.716V55.52L107.34 51.36H109.188L105.372 55.68L109.636 60H107.644L103.716 55.84V60H102.268ZM112.889 60.24C112.243 60.24 111.702 60.1227 111.265 59.888C110.833 59.648 110.505 59.3333 110.281 58.944C110.062 58.5547 109.953 58.128 109.953 57.664C109.953 57.2107 110.038 56.8187 110.209 56.488C110.385 56.152 110.63 55.8747 110.945 55.656C111.259 55.432 111.635 55.256 112.073 55.128C112.483 55.016 112.942 54.92 113.449 54.84C113.961 54.7547 114.478 54.6773 115.001 54.608C115.523 54.5387 116.011 54.472 116.465 54.408L115.953 54.704C115.969 53.936 115.814 53.368 115.489 53C115.169 52.632 114.614 52.448 113.825 52.448C113.302 52.448 112.843 52.568 112.449 52.808C112.059 53.0427 111.785 53.4267 111.625 53.96L110.273 53.552C110.481 52.7947 110.883 52.2 111.481 51.768C112.078 51.336 112.865 51.12 113.841 51.12C114.625 51.12 115.297 51.2613 115.857 51.544C116.422 51.8213 116.827 52.2427 117.073 52.808C117.195 53.0747 117.273 53.3653 117.305 53.68C117.337 53.9893 117.352 54.3147 117.352 54.656V60H116.089V57.928L116.385 58.12C116.059 58.8187 115.603 59.3467 115.017 59.704C114.435 60.0613 113.726 60.24 112.889 60.24ZM113.105 59.048C113.617 59.048 114.059 58.9573 114.433 58.776C114.811 58.5893 115.115 58.3467 115.345 58.048C115.574 57.744 115.723 57.4133 115.793 57.056C115.873 56.7893 115.915 56.4933 115.921 56.168C115.931 55.8373 115.937 55.584 115.937 55.408L116.433 55.624C115.969 55.688 115.513 55.7493 115.065 55.808C114.617 55.8667 114.193 55.9307 113.793 56C113.393 56.064 113.033 56.1413 112.713 56.232C112.478 56.3067 112.257 56.4027 112.049 56.52C111.846 56.6373 111.681 56.7893 111.553 56.976C111.43 57.1573 111.368 57.384 111.368 57.656C111.368 57.8907 111.427 58.1147 111.545 58.328C111.667 58.5413 111.854 58.7147 112.105 58.848C112.361 58.9813 112.694 59.048 113.105 59.048ZM122.636 60V48.48H124.076L130.084 57.48V48.48H131.524V60H130.084L124.076 50.992V60H122.636ZM135.676 54C135.148 54 134.665 53.872 134.228 53.616C133.79 53.3547 133.441 53.008 133.18 52.576C132.924 52.1387 132.796 51.6533 132.796 51.12C132.796 50.5973 132.929 50.1173 133.196 49.68C133.462 49.2427 133.814 48.8933 134.252 48.632C134.689 48.3707 135.164 48.24 135.676 48.24C136.204 48.24 136.684 48.3707 137.116 48.632C137.553 48.888 137.902 49.2347 138.164 49.672C138.425 50.104 138.556 50.5867 138.556 51.12C138.556 51.6533 138.425 52.1387 138.164 52.576C137.902 53.008 137.553 53.3547 137.116 53.616C136.684 53.872 136.204 54 135.676 54ZM135.676 52.744C135.969 52.744 136.238 52.6693 136.484 52.52C136.734 52.3707 136.932 52.1733 137.076 51.928C137.225 51.6827 137.3 51.4133 137.3 51.12C137.3 50.8267 137.225 50.5573 137.076 50.312C136.932 50.0613 136.734 49.864 136.484 49.72C136.238 49.5707 135.969 49.496 135.676 49.496C135.382 49.496 135.113 49.5707 134.868 49.72C134.622 49.864 134.425 50.0613 134.276 50.312C134.126 50.5573 134.052 50.8267 134.052 51.12C134.052 51.4133 134.126 51.6827 134.276 51.928C134.425 52.1733 134.622 52.3707 134.868 52.52C135.113 52.6693 135.382 52.744 135.676 52.744ZM133.276 55.848V54.672H138.076V55.848H133.276ZM143.639 60.224C143.069 60.224 142.538 60.12 142.047 59.912C141.557 59.6987 141.133 59.4 140.775 59.016C140.423 58.6267 140.165 58.1653 139.999 57.632L141.367 57.24C141.543 57.7733 141.837 58.1787 142.247 58.456C142.658 58.7333 143.119 58.8693 143.631 58.864C144.101 58.8533 144.506 58.7467 144.847 58.544C145.194 58.336 145.461 58.0533 145.647 57.696C145.839 57.3387 145.935 56.9253 145.935 56.456C145.935 55.7413 145.722 55.1627 145.295 54.72C144.869 54.272 144.309 54.048 143.615 54.048C143.423 54.048 143.221 54.0747 143.007 54.128C142.799 54.1813 142.605 54.256 142.423 54.352L141.735 53.224L146.007 49.36L146.191 49.84H140.455V48.48H147.247V49.848L143.607 53.336L143.591 52.832C144.354 52.7787 145.021 52.904 145.591 53.208C146.162 53.512 146.605 53.9467 146.919 54.512C147.239 55.0773 147.399 55.7253 147.399 56.456C147.399 57.192 147.234 57.8427 146.903 58.408C146.573 58.9733 146.125 59.4187 145.559 59.744C144.994 60.064 144.354 60.224 143.639 60.224ZM151.487 60V50.056L149.319 51.368V49.776L151.487 48.48H152.935V60H151.487Z" fill="#0F1015"/>
    <path d="M19.39 97.18C18.942 97.18 18.528 97.088 18.148 96.904C17.768 96.72 17.444 96.466 17.176 96.142C16.908 95.818 16.716 95.446 16.6 95.026L17.446 94.798C17.522 95.11 17.66 95.38 17.86 95.608C18.06 95.832 18.294 96.006 18.562 96.13C18.834 96.254 19.118 96.316 19.414 96.316C19.798 96.316 20.142 96.224 20.446 96.04C20.754 95.852 20.998 95.604 21.178 95.296C21.358 94.988 21.448 94.65 21.448 94.282C21.448 93.902 21.354 93.56 21.166 93.256C20.978 92.948 20.73 92.704 20.422 92.524C20.114 92.344 19.778 92.254 19.414 92.254C19.006 92.254 18.654 92.344 18.358 92.524C18.062 92.7 17.826 92.922 17.65 93.19L16.846 92.854L17.11 88.36H21.724V89.206H17.5L17.938 88.792L17.704 92.626L17.482 92.332C17.73 92.048 18.03 91.826 18.382 91.666C18.734 91.506 19.104 91.426 19.492 91.426C20.024 91.426 20.504 91.554 20.932 91.81C21.36 92.062 21.7 92.404 21.952 92.836C22.204 93.268 22.33 93.75 22.33 94.282C22.33 94.81 22.196 95.294 21.928 95.734C21.66 96.17 21.304 96.52 20.86 96.784C20.416 97.048 19.926 97.18 19.39 97.18ZM26.3158 97.18C25.8678 97.18 25.4538 97.088 25.0738 96.904C24.6938 96.72 24.3698 96.466 24.1018 96.142C23.8338 95.818 23.6418 95.446 23.5258 95.026L24.3718 94.798C24.4478 95.11 24.5858 95.38 24.7858 95.608C24.9858 95.832 25.2198 96.006 25.4878 96.13C25.7598 96.254 26.0438 96.316 26.3398 96.316C26.7238 96.316 27.0678 96.224 27.3718 96.04C27.6798 95.852 27.9238 95.604 28.1038 95.296C28.2838 94.988 28.3738 94.65 28.3738 94.282C28.3738 93.902 28.2798 93.56 28.0918 93.256C27.9038 92.948 27.6558 92.704 27.3478 92.524C27.0398 92.344 26.7038 92.254 26.3398 92.254C25.9318 92.254 25.5798 92.344 25.2838 92.524C24.9878 92.7 24.7518 92.922 24.5758 93.19L23.7718 92.854L24.0358 88.36H28.6498V89.206H24.4258L24.8638 88.792L24.6298 92.626L24.4078 92.332C24.6558 92.048 24.9558 91.826 25.3078 91.666C25.6598 91.506 26.0298 91.426 26.4178 91.426C26.9498 91.426 27.4298 91.554 27.8578 91.81C28.2858 92.062 28.6258 92.404 28.8778 92.836C29.1298 93.268 29.2558 93.75 29.2558 94.282C29.2558 94.81 29.1218 95.294 28.8538 95.734C28.5858 96.17 28.2298 96.52 27.7858 96.784C27.3418 97.048 26.8518 97.18 26.3158 97.18ZM30.8596 97V95.974H31.8856V97H30.8596ZM34.2004 97L37.3804 89.218H33.3784V88.36H38.3224V89.218L35.1484 97H34.2004ZM42.5819 97.18C42.0499 97.18 41.5699 97.056 41.1419 96.808C40.7179 96.56 40.3819 96.224 40.1339 95.8C39.8859 95.372 39.7619 94.892 39.7619 94.36V91C39.7619 90.468 39.8859 89.99 40.1339 89.566C40.3819 89.138 40.7179 88.8 41.1419 88.552C41.5699 88.304 42.0499 88.18 42.5819 88.18C43.1139 88.18 43.5919 88.304 44.0159 88.552C44.4439 88.8 44.7819 89.138 45.0299 89.566C45.2779 89.99 45.4019 90.468 45.4019 91V94.36C45.4019 94.892 45.2779 95.372 45.0299 95.8C44.7819 96.224 44.4439 96.56 44.0159 96.808C43.5919 97.056 43.1139 97.18 42.5819 97.18ZM42.5819 96.328C42.9379 96.328 43.2619 96.242 43.5539 96.07C43.8459 95.894 44.0779 95.66 44.2499 95.368C44.4219 95.076 44.5079 94.754 44.5079 94.402V90.958C44.5079 90.602 44.4219 90.278 44.2499 89.986C44.0779 89.694 43.8459 89.462 43.5539 89.29C43.2619 89.114 42.9379 89.026 42.5819 89.026C42.2259 89.026 41.9019 89.114 41.6099 89.29C41.3179 89.462 41.0859 89.694 40.9139 89.986C40.7419 90.278 40.6559 90.602 40.6559 90.958V94.402C40.6559 94.754 40.7419 95.076 40.9139 95.368C41.0859 95.66 41.3179 95.894 41.6099 96.07C41.9019 96.242 42.2259 96.328 42.5819 96.328ZM50.0081 97.18C49.4681 97.18 48.9761 97.05 48.5321 96.79C48.0921 96.526 47.7401 96.17 47.4761 95.722C47.2161 95.27 47.0861 94.762 47.0861 94.198V91.204C47.0861 90.624 47.2161 90.108 47.4761 89.656C47.7361 89.2 48.0901 88.842 48.5381 88.582C48.9901 88.318 49.5021 88.186 50.0741 88.186C50.5661 88.186 51.0221 88.294 51.4421 88.51C51.8661 88.726 52.2121 89.028 52.4801 89.416L51.8021 89.974C51.6181 89.686 51.3741 89.456 51.0701 89.284C50.7661 89.112 50.4341 89.026 50.0741 89.026C49.6701 89.026 49.3101 89.124 48.9941 89.32C48.6781 89.516 48.4301 89.774 48.2501 90.094C48.0701 90.41 47.9801 90.754 47.9801 91.126V93.01L47.7581 92.758C48.0101 92.362 48.3401 92.042 48.7481 91.798C49.1601 91.554 49.6081 91.432 50.0921 91.432C50.6281 91.432 51.1101 91.56 51.5381 91.816C51.9661 92.068 52.3061 92.41 52.5581 92.842C52.8101 93.274 52.9361 93.758 52.9361 94.294C52.9361 94.826 52.8021 95.31 52.5341 95.746C52.2701 96.182 51.9161 96.53 51.4721 96.79C51.0321 97.05 50.5441 97.18 50.0081 97.18ZM50.0081 96.322C50.3841 96.322 50.7261 96.232 51.0341 96.052C51.3461 95.872 51.5921 95.628 51.7721 95.32C51.9561 95.012 52.0481 94.67 52.0481 94.294C52.0481 93.918 51.9561 93.576 51.7721 93.268C51.5921 92.956 51.3481 92.71 51.0401 92.53C50.7321 92.346 50.3901 92.254 50.0141 92.254C49.6381 92.254 49.2961 92.346 48.9881 92.53C48.6801 92.71 48.4341 92.956 48.2501 93.268C48.0701 93.576 47.9801 93.918 47.9801 94.294C47.9801 94.666 48.0701 95.006 48.2501 95.314C48.4301 95.622 48.6741 95.868 48.9821 96.052C49.2901 96.232 49.6321 96.322 50.0081 96.322ZM57.1615 97.18C56.6215 97.18 56.1435 97.072 55.7275 96.856C55.3155 96.64 54.9915 96.338 54.7555 95.95C54.5235 95.558 54.4075 95.1 54.4075 94.576C54.4075 94.04 54.5375 93.564 54.7975 93.148C55.0575 92.728 55.4535 92.41 55.9855 92.194L55.9735 92.542C55.5295 92.378 55.1915 92.11 54.9595 91.738C54.7275 91.366 54.6115 90.954 54.6115 90.502C54.6115 90.022 54.7215 89.61 54.9415 89.266C55.1615 88.918 55.4615 88.65 55.8415 88.462C56.2255 88.274 56.6655 88.18 57.1615 88.18C57.6575 88.18 58.0975 88.274 58.4815 88.462C58.8655 88.65 59.1675 88.918 59.3875 89.266C59.6075 89.61 59.7175 90.022 59.7175 90.502C59.7175 90.954 59.6055 91.364 59.3815 91.732C59.1615 92.1 58.8235 92.37 58.3675 92.542L58.3375 92.194C58.8695 92.406 59.2675 92.722 59.5315 93.142C59.7995 93.562 59.9335 94.04 59.9335 94.576C59.9335 95.1 59.8155 95.558 59.5795 95.95C59.3435 96.338 59.0175 96.64 58.6015 96.856C58.1855 97.072 57.7055 97.18 57.1615 97.18ZM57.1615 96.334C57.7055 96.334 58.1475 96.184 58.4875 95.884C58.8275 95.58 58.9975 95.144 58.9975 94.576C58.9975 94 58.8295 93.564 58.4935 93.268C58.1575 92.968 57.7135 92.818 57.1615 92.818C56.6095 92.818 56.1675 92.968 55.8355 93.268C55.5035 93.564 55.3375 94 55.3375 94.576C55.3375 95.144 55.5055 95.58 55.8415 95.884C56.1775 96.184 56.6175 96.334 57.1615 96.334ZM57.1615 91.966C57.6415 91.966 58.0315 91.844 58.3315 91.6C58.6315 91.352 58.7815 90.986 58.7815 90.502C58.7815 90.018 58.6315 89.656 58.3315 89.416C58.0315 89.172 57.6415 89.05 57.1615 89.05C56.6815 89.05 56.2915 89.172 55.9915 89.416C55.6955 89.656 55.5475 90.018 55.5475 90.502C55.5475 90.986 55.6955 91.352 55.9915 91.6C56.2915 91.844 56.6815 91.966 57.1615 91.966ZM64.3324 88.186C64.8764 88.186 65.3684 88.318 65.8084 88.582C66.2524 88.842 66.6044 89.198 66.8644 89.65C67.1244 90.098 67.2544 90.602 67.2544 91.162V94.162C67.2544 94.738 67.1244 95.254 66.8644 95.71C66.6044 96.166 66.2484 96.526 65.7964 96.79C65.3484 97.05 64.8384 97.18 64.2664 97.18C63.7744 97.18 63.3184 97.072 62.8984 96.856C62.4824 96.636 62.1384 96.334 61.8664 95.95L62.5384 95.392C62.7224 95.676 62.9664 95.904 63.2704 96.076C63.5784 96.248 63.9104 96.334 64.2664 96.334C64.6744 96.334 65.0344 96.238 65.3464 96.046C65.6624 95.85 65.9104 95.594 66.0904 95.278C66.2744 94.958 66.3664 94.612 66.3664 94.24V92.356L66.5824 92.608C66.3344 93.004 66.0044 93.324 65.5924 93.568C65.1844 93.812 64.7364 93.934 64.2484 93.934C63.7164 93.934 63.2344 93.806 62.8024 93.55C62.3744 93.294 62.0344 92.95 61.7824 92.518C61.5344 92.086 61.4104 91.604 61.4104 91.072C61.4104 90.54 61.5424 90.056 61.8064 89.62C62.0704 89.18 62.4244 88.832 62.8684 88.576C63.3124 88.316 63.8004 88.186 64.3324 88.186ZM64.3324 89.038C63.9564 89.038 63.6144 89.13 63.3064 89.314C62.9984 89.494 62.7524 89.738 62.5684 90.046C62.3884 90.354 62.2984 90.696 62.2984 91.072C62.2984 91.448 62.3884 91.79 62.5684 92.098C62.7484 92.406 62.9924 92.652 63.3004 92.836C63.6084 93.016 63.9504 93.106 64.3264 93.106C64.7024 93.106 65.0444 93.016 65.3524 92.836C65.6644 92.652 65.9104 92.406 66.0904 92.098C66.2744 91.79 66.3664 91.448 66.3664 91.072C66.3664 90.7 66.2744 90.36 66.0904 90.052C65.9104 89.744 65.6664 89.498 65.3584 89.314C65.0504 89.13 64.7084 89.038 64.3324 89.038ZM71.7498 97.18C71.2178 97.18 70.7378 97.056 70.3098 96.808C69.8858 96.56 69.5498 96.224 69.3018 95.8C69.0538 95.372 68.9298 94.892 68.9298 94.36V91C68.9298 90.468 69.0538 89.99 69.3018 89.566C69.5498 89.138 69.8858 88.8 70.3098 88.552C70.7378 88.304 71.2178 88.18 71.7498 88.18C72.2818 88.18 72.7598 88.304 73.1838 88.552C73.6118 88.8 73.9498 89.138 74.1978 89.566C74.4458 89.99 74.5698 90.468 74.5698 91V94.36C74.5698 94.892 74.4458 95.372 74.1978 95.8C73.9498 96.224 73.6118 96.56 73.1838 96.808C72.7598 97.056 72.2818 97.18 71.7498 97.18ZM71.7498 96.328C72.1058 96.328 72.4298 96.242 72.7218 96.07C73.0138 95.894 73.2458 95.66 73.4178 95.368C73.5898 95.076 73.6758 94.754 73.6758 94.402V90.958C73.6758 90.602 73.5898 90.278 73.4178 89.986C73.2458 89.694 73.0138 89.462 72.7218 89.29C72.4298 89.114 72.1058 89.026 71.7498 89.026C71.3938 89.026 71.0698 89.114 70.7778 89.29C70.4858 89.462 70.2538 89.694 70.0818 89.986C69.9098 90.278 69.8238 90.602 69.8238 90.958V94.402C69.8238 94.754 69.9098 95.076 70.0818 95.368C70.2538 95.66 70.4858 95.894 70.7778 96.07C71.0698 96.242 71.3938 96.328 71.7498 96.328ZM76.1341 98.254L76.1881 97.816C76.3481 97.828 76.4641 97.796 76.5361 97.72C76.6081 97.644 76.6521 97.542 76.6681 97.414C76.6841 97.286 76.6881 97.148 76.6801 97H76.1341V95.734H77.1601V97.24C77.1601 97.608 77.0661 97.884 76.8781 98.068C76.6941 98.252 76.4461 98.314 76.1341 98.254ZM84.1659 97.174C83.7379 97.174 83.3439 97.098 82.9839 96.946C82.6239 96.794 82.3139 96.578 82.0539 96.298C81.7939 96.014 81.6039 95.676 81.4839 95.284L82.3239 95.032C82.4679 95.46 82.7039 95.784 83.0319 96.004C83.3639 96.224 83.7379 96.33 84.1539 96.322C84.5379 96.314 84.8679 96.228 85.1439 96.064C85.4239 95.9 85.6379 95.672 85.7859 95.38C85.9339 95.088 86.0079 94.75 86.0079 94.366C86.0079 93.778 85.8359 93.306 85.4919 92.95C85.1519 92.59 84.7019 92.41 84.1419 92.41C83.9859 92.41 83.8219 92.432 83.6499 92.476C83.4779 92.516 83.3179 92.574 83.1699 92.65L82.7259 91.948L86.0859 88.846L86.2299 89.206H81.8259V88.36H86.8179V89.218L83.8899 92.014L83.8779 91.666C84.4779 91.59 85.0059 91.658 85.4619 91.87C85.9179 92.082 86.2739 92.406 86.5299 92.842C86.7899 93.274 86.9199 93.782 86.9199 94.366C86.9199 94.918 86.7999 95.406 86.5599 95.83C86.3239 96.25 85.9979 96.58 85.5819 96.82C85.1659 97.056 84.6939 97.174 84.1659 97.174ZM88.9387 97L92.1187 89.218H88.1167V88.36H93.0607V89.218L89.8867 97H88.9387ZM93.8713 97V95.974H94.8973V97H93.8713ZM99.6722 97.18C99.1322 97.18 98.6402 97.05 98.1962 96.79C97.7562 96.526 97.4042 96.17 97.1402 95.722C96.8802 95.27 96.7502 94.762 96.7502 94.198V91.204C96.7502 90.624 96.8802 90.108 97.1402 89.656C97.4002 89.2 97.7542 88.842 98.2022 88.582C98.6542 88.318 99.1662 88.186 99.7382 88.186C100.23 88.186 100.686 88.294 101.106 88.51C101.53 88.726 101.876 89.028 102.144 89.416L101.466 89.974C101.282 89.686 101.038 89.456 100.734 89.284C100.43 89.112 100.098 89.026 99.7382 89.026C99.3342 89.026 98.9742 89.124 98.6582 89.32C98.3422 89.516 98.0942 89.774 97.9142 90.094C97.7342 90.41 97.6442 90.754 97.6442 91.126V93.01L97.4222 92.758C97.6742 92.362 98.0042 92.042 98.4122 91.798C98.8242 91.554 99.2722 91.432 99.7562 91.432C100.292 91.432 100.774 91.56 101.202 91.816C101.63 92.068 101.97 92.41 102.222 92.842C102.474 93.274 102.6 93.758 102.6 94.294C102.6 94.826 102.466 95.31 102.198 95.746C101.934 96.182 101.58 96.53 101.136 96.79C100.696 97.05 100.208 97.18 99.6722 97.18ZM99.6722 96.322C100.048 96.322 100.39 96.232 100.698 96.052C101.01 95.872 101.256 95.628 101.436 95.32C101.62 95.012 101.712 94.67 101.712 94.294C101.712 93.918 101.62 93.576 101.436 93.268C101.256 92.956 101.012 92.71 100.704 92.53C100.396 92.346 100.054 92.254 99.6782 92.254C99.3022 92.254 98.9602 92.346 98.6522 92.53C98.3442 92.71 98.0982 92.956 97.9142 93.268C97.7342 93.576 97.6442 93.918 97.6442 94.294C97.6442 94.666 97.7342 95.006 97.9142 95.314C98.0942 95.622 98.3382 95.868 98.6462 96.052C98.9542 96.232 99.2962 96.322 99.6722 96.322ZM106.742 97.18C106.294 97.18 105.88 97.088 105.5 96.904C105.12 96.72 104.796 96.466 104.528 96.142C104.26 95.818 104.068 95.446 103.952 95.026L104.798 94.798C104.874 95.11 105.012 95.38 105.212 95.608C105.412 95.832 105.646 96.006 105.914 96.13C106.186 96.254 106.47 96.316 106.766 96.316C107.15 96.316 107.494 96.224 107.798 96.04C108.106 95.852 108.35 95.604 108.53 95.296C108.71 94.988 108.8 94.65 108.8 94.282C108.8 93.902 108.706 93.56 108.518 93.256C108.33 92.948 108.082 92.704 107.774 92.524C107.466 92.344 107.13 92.254 106.766 92.254C106.358 92.254 106.006 92.344 105.71 92.524C105.414 92.7 105.178 92.922 105.002 93.19L104.198 92.854L104.462 88.36H109.076V89.206H104.852L105.29 88.792L105.056 92.626L104.834 92.332C105.082 92.048 105.382 91.826 105.734 91.666C106.086 91.506 106.456 91.426 106.844 91.426C107.376 91.426 107.856 91.554 108.284 91.81C108.712 92.062 109.052 92.404 109.304 92.836C109.556 93.268 109.682 93.75 109.682 94.282C109.682 94.81 109.548 95.294 109.28 95.734C109.012 96.17 108.656 96.52 108.212 96.784C107.768 97.048 107.278 97.18 106.742 97.18ZM113.751 97.18C113.211 97.18 112.733 97.072 112.317 96.856C111.905 96.64 111.581 96.338 111.345 95.95C111.113 95.558 110.997 95.1 110.997 94.576C110.997 94.04 111.127 93.564 111.387 93.148C111.647 92.728 112.043 92.41 112.575 92.194L112.563 92.542C112.119 92.378 111.781 92.11 111.549 91.738C111.317 91.366 111.201 90.954 111.201 90.502C111.201 90.022 111.311 89.61 111.531 89.266C111.751 88.918 112.051 88.65 112.431 88.462C112.815 88.274 113.255 88.18 113.751 88.18C114.247 88.18 114.687 88.274 115.071 88.462C115.455 88.65 115.757 88.918 115.977 89.266C116.197 89.61 116.307 90.022 116.307 90.502C116.307 90.954 116.195 91.364 115.971 91.732C115.751 92.1 115.413 92.37 114.957 92.542L114.927 92.194C115.459 92.406 115.857 92.722 116.121 93.142C116.389 93.562 116.523 94.04 116.523 94.576C116.523 95.1 116.405 95.558 116.169 95.95C115.933 96.338 115.607 96.64 115.191 96.856C114.775 97.072 114.295 97.18 113.751 97.18ZM113.751 96.334C114.295 96.334 114.737 96.184 115.077 95.884C115.417 95.58 115.587 95.144 115.587 94.576C115.587 94 115.419 93.564 115.083 93.268C114.747 92.968 114.303 92.818 113.751 92.818C113.199 92.818 112.757 92.968 112.425 93.268C112.093 93.564 111.927 94 111.927 94.576C111.927 95.144 112.095 95.58 112.431 95.884C112.767 96.184 113.207 96.334 113.751 96.334ZM113.751 91.966C114.231 91.966 114.621 91.844 114.921 91.6C115.221 91.352 115.371 90.986 115.371 90.502C115.371 90.018 115.221 89.656 114.921 89.416C114.621 89.172 114.231 89.05 113.751 89.05C113.271 89.05 112.881 89.172 112.581 89.416C112.285 89.656 112.137 90.018 112.137 90.502C112.137 90.986 112.285 91.352 112.581 91.6C112.881 91.844 113.271 91.966 113.751 91.966ZM120.922 88.186C121.466 88.186 121.958 88.318 122.398 88.582C122.842 88.842 123.194 89.198 123.454 89.65C123.714 90.098 123.844 90.602 123.844 91.162V94.162C123.844 94.738 123.714 95.254 123.454 95.71C123.194 96.166 122.838 96.526 122.386 96.79C121.938 97.05 121.428 97.18 120.856 97.18C120.364 97.18 119.908 97.072 119.488 96.856C119.072 96.636 118.728 96.334 118.456 95.95L119.128 95.392C119.312 95.676 119.556 95.904 119.86 96.076C120.168 96.248 120.5 96.334 120.856 96.334C121.264 96.334 121.624 96.238 121.936 96.046C122.252 95.85 122.5 95.594 122.68 95.278C122.864 94.958 122.956 94.612 122.956 94.24V92.356L123.172 92.608C122.924 93.004 122.594 93.324 122.182 93.568C121.774 93.812 121.326 93.934 120.838 93.934C120.306 93.934 119.824 93.806 119.392 93.55C118.964 93.294 118.624 92.95 118.372 92.518C118.124 92.086 118 91.604 118 91.072C118 90.54 118.132 90.056 118.396 89.62C118.66 89.18 119.014 88.832 119.458 88.576C119.902 88.316 120.39 88.186 120.922 88.186ZM120.922 89.038C120.546 89.038 120.204 89.13 119.896 89.314C119.588 89.494 119.342 89.738 119.158 90.046C118.978 90.354 118.888 90.696 118.888 91.072C118.888 91.448 118.978 91.79 119.158 92.098C119.338 92.406 119.582 92.652 119.89 92.836C120.198 93.016 120.54 93.106 120.916 93.106C121.292 93.106 121.634 93.016 121.942 92.836C122.254 92.652 122.5 92.406 122.68 92.098C122.864 91.79 122.956 91.448 122.956 91.072C122.956 90.7 122.864 90.36 122.68 90.052C122.5 89.744 122.256 89.498 121.948 89.314C121.64 89.13 121.298 89.038 120.922 89.038ZM127.842 97.174C127.414 97.174 127.02 97.098 126.66 96.946C126.3 96.794 125.99 96.578 125.73 96.298C125.47 96.014 125.28 95.676 125.16 95.284L126 95.032C126.144 95.46 126.38 95.784 126.708 96.004C127.04 96.224 127.414 96.33 127.83 96.322C128.214 96.314 128.544 96.228 128.82 96.064C129.1 95.9 129.314 95.672 129.462 95.38C129.61 95.088 129.684 94.75 129.684 94.366C129.684 93.778 129.512 93.306 129.168 92.95C128.828 92.59 128.378 92.41 127.818 92.41C127.662 92.41 127.498 92.432 127.326 92.476C127.154 92.516 126.994 92.574 126.846 92.65L126.402 91.948L129.762 88.846L129.906 89.206H125.502V88.36H130.494V89.218L127.566 92.014L127.554 91.666C128.154 91.59 128.682 91.658 129.138 91.87C129.594 92.082 129.95 92.406 130.206 92.842C130.466 93.274 130.596 93.782 130.596 94.366C130.596 94.918 130.476 95.406 130.236 95.83C130 96.25 129.674 96.58 129.258 96.82C128.842 97.056 128.37 97.174 127.842 97.174ZM134.475 97.174C134.047 97.174 133.653 97.098 133.293 96.946C132.933 96.794 132.623 96.578 132.363 96.298C132.103 96.014 131.913 95.676 131.793 95.284L132.633 95.032C132.777 95.46 133.013 95.784 133.341 96.004C133.673 96.224 134.047 96.33 134.463 96.322C134.847 96.314 135.177 96.228 135.453 96.064C135.733 95.9 135.947 95.672 136.095 95.38C136.243 95.088 136.317 94.75 136.317 94.366C136.317 93.778 136.145 93.306 135.801 92.95C135.461 92.59 135.011 92.41 134.451 92.41C134.295 92.41 134.131 92.432 133.959 92.476C133.787 92.516 133.627 92.574 133.479 92.65L133.035 91.948L136.395 88.846L136.539 89.206H132.135V88.36H137.127V89.218L134.199 92.014L134.187 91.666C134.787 91.59 135.315 91.658 135.771 91.87C136.227 92.082 136.583 92.406 136.839 92.842C137.099 93.274 137.229 93.782 137.229 94.366C137.229 94.918 137.109 95.406 136.869 95.83C136.633 96.25 136.307 96.58 135.891 96.82C135.475 97.056 135.003 97.174 134.475 97.174ZM140.291 97V89.344L138.665 90.322V89.332L140.291 88.36H141.185V97H140.291Z" fill="#9EA2B0"/>
    <path d="M19.786 117V115.824C19.342 115.9 18.914 115.88 18.502 115.764C18.094 115.648 17.728 115.446 17.404 115.158C17.084 114.866 16.83 114.49 16.642 114.03C16.454 113.57 16.36 113.034 16.36 112.422C16.36 111.806 16.454 111.268 16.642 110.808C16.83 110.344 17.084 109.966 17.404 109.674C17.728 109.378 18.094 109.172 18.502 109.056C18.914 108.936 19.342 108.914 19.786 108.99V108.36H20.848V108.99C21.292 108.914 21.72 108.936 22.132 109.056C22.544 109.172 22.91 109.378 23.23 109.674C23.554 109.966 23.81 110.344 23.998 110.808C24.186 111.268 24.28 111.806 24.28 112.422C24.28 113.034 24.186 113.57 23.998 114.03C23.81 114.49 23.554 114.866 23.23 115.158C22.91 115.446 22.544 115.648 22.132 115.764C21.72 115.88 21.292 115.9 20.848 115.824V117H19.786ZM19.786 114.822V109.974C19.418 109.918 19.088 109.944 18.796 110.052C18.508 110.156 18.264 110.324 18.064 110.556C17.868 110.784 17.718 111.058 17.614 111.378C17.51 111.698 17.458 112.046 17.458 112.422C17.458 112.794 17.51 113.138 17.614 113.454C17.718 113.77 17.868 114.04 18.064 114.264C18.264 114.488 18.508 114.65 18.796 114.75C19.088 114.85 19.418 114.874 19.786 114.822ZM20.848 114.822C21.22 114.874 21.55 114.85 21.838 114.75C22.126 114.646 22.37 114.484 22.57 114.264C22.77 114.044 22.922 113.778 23.026 113.466C23.13 113.15 23.182 112.81 23.182 112.446C23.182 112.078 23.13 111.734 23.026 111.414C22.922 111.09 22.77 110.812 22.57 110.58C22.37 110.344 22.126 110.17 21.838 110.058C21.55 109.946 21.22 109.918 20.848 109.974V114.822ZM28.2847 117.18C27.6487 117.18 27.0927 117.04 26.6167 116.76C26.1447 116.476 25.7767 116.082 25.5127 115.578C25.2487 115.07 25.1167 114.478 25.1167 113.802C25.1167 113.094 25.2467 112.482 25.5067 111.966C25.7667 111.446 26.1287 111.046 26.5927 110.766C27.0607 110.482 27.6087 110.34 28.2367 110.34C28.8887 110.34 29.4427 110.49 29.8987 110.79C30.3587 111.09 30.7027 111.518 30.9307 112.074C31.1627 112.63 31.2627 113.292 31.2307 114.06H30.1507V113.676C30.1387 112.88 29.9767 112.286 29.6647 111.894C29.3527 111.498 28.8887 111.3 28.2727 111.3C27.6127 111.3 27.1107 111.512 26.7667 111.936C26.4227 112.36 26.2507 112.968 26.2507 113.76C26.2507 114.524 26.4227 115.116 26.7667 115.536C27.1107 115.956 27.6007 116.166 28.2367 116.166C28.6647 116.166 29.0367 116.068 29.3527 115.872C29.6687 115.676 29.9167 115.394 30.0967 115.026L31.1227 115.38C30.8707 115.952 30.4907 116.396 29.9827 116.712C29.4787 117.024 28.9127 117.18 28.2847 117.18ZM25.8907 114.06V113.202H30.6787V114.06H25.8907ZM35.5426 117.18C34.9346 117.18 34.4226 117.03 34.0066 116.73C33.5906 116.426 33.2746 116.016 33.0586 115.5C32.8466 114.98 32.7406 114.398 32.7406 113.754C32.7406 113.102 32.8466 112.518 33.0586 112.002C33.2746 111.486 33.5906 111.08 34.0066 110.784C34.4266 110.488 34.9406 110.34 35.5486 110.34C36.1486 110.34 36.6646 110.49 37.0966 110.79C37.5326 111.086 37.8666 111.492 38.0986 112.008C38.3306 112.524 38.4466 113.106 38.4466 113.754C38.4466 114.402 38.3306 114.984 38.0986 115.5C37.8666 116.016 37.5326 116.426 37.0966 116.73C36.6646 117.03 36.1466 117.18 35.5426 117.18ZM32.5606 119.88V110.52H33.5146V115.29H33.6346V119.88H32.5606ZM35.4106 116.202C35.8386 116.202 36.1926 116.094 36.4726 115.878C36.7526 115.662 36.9626 115.37 37.1026 115.002C37.2426 114.63 37.3126 114.214 37.3126 113.754C37.3126 113.298 37.2426 112.886 37.1026 112.518C36.9666 112.15 36.7546 111.858 36.4666 111.642C36.1826 111.426 35.8206 111.318 35.3806 111.318C34.9606 111.318 34.6126 111.422 34.3366 111.63C34.0606 111.834 33.8546 112.12 33.7186 112.488C33.5826 112.852 33.5146 113.274 33.5146 113.754C33.5146 114.226 33.5806 114.648 33.7126 115.02C33.8486 115.388 34.0566 115.678 34.3366 115.89C34.6166 116.098 34.9746 116.202 35.4106 116.202ZM39.7619 117V110.52H44.2619V111.534H40.8299V117H39.7619ZM47.0297 117.18C46.5457 117.18 46.1397 117.092 45.8117 116.916C45.4877 116.736 45.2417 116.5 45.0737 116.208C44.9097 115.916 44.8277 115.596 44.8277 115.248C44.8277 114.908 44.8917 114.614 45.0197 114.366C45.1517 114.114 45.3357 113.906 45.5717 113.742C45.8077 113.574 46.0897 113.442 46.4177 113.346C46.7257 113.262 47.0697 113.19 47.4497 113.13C47.8337 113.066 48.2217 113.008 48.6137 112.956C49.0057 112.904 49.3717 112.854 49.7117 112.806L49.3277 113.028C49.3397 112.452 49.2237 112.026 48.9797 111.75C48.7397 111.474 48.3237 111.336 47.7317 111.336C47.3397 111.336 46.9957 111.426 46.6997 111.606C46.4077 111.782 46.2017 112.07 46.0817 112.47L45.0677 112.164C45.2237 111.596 45.5257 111.15 45.9737 110.826C46.4217 110.502 47.0117 110.34 47.7437 110.34C48.3317 110.34 48.8357 110.446 49.2557 110.658C49.6797 110.866 49.9837 111.182 50.1677 111.606C50.2597 111.806 50.3177 112.024 50.3417 112.26C50.3657 112.492 50.3777 112.736 50.3777 112.992V117H49.4297V115.446L49.6517 115.59C49.4077 116.114 49.0657 116.51 48.6257 116.778C48.1897 117.046 47.6577 117.18 47.0297 117.18ZM47.1917 116.286C47.5757 116.286 47.9077 116.218 48.1877 116.082C48.4717 115.942 48.6997 115.76 48.8717 115.536C49.0437 115.308 49.1557 115.06 49.2077 114.792C49.2677 114.592 49.2997 114.37 49.3037 114.126C49.3117 113.878 49.3157 113.688 49.3157 113.556L49.6877 113.718C49.3397 113.766 48.9977 113.812 48.6617 113.856C48.3257 113.9 48.0077 113.948 47.7077 114C47.4077 114.048 47.1377 114.106 46.8977 114.174C46.7217 114.23 46.5557 114.302 46.3997 114.39C46.2477 114.478 46.1237 114.592 46.0277 114.732C45.9357 114.868 45.8897 115.038 45.8897 115.242C45.8897 115.418 45.9337 115.586 46.0217 115.746C46.1137 115.906 46.2537 116.036 46.4417 116.136C46.6337 116.236 46.8837 116.286 47.1917 116.286ZM51.9317 117V110.52H52.9997V113.25H56.4077V110.52H57.4757V117H56.4077V114.264H52.9997V117H51.9317ZM61.8864 117.18C61.2304 117.18 60.6724 117.034 60.2124 116.742C59.7564 116.446 59.4084 116.04 59.1684 115.524C58.9284 115.008 58.8044 114.42 58.7964 113.76C58.8044 113.084 58.9304 112.49 59.1744 111.978C59.4224 111.462 59.7764 111.06 60.2364 110.772C60.6964 110.484 61.2504 110.34 61.8984 110.34C62.5824 110.34 63.1704 110.508 63.6624 110.844C64.1584 111.18 64.4904 111.64 64.6584 112.224L63.6024 112.542C63.4664 112.166 63.2444 111.874 62.9364 111.666C62.6324 111.458 62.2824 111.354 61.8864 111.354C61.4424 111.354 61.0764 111.458 60.7884 111.666C60.5004 111.87 60.2864 112.154 60.1464 112.518C60.0064 112.878 59.9344 113.292 59.9304 113.76C59.9384 114.48 60.1044 115.062 60.4284 115.506C60.7564 115.946 61.2424 116.166 61.8864 116.166C62.3104 116.166 62.6624 116.07 62.9424 115.878C63.2224 115.682 63.4344 115.4 63.5784 115.032L64.6584 115.314C64.4344 115.918 64.0844 116.38 63.6084 116.7C63.1324 117.02 62.5584 117.18 61.8864 117.18ZM65.877 117L65.883 110.52H66.963V113.64L69.681 110.52H71.067L68.205 113.76L71.403 117H69.909L66.963 113.88V117H65.877ZM73.8422 117.18C73.3582 117.18 72.9522 117.092 72.6242 116.916C72.3002 116.736 72.0542 116.5 71.8862 116.208C71.7222 115.916 71.6402 115.596 71.6402 115.248C71.6402 114.908 71.7042 114.614 71.8322 114.366C71.9642 114.114 72.1482 113.906 72.3842 113.742C72.6202 113.574 72.9022 113.442 73.2302 113.346C73.5382 113.262 73.8822 113.19 74.2622 113.13C74.6462 113.066 75.0342 113.008 75.4262 112.956C75.8182 112.904 76.1842 112.854 76.5242 112.806L76.1402 113.028C76.1522 112.452 76.0362 112.026 75.7922 111.75C75.5522 111.474 75.1362 111.336 74.5442 111.336C74.1522 111.336 73.8082 111.426 73.5122 111.606C73.2202 111.782 73.0142 112.07 72.8942 112.47L71.8802 112.164C72.0362 111.596 72.3382 111.15 72.7862 110.826C73.2342 110.502 73.8242 110.34 74.5562 110.34C75.1442 110.34 75.6482 110.446 76.0682 110.658C76.4922 110.866 76.7962 111.182 76.9802 111.606C77.0722 111.806 77.1302 112.024 77.1542 112.26C77.1782 112.492 77.1902 112.736 77.1902 112.992V117H76.2422V115.446L76.4642 115.59C76.2202 116.114 75.8782 116.51 75.4382 116.778C75.0022 117.046 74.4702 117.18 73.8422 117.18ZM74.0042 116.286C74.3882 116.286 74.7202 116.218 75.0002 116.082C75.2842 115.942 75.5122 115.76 75.6842 115.536C75.8562 115.308 75.9682 115.06 76.0202 114.792C76.0802 114.592 76.1122 114.37 76.1162 114.126C76.1242 113.878 76.1282 113.688 76.1282 113.556L76.5002 113.718C76.1522 113.766 75.8102 113.812 75.4742 113.856C75.1382 113.9 74.8202 113.948 74.5202 114C74.2202 114.048 73.9502 114.106 73.7102 114.174C73.5342 114.23 73.3682 114.302 73.2122 114.39C73.0602 114.478 72.9362 114.592 72.8402 114.732C72.7482 114.868 72.7022 115.038 72.7022 115.242C72.7022 115.418 72.7462 115.586 72.8342 115.746C72.9262 115.906 73.0662 116.036 73.2542 116.136C73.4462 116.236 73.6962 116.286 74.0042 116.286ZM82.7522 117V114.654H81.3542C81.1902 114.654 81.0082 114.648 80.8082 114.636C80.6122 114.62 80.4282 114.598 80.2562 114.57C79.7882 114.482 79.3922 114.276 79.0682 113.952C78.7482 113.628 78.5882 113.18 78.5882 112.608C78.5882 112.052 78.7382 111.606 79.0382 111.27C79.3422 110.93 79.7162 110.71 80.1602 110.61C80.3602 110.562 80.5622 110.536 80.7662 110.532C80.9742 110.524 81.1502 110.52 81.2942 110.52H83.8202L83.8262 117H82.7522ZM78.3902 117L80.1122 114.36H81.2642L79.5422 117H78.3902ZM81.2762 113.772H82.7522V111.402H81.2762C81.1842 111.402 81.0622 111.406 80.9102 111.414C80.7622 111.422 80.6202 111.446 80.4842 111.486C80.3562 111.522 80.2302 111.588 80.1062 111.684C79.9862 111.78 79.8862 111.904 79.8062 112.056C79.7262 112.208 79.6862 112.388 79.6862 112.596C79.6862 112.896 79.7702 113.14 79.9382 113.328C80.1062 113.512 80.3102 113.636 80.5502 113.7C80.6822 113.732 80.8122 113.752 80.9402 113.76C81.0722 113.768 81.1842 113.772 81.2762 113.772ZM85.3919 118.344L85.4579 117.846C85.6259 117.858 85.7519 117.826 85.8359 117.75C85.9199 117.674 85.9739 117.57 85.9979 117.438C86.0219 117.306 86.0259 117.16 86.0099 117H85.3919V115.644H86.5679V117.18C86.5679 117.6 86.4639 117.916 86.2559 118.128C86.0519 118.34 85.7639 118.412 85.3919 118.344ZM92.7601 117V109.542L91.1341 110.526V109.332L92.7601 108.36H93.8461V117H92.7601ZM97.6351 117V109.542L96.0091 110.526V109.332L97.6351 108.36H98.7211V117H97.6351Z" fill="#0F1015"/>
    <path fill-rule="evenodd" clip-rule="evenodd" d="M353 30C350.791 30 349 31.7909 349 34V46C349 48.2091 350.791 50 353 50H365C367.209 50 369 48.2091 369 46V34C369 31.7909 367.209 30 365 30H353ZM364.795 37.4827C365.235 37.0437 365.235 36.3314 364.796 35.8917C364.357 35.452 363.645 35.4514 363.205 35.8904L357.364 41.7219L354.795 39.157C354.355 38.718 353.643 38.7186 353.204 39.1583C352.765 39.598 352.765 40.3103 353.205 40.7493L356.569 44.1077C357.008 44.5461 357.72 44.5461 358.159 44.1077L364.795 37.4827Z" fill="#3B3C3C"/>
    <path d="M387.338 45.18C386.478 45.18 385.752 44.99 385.16 44.61C384.568 44.226 384.12 43.696 383.816 43.02C383.512 42.344 383.36 41.564 383.36 40.68C383.36 39.796 383.512 39.016 383.816 38.34C384.12 37.664 384.568 37.136 385.16 36.756C385.752 36.372 386.478 36.18 387.338 36.18C388.342 36.18 389.162 36.438 389.798 36.954C390.434 37.466 390.87 38.154 391.106 39.018L390.206 39.252C390.022 38.568 389.692 38.026 389.216 37.626C388.74 37.226 388.114 37.026 387.338 37.026C386.662 37.026 386.1 37.18 385.652 37.488C385.204 37.796 384.866 38.226 384.638 38.778C384.414 39.326 384.298 39.96 384.29 40.68C384.286 41.4 384.396 42.034 384.62 42.582C384.848 43.13 385.188 43.56 385.64 43.872C386.096 44.18 386.662 44.334 387.338 44.334C388.114 44.334 388.74 44.134 389.216 43.734C389.692 43.33 390.022 42.788 390.206 42.108L391.106 42.342C390.87 43.206 390.434 43.896 389.798 44.412C389.162 44.924 388.342 45.18 387.338 45.18ZM395.34 45.18C394.744 45.18 394.24 45.03 393.828 44.73C393.416 44.426 393.104 44.016 392.892 43.5C392.68 42.98 392.574 42.398 392.574 41.754C392.574 41.098 392.68 40.514 392.892 40.002C393.108 39.486 393.424 39.08 393.84 38.784C394.256 38.488 394.768 38.34 395.376 38.34C395.968 38.34 396.476 38.49 396.9 38.79C397.324 39.09 397.648 39.498 397.872 40.014C398.1 40.53 398.214 41.11 398.214 41.754C398.214 42.402 398.1 42.984 397.872 43.5C397.644 44.016 397.316 44.426 396.888 44.73C396.46 45.03 395.944 45.18 395.34 45.18ZM392.424 47.88V38.52H393.216V43.398H393.312V47.88H392.424ZM395.25 44.358C395.702 44.358 396.078 44.244 396.378 44.016C396.678 43.788 396.902 43.478 397.05 43.086C397.202 42.69 397.278 42.246 397.278 41.754C397.278 41.266 397.204 40.826 397.056 40.434C396.908 40.042 396.682 39.732 396.378 39.504C396.078 39.276 395.696 39.162 395.232 39.162C394.78 39.162 394.404 39.272 394.104 39.492C393.808 39.712 393.586 40.018 393.438 40.41C393.29 40.798 393.216 41.246 393.216 41.754C393.216 42.254 393.29 42.702 393.438 43.098C393.586 43.49 393.81 43.798 394.11 44.022C394.41 44.246 394.79 44.358 395.25 44.358ZM401.385 45.18C400.897 45.18 400.487 45.092 400.155 44.916C399.827 44.74 399.581 44.506 399.417 44.214C399.253 43.922 399.171 43.604 399.171 43.26C399.171 42.908 399.241 42.608 399.381 42.36C399.525 42.108 399.719 41.902 399.963 41.742C400.211 41.582 400.497 41.46 400.821 41.376C401.149 41.296 401.511 41.226 401.907 41.166C402.307 41.102 402.697 41.048 403.077 41.004C403.461 40.956 403.797 40.91 404.085 40.866L403.773 41.058C403.785 40.418 403.661 39.944 403.401 39.636C403.141 39.328 402.689 39.174 402.045 39.174C401.601 39.174 401.225 39.274 400.917 39.474C400.613 39.674 400.399 39.99 400.275 40.422L399.417 40.17C399.565 39.59 399.863 39.14 400.311 38.82C400.759 38.5 401.341 38.34 402.057 38.34C402.649 38.34 403.151 38.452 403.563 38.676C403.979 38.896 404.273 39.216 404.445 39.636C404.525 39.824 404.577 40.034 404.601 40.266C404.625 40.498 404.637 40.734 404.637 40.974V45H403.851V43.374L404.079 43.47C403.859 44.026 403.517 44.45 403.053 44.742C402.589 45.034 402.033 45.18 401.385 45.18ZM401.487 44.418C401.899 44.418 402.259 44.344 402.567 44.196C402.875 44.048 403.123 43.846 403.311 43.59C403.499 43.33 403.621 43.038 403.677 42.714C403.725 42.506 403.751 42.278 403.755 42.03C403.759 41.778 403.761 41.59 403.761 41.466L404.097 41.64C403.797 41.68 403.471 41.72 403.119 41.76C402.771 41.8 402.427 41.846 402.087 41.898C401.751 41.95 401.447 42.012 401.175 42.084C400.991 42.136 400.813 42.21 400.641 42.306C400.469 42.398 400.327 42.522 400.215 42.678C400.107 42.834 400.053 43.028 400.053 43.26C400.053 43.448 400.099 43.63 400.191 43.806C400.287 43.982 400.439 44.128 400.647 44.244C400.859 44.36 401.139 44.418 401.487 44.418ZM406.193 45V38.52H408.863C408.999 38.52 409.163 38.528 409.355 38.544C409.551 38.56 409.733 38.59 409.901 38.634C410.265 38.73 410.557 38.926 410.777 39.222C411.001 39.518 411.113 39.874 411.113 40.29C411.113 40.522 411.077 40.73 411.005 40.914C410.937 41.094 410.839 41.25 410.711 41.382C410.651 41.45 410.585 41.51 410.513 41.562C410.441 41.61 410.371 41.65 410.303 41.682C410.431 41.706 410.569 41.762 410.717 41.85C410.949 41.986 411.125 42.17 411.245 42.402C411.365 42.63 411.425 42.908 411.425 43.236C411.425 43.68 411.319 44.042 411.107 44.322C410.895 44.602 410.611 44.794 410.255 44.898C410.095 44.942 409.921 44.97 409.733 44.982C409.549 44.994 409.375 45 409.211 45H406.193ZM407.081 44.25H409.169C409.253 44.25 409.359 44.244 409.487 44.232C409.615 44.216 409.729 44.196 409.829 44.172C410.065 44.112 410.237 43.992 410.345 43.812C410.457 43.628 410.513 43.428 410.513 43.212C410.513 42.928 410.429 42.696 410.261 42.516C410.097 42.332 409.877 42.22 409.601 42.18C409.509 42.16 409.413 42.148 409.313 42.144C409.213 42.14 409.123 42.138 409.043 42.138H407.081V44.25ZM407.081 41.382H408.893C408.997 41.382 409.113 41.376 409.241 41.364C409.373 41.348 409.487 41.322 409.583 41.286C409.791 41.214 409.943 41.09 410.039 40.914C410.139 40.738 410.189 40.546 410.189 40.338C410.189 40.11 410.135 39.91 410.027 39.738C409.923 39.566 409.765 39.446 409.553 39.378C409.409 39.326 409.253 39.296 409.085 39.288C408.921 39.28 408.817 39.276 408.773 39.276H407.081V41.382ZM412.615 45V38.52H413.497V41.334H417.151V38.52H418.033V45H417.151V42.18H413.497V45H412.615ZM424.859 38.52V45H424.001V39.954L420.449 45H419.705V38.52H420.563V43.524L424.121 38.52H424.859ZM428.301 45V39.336H426.003V38.52H431.481V39.336H429.183V45H428.301ZM432.631 45L432.619 38.52H433.507V40.962H435.025C435.213 40.962 435.397 40.966 435.577 40.974C435.761 40.982 435.923 40.998 436.063 41.022C436.383 41.082 436.667 41.188 436.915 41.34C437.167 41.492 437.363 41.702 437.503 41.97C437.647 42.238 437.719 42.574 437.719 42.978C437.719 43.534 437.575 43.972 437.287 44.292C437.003 44.612 436.643 44.82 436.207 44.916C436.043 44.952 435.865 44.976 435.673 44.988C435.481 44.996 435.291 45 435.103 45H432.631ZM433.507 44.244H435.067C435.203 44.244 435.355 44.24 435.523 44.232C435.691 44.224 435.839 44.202 435.967 44.166C436.179 44.106 436.371 43.986 436.543 43.806C436.719 43.622 436.807 43.346 436.807 42.978C436.807 42.614 436.723 42.34 436.555 42.156C436.387 41.968 436.163 41.844 435.883 41.784C435.759 41.756 435.625 41.738 435.481 41.73C435.337 41.722 435.199 41.718 435.067 41.718H433.507V44.244Z" fill="#0F1015"/>
    <rect x="347" y="78" width="44" height="44" rx="12" fill="#F5F6F9"/>
    <path d="M366.158 94.7881C364.098 94.7881 362.429 96.4578 362.429 98.5174C362.429 100.582 363.254 101.615 366.711 104.303L368.298 105.538C368.711 105.859 369.289 105.859 369.702 105.538L371.29 104.303C374.746 101.615 375.572 100.582 375.572 98.5174C375.572 96.4578 373.902 94.7881 371.842 94.7881C370.773 94.7881 369.821 95.274 369 96.209C368.18 95.274 367.227 94.7881 366.158 94.7881Z" fill="#F62E46"/>
    <rect x="399" y="78" width="44" height="44" rx="12" fill="#F5F6F9"/>
    <path fill-rule="evenodd" clip-rule="evenodd" d="M421 97.7147C421 97.3991 420.744 97.1433 420.429 97.1433C420.113 97.1433 419.857 97.3991 419.857 97.7147V98.8576H418.714C418.399 98.8576 418.143 99.1134 418.143 99.429C418.143 99.7446 418.399 100 418.714 100H419.857V101.143C419.857 101.459 420.113 101.715 420.429 101.715C420.744 101.715 421 101.459 421 101.143V100H422.143C422.458 100 422.714 99.7446 422.714 99.429C422.714 99.1134 422.458 98.8576 422.143 98.8576H421V97.7147Z" fill="#555D74"/>
    <path fill-rule="evenodd" clip-rule="evenodd" d="M420.429 94.2861C417.588 94.2861 415.286 96.5887 415.286 99.429C415.286 102.269 417.588 104.572 420.429 104.572C421.643 104.572 422.759 104.151 423.639 103.447L426.31 106.119C426.533 106.342 426.895 106.342 427.118 106.119C427.341 105.896 427.341 105.534 427.118 105.311L424.447 102.639C425.151 101.759 425.571 100.643 425.571 99.429C425.571 96.5887 423.269 94.2861 420.429 94.2861ZM420.429 95.429C418.219 95.429 416.429 97.2199 416.429 99.429C416.429 101.638 418.219 103.429 420.429 103.429C422.638 103.429 424.429 101.638 424.429 99.429C424.429 97.2199 422.638 95.429 420.429 95.429Z" fill="#555D74"/>
    <rect x="0.5" y="0.5" width="458" height="145" rx="19.5" stroke="#EBEDF2"/>
</svg>