<svg width="40" height="45" viewBox="0 0 40 45" fill="none" xmlns="http://www.w3.org/2000/svg">
    <path fill-rule="evenodd" clip-rule="evenodd" d="M26.6977 1.18291C26.0947 0.805843 25.4816 0.551862 24.7886 0.39215C24.0956 0.232437 23.4704 0.166992 21.6629 0.166992H9.30709C6.18678 0.166992 5.05528 0.491882 3.91454 1.10196C2.7738 1.71203 1.87854 2.60729 1.26846 3.74803C0.658386 4.88877 0.333496 6.02027 0.333496 9.14059V35.5267C0.333496 38.647 0.658386 39.7785 1.26846 40.9193C1.87854 42.06 2.7738 42.9553 3.91454 43.5654C5.05528 44.1754 6.18678 44.5003 9.30709 44.5003H31.0266C34.1469 44.5003 35.2784 44.1754 36.4191 43.5654C37.5599 42.9553 38.4551 42.06 39.0652 40.9193C39.6753 39.7785 40.0002 38.647 40.0002 35.5267V18.5042C40.0002 16.6968 39.9347 16.0715 39.775 15.3786C39.6153 14.6856 39.3613 14.0724 38.9842 13.4695C38.6072 12.8666 38.2113 12.3782 36.9333 11.1001L29.0671 3.23388C27.789 1.95581 27.3006 1.55998 26.6977 1.18291ZM23.4365 5.08917C22.9455 4.60262 22.1113 4.95041 22.1113 5.64163V14.9448C22.1113 15.3743 22.4595 15.7226 22.8891 15.7226H32.277C32.9716 15.7226 33.3179 14.8813 32.8245 14.3923L23.4365 5.08917Z" fill="#F62E46"/>
</svg>