<svg width="11" height="13" viewBox="0 0 11 13" fill="none" xmlns="http://www.w3.org/2000/svg">
    <path fill-rule="evenodd" clip-rule="evenodd" d="M5.50033 0.333008C5.8317 0.333008 6.10033 0.601637 6.10033 0.933008V8.21782L9.14273 5.17541C9.37705 4.9411 9.75695 4.9411 9.99126 5.17542C10.2256 5.40973 10.2256 5.78963 9.99126 6.02394L5.92459 10.0906C5.69027 10.3249 5.31038 10.3249 5.07606 10.0906L1.0094 6.02394C0.775084 5.78963 0.775084 5.40973 1.0094 5.17542C1.24371 4.9411 1.62361 4.9411 1.85793 5.17542L4.90033 8.21781V0.933008C4.90033 0.601637 5.16895 0.333008 5.50033 0.333008ZM0.166992 12.333C0.166992 12.0016 0.435621 11.733 0.766992 11.733H10.2337C10.565 11.733 10.8337 12.0016 10.8337 12.333C10.8337 12.6644 10.565 12.933 10.2337 12.933H0.766992C0.435621 12.933 0.166992 12.6644 0.166992 12.333Z" fill="#555D74"/>
</svg>