<svg width="727" height="367" viewBox="0 0 727 367" fill="none" xmlns="http://www.w3.org/2000/svg">
    <rect width="727" height="367" rx="20" fill="white"/>
    <path d="M29.856 42.24C28.7093 42.24 27.736 41.9867 26.936 41.48C26.136 40.9733 25.5253 40.2693 25.104 39.368C24.688 38.4667 24.48 37.424 24.48 36.24C24.48 35.056 24.688 34.0133 25.104 33.112C25.5253 32.2107 26.136 31.5067 26.936 31C27.736 30.4933 28.7093 30.24 29.856 30.24C31.008 30.24 31.984 30.4933 32.784 31C33.584 31.5067 34.192 32.2107 34.608 33.112C35.024 34.0133 35.232 35.056 35.232 36.24C35.232 37.424 35.024 38.4667 34.608 39.368C34.192 40.2693 33.584 40.9733 32.784 41.48C31.984 41.9867 31.008 42.24 29.856 42.24ZM29.856 40.88C30.7147 40.8853 31.4293 40.6933 32 40.304C32.576 39.9093 33.0053 39.3627 33.288 38.664C33.576 37.9653 33.72 37.1573 33.72 36.24C33.72 35.3173 33.576 34.5093 33.288 33.816C33.0053 33.1227 32.576 32.5813 32 32.192C31.4293 31.8027 30.7147 31.6053 29.856 31.6C28.9973 31.5947 28.2827 31.7867 27.712 32.176C27.1467 32.5653 26.72 33.1093 26.432 33.808C26.144 34.5067 25.9973 35.3173 25.992 36.24C25.9867 37.1573 26.128 37.9627 26.416 38.656C26.704 39.3493 27.1333 39.8933 27.704 40.288C28.28 40.6773 28.9973 40.8747 29.856 40.88ZM35.5663 42L38.8703 37.632L35.6383 33.36H37.3343L39.7023 36.528L42.0463 33.36H43.7423L40.5103 37.632L43.8223 42H42.1183L39.7023 38.736L37.2703 42H35.5663ZM45.0964 42V33.36H48.7764C48.995 33.36 49.2297 33.3733 49.4804 33.4C49.7364 33.4213 49.9684 33.4613 50.1764 33.52C50.6404 33.6427 51.0217 33.896 51.3204 34.28C51.6244 34.6587 51.7764 35.1387 51.7764 35.72C51.7764 36.0453 51.7257 36.328 51.6244 36.568C51.5284 36.808 51.3897 37.016 51.2084 37.192C51.1284 37.272 51.0404 37.344 50.9444 37.408C50.8484 37.472 50.7524 37.5227 50.6564 37.56C50.843 37.592 51.0324 37.664 51.2244 37.776C51.5284 37.9413 51.7657 38.1733 51.9364 38.472C52.1124 38.7707 52.2004 39.152 52.2004 39.616C52.2004 40.2027 52.059 40.688 51.7764 41.072C51.4937 41.4507 51.1044 41.712 50.6084 41.856C50.4004 41.9147 50.171 41.9547 49.9204 41.976C49.6697 41.992 49.427 42 49.1924 42H45.0964ZM46.5364 40.84H49.1124C49.2244 40.84 49.3577 40.8293 49.5124 40.808C49.6724 40.7867 49.8137 40.76 49.9364 40.728C50.2137 40.648 50.4137 40.4987 50.5364 40.28C50.6644 40.0613 50.7284 39.824 50.7284 39.568C50.7284 39.2267 50.6324 38.9493 50.4404 38.736C50.2537 38.5227 50.0057 38.3893 49.6964 38.336C49.5844 38.304 49.4617 38.2853 49.3284 38.28C49.2004 38.2747 49.0857 38.272 48.9844 38.272H46.5364V40.84ZM46.5364 37.096H48.6804C48.8297 37.096 48.987 37.088 49.1524 37.072C49.3177 37.0507 49.4617 37.016 49.5844 36.968C49.8297 36.8773 50.0084 36.728 50.1204 36.52C50.2377 36.3067 50.2964 36.0747 50.2964 35.824C50.2964 35.5467 50.2324 35.304 50.1044 35.096C49.9817 34.8827 49.7924 34.736 49.5364 34.656C49.3657 34.592 49.1737 34.5573 48.9604 34.552C48.7524 34.5413 48.619 34.536 48.5604 34.536H46.5364V37.096ZM56.2635 42.24C55.6182 42.24 55.0768 42.1227 54.6395 41.888C54.2075 41.648 53.8795 41.3333 53.6555 40.944C53.4368 40.5547 53.3275 40.128 53.3275 39.664C53.3275 39.2107 53.4128 38.8187 53.5835 38.488C53.7595 38.152 54.0048 37.8747 54.3195 37.656C54.6342 37.432 55.0102 37.256 55.4475 37.128C55.8582 37.016 56.3168 36.92 56.8235 36.84C57.3355 36.7547 57.8528 36.6773 58.3755 36.608C58.8982 36.5387 59.3862 36.472 59.8395 36.408L59.3275 36.704C59.3435 35.936 59.1888 35.368 58.8635 35C58.5435 34.632 57.9888 34.448 57.1995 34.448C56.6768 34.448 56.2182 34.568 55.8235 34.808C55.4342 35.0427 55.1595 35.4267 54.9995 35.96L53.6475 35.552C53.8555 34.7947 54.2582 34.2 54.8555 33.768C55.4528 33.336 56.2395 33.12 57.2155 33.12C57.9995 33.12 58.6715 33.2613 59.2315 33.544C59.7968 33.8213 60.2022 34.2427 60.4475 34.808C60.5702 35.0747 60.6475 35.3653 60.6795 35.68C60.7115 35.9893 60.7275 36.3147 60.7275 36.656V42H59.4635V39.928L59.7595 40.12C59.4342 40.8187 58.9782 41.3467 58.3915 41.704C57.8102 42.0613 57.1008 42.24 56.2635 42.24ZM56.4795 41.048C56.9915 41.048 57.4342 40.9573 57.8075 40.776C58.1862 40.5893 58.4902 40.3467 58.7195 40.048C58.9488 39.744 59.0982 39.4133 59.1675 39.056C59.2475 38.7893 59.2902 38.4933 59.2955 38.168C59.3062 37.8373 59.3115 37.584 59.3115 37.408L59.8075 37.624C59.3435 37.688 58.8875 37.7493 58.4395 37.808C57.9915 37.8667 57.5675 37.9307 57.1675 38C56.7675 38.064 56.4075 38.1413 56.0875 38.232C55.8528 38.3067 55.6315 38.4027 55.4235 38.52C55.2208 38.6373 55.0555 38.7893 54.9275 38.976C54.8048 39.1573 54.7435 39.384 54.7435 39.656C54.7435 39.8907 54.8022 40.1147 54.9195 40.328C55.0422 40.5413 55.2288 40.7147 55.4795 40.848C55.7355 40.9813 56.0688 41.048 56.4795 41.048ZM65.0955 42V34.656H62.0875V33.36H69.5275V34.656H66.5195V42H65.0955ZM76.701 42.24C76.0557 42.24 75.5143 42.1227 75.077 41.888C74.645 41.648 74.317 41.3333 74.093 40.944C73.8743 40.5547 73.765 40.128 73.765 39.664C73.765 39.2107 73.8503 38.8187 74.021 38.488C74.197 38.152 74.4423 37.8747 74.757 37.656C75.0717 37.432 75.4477 37.256 75.885 37.128C76.2957 37.016 76.7543 36.92 77.261 36.84C77.773 36.7547 78.2903 36.6773 78.813 36.608C79.3357 36.5387 79.8237 36.472 80.277 36.408L79.765 36.704C79.781 35.936 79.6263 35.368 79.301 35C78.981 34.632 78.4263 34.448 77.637 34.448C77.1143 34.448 76.6557 34.568 76.261 34.808C75.8717 35.0427 75.597 35.4267 75.437 35.96L74.085 35.552C74.293 34.7947 74.6957 34.2 75.293 33.768C75.8903 33.336 76.677 33.12 77.653 33.12C78.437 33.12 79.109 33.2613 79.669 33.544C80.2343 33.8213 80.6397 34.2427 80.885 34.808C81.0077 35.0747 81.085 35.3653 81.117 35.68C81.149 35.9893 81.165 36.3147 81.165 36.656V42H79.901V39.928L80.197 40.12C79.8717 40.8187 79.4157 41.3467 78.829 41.704C78.2477 42.0613 77.5383 42.24 76.701 42.24ZM76.917 41.048C77.429 41.048 77.8717 40.9573 78.245 40.776C78.6237 40.5893 78.9277 40.3467 79.157 40.048C79.3863 39.744 79.5357 39.4133 79.605 39.056C79.685 38.7893 79.7277 38.4933 79.733 38.168C79.7437 37.8373 79.749 37.584 79.749 37.408L80.245 37.624C79.781 37.688 79.325 37.7493 78.877 37.808C78.429 37.8667 78.005 37.9307 77.605 38C77.205 38.064 76.845 38.1413 76.525 38.232C76.2903 38.3067 76.069 38.4027 75.861 38.52C75.6583 38.6373 75.493 38.7893 75.365 38.976C75.2423 39.1573 75.181 39.384 75.181 39.656C75.181 39.8907 75.2397 40.1147 75.357 40.328C75.4797 40.5413 75.6663 40.7147 75.917 40.848C76.173 40.9813 76.5063 41.048 76.917 41.048ZM83.9606 45.84L85.6326 41.296L85.6566 42.64L81.8806 33.36H83.3766L86.3366 40.824H85.8246L88.6006 33.36H90.0486L85.3446 45.84H83.9606ZM90.4175 43.92V40.824C90.9028 40.824 91.2495 40.6667 91.4575 40.352C91.6655 40.032 91.8335 39.5067 91.9615 38.776C92.0468 38.3173 92.1162 37.8267 92.1695 37.304C92.2228 36.7813 92.2682 36.2 92.3055 35.56C92.3482 34.9147 92.3882 34.1813 92.4255 33.36H98.3775V40.824H99.2175V43.92H97.8575V42H91.7775V43.92H90.4175ZM92.6095 40.824H96.9535V34.536H93.7135C93.6975 34.9147 93.6762 35.312 93.6495 35.728C93.6228 36.1387 93.5908 36.5493 93.5535 36.96C93.5215 37.3707 93.4815 37.76 93.4335 38.128C93.3908 38.4907 93.3402 38.816 93.2815 39.104C93.2122 39.504 93.1322 39.8427 93.0415 40.12C92.9508 40.3973 92.8068 40.632 92.6095 40.824ZM107.895 33.36V42H106.519V35.632L101.991 42H100.815V33.36H102.191V39.64L106.727 33.36H107.895ZM112.424 42V34.656H109.416V33.36H116.856V34.656H113.848V42H112.424ZM121.894 42.24C121.035 42.24 120.294 42.0453 119.67 41.656C119.051 41.2667 118.574 40.728 118.238 40.04C117.902 39.352 117.734 38.5627 117.734 37.672C117.734 36.7653 117.904 35.9707 118.246 35.288C118.587 34.6053 119.07 34.0747 119.694 33.696C120.318 33.312 121.051 33.12 121.894 33.12C122.758 33.12 123.502 33.3147 124.126 33.704C124.75 34.088 125.227 34.624 125.558 35.312C125.894 35.9947 126.062 36.7813 126.062 37.672C126.062 38.5733 125.894 39.368 125.558 40.056C125.222 40.7387 124.742 41.2747 124.118 41.664C123.494 42.048 122.752 42.24 121.894 42.24ZM121.894 40.888C122.79 40.888 123.456 40.5893 123.894 39.992C124.331 39.3947 124.55 38.6213 124.55 37.672C124.55 36.696 124.328 35.92 123.886 35.344C123.443 34.7627 122.779 34.472 121.894 34.472C121.291 34.472 120.795 34.608 120.406 34.88C120.016 35.152 119.726 35.528 119.534 36.008C119.342 36.488 119.246 37.0427 119.246 37.672C119.246 38.6427 119.47 39.4213 119.918 40.008C120.366 40.5947 121.024 40.888 121.894 40.888ZM131.791 42.24C130.98 42.24 130.298 42.04 129.743 41.64C129.188 41.2347 128.767 40.688 128.479 40C128.196 39.3067 128.055 38.5307 128.055 37.672C128.055 36.8027 128.196 36.024 128.479 35.336C128.767 34.648 129.188 34.1067 129.743 33.712C130.303 33.3173 130.988 33.12 131.799 33.12C132.599 33.12 133.287 33.32 133.863 33.72C134.444 34.1147 134.89 34.656 135.199 35.344C135.508 36.032 135.663 36.808 135.663 37.672C135.663 38.536 135.508 39.312 135.199 40C134.89 40.688 134.444 41.2347 133.863 41.64C133.287 42.04 132.596 42.24 131.791 42.24ZM127.815 45.84V33.36H129.087V39.72H129.247V45.84H127.815ZM131.615 40.936C132.186 40.936 132.658 40.792 133.031 40.504C133.404 40.216 133.684 39.8267 133.871 39.336C134.058 38.84 134.151 38.2853 134.151 37.672C134.151 37.064 134.058 36.5147 133.871 36.024C133.69 35.5333 133.407 35.144 133.023 34.856C132.644 34.568 132.162 34.424 131.575 34.424C131.015 34.424 130.551 34.5627 130.183 34.84C129.815 35.112 129.54 35.4933 129.359 35.984C129.178 36.4693 129.087 37.032 129.087 37.672C129.087 38.3013 129.175 38.864 129.351 39.36C129.532 39.8507 129.81 40.2373 130.183 40.52C130.556 40.7973 131.034 40.936 131.615 40.936ZM144.489 33.36V42H143.113V35.632L138.585 42H137.409V33.36H138.785V39.64L143.321 33.36H144.489ZM153.801 33.36V42H152.425V35.632L147.897 42H146.721V33.36H148.097V39.64L152.633 33.36H153.801ZM155.882 43.792L155.97 43.128C156.194 43.144 156.362 43.1013 156.474 43C156.586 42.8987 156.658 42.76 156.69 42.584C156.722 42.408 156.727 42.2133 156.706 42H155.882V40.192H157.45V42.24C157.45 42.8 157.311 43.2213 157.034 43.504C156.762 43.7867 156.378 43.8827 155.882 43.792ZM163.69 42V33.36H167.37C167.589 33.36 167.823 33.3733 168.074 33.4C168.33 33.4213 168.562 33.4613 168.77 33.52C169.234 33.6427 169.615 33.896 169.914 34.28C170.218 34.6587 170.37 35.1387 170.37 35.72C170.37 36.0453 170.319 36.328 170.218 36.568C170.122 36.808 169.983 37.016 169.802 37.192C169.722 37.272 169.634 37.344 169.538 37.408C169.442 37.472 169.346 37.5227 169.25 37.56C169.437 37.592 169.626 37.664 169.818 37.776C170.122 37.9413 170.359 38.1733 170.53 38.472C170.706 38.7707 170.794 39.152 170.794 39.616C170.794 40.2027 170.653 40.688 170.37 41.072C170.087 41.4507 169.698 41.712 169.202 41.856C168.994 41.9147 168.765 41.9547 168.514 41.976C168.263 41.992 168.021 42 167.786 42H163.69ZM165.13 40.84H167.706C167.818 40.84 167.951 40.8293 168.106 40.808C168.266 40.7867 168.407 40.76 168.53 40.728C168.807 40.648 169.007 40.4987 169.13 40.28C169.258 40.0613 169.322 39.824 169.322 39.568C169.322 39.2267 169.226 38.9493 169.034 38.736C168.847 38.5227 168.599 38.3893 168.29 38.336C168.178 38.304 168.055 38.2853 167.922 38.28C167.794 38.2747 167.679 38.272 167.578 38.272H165.13V40.84ZM165.13 37.096H167.274C167.423 37.096 167.581 37.088 167.746 37.072C167.911 37.0507 168.055 37.016 168.178 36.968C168.423 36.8773 168.602 36.728 168.714 36.52C168.831 36.3067 168.89 36.0747 168.89 35.824C168.89 35.5467 168.826 35.304 168.698 35.096C168.575 34.8827 168.386 34.736 168.13 34.656C167.959 34.592 167.767 34.5573 167.554 34.552C167.346 34.5413 167.213 34.536 167.154 34.536H165.13V37.096ZM176.081 42.24C175.223 42.24 174.481 42.0453 173.857 41.656C173.239 41.2667 172.761 40.728 172.425 40.04C172.089 39.352 171.921 38.5627 171.921 37.672C171.921 36.7653 172.092 35.9707 172.433 35.288C172.775 34.6053 173.257 34.0747 173.881 33.696C174.505 33.312 175.239 33.12 176.081 33.12C176.945 33.12 177.689 33.3147 178.313 33.704C178.937 34.088 179.415 34.624 179.745 35.312C180.081 35.9947 180.249 36.7813 180.249 37.672C180.249 38.5733 180.081 39.368 179.745 40.056C179.409 40.7387 178.929 41.2747 178.305 41.664C177.681 42.048 176.94 42.24 176.081 42.24ZM176.081 40.888C176.977 40.888 177.644 40.5893 178.081 39.992C178.519 39.3947 178.737 38.6213 178.737 37.672C178.737 36.696 178.516 35.92 178.073 35.344C177.631 34.7627 176.967 34.472 176.081 34.472C175.479 34.472 174.983 34.608 174.593 34.88C174.204 35.152 173.913 35.528 173.721 36.008C173.529 36.488 173.433 37.0427 173.433 37.672C173.433 38.6427 173.657 39.4213 174.105 40.008C174.553 40.5947 175.212 40.888 176.081 40.888ZM185.651 42.24C184.776 42.24 184.032 42.0453 183.419 41.656C182.811 41.2613 182.347 40.72 182.027 40.032C181.707 39.344 181.541 38.56 181.531 37.68C181.541 36.7787 181.709 35.9867 182.035 35.304C182.365 34.616 182.837 34.08 183.451 33.696C184.064 33.312 184.803 33.12 185.667 33.12C186.579 33.12 187.363 33.344 188.019 33.792C188.68 34.24 189.123 34.8533 189.347 35.632L187.939 36.056C187.757 35.5547 187.461 35.1653 187.051 34.888C186.645 34.6107 186.179 34.472 185.651 34.472C185.059 34.472 184.571 34.6107 184.187 34.888C183.803 35.16 183.517 35.5387 183.331 36.024C183.144 36.504 183.048 37.056 183.043 37.68C183.053 38.64 183.275 39.416 183.707 40.008C184.144 40.5947 184.792 40.888 185.651 40.888C186.216 40.888 186.685 40.76 187.059 40.504C187.432 40.2427 187.715 39.8667 187.907 39.376L189.347 39.752C189.048 40.5573 188.581 41.1733 187.947 41.6C187.312 42.0267 186.547 42.24 185.651 42.24ZM190.971 42V33.36H198.051V42H196.627V34.712H192.395V42H190.971ZM203.972 42.24C203.113 42.24 202.372 42.0453 201.748 41.656C201.129 41.2667 200.652 40.728 200.316 40.04C199.98 39.352 199.812 38.5627 199.812 37.672C199.812 36.7653 199.983 35.9707 200.324 35.288C200.665 34.6053 201.148 34.0747 201.772 33.696C202.396 33.312 203.129 33.12 203.972 33.12C204.836 33.12 205.58 33.3147 206.204 33.704C206.828 34.088 207.305 34.624 207.636 35.312C207.972 35.9947 208.14 36.7813 208.14 37.672C208.14 38.5733 207.972 39.368 207.636 40.056C207.3 40.7387 206.82 41.2747 206.196 41.664C205.572 42.048 204.831 42.24 203.972 42.24ZM203.972 40.888C204.868 40.888 205.535 40.5893 205.972 39.992C206.409 39.3947 206.628 38.6213 206.628 37.672C206.628 36.696 206.407 35.92 205.964 35.344C205.521 34.7627 204.857 34.472 203.972 34.472C203.369 34.472 202.873 34.608 202.484 34.88C202.095 35.152 201.804 35.528 201.612 36.008C201.42 36.488 201.324 37.0427 201.324 37.672C201.324 38.6427 201.548 39.4213 201.996 40.008C202.444 40.5947 203.103 40.888 203.972 40.888ZM209.101 42V40.776C209.421 40.8347 209.664 40.824 209.829 40.744C210 40.6587 210.125 40.512 210.205 40.304C210.291 40.0907 210.36 39.824 210.413 39.504C210.504 38.9973 210.581 38.432 210.645 37.808C210.715 37.184 210.776 36.5013 210.829 35.76C210.888 35.0133 210.941 34.2133 210.989 33.36H217.029V42H215.605V34.712H212.285C212.253 35.2027 212.213 35.7067 212.165 36.224C212.123 36.7413 212.077 37.2453 212.029 37.736C211.981 38.2213 211.928 38.6747 211.869 39.096C211.816 39.512 211.757 39.872 211.693 40.176C211.592 40.6987 211.451 41.1173 211.269 41.432C211.088 41.7413 210.827 41.9413 210.485 42.032C210.144 42.128 209.683 42.1173 209.101 42ZM219.276 42L219.268 33.36H220.7V36.488H222.564C222.815 36.488 223.071 36.4933 223.332 36.504C223.594 36.5147 223.82 36.5387 224.012 36.576C224.46 36.6613 224.852 36.8107 225.188 37.024C225.524 37.2373 225.786 37.528 225.972 37.896C226.159 38.2587 226.252 38.7093 226.252 39.248C226.252 39.9947 226.058 40.5867 225.668 41.024C225.284 41.456 224.78 41.744 224.156 41.888C223.943 41.936 223.698 41.968 223.42 41.984C223.148 41.9947 222.89 42 222.644 42H219.276ZM220.7 40.824H222.668C222.828 40.824 223.007 40.8187 223.204 40.808C223.402 40.7973 223.578 40.7707 223.732 40.728C224.004 40.648 224.247 40.4907 224.46 40.256C224.679 40.0213 224.788 39.6853 224.788 39.248C224.788 38.8053 224.682 38.464 224.468 38.224C224.26 37.984 223.986 37.8267 223.644 37.752C223.49 37.7147 223.327 37.6907 223.156 37.68C222.986 37.6693 222.823 37.664 222.668 37.664H220.7V40.824ZM231.107 42.24C230.253 42.24 229.499 42.056 228.843 41.688C228.187 41.3147 227.669 40.8027 227.291 40.152L228.427 39.416C228.741 39.8907 229.117 40.256 229.555 40.512C229.992 40.7627 230.491 40.888 231.051 40.888C231.637 40.888 232.104 40.7547 232.451 40.488C232.797 40.216 232.971 39.8507 232.971 39.392C232.971 39.0507 232.885 38.7893 232.715 38.608C232.544 38.4267 232.299 38.3013 231.979 38.232C231.659 38.1627 231.277 38.128 230.835 38.128H229.939V36.952H230.827C231.387 36.952 231.843 36.8613 232.195 36.68C232.547 36.4987 232.723 36.1893 232.723 35.752C232.723 35.304 232.557 34.9787 232.227 34.776C231.901 34.568 231.512 34.464 231.059 34.464C230.579 34.464 230.12 34.5653 229.683 34.768C229.245 34.9653 228.869 35.216 228.555 35.52L227.691 34.552C228.139 34.0933 228.653 33.7413 229.235 33.496C229.821 33.2453 230.459 33.12 231.147 33.12C231.701 33.12 232.208 33.2187 232.667 33.416C233.131 33.608 233.499 33.8933 233.771 34.272C234.048 34.6453 234.187 35.1013 234.187 35.64C234.187 36.0987 234.08 36.5067 233.867 36.864C233.653 37.2213 233.339 37.5333 232.923 37.8L232.867 37.296C233.219 37.3813 233.509 37.5387 233.739 37.768C233.973 37.992 234.147 38.2587 234.259 38.568C234.371 38.8773 234.427 39.2 234.427 39.536C234.427 40.1013 234.277 40.5867 233.979 40.992C233.685 41.392 233.288 41.7013 232.787 41.92C232.285 42.1333 231.725 42.24 231.107 42.24ZM239.863 42.24C239.004 42.24 238.263 42.0453 237.639 41.656C237.02 41.2667 236.543 40.728 236.207 40.04C235.871 39.352 235.703 38.5627 235.703 37.672C235.703 36.7653 235.873 35.9707 236.215 35.288C236.556 34.6053 237.039 34.0747 237.663 33.696C238.287 33.312 239.02 33.12 239.863 33.12C240.727 33.12 241.471 33.3147 242.095 33.704C242.719 34.088 243.196 34.624 243.527 35.312C243.863 35.9947 244.031 36.7813 244.031 37.672C244.031 38.5733 243.863 39.368 243.527 40.056C243.191 40.7387 242.711 41.2747 242.087 41.664C241.463 42.048 240.721 42.24 239.863 42.24ZM239.863 40.888C240.759 40.888 241.425 40.5893 241.863 39.992C242.3 39.3947 242.519 38.6213 242.519 37.672C242.519 36.696 242.297 35.92 241.855 35.344C241.412 34.7627 240.748 34.472 239.863 34.472C239.26 34.472 238.764 34.608 238.375 34.88C237.985 35.152 237.695 35.528 237.503 36.008C237.311 36.488 237.215 37.0427 237.215 37.672C237.215 38.6427 237.439 39.4213 237.887 40.008C238.335 40.5947 238.993 40.888 239.863 40.888ZM245.784 42V33.36H249.464C249.683 33.36 249.917 33.3733 250.168 33.4C250.424 33.4213 250.656 33.4613 250.864 33.52C251.328 33.6427 251.709 33.896 252.008 34.28C252.312 34.6587 252.464 35.1387 252.464 35.72C252.464 36.0453 252.413 36.328 252.312 36.568C252.216 36.808 252.077 37.016 251.896 37.192C251.816 37.272 251.728 37.344 251.632 37.408C251.536 37.472 251.44 37.5227 251.344 37.56C251.531 37.592 251.72 37.664 251.912 37.776C252.216 37.9413 252.453 38.1733 252.624 38.472C252.8 38.7707 252.888 39.152 252.888 39.616C252.888 40.2027 252.747 40.688 252.464 41.072C252.181 41.4507 251.792 41.712 251.296 41.856C251.088 41.9147 250.859 41.9547 250.608 41.976C250.357 41.992 250.115 42 249.88 42H245.784ZM247.224 40.84H249.8C249.912 40.84 250.045 40.8293 250.2 40.808C250.36 40.7867 250.501 40.76 250.624 40.728C250.901 40.648 251.101 40.4987 251.224 40.28C251.352 40.0613 251.416 39.824 251.416 39.568C251.416 39.2267 251.32 38.9493 251.128 38.736C250.941 38.5227 250.693 38.3893 250.384 38.336C250.272 38.304 250.149 38.2853 250.016 38.28C249.888 38.2747 249.773 38.272 249.672 38.272H247.224V40.84ZM247.224 37.096H249.368C249.517 37.096 249.675 37.088 249.84 37.072C250.005 37.0507 250.149 37.016 250.272 36.968C250.517 36.8773 250.696 36.728 250.808 36.52C250.925 36.3067 250.984 36.0747 250.984 35.824C250.984 35.5467 250.92 35.304 250.792 35.096C250.669 34.8827 250.48 34.736 250.224 34.656C250.053 34.592 249.861 34.5573 249.648 34.552C249.44 34.5413 249.307 34.536 249.248 34.536H247.224V37.096ZM256.951 42.24C256.306 42.24 255.764 42.1227 255.327 41.888C254.895 41.648 254.567 41.3333 254.343 40.944C254.124 40.5547 254.015 40.128 254.015 39.664C254.015 39.2107 254.1 38.8187 254.271 38.488C254.447 38.152 254.692 37.8747 255.007 37.656C255.322 37.432 255.698 37.256 256.135 37.128C256.546 37.016 257.004 36.92 257.511 36.84C258.023 36.7547 258.54 36.6773 259.063 36.608C259.586 36.5387 260.074 36.472 260.527 36.408L260.015 36.704C260.031 35.936 259.876 35.368 259.551 35C259.231 34.632 258.676 34.448 257.887 34.448C257.364 34.448 256.906 34.568 256.511 34.808C256.122 35.0427 255.847 35.4267 255.687 35.96L254.335 35.552C254.543 34.7947 254.946 34.2 255.543 33.768C256.14 33.336 256.927 33.12 257.903 33.12C258.687 33.12 259.359 33.2613 259.919 33.544C260.484 33.8213 260.89 34.2427 261.135 34.808C261.258 35.0747 261.335 35.3653 261.367 35.68C261.399 35.9893 261.415 36.3147 261.415 36.656V42H260.151V39.928L260.447 40.12C260.122 40.8187 259.666 41.3467 259.079 41.704C258.498 42.0613 257.788 42.24 256.951 42.24ZM257.167 41.048C257.679 41.048 258.122 40.9573 258.495 40.776C258.874 40.5893 259.178 40.3467 259.407 40.048C259.636 39.744 259.786 39.4133 259.855 39.056C259.935 38.7893 259.978 38.4933 259.983 38.168C259.994 37.8373 259.999 37.584 259.999 37.408L260.495 37.624C260.031 37.688 259.575 37.7493 259.127 37.808C258.679 37.8667 258.255 37.9307 257.855 38C257.455 38.064 257.095 38.1413 256.775 38.232C256.54 38.3067 256.319 38.4027 256.111 38.52C255.908 38.6373 255.743 38.7893 255.615 38.976C255.492 39.1573 255.431 39.384 255.431 39.656C255.431 39.8907 255.49 40.1147 255.607 40.328C255.73 40.5413 255.916 40.7147 256.167 40.848C256.423 40.9813 256.756 41.048 257.167 41.048ZM263.487 42V33.36H267.167C267.386 33.36 267.62 33.3733 267.871 33.4C268.127 33.4213 268.359 33.4613 268.567 33.52C269.031 33.6427 269.412 33.896 269.711 34.28C270.015 34.6587 270.167 35.1387 270.167 35.72C270.167 36.0453 270.116 36.328 270.015 36.568C269.919 36.808 269.78 37.016 269.599 37.192C269.519 37.272 269.431 37.344 269.335 37.408C269.239 37.472 269.143 37.5227 269.047 37.56C269.234 37.592 269.423 37.664 269.615 37.776C269.919 37.9413 270.156 38.1733 270.327 38.472C270.503 38.7707 270.591 39.152 270.591 39.616C270.591 40.2027 270.45 40.688 270.167 41.072C269.884 41.4507 269.495 41.712 268.999 41.856C268.791 41.9147 268.562 41.9547 268.311 41.976C268.06 41.992 267.818 42 267.583 42H263.487ZM264.927 40.84H267.503C267.615 40.84 267.748 40.8293 267.903 40.808C268.063 40.7867 268.204 40.76 268.327 40.728C268.604 40.648 268.804 40.4987 268.927 40.28C269.055 40.0613 269.119 39.824 269.119 39.568C269.119 39.2267 269.023 38.9493 268.831 38.736C268.644 38.5227 268.396 38.3893 268.087 38.336C267.975 38.304 267.852 38.2853 267.719 38.28C267.591 38.2747 267.476 38.272 267.375 38.272H264.927V40.84ZM264.927 37.096H267.071C267.22 37.096 267.378 37.088 267.543 37.072C267.708 37.0507 267.852 37.016 267.975 36.968C268.22 36.8773 268.399 36.728 268.511 36.52C268.628 36.3067 268.687 36.0747 268.687 35.824C268.687 35.5467 268.623 35.304 268.495 35.096C268.372 34.8827 268.183 34.736 267.927 34.656C267.756 34.592 267.564 34.5573 267.351 34.552C267.143 34.5413 267.01 34.536 266.951 34.536H264.927V37.096ZM272.19 42V33.36H273.566V40.704H276.542V33.36H277.918V40.704H280.886V33.36H282.262V42H272.19ZM288.239 42.24C287.391 42.24 286.65 42.0533 286.015 41.68C285.386 41.3013 284.895 40.776 284.543 40.104C284.191 39.4267 284.015 38.6373 284.015 37.736C284.015 36.792 284.188 35.976 284.535 35.288C284.882 34.5947 285.364 34.0613 285.983 33.688C286.607 33.3093 287.338 33.12 288.175 33.12C289.044 33.12 289.783 33.32 290.391 33.72C291.004 34.12 291.463 34.6907 291.767 35.432C292.076 36.1733 292.21 37.056 292.167 38.08H290.727V37.568C290.711 36.5067 290.495 35.7147 290.079 35.192C289.663 34.664 289.044 34.4 288.223 34.4C287.343 34.4 286.674 34.6827 286.215 35.248C285.756 35.8133 285.527 36.624 285.527 37.68C285.527 38.6987 285.756 39.488 286.215 40.048C286.674 40.608 287.327 40.888 288.175 40.888C288.746 40.888 289.242 40.7573 289.663 40.496C290.084 40.2347 290.415 39.8587 290.655 39.368L292.023 39.84C291.687 40.6027 291.18 41.1947 290.503 41.616C289.831 42.032 289.076 42.24 288.239 42.24ZM285.047 38.08V36.936H291.431V38.08H285.047ZM297.668 32.352C297.268 32.352 296.903 32.2533 296.572 32.056C296.241 31.8587 295.977 31.5973 295.78 31.272C295.583 30.9413 295.484 30.5733 295.484 30.168H296.636C296.636 30.4507 296.737 30.6933 296.94 30.896C297.143 31.0987 297.385 31.2 297.668 31.2C297.956 31.2 298.199 31.0987 298.396 30.896C298.599 30.6933 298.7 30.4507 298.7 30.168H299.852C299.852 30.5733 299.753 30.9413 299.556 31.272C299.364 31.5973 299.1 31.8587 298.764 32.056C298.433 32.2533 298.068 32.352 297.668 32.352ZM301.02 33.36V42H299.644V35.632L295.116 42H293.94V33.36H295.316V39.64L299.852 33.36H301.02ZM306.901 42.24C306.026 42.24 305.282 42.0453 304.669 41.656C304.061 41.2613 303.597 40.72 303.277 40.032C302.957 39.344 302.791 38.56 302.781 37.68C302.791 36.7787 302.959 35.9867 303.285 35.304C303.615 34.616 304.087 34.08 304.701 33.696C305.314 33.312 306.053 33.12 306.917 33.12C307.829 33.12 308.613 33.344 309.269 33.792C309.93 34.24 310.373 34.8533 310.597 35.632L309.189 36.056C309.007 35.5547 308.711 35.1653 308.301 34.888C307.895 34.6107 307.429 34.472 306.901 34.472C306.309 34.472 305.821 34.6107 305.437 34.888C305.053 35.16 304.767 35.5387 304.581 36.024C304.394 36.504 304.298 37.056 304.293 37.68C304.303 38.64 304.525 39.416 304.957 40.008C305.394 40.5947 306.042 40.888 306.901 40.888C307.466 40.888 307.935 40.76 308.309 40.504C308.682 40.2427 308.965 39.8667 309.157 39.376L310.597 39.752C310.298 40.5573 309.831 41.1733 309.197 41.6C308.562 42.0267 307.797 42.24 306.901 42.24ZM317.487 42V38.872H315.623C315.405 38.872 315.162 38.864 314.895 38.848C314.634 38.8267 314.389 38.7973 314.159 38.76C313.535 38.6427 313.007 38.368 312.575 37.936C312.149 37.504 311.935 36.9067 311.935 36.144C311.935 35.4027 312.135 34.808 312.535 34.36C312.941 33.9067 313.439 33.6133 314.031 33.48C314.298 33.416 314.567 33.3813 314.839 33.376C315.117 33.3653 315.351 33.36 315.543 33.36H318.911L318.919 42H317.487ZM311.671 42L313.967 38.48H315.503L313.207 42H311.671ZM315.519 37.696H317.487V34.536H315.519C315.397 34.536 315.234 34.5413 315.031 34.552C314.834 34.5627 314.645 34.5947 314.463 34.648C314.293 34.696 314.125 34.784 313.959 34.912C313.799 35.04 313.666 35.2053 313.559 35.408C313.453 35.6107 313.399 35.8507 313.399 36.128C313.399 36.528 313.511 36.8533 313.735 37.104C313.959 37.3493 314.231 37.5147 314.551 37.6C314.727 37.6427 314.901 37.6693 315.071 37.68C315.247 37.6907 315.397 37.696 315.519 37.696ZM324.362 42V33.36H331.442V42H330.018V34.712H325.786V42H324.362ZM337.363 42.24C336.504 42.24 335.763 42.0453 335.139 41.656C334.52 41.2667 334.043 40.728 333.707 40.04C333.371 39.352 333.203 38.5627 333.203 37.672C333.203 36.7653 333.373 35.9707 333.715 35.288C334.056 34.6053 334.539 34.0747 335.163 33.696C335.787 33.312 336.52 33.12 337.363 33.12C338.227 33.12 338.971 33.3147 339.595 33.704C340.219 34.088 340.696 34.624 341.027 35.312C341.363 35.9947 341.531 36.7813 341.531 37.672C341.531 38.5733 341.363 39.368 341.027 40.056C340.691 40.7387 340.211 41.2747 339.587 41.664C338.963 42.048 338.221 42.24 337.363 42.24ZM337.363 40.888C338.259 40.888 338.925 40.5893 339.363 39.992C339.8 39.3947 340.019 38.6213 340.019 37.672C340.019 36.696 339.797 35.92 339.355 35.344C338.912 34.7627 338.248 34.472 337.363 34.472C336.76 34.472 336.264 34.608 335.875 34.88C335.485 35.152 335.195 35.528 335.003 36.008C334.811 36.488 334.715 37.0427 334.715 37.672C334.715 38.6427 334.939 39.4213 335.387 40.008C335.835 40.5947 336.493 40.888 337.363 40.888ZM346.932 42.24C346.057 42.24 345.313 42.0453 344.7 41.656C344.092 41.2613 343.628 40.72 343.308 40.032C342.988 39.344 342.823 38.56 342.812 37.68C342.823 36.7787 342.991 35.9867 343.316 35.304C343.647 34.616 344.119 34.08 344.732 33.696C345.345 33.312 346.084 33.12 346.948 33.12C347.86 33.12 348.644 33.344 349.3 33.792C349.961 34.24 350.404 34.8533 350.628 35.632L349.22 36.056C349.039 35.5547 348.743 35.1653 348.332 34.888C347.927 34.6107 347.46 34.472 346.932 34.472C346.34 34.472 345.852 34.6107 345.468 34.888C345.084 35.16 344.799 35.5387 344.612 36.024C344.425 36.504 344.329 37.056 344.324 37.68C344.335 38.64 344.556 39.416 344.988 40.008C345.425 40.5947 346.073 40.888 346.932 40.888C347.497 40.888 347.967 40.76 348.34 40.504C348.713 40.2427 348.996 39.8667 349.188 39.376L350.628 39.752C350.329 40.5573 349.863 41.1733 349.228 41.6C348.593 42.0267 347.828 42.24 346.932 42.24ZM354.392 42V34.656H351.384V33.36H358.824V34.656H355.816V42H354.392ZM362.514 42.24C361.868 42.24 361.327 42.1227 360.89 41.888C360.458 41.648 360.13 41.3333 359.906 40.944C359.687 40.5547 359.578 40.128 359.578 39.664C359.578 39.2107 359.663 38.8187 359.834 38.488C360.01 38.152 360.255 37.8747 360.57 37.656C360.884 37.432 361.26 37.256 361.698 37.128C362.108 37.016 362.567 36.92 363.074 36.84C363.586 36.7547 364.103 36.6773 364.626 36.608C365.148 36.5387 365.636 36.472 366.09 36.408L365.578 36.704C365.594 35.936 365.439 35.368 365.114 35C364.794 34.632 364.239 34.448 363.45 34.448C362.927 34.448 362.468 34.568 362.074 34.808C361.684 35.0427 361.41 35.4267 361.25 35.96L359.898 35.552C360.106 34.7947 360.508 34.2 361.106 33.768C361.703 33.336 362.49 33.12 363.466 33.12C364.25 33.12 364.922 33.2613 365.482 33.544C366.047 33.8213 366.452 34.2427 366.698 34.808C366.82 35.0747 366.898 35.3653 366.93 35.68C366.962 35.9893 366.977 36.3147 366.977 36.656V42H365.714V39.928L366.01 40.12C365.684 40.8187 365.228 41.3467 364.642 41.704C364.06 42.0613 363.351 42.24 362.514 42.24ZM362.73 41.048C363.242 41.048 363.684 40.9573 364.058 40.776C364.436 40.5893 364.74 40.3467 364.97 40.048C365.199 39.744 365.348 39.4133 365.418 39.056C365.498 38.7893 365.54 38.4933 365.546 38.168C365.556 37.8373 365.562 37.584 365.562 37.408L366.058 37.624C365.594 37.688 365.138 37.7493 364.69 37.808C364.242 37.8667 363.818 37.9307 363.418 38C363.018 38.064 362.658 38.1413 362.338 38.232C362.103 38.3067 361.882 38.4027 361.674 38.52C361.471 38.6373 361.306 38.7893 361.178 38.976C361.055 39.1573 360.993 39.384 360.993 39.656C360.993 39.8907 361.052 40.1147 361.17 40.328C361.292 40.5413 361.479 40.7147 361.73 40.848C361.986 40.9813 362.319 41.048 362.73 41.048ZM369.05 42V33.36H370.274L373.554 40.064L376.834 33.36H378.058V42H376.682V36.328L373.93 42H373.178L370.426 36.328V42H369.05ZM382.748 42.24C382.103 42.24 381.561 42.1227 381.124 41.888C380.692 41.648 380.364 41.3333 380.14 40.944C379.921 40.5547 379.812 40.128 379.812 39.664C379.812 39.2107 379.897 38.8187 380.068 38.488C380.244 38.152 380.489 37.8747 380.804 37.656C381.119 37.432 381.495 37.256 381.932 37.128C382.343 37.016 382.801 36.92 383.308 36.84C383.82 36.7547 384.337 36.6773 384.86 36.608C385.383 36.5387 385.871 36.472 386.324 36.408L385.812 36.704C385.828 35.936 385.673 35.368 385.348 35C385.028 34.632 384.473 34.448 383.684 34.448C383.161 34.448 382.703 34.568 382.308 34.808C381.919 35.0427 381.644 35.4267 381.484 35.96L380.132 35.552C380.34 34.7947 380.743 34.2 381.34 33.768C381.937 33.336 382.724 33.12 383.7 33.12C384.484 33.12 385.156 33.2613 385.716 33.544C386.281 33.8213 386.687 34.2427 386.932 34.808C387.055 35.0747 387.132 35.3653 387.164 35.68C387.196 35.9893 387.212 36.3147 387.212 36.656V42H385.948V39.928L386.244 40.12C385.919 40.8187 385.463 41.3467 384.876 41.704C384.295 42.0613 383.585 42.24 382.748 42.24ZM382.964 41.048C383.476 41.048 383.919 40.9573 384.292 40.776C384.671 40.5893 384.975 40.3467 385.204 40.048C385.433 39.744 385.583 39.4133 385.652 39.056C385.732 38.7893 385.775 38.4933 385.78 38.168C385.791 37.8373 385.796 37.584 385.796 37.408L386.292 37.624C385.828 37.688 385.372 37.7493 384.924 37.808C384.476 37.8667 384.052 37.9307 383.652 38C383.252 38.064 382.892 38.1413 382.572 38.232C382.337 38.3067 382.116 38.4027 381.908 38.52C381.705 38.6373 381.54 38.7893 381.412 38.976C381.289 39.1573 381.228 39.384 381.228 39.656C381.228 39.8907 381.287 40.1147 381.404 40.328C381.527 40.5413 381.713 40.7147 381.964 40.848C382.22 40.9813 382.553 41.048 382.964 41.048ZM391.58 42V34.656H388.572V33.36H396.012V34.656H393.004V42H391.58ZM399.701 42.24C399.056 42.24 398.514 42.1227 398.077 41.888C397.645 41.648 397.317 41.3333 397.093 40.944C396.874 40.5547 396.765 40.128 396.765 39.664C396.765 39.2107 396.85 38.8187 397.021 38.488C397.197 38.152 397.442 37.8747 397.757 37.656C398.072 37.432 398.448 37.256 398.885 37.128C399.296 37.016 399.754 36.92 400.261 36.84C400.773 36.7547 401.29 36.6773 401.813 36.608C402.336 36.5387 402.824 36.472 403.277 36.408L402.765 36.704C402.781 35.936 402.626 35.368 402.301 35C401.981 34.632 401.426 34.448 400.637 34.448C400.114 34.448 399.656 34.568 399.261 34.808C398.872 35.0427 398.597 35.4267 398.437 35.96L397.085 35.552C397.293 34.7947 397.696 34.2 398.293 33.768C398.89 33.336 399.677 33.12 400.653 33.12C401.437 33.12 402.109 33.2613 402.669 33.544C403.234 33.8213 403.64 34.2427 403.885 34.808C404.008 35.0747 404.085 35.3653 404.117 35.68C404.149 35.9893 404.165 36.3147 404.165 36.656V42H402.901V39.928L403.197 40.12C402.872 40.8187 402.416 41.3467 401.829 41.704C401.248 42.0613 400.538 42.24 399.701 42.24ZM399.917 41.048C400.429 41.048 400.872 40.9573 401.245 40.776C401.624 40.5893 401.928 40.3467 402.157 40.048C402.386 39.744 402.536 39.4133 402.605 39.056C402.685 38.7893 402.728 38.4933 402.733 38.168C402.744 37.8373 402.749 37.584 402.749 37.408L403.245 37.624C402.781 37.688 402.325 37.7493 401.877 37.808C401.429 37.8667 401.005 37.9307 400.605 38C400.205 38.064 399.845 38.1413 399.525 38.232C399.29 38.3067 399.069 38.4027 398.861 38.52C398.658 38.6373 398.493 38.7893 398.365 38.976C398.242 39.1573 398.181 39.384 398.181 39.656C398.181 39.8907 398.24 40.1147 398.357 40.328C398.48 40.5413 398.666 40.7147 398.917 40.848C399.173 40.9813 399.506 41.048 399.917 41.048ZM406.237 42V33.36H407.461L410.741 40.064L414.021 33.36H415.245V42H413.869V36.328L411.117 42H410.365L407.613 36.328V42H406.237ZM424.551 33.36V42H423.175V35.632L418.647 42H417.471V33.36H418.847V39.64L423.383 33.36H424.551Z" fill="#0F1015"/>
    <rect x="544.5" y="24.5" width="158" height="37" rx="7.5" fill="white"/>
    <path d="M564.98 48V37.92H571.28V38.907H566.009V48H564.98ZM574.44 48.21C573.688 48.21 573.047 48.0397 572.515 47.699C571.983 47.3583 571.574 46.887 571.29 46.285C571.005 45.683 570.863 44.9923 570.863 44.213C570.863 43.4197 571.007 42.7243 571.297 42.127C571.586 41.5297 571.997 41.0653 572.529 40.734C573.065 40.398 573.702 40.23 574.44 40.23C575.196 40.23 575.84 40.4003 576.372 40.741C576.908 41.077 577.317 41.546 577.597 42.148C577.881 42.7453 578.024 43.4337 578.024 44.213C578.024 45.0063 577.881 45.704 577.597 46.306C577.312 46.9033 576.901 47.37 576.365 47.706C575.828 48.042 575.186 48.21 574.44 48.21ZM574.44 47.223C575.28 47.223 575.905 46.9453 576.316 46.39C576.726 45.83 576.932 45.1043 576.932 44.213C576.932 43.2983 576.724 42.5703 576.309 42.029C575.898 41.4877 575.275 41.217 574.44 41.217C573.875 41.217 573.408 41.3453 573.04 41.602C572.676 41.854 572.403 42.2063 572.221 42.659C572.043 43.107 571.955 43.625 571.955 44.213C571.955 45.123 572.165 45.8533 572.585 46.404C573.005 46.95 573.623 47.223 574.44 47.223ZM579.008 49.68V47.118C579.437 47.118 579.745 46.9803 579.932 46.705C580.119 46.425 580.27 45.9793 580.387 45.368C580.466 44.9713 580.532 44.5443 580.583 44.087C580.634 43.6297 580.679 43.107 580.716 42.519C580.753 41.9263 580.788 41.2333 580.821 40.44H585.819V47.118H586.547V49.68H585.553V48H579.995V49.68H579.008ZM580.751 47.118H584.797V41.322H581.773C581.759 41.6767 581.738 42.0523 581.71 42.449C581.687 42.8457 581.656 43.2423 581.619 43.639C581.586 44.0357 581.547 44.409 581.5 44.759C581.458 45.1043 581.407 45.4077 581.346 45.669C581.276 46.005 581.199 46.292 581.115 46.53C581.036 46.768 580.914 46.964 580.751 47.118Z" fill="#9EA2B0"/>
    <path d="M671.454 40.6911C671.063 40.3849 670.497 40.4541 670.191 40.8457C669.885 41.2372 669.954 41.8029 670.346 42.109L674.442 45.3123C674.768 45.5669 675.225 45.567 675.551 45.3125L679.651 42.1092C680.042 41.8032 680.112 41.2376 679.806 40.8459C679.5 40.4543 678.934 40.3848 678.543 40.6908L674.997 43.461L671.454 40.6911Z" fill="#9EA2B0"/>
    <rect x="544.5" y="24.5" width="158" height="37" rx="7.5" stroke="#F5F6F9"/>
    <line x1="55.5" y1="70" x2="55.5" y2="326" stroke="#EBEDF2"/>
    <line x1="153.167" y1="70" x2="153.167" y2="326" stroke="#EBEDF2"/>
    <line x1="250.833" y1="70" x2="250.833" y2="326" stroke="#EBEDF2"/>
    <line x1="348.5" y1="70" x2="348.5" y2="326" stroke="#EBEDF2"/>
    <line x1="446.167" y1="70" x2="446.167" y2="326" stroke="#EBEDF2"/>
    <line x1="543.833" y1="70" x2="543.833" y2="326" stroke="#EBEDF2"/>
    <line x1="641.5" y1="70" x2="641.5" y2="326" stroke="#EBEDF2"/>
    <rect x="324" y="73" width="49" height="256" rx="12" fill="url(#paint0_linear_20013_25464)"/>
    <path d="M53.705 350H52.815V347.34H50.6L50.26 347.285C49.7 347.182 49.275 346.927 48.985 346.52C48.695 346.11 48.55 345.627 48.55 345.07C48.55 344.687 48.6167 344.338 48.75 344.025C48.8867 343.708 49.0867 343.447 49.35 343.24C49.6167 343.033 49.9433 342.9 50.33 342.84C50.4233 342.823 50.5167 342.813 50.61 342.81C50.7067 342.803 50.79 342.8 50.86 342.8H53.705V350ZM49.42 350H48.4L49.96 346.8L50.84 347.07L49.42 350ZM52.815 346.495V343.645H50.89C50.83 343.645 50.7583 343.648 50.675 343.655C50.595 343.658 50.5167 343.67 50.44 343.69C50.21 343.74 50.0233 343.837 49.88 343.98C49.7367 344.123 49.63 344.292 49.56 344.485C49.4933 344.675 49.46 344.87 49.46 345.07C49.46 345.27 49.4933 345.467 49.56 345.66C49.63 345.85 49.7367 346.017 49.88 346.16C50.0233 346.3 50.21 346.397 50.44 346.45C50.5167 346.467 50.595 346.478 50.675 346.485C50.7583 346.492 50.83 346.495 50.89 346.495H52.815ZM55.1013 350V344.6H55.9913V346.875H58.8313V344.6H59.7213V350H58.8313V347.72H55.9913V350H55.1013ZM61.1169 350V344.6H63.4169C63.5535 344.6 63.7002 344.608 63.8569 344.625C64.0169 344.638 64.1619 344.663 64.2919 344.7C64.5819 344.777 64.8202 344.935 65.0069 345.175C65.1969 345.412 65.2919 345.712 65.2919 346.075C65.2919 346.278 65.2602 346.455 65.1969 346.605C65.1369 346.755 65.0502 346.885 64.9369 346.995C64.8869 347.045 64.8319 347.09 64.7719 347.13C64.7119 347.17 64.6519 347.202 64.5919 347.225C64.7085 347.245 64.8269 347.29 64.9469 347.36C65.1369 347.463 65.2852 347.608 65.3919 347.795C65.5019 347.982 65.5569 348.22 65.5569 348.51C65.5569 348.877 65.4685 349.18 65.2919 349.42C65.1152 349.657 64.8719 349.82 64.5619 349.91C64.4319 349.947 64.2885 349.972 64.1319 349.985C63.9752 349.995 63.8235 350 63.6769 350H61.1169ZM62.0169 349.275H63.6269C63.6969 349.275 63.7802 349.268 63.8769 349.255C63.9769 349.242 64.0652 349.225 64.1419 349.205C64.3152 349.155 64.4402 349.062 64.5169 348.925C64.5969 348.788 64.6369 348.64 64.6369 348.48C64.6369 348.267 64.5769 348.093 64.4569 347.96C64.3402 347.827 64.1852 347.743 63.9919 347.71C63.9219 347.69 63.8452 347.678 63.7619 347.675C63.6819 347.672 63.6102 347.67 63.5469 347.67H62.0169V349.275ZM62.0169 346.935H63.3569C63.4502 346.935 63.5485 346.93 63.6519 346.92C63.7552 346.907 63.8452 346.885 63.9219 346.855C64.0752 346.798 64.1869 346.705 64.2569 346.575C64.3302 346.442 64.3669 346.297 64.3669 346.14C64.3669 345.967 64.3269 345.815 64.2469 345.685C64.1702 345.552 64.0519 345.46 63.8919 345.41C63.7852 345.37 63.6652 345.348 63.5319 345.345C63.4019 345.338 63.3185 345.335 63.2819 345.335H62.0169V346.935Z" fill="#9EA2B0"/>
    <path d="M142.2 350V342.8H143.01L145.73 348.535L148.435 342.8H149.255V349.995H148.41V344.755L145.965 350H145.49L143.045 344.755V350H142.2ZM152.192 350.15C151.789 350.15 151.45 350.077 151.177 349.93C150.907 349.78 150.702 349.583 150.562 349.34C150.425 349.097 150.357 348.83 150.357 348.54C150.357 348.257 150.41 348.012 150.517 347.805C150.627 347.595 150.78 347.422 150.977 347.285C151.174 347.145 151.409 347.035 151.682 346.955C151.939 346.885 152.225 346.825 152.542 346.775C152.862 346.722 153.185 346.673 153.512 346.63C153.839 346.587 154.144 346.545 154.427 346.505L154.107 346.69C154.117 346.21 154.02 345.855 153.817 345.625C153.617 345.395 153.27 345.28 152.777 345.28C152.45 345.28 152.164 345.355 151.917 345.505C151.674 345.652 151.502 345.892 151.402 346.225L150.557 345.97C150.687 345.497 150.939 345.125 151.312 344.855C151.685 344.585 152.177 344.45 152.787 344.45C153.277 344.45 153.697 344.538 154.047 344.715C154.4 344.888 154.654 345.152 154.807 345.505C154.884 345.672 154.932 345.853 154.952 346.05C154.972 346.243 154.982 346.447 154.982 346.66V350H154.192V348.705L154.377 348.825C154.174 349.262 153.889 349.592 153.522 349.815C153.159 350.038 152.715 350.15 152.192 350.15ZM152.327 349.405C152.647 349.405 152.924 349.348 153.157 349.235C153.394 349.118 153.584 348.967 153.727 348.78C153.87 348.59 153.964 348.383 154.007 348.16C154.057 347.993 154.084 347.808 154.087 347.605C154.094 347.398 154.097 347.24 154.097 347.13L154.407 347.265C154.117 347.305 153.832 347.343 153.552 347.38C153.272 347.417 153.007 347.457 152.757 347.5C152.507 347.54 152.282 347.588 152.082 347.645C151.935 347.692 151.797 347.752 151.667 347.825C151.54 347.898 151.437 347.993 151.357 348.11C151.28 348.223 151.242 348.365 151.242 348.535C151.242 348.682 151.279 348.822 151.352 348.955C151.429 349.088 151.545 349.197 151.702 349.28C151.862 349.363 152.07 349.405 152.327 349.405ZM158.762 350.15C158.255 350.15 157.829 350.025 157.482 349.775C157.135 349.522 156.872 349.18 156.692 348.75C156.515 348.317 156.427 347.832 156.427 347.295C156.427 346.752 156.515 346.265 156.692 345.835C156.872 345.405 157.135 345.067 157.482 344.82C157.832 344.573 158.26 344.45 158.767 344.45C159.267 344.45 159.697 344.575 160.057 344.825C160.42 345.072 160.699 345.41 160.892 345.84C161.085 346.27 161.182 346.755 161.182 347.295C161.182 347.835 161.085 348.32 160.892 348.75C160.699 349.18 160.42 349.522 160.057 349.775C159.697 350.025 159.265 350.15 158.762 350.15ZM156.277 352.4V344.6H157.072V348.575H157.172V352.4H156.277ZM158.652 349.335C159.009 349.335 159.304 349.245 159.537 349.065C159.77 348.885 159.945 348.642 160.062 348.335C160.179 348.025 160.237 347.678 160.237 347.295C160.237 346.915 160.179 346.572 160.062 346.265C159.949 345.958 159.772 345.715 159.532 345.535C159.295 345.355 158.994 345.265 158.627 345.265C158.277 345.265 157.987 345.352 157.757 345.525C157.527 345.695 157.355 345.933 157.242 346.24C157.129 346.543 157.072 346.895 157.072 347.295C157.072 347.688 157.127 348.04 157.237 348.35C157.35 348.657 157.524 348.898 157.757 349.075C157.99 349.248 158.289 349.335 158.652 349.335ZM163.708 350V345.41H161.828V344.6H166.478V345.41H164.598V350H163.708Z" fill="#9EA2B0"/>
    <path d="M243.7 350V342.8H244.51L247.23 348.535L249.935 342.8H250.755V349.995H249.91V344.755L247.465 350H246.99L244.545 344.755V350H243.7ZM253.692 350.15C253.289 350.15 252.95 350.077 252.677 349.93C252.407 349.78 252.202 349.583 252.062 349.34C251.925 349.097 251.857 348.83 251.857 348.54C251.857 348.257 251.91 348.012 252.017 347.805C252.127 347.595 252.28 347.422 252.477 347.285C252.674 347.145 252.909 347.035 253.182 346.955C253.439 346.885 253.725 346.825 254.042 346.775C254.362 346.722 254.685 346.673 255.012 346.63C255.339 346.587 255.644 346.545 255.927 346.505L255.607 346.69C255.617 346.21 255.52 345.855 255.317 345.625C255.117 345.395 254.77 345.28 254.277 345.28C253.95 345.28 253.664 345.355 253.417 345.505C253.174 345.652 253.002 345.892 252.902 346.225L252.057 345.97C252.187 345.497 252.439 345.125 252.812 344.855C253.185 344.585 253.677 344.45 254.287 344.45C254.777 344.45 255.197 344.538 255.547 344.715C255.9 344.888 256.154 345.152 256.307 345.505C256.384 345.672 256.432 345.853 256.452 346.05C256.472 346.243 256.482 346.447 256.482 346.66V350H255.692V348.705L255.877 348.825C255.674 349.262 255.389 349.592 255.022 349.815C254.659 350.038 254.215 350.15 253.692 350.15ZM253.827 349.405C254.147 349.405 254.424 349.348 254.657 349.235C254.894 349.118 255.084 348.967 255.227 348.78C255.37 348.59 255.464 348.383 255.507 348.16C255.557 347.993 255.584 347.808 255.587 347.605C255.594 347.398 255.597 347.24 255.597 347.13L255.907 347.265C255.617 347.305 255.332 347.343 255.052 347.38C254.772 347.417 254.507 347.457 254.257 347.5C254.007 347.54 253.782 347.588 253.582 347.645C253.435 347.692 253.297 347.752 253.167 347.825C253.04 347.898 252.937 347.993 252.857 348.11C252.78 348.223 252.742 348.365 252.742 348.535C252.742 348.682 252.779 348.822 252.852 348.955C252.929 349.088 253.045 349.197 253.202 349.28C253.362 349.363 253.57 349.405 253.827 349.405ZM260.107 343.97C259.857 343.97 259.629 343.908 259.422 343.785C259.215 343.662 259.05 343.498 258.927 343.295C258.804 343.088 258.742 342.858 258.742 342.605H259.462C259.462 342.782 259.525 342.933 259.652 343.06C259.779 343.187 259.93 343.25 260.107 343.25C260.287 343.25 260.439 343.187 260.562 343.06C260.689 342.933 260.752 342.782 260.752 342.605H261.472C261.472 342.858 261.41 343.088 261.287 343.295C261.167 343.498 261.002 343.662 260.792 343.785C260.585 343.908 260.357 343.97 260.107 343.97ZM262.202 344.6V350H261.342V346.02L258.512 350H257.777V344.6H258.637V348.525L261.472 344.6H262.202Z" fill="#9EA2B0"/>
    <path d="M344.755 350H343.855V344.37L340.1 350H339.2V342.8H340.1V348.425L343.855 342.8H344.755V350ZM350.558 350.15C350.098 350.15 349.691 350.052 349.338 349.855C348.988 349.658 348.706 349.38 348.493 349.02C348.28 348.66 348.146 348.235 348.093 347.745H347.038V350H346.148V344.6H347.038V346.855H348.088C348.141 346.355 348.276 345.925 348.493 345.565C348.71 345.205 348.995 344.93 349.348 344.74C349.701 344.547 350.108 344.45 350.568 344.45C351.105 344.45 351.566 344.572 351.953 344.815C352.343 345.058 352.641 345.393 352.848 345.82C353.058 346.247 353.163 346.737 353.163 347.29C353.163 347.853 353.056 348.35 352.843 348.78C352.633 349.21 352.333 349.547 351.943 349.79C351.556 350.03 351.095 350.15 350.558 350.15ZM350.543 349.305C351.11 349.305 351.53 349.12 351.803 348.75C352.08 348.377 352.218 347.892 352.218 347.295C352.218 346.682 352.078 346.195 351.798 345.835C351.521 345.475 351.105 345.295 350.548 345.295C350.011 345.295 349.603 345.473 349.323 345.83C349.043 346.187 348.903 346.673 348.903 347.29C348.903 347.9 349.041 348.388 349.318 348.755C349.598 349.122 350.006 349.305 350.543 349.305ZM353.759 350V349.235C353.959 349.272 354.11 349.265 354.214 349.215C354.32 349.162 354.399 349.07 354.449 348.94C354.502 348.807 354.545 348.64 354.579 348.44C354.635 348.123 354.684 347.77 354.724 347.38C354.767 346.99 354.805 346.563 354.839 346.1C354.875 345.633 354.909 345.133 354.939 344.6H358.714V350H357.824V345.445H355.749C355.729 345.752 355.704 346.067 355.674 346.39C355.647 346.713 355.619 347.028 355.589 347.335C355.559 347.638 355.525 347.922 355.489 348.185C355.455 348.445 355.419 348.67 355.379 348.86C355.315 349.187 355.227 349.448 355.114 349.645C355 349.838 354.837 349.963 354.624 350.02C354.41 350.08 354.122 350.073 353.759 350ZM360.118 350L360.113 344.6H361.008V346.555H362.173C362.33 346.555 362.49 346.558 362.653 346.565C362.816 346.572 362.958 346.587 363.078 346.61C363.358 346.663 363.603 346.757 363.813 346.89C364.023 347.023 364.186 347.205 364.303 347.435C364.42 347.662 364.478 347.943 364.478 348.28C364.478 348.747 364.356 349.117 364.113 349.39C363.873 349.66 363.558 349.84 363.168 349.93C363.035 349.96 362.881 349.98 362.708 349.99C362.538 349.997 362.376 350 362.223 350H360.118ZM361.008 349.265H362.238C362.338 349.265 362.45 349.262 362.573 349.255C362.696 349.248 362.806 349.232 362.903 349.205C363.073 349.155 363.225 349.057 363.358 348.91C363.495 348.763 363.563 348.553 363.563 348.28C363.563 348.003 363.496 347.79 363.363 347.64C363.233 347.49 363.061 347.392 362.848 347.345C362.751 347.322 362.65 347.307 362.543 347.3C362.436 347.293 362.335 347.29 362.238 347.29H361.008V349.265Z" fill="#9EA2B0"/>
    <path d="M444.66 350.15C443.943 350.15 443.335 349.992 442.835 349.675C442.335 349.358 441.953 348.918 441.69 348.355C441.43 347.792 441.3 347.14 441.3 346.4C441.3 345.66 441.43 345.008 441.69 344.445C441.953 343.882 442.335 343.442 442.835 343.125C443.335 342.808 443.943 342.65 444.66 342.65C445.493 342.65 446.178 342.862 446.715 343.285C447.255 343.708 447.627 344.278 447.83 344.995L446.925 345.235C446.778 344.698 446.517 344.275 446.14 343.965C445.763 343.655 445.27 343.5 444.66 343.5C444.123 343.5 443.677 343.622 443.32 343.865C442.963 344.108 442.695 344.448 442.515 344.885C442.335 345.318 442.243 345.823 442.24 346.4C442.237 346.973 442.325 347.478 442.505 347.915C442.685 348.348 442.955 348.688 443.315 348.935C443.675 349.178 444.123 349.3 444.66 349.3C445.27 349.3 445.763 349.145 446.14 348.835C446.517 348.522 446.778 348.098 446.925 347.565L447.83 347.805C447.627 348.518 447.255 349.088 446.715 349.515C446.178 349.938 445.493 350.15 444.66 350.15ZM451.267 350.15C450.737 350.15 450.273 350.033 449.877 349.8C449.483 349.563 449.177 349.235 448.957 348.815C448.737 348.392 448.627 347.898 448.627 347.335C448.627 346.745 448.735 346.235 448.952 345.805C449.168 345.372 449.47 345.038 449.857 344.805C450.247 344.568 450.703 344.45 451.227 344.45C451.77 344.45 452.232 344.575 452.612 344.825C452.995 345.075 453.282 345.432 453.472 345.895C453.665 346.358 453.748 346.91 453.722 347.55H452.822V347.23C452.812 346.567 452.677 346.072 452.417 345.745C452.157 345.415 451.77 345.25 451.257 345.25C450.707 345.25 450.288 345.427 450.002 345.78C449.715 346.133 449.572 346.64 449.572 347.3C449.572 347.937 449.715 348.43 450.002 348.78C450.288 349.13 450.697 349.305 451.227 349.305C451.583 349.305 451.893 349.223 452.157 349.06C452.42 348.897 452.627 348.662 452.777 348.355L453.632 348.65C453.422 349.127 453.105 349.497 452.682 349.76C452.262 350.02 451.79 350.15 451.267 350.15ZM449.272 347.55V346.835H453.262V347.55H449.272ZM454.83 350V344.6H455.72V346.875H458.56V344.6H459.45V350H458.56V347.72H455.72V350H454.83Z" fill="#9EA2B0"/>
    <path d="M537.2 350V342.8H538.09V345.975H541.88V342.8H542.77V350H541.88V346.82H538.09V350H537.2ZM546.473 350.15C545.936 350.15 545.473 350.028 545.083 349.785C544.696 349.542 544.398 349.205 544.188 348.775C543.978 348.345 543.873 347.852 543.873 347.295C543.873 346.728 543.979 346.232 544.193 345.805C544.406 345.378 544.708 345.047 545.098 344.81C545.488 344.57 545.946 344.45 546.473 344.45C547.013 344.45 547.478 344.572 547.868 344.815C548.258 345.055 548.556 345.39 548.763 345.82C548.973 346.247 549.078 346.738 549.078 347.295C549.078 347.858 548.973 348.355 548.763 348.785C548.553 349.212 548.253 349.547 547.863 349.79C547.473 350.03 547.009 350.15 546.473 350.15ZM546.473 349.305C547.033 349.305 547.449 349.118 547.723 348.745C547.996 348.372 548.133 347.888 548.133 347.295C548.133 346.685 547.994 346.2 547.718 345.84C547.441 345.477 547.026 345.295 546.473 345.295C546.096 345.295 545.786 345.38 545.543 345.55C545.299 345.72 545.118 345.955 544.998 346.255C544.878 346.555 544.818 346.902 544.818 347.295C544.818 347.902 544.958 348.388 545.238 348.755C545.518 349.122 545.929 349.305 546.473 349.305ZM553.514 350V348.045H552.349C552.212 348.045 552.06 348.04 551.894 348.03C551.73 348.017 551.577 347.998 551.434 347.975C551.044 347.902 550.714 347.73 550.444 347.46C550.177 347.19 550.044 346.817 550.044 346.34C550.044 345.877 550.169 345.505 550.419 345.225C550.672 344.942 550.984 344.758 551.354 344.675C551.52 344.635 551.689 344.613 551.859 344.61C552.032 344.603 552.179 344.6 552.299 344.6H554.404L554.409 350H553.514ZM549.879 350L551.314 347.8H552.274L550.839 350H549.879ZM552.284 347.31H553.514V345.335H552.284C552.207 345.335 552.105 345.338 551.979 345.345C551.855 345.352 551.737 345.372 551.624 345.405C551.517 345.435 551.412 345.49 551.309 345.57C551.209 345.65 551.125 345.753 551.059 345.88C550.992 346.007 550.959 346.157 550.959 346.33C550.959 346.58 551.029 346.783 551.169 346.94C551.309 347.093 551.479 347.197 551.679 347.25C551.789 347.277 551.897 347.293 552.004 347.3C552.114 347.307 552.207 347.31 552.284 347.31Z" fill="#9EA2B0"/>
    <path d="M636.705 350H635.815V347.34H633.6L633.26 347.285C632.7 347.182 632.275 346.927 631.985 346.52C631.695 346.11 631.55 345.627 631.55 345.07C631.55 344.687 631.617 344.338 631.75 344.025C631.887 343.708 632.087 343.447 632.35 343.24C632.617 343.033 632.943 342.9 633.33 342.84C633.423 342.823 633.517 342.813 633.61 342.81C633.707 342.803 633.79 342.8 633.86 342.8H636.705V350ZM632.42 350H631.4L632.96 346.8L633.84 347.07L632.42 350ZM635.815 346.495V343.645H633.89C633.83 343.645 633.758 343.648 633.675 343.655C633.595 343.658 633.517 343.67 633.44 343.69C633.21 343.74 633.023 343.837 632.88 343.98C632.737 344.123 632.63 344.292 632.56 344.485C632.493 344.675 632.46 344.87 632.46 345.07C632.46 345.27 632.493 345.467 632.56 345.66C632.63 345.85 632.737 346.017 632.88 346.16C633.023 346.3 633.21 346.397 633.44 346.45C633.517 346.467 633.595 346.478 633.675 346.485C633.758 346.492 633.83 346.495 633.89 346.495H635.815ZM638.101 350V344.6H638.991V346.875H641.831V344.6H642.721V350H641.831V347.72H638.991V350H638.101ZM644.117 350V344.6H646.417C646.554 344.6 646.7 344.608 646.857 344.625C647.017 344.638 647.162 344.663 647.292 344.7C647.582 344.777 647.82 344.935 648.007 345.175C648.197 345.412 648.292 345.712 648.292 346.075C648.292 346.278 648.26 346.455 648.197 346.605C648.137 346.755 648.05 346.885 647.937 346.995C647.887 347.045 647.832 347.09 647.772 347.13C647.712 347.17 647.652 347.202 647.592 347.225C647.709 347.245 647.827 347.29 647.947 347.36C648.137 347.463 648.285 347.608 648.392 347.795C648.502 347.982 648.557 348.22 648.557 348.51C648.557 348.877 648.469 349.18 648.292 349.42C648.115 349.657 647.872 349.82 647.562 349.91C647.432 349.947 647.289 349.972 647.132 349.985C646.975 349.995 646.824 350 646.677 350H644.117ZM645.017 349.275H646.627C646.697 349.275 646.78 349.268 646.877 349.255C646.977 349.242 647.065 349.225 647.142 349.205C647.315 349.155 647.44 349.062 647.517 348.925C647.597 348.788 647.637 348.64 647.637 348.48C647.637 348.267 647.577 348.093 647.457 347.96C647.34 347.827 647.185 347.743 646.992 347.71C646.922 347.69 646.845 347.678 646.762 347.675C646.682 347.672 646.61 347.67 646.547 347.67H645.017V349.275ZM645.017 346.935H646.357C646.45 346.935 646.549 346.93 646.652 346.92C646.755 346.907 646.845 346.885 646.922 346.855C647.075 346.798 647.187 346.705 647.257 346.575C647.33 346.442 647.367 346.297 647.367 346.14C647.367 345.967 647.327 345.815 647.247 345.685C647.17 345.552 647.052 345.46 646.892 345.41C646.785 345.37 646.665 345.348 646.532 345.345C646.402 345.338 646.319 345.335 646.282 345.335H645.017V346.935Z" fill="#9EA2B0"/>
    <g filter="url(#filter0_f_20013_25464)">
        <path d="M48 255.148L64.5346 244.836C87.7564 230.353 117.824 233.353 137.727 252.137V252.137C165.515 278.365 210.39 272.409 230.376 239.842L255.933 198.196C269.867 175.489 303.18 176.453 315.779 199.927V199.927C324.666 216.483 345.16 222.893 361.896 214.35L410.963 189.304C423.74 182.782 437.882 179.382 452.227 179.382H515.942C526.523 179.382 537.038 177.702 547.092 174.406L649 141" stroke="#F62E46" stroke-width="4"/>
    </g>
    <path d="M48 255.148L64.5346 244.836C87.7564 230.353 117.824 233.353 137.727 252.137V252.137C165.515 278.365 210.39 272.409 230.376 239.842L255.933 198.196C269.867 175.489 303.18 176.453 315.779 199.927V199.927C324.666 216.483 345.16 222.893 361.896 214.35L410.963 189.304C423.74 182.782 437.882 179.382 452.227 179.382H515.942C526.523 179.382 537.038 177.702 547.092 174.406L649 141" stroke="#F62E46" stroke-width="4" stroke-linecap="round"/>
    <g filter="url(#filter1_d_20013_25464)">
        <rect x="338" y="207" width="20" height="20" rx="10" fill="#F62E46"/>
        <rect x="339" y="208" width="18" height="18" rx="9" stroke="white" stroke-width="2"/>
    </g>
    <g filter="url(#filter2_d_20013_25464)">
        <rect x="301" y="166" width="94" height="28" rx="8" fill="white"/>
        <path d="M314.354 184.994L314.36 184.19L318.266 180.662C318.602 180.358 318.824 180.07 318.932 179.798C319.044 179.522 319.1 179.234 319.1 178.934C319.1 178.578 319.016 178.256 318.848 177.968C318.68 177.68 318.454 177.452 318.17 177.284C317.886 177.112 317.568 177.026 317.216 177.026C316.848 177.026 316.52 177.114 316.232 177.29C315.944 177.466 315.716 177.698 315.548 177.986C315.384 178.274 315.304 178.588 315.308 178.928H314.408C314.408 178.404 314.532 177.934 314.78 177.518C315.028 177.102 315.364 176.776 315.788 176.54C316.212 176.3 316.692 176.18 317.228 176.18C317.752 176.18 318.222 176.304 318.638 176.552C319.058 176.796 319.388 177.128 319.628 177.548C319.872 177.964 319.994 178.428 319.994 178.94C319.994 179.3 319.95 179.618 319.862 179.894C319.778 180.166 319.644 180.42 319.46 180.656C319.28 180.888 319.05 181.128 318.77 181.376L315.302 184.508L315.164 184.148H319.994V184.994H314.354ZM323.76 185.174C323.332 185.174 322.938 185.098 322.578 184.946C322.218 184.794 321.908 184.578 321.648 184.298C321.388 184.014 321.198 183.676 321.078 183.284L321.918 183.032C322.062 183.46 322.298 183.784 322.626 184.004C322.958 184.224 323.332 184.33 323.748 184.322C324.132 184.314 324.462 184.228 324.738 184.064C325.018 183.9 325.232 183.672 325.38 183.38C325.528 183.088 325.602 182.75 325.602 182.366C325.602 181.778 325.43 181.306 325.086 180.95C324.746 180.59 324.296 180.41 323.736 180.41C323.58 180.41 323.416 180.432 323.244 180.476C323.072 180.516 322.912 180.574 322.764 180.65L322.32 179.948L325.68 176.846L325.824 177.206H321.42V176.36H326.412V177.218L323.484 180.014L323.472 179.666C324.072 179.59 324.6 179.658 325.056 179.87C325.512 180.082 325.868 180.406 326.124 180.842C326.384 181.274 326.514 181.782 326.514 182.366C326.514 182.918 326.394 183.406 326.154 183.83C325.918 184.25 325.592 184.58 325.176 184.82C324.76 185.056 324.288 185.174 323.76 185.174ZM331.874 185V183.326H327.83V182.486L330.722 176.36H331.712L328.82 182.486H331.874V179.966H332.762V182.486H333.704V183.326H332.762V185H331.874ZM340.101 185.18C339.653 185.18 339.239 185.088 338.859 184.904C338.479 184.72 338.155 184.466 337.887 184.142C337.619 183.818 337.427 183.446 337.311 183.026L338.157 182.798C338.233 183.11 338.371 183.38 338.571 183.608C338.771 183.832 339.005 184.006 339.273 184.13C339.545 184.254 339.829 184.316 340.125 184.316C340.509 184.316 340.853 184.224 341.157 184.04C341.465 183.852 341.709 183.604 341.889 183.296C342.069 182.988 342.159 182.65 342.159 182.282C342.159 181.902 342.065 181.56 341.877 181.256C341.689 180.948 341.441 180.704 341.133 180.524C340.825 180.344 340.489 180.254 340.125 180.254C339.717 180.254 339.365 180.344 339.069 180.524C338.773 180.7 338.537 180.922 338.361 181.19L337.557 180.854L337.821 176.36H342.435V177.206H338.211L338.649 176.792L338.415 180.626L338.193 180.332C338.441 180.048 338.741 179.826 339.093 179.666C339.445 179.506 339.815 179.426 340.203 179.426C340.735 179.426 341.215 179.554 341.643 179.81C342.071 180.062 342.411 180.404 342.663 180.836C342.915 181.268 343.041 181.75 343.041 182.282C343.041 182.81 342.907 183.294 342.639 183.734C342.371 184.17 342.015 184.52 341.571 184.784C341.127 185.048 340.637 185.18 340.101 185.18ZM347.399 185.18C346.859 185.18 346.367 185.05 345.923 184.79C345.483 184.526 345.131 184.17 344.867 183.722C344.607 183.27 344.477 182.762 344.477 182.198V179.204C344.477 178.624 344.607 178.108 344.867 177.656C345.127 177.2 345.481 176.842 345.929 176.582C346.381 176.318 346.893 176.186 347.465 176.186C347.957 176.186 348.413 176.294 348.833 176.51C349.257 176.726 349.603 177.028 349.871 177.416L349.193 177.974C349.009 177.686 348.765 177.456 348.461 177.284C348.157 177.112 347.825 177.026 347.465 177.026C347.061 177.026 346.701 177.124 346.385 177.32C346.069 177.516 345.821 177.774 345.641 178.094C345.461 178.41 345.371 178.754 345.371 179.126V181.01L345.149 180.758C345.401 180.362 345.731 180.042 346.139 179.798C346.551 179.554 346.999 179.432 347.483 179.432C348.019 179.432 348.501 179.56 348.929 179.816C349.357 180.068 349.697 180.41 349.949 180.842C350.201 181.274 350.327 181.758 350.327 182.294C350.327 182.826 350.193 183.31 349.925 183.746C349.661 184.182 349.307 184.53 348.863 184.79C348.423 185.05 347.935 185.18 347.399 185.18ZM347.399 184.322C347.775 184.322 348.117 184.232 348.425 184.052C348.737 183.872 348.983 183.628 349.163 183.32C349.347 183.012 349.439 182.67 349.439 182.294C349.439 181.918 349.347 181.576 349.163 181.268C348.983 180.956 348.739 180.71 348.431 180.53C348.123 180.346 347.781 180.254 347.405 180.254C347.029 180.254 346.687 180.346 346.379 180.53C346.071 180.71 345.825 180.956 345.641 181.268C345.461 181.576 345.371 181.918 345.371 182.294C345.371 182.666 345.461 183.006 345.641 183.314C345.821 183.622 346.065 183.868 346.373 184.052C346.681 184.232 347.023 184.322 347.399 184.322ZM352.38 185L355.56 177.218H351.558V176.36H356.502V177.218L353.328 185H352.38ZM364.31 185V182.588C364.094 182.696 363.828 182.79 363.512 182.87C363.196 182.95 362.856 182.99 362.492 182.99C361.836 182.99 361.304 182.844 360.896 182.552C360.488 182.26 360.222 181.838 360.098 181.286C360.058 181.122 360.03 180.948 360.014 180.764C360.002 180.58 359.994 180.414 359.99 180.266C359.986 180.118 359.984 180.012 359.984 179.948V178.52H360.872V179.948C360.872 180.08 360.876 180.23 360.884 180.398C360.892 180.566 360.91 180.73 360.938 180.89C361.018 181.326 361.198 181.656 361.478 181.88C361.762 182.104 362.16 182.216 362.672 182.216C362.992 182.216 363.294 182.176 363.578 182.096C363.866 182.012 364.11 181.9 364.31 181.76V178.52H365.192V185H364.31ZM369.613 185.18C368.981 185.18 368.433 185.04 367.969 184.76C367.509 184.48 367.151 184.086 366.895 183.578C366.639 183.07 366.511 182.474 366.511 181.79C366.511 181.082 366.637 180.47 366.889 179.954C367.141 179.438 367.495 179.04 367.951 178.76C368.411 178.48 368.953 178.34 369.577 178.34C370.217 178.34 370.763 178.488 371.215 178.784C371.667 179.076 372.009 179.496 372.241 180.044C372.473 180.592 372.579 181.246 372.559 182.006H371.659V181.694C371.643 180.854 371.461 180.22 371.113 179.792C370.769 179.364 370.265 179.15 369.601 179.15C368.905 179.15 368.371 179.376 367.999 179.828C367.631 180.28 367.447 180.924 367.447 181.76C367.447 182.576 367.631 183.21 367.999 183.662C368.371 184.11 368.897 184.334 369.577 184.334C370.041 184.334 370.445 184.228 370.789 184.016C371.137 183.8 371.411 183.49 371.611 183.086L372.433 183.404C372.177 183.968 371.799 184.406 371.299 184.718C370.803 185.026 370.241 185.18 369.613 185.18ZM367.135 182.006V181.268H372.085V182.006H367.135ZM373.291 185V184.226C373.531 184.27 373.713 184.26 373.837 184.196C373.965 184.128 374.059 184.016 374.119 183.86C374.179 183.7 374.229 183.502 374.269 183.266C374.333 182.874 374.391 182.442 374.443 181.97C374.495 181.498 374.541 180.978 374.581 180.41C374.625 179.838 374.669 179.208 374.713 178.52H379.117V185H378.241V179.366H375.529C375.501 179.79 375.469 180.212 375.433 180.632C375.397 181.052 375.359 181.456 375.319 181.844C375.283 182.228 375.243 182.582 375.199 182.906C375.155 183.23 375.109 183.51 375.061 183.746C374.989 184.102 374.893 184.386 374.773 184.598C374.657 184.81 374.483 184.95 374.251 185.018C374.019 185.086 373.699 185.08 373.291 185ZM380.961 185V183.974H381.987V185H380.961Z" fill="#132A40"/>
    </g>
    <defs>
        <filter id="filter0_f_20013_25464" x="34.9417" y="127.1" width="626.681" height="155.467" filterUnits="userSpaceOnUse" color-interpolation-filters="sRGB">
            <feFlood flood-opacity="0" result="BackgroundImageFix"/>
            <feBlend mode="normal" in="SourceGraphic" in2="BackgroundImageFix" result="shape"/>
            <feGaussianBlur stdDeviation="6" result="effect1_foregroundBlur_20013_25464"/>
        </filter>
        <filter id="filter1_d_20013_25464" x="330" y="203" width="36" height="36" filterUnits="userSpaceOnUse" color-interpolation-filters="sRGB">
            <feFlood flood-opacity="0" result="BackgroundImageFix"/>
            <feColorMatrix in="SourceAlpha" type="matrix" values="0 0 0 0 0 0 0 0 0 0 0 0 0 0 0 0 0 0 127 0" result="hardAlpha"/>
            <feOffset dy="4"/>
            <feGaussianBlur stdDeviation="4"/>
            <feComposite in2="hardAlpha" operator="out"/>
            <feColorMatrix type="matrix" values="0 0 0 0 0 0 0 0 0 0 0 0 0 0 0 0 0 0 0.08 0"/>
            <feBlend mode="normal" in2="BackgroundImageFix" result="effect1_dropShadow_20013_25464"/>
            <feBlend mode="normal" in="SourceGraphic" in2="effect1_dropShadow_20013_25464" result="shape"/>
        </filter>
        <filter id="filter2_d_20013_25464" x="285" y="158" width="126" height="60" filterUnits="userSpaceOnUse" color-interpolation-filters="sRGB">
            <feFlood flood-opacity="0" result="BackgroundImageFix"/>
            <feColorMatrix in="SourceAlpha" type="matrix" values="0 0 0 0 0 0 0 0 0 0 0 0 0 0 0 0 0 0 127 0" result="hardAlpha"/>
            <feOffset dy="8"/>
            <feGaussianBlur stdDeviation="8"/>
            <feColorMatrix type="matrix" values="0 0 0 0 0 0 0 0 0 0 0 0 0 0 0 0 0 0 0.04 0"/>
            <feBlend mode="normal" in2="BackgroundImageFix" result="effect1_dropShadow_20013_25464"/>
            <feBlend mode="normal" in="SourceGraphic" in2="effect1_dropShadow_20013_25464" result="shape"/>
        </filter>
        <linearGradient id="paint0_linear_20013_25464" x1="348.5" y1="73" x2="347.939" y2="329" gradientUnits="userSpaceOnUse">
            <stop stop-color="white"/>
            <stop offset="1" stop-color="#F62E46" stop-opacity="0.69"/>
        </linearGradient>
    </defs>
</svg>