<svg width="274" height="298" viewBox="0 0 274 298" fill="none" xmlns="http://www.w3.org/2000/svg">
    <g clip-path="url(#clip0_20015_25986)">
        <rect width="274" height="298" rx="20" fill="white"/>
        <line x1="94.5" y1="21" x2="94.5" y2="277" stroke="#EBEDF2"/>
        <path d="M95 25H124C130.627 25 136 30.3726 136 37V41C136 47.6274 130.627 53 124 53H95V25Z" fill="#EBEDF2"/>
        <path d="M95 69H112C118.627 69 124 74.3726 124 81V85C124 91.6274 118.627 97 112 97H95V69Z" fill="#EBEDF2"/>
        <path d="M95 113H157C163.627 113 169 118.373 169 125V129C169 135.627 163.627 141 157 141H95V113Z" fill="#EBEDF2"/>
        <path d="M95 157H220C226.627 157 232 162.373 232 169V173C232 179.627 226.627 185 220 185H95V157Z" fill="#EBEDF2"/>
        <g filter="url(#filter0_f_20015_25986)">
            <path d="M95 201H134C140.627 201 146 206.373 146 213V217C146 223.627 140.627 229 134 229H95V201Z" fill="#F62E46"/>
        </g>
        <path d="M95 201H134C140.627 201 146 206.373 146 213V217C146 223.627 140.627 229 134 229H95V201Z" fill="#F62E46"/>
        <path d="M95 245H148C154.627 245 160 250.373 160 257V261C160 267.627 154.627 273 148 273H95V245Z" fill="#EBEDF2"/>
        <path d="M48.726 36H47.85V32.718H44.976L44.67 32.646C44.03 32.522 43.538 32.22 43.194 31.74C42.85 31.26 42.678 30.694 42.678 30.042C42.678 29.59 42.76 29.178 42.924 28.806C43.088 28.434 43.326 28.126 43.638 27.882C43.954 27.634 44.336 27.476 44.784 27.408C44.896 27.388 45.004 27.376 45.108 27.372C45.212 27.364 45.306 27.36 45.39 27.36H48.726V36ZM43.494 36H42.48L44.352 32.16L45.198 32.484L43.494 36ZM47.85 31.878V28.206H45.414C45.346 28.206 45.262 28.21 45.162 28.218C45.066 28.222 44.972 28.234 44.88 28.254C44.584 28.318 44.34 28.44 44.148 28.62C43.96 28.8 43.82 29.016 43.728 29.268C43.636 29.516 43.59 29.774 43.59 30.042C43.59 30.31 43.636 30.568 43.728 30.816C43.82 31.064 43.96 31.278 44.148 31.458C44.34 31.638 44.584 31.76 44.88 31.824C44.972 31.844 45.066 31.858 45.162 31.866C45.262 31.874 45.346 31.878 45.414 31.878H47.85ZM50.4043 36V29.52H51.2863V32.334H54.9403V29.52H55.8223V36H54.9403V33.18H51.2863V36H50.4043ZM57.0202 37.44V35.244C57.3882 35.244 57.6522 35.126 57.8122 34.89C57.9722 34.65 58.1022 34.268 58.2022 33.744C58.2702 33.404 58.3262 33.038 58.3702 32.646C58.4142 32.254 58.4522 31.806 58.4842 31.302C58.5162 30.794 58.5462 30.2 58.5742 29.52H62.8582V35.244H63.4822V37.44H62.6302V36H57.8662V37.44H57.0202ZM58.5142 35.244H61.9822V30.276H59.3902C59.3782 30.58 59.3602 30.902 59.3362 31.242C59.3162 31.582 59.2902 31.922 59.2582 32.262C59.2302 32.602 59.1962 32.922 59.1562 33.222C59.1202 33.518 59.0762 33.778 59.0242 34.002C58.9642 34.29 58.8982 34.536 58.8262 34.74C58.7582 34.944 58.6542 35.112 58.5142 35.244ZM67.4258 36.18C66.7938 36.18 66.2458 36.04 65.7818 35.76C65.3218 35.48 64.9638 35.086 64.7078 34.578C64.4518 34.07 64.3238 33.474 64.3238 32.79C64.3238 32.082 64.4498 31.47 64.7018 30.954C64.9538 30.438 65.3078 30.04 65.7638 29.76C66.2238 29.48 66.7658 29.34 67.3898 29.34C68.0298 29.34 68.5758 29.488 69.0278 29.784C69.4798 30.076 69.8218 30.496 70.0538 31.044C70.2858 31.592 70.3918 32.246 70.3718 33.006H69.4718V32.694C69.4558 31.854 69.2738 31.22 68.9258 30.792C68.5818 30.364 68.0778 30.15 67.4138 30.15C66.7178 30.15 66.1838 30.376 65.8118 30.828C65.4438 31.28 65.2598 31.924 65.2598 32.76C65.2598 33.576 65.4438 34.21 65.8118 34.662C66.1838 35.11 66.7098 35.334 67.3898 35.334C67.8538 35.334 68.2578 35.228 68.6018 35.016C68.9498 34.8 69.2238 34.49 69.4238 34.086L70.2458 34.404C69.9898 34.968 69.6118 35.406 69.1118 35.718C68.6158 36.026 68.0538 36.18 67.4258 36.18ZM64.9478 33.006V32.268H69.8978V33.006H64.9478ZM71.6973 36L71.7033 29.52H72.5913V32.64L75.4833 29.52H76.6593L73.6233 32.76L77.0553 36H75.7713L72.5913 32.88V36H71.6973ZM80.2272 36.18C79.5752 36.18 79.0232 36.034 78.5712 35.742C78.1192 35.45 77.7752 35.048 77.5392 34.536C77.3072 34.02 77.1872 33.428 77.1792 32.76C77.1872 32.08 77.3112 31.484 77.5512 30.972C77.7912 30.456 78.1372 30.056 78.5892 29.772C79.0412 29.484 79.5892 29.34 80.2332 29.34C80.8892 29.34 81.4592 29.5 81.9432 29.82C82.4312 30.14 82.7652 30.578 82.9452 31.134L82.0812 31.41C81.9292 31.022 81.6872 30.722 81.3552 30.51C81.0272 30.294 80.6512 30.186 80.2272 30.186C79.7512 30.186 79.3572 30.296 79.0452 30.516C78.7332 30.732 78.5012 31.034 78.3492 31.422C78.1972 31.81 78.1192 32.256 78.1152 32.76C78.1232 33.536 78.3032 34.16 78.6552 34.632C79.0072 35.1 79.5312 35.334 80.2272 35.334C80.6672 35.334 81.0412 35.234 81.3492 35.034C81.6612 34.83 81.8972 34.534 82.0572 34.146L82.9452 34.41C82.7052 34.986 82.3532 35.426 81.8892 35.73C81.4252 36.03 80.8712 36.18 80.2272 36.18Z" fill="#555D74"/>
        <path d="M67.694 81L65.198 72.36H66.116L68.138 79.494L70.148 72.366L71.072 72.36L73.094 79.494L75.104 72.36H76.028L73.538 81H72.65L70.61 73.914L68.582 81H67.694ZM77.0666 81V72.36H80.4026C80.8866 72.36 81.3086 72.46 81.6686 72.66C82.0286 72.86 82.3086 73.13 82.5086 73.47C82.7086 73.806 82.8086 74.178 82.8086 74.586C82.8086 75.05 82.6846 75.464 82.4366 75.828C82.1886 76.188 81.8566 76.438 81.4406 76.578L81.4286 76.284C81.9886 76.444 82.4286 76.724 82.7486 77.124C83.0686 77.524 83.2286 78.008 83.2286 78.576C83.2286 79.076 83.1226 79.508 82.9106 79.872C82.6986 80.232 82.4006 80.51 82.0166 80.706C81.6326 80.902 81.1866 81 80.6786 81H77.0666ZM77.9546 80.154H80.4626C80.8146 80.154 81.1306 80.092 81.4106 79.968C81.6906 79.84 81.9106 79.66 82.0706 79.428C82.2346 79.196 82.3166 78.916 82.3166 78.588C82.3166 78.268 82.2426 77.98 82.0946 77.724C81.9466 77.468 81.7446 77.264 81.4886 77.112C81.2366 76.956 80.9486 76.878 80.6246 76.878H77.9546V80.154ZM77.9546 76.044H80.3966C80.6726 76.044 80.9246 75.982 81.1526 75.858C81.3806 75.73 81.5606 75.556 81.6926 75.336C81.8286 75.116 81.8966 74.862 81.8966 74.574C81.8966 74.166 81.7546 73.834 81.4706 73.578C81.1906 73.322 80.8326 73.194 80.3966 73.194H77.9546V76.044Z" fill="#555D74"/>
        <path d="M55.338 126.18C54.478 126.18 53.752 125.99 53.16 125.61C52.568 125.226 52.12 124.696 51.816 124.02C51.512 123.344 51.36 122.564 51.36 121.68C51.36 120.796 51.512 120.016 51.816 119.34C52.12 118.664 52.568 118.136 53.16 117.756C53.752 117.372 54.478 117.18 55.338 117.18C56.202 117.18 56.928 117.372 57.516 117.756C58.108 118.136 58.556 118.664 58.86 119.34C59.168 120.016 59.322 120.796 59.322 121.68C59.322 122.564 59.168 123.344 58.86 124.02C58.556 124.696 58.108 125.226 57.516 125.61C56.928 125.99 56.202 126.18 55.338 126.18ZM55.338 125.334C56.014 125.334 56.578 125.18 57.03 124.872C57.482 124.564 57.82 124.136 58.044 123.588C58.272 123.036 58.386 122.4 58.386 121.68C58.386 120.96 58.272 120.326 58.044 119.778C57.82 119.23 57.482 118.802 57.03 118.494C56.578 118.186 56.014 118.03 55.338 118.026C54.662 118.026 54.1 118.18 53.652 118.488C53.204 118.796 52.866 119.226 52.638 119.778C52.414 120.326 52.3 120.96 52.296 121.68C52.292 122.4 52.402 123.034 52.626 123.582C52.854 124.126 53.194 124.554 53.646 124.866C54.098 125.174 54.662 125.33 55.338 125.334ZM60.2836 126V125.814L65.0056 118.206H60.4036V117.36H66.4516V117.564L61.7536 125.16H66.4096V126H60.2836ZM71.3927 126.18C70.5327 126.18 69.8067 125.99 69.2147 125.61C68.6227 125.226 68.1747 124.696 67.8707 124.02C67.5667 123.344 67.4147 122.564 67.4147 121.68C67.4147 120.796 67.5667 120.016 67.8707 119.34C68.1747 118.664 68.6227 118.136 69.2147 117.756C69.8067 117.372 70.5327 117.18 71.3927 117.18C72.2567 117.18 72.9827 117.372 73.5707 117.756C74.1627 118.136 74.6107 118.664 74.9147 119.34C75.2227 120.016 75.3767 120.796 75.3767 121.68C75.3767 122.564 75.2227 123.344 74.9147 124.02C74.6107 124.696 74.1627 125.226 73.5707 125.61C72.9827 125.99 72.2567 126.18 71.3927 126.18ZM71.3927 125.334C72.0687 125.334 72.6327 125.18 73.0847 124.872C73.5367 124.564 73.8747 124.136 74.0987 123.588C74.3267 123.036 74.4407 122.4 74.4407 121.68C74.4407 120.96 74.3267 120.326 74.0987 119.778C73.8747 119.23 73.5367 118.802 73.0847 118.494C72.6327 118.186 72.0687 118.03 71.3927 118.026C70.7167 118.026 70.1547 118.18 69.7067 118.488C69.2587 118.796 68.9207 119.226 68.6927 119.778C68.4687 120.326 68.3547 120.96 68.3507 121.68C68.3467 122.4 68.4567 123.034 68.6807 123.582C68.9087 124.126 69.2487 124.554 69.7007 124.866C70.1527 125.174 70.7167 125.33 71.3927 125.334ZM76.5783 126V117.36H77.4663L82.2243 124.44V117.36H83.1123V126H82.2243L77.4663 118.914V126H76.5783Z" fill="#555D74"/>
        <path d="M58.338 171.18C57.478 171.18 56.752 170.99 56.16 170.61C55.568 170.226 55.12 169.696 54.816 169.02C54.512 168.344 54.36 167.564 54.36 166.68C54.36 165.796 54.512 165.016 54.816 164.34C55.12 163.664 55.568 163.136 56.16 162.756C56.752 162.372 57.478 162.18 58.338 162.18C59.342 162.18 60.162 162.438 60.798 162.954C61.434 163.466 61.87 164.154 62.106 165.018L61.206 165.252C61.022 164.568 60.692 164.026 60.216 163.626C59.74 163.226 59.114 163.026 58.338 163.026C57.662 163.026 57.1 163.18 56.652 163.488C56.204 163.796 55.866 164.226 55.638 164.778C55.414 165.326 55.298 165.96 55.29 166.68C55.286 167.4 55.396 168.034 55.62 168.582C55.848 169.13 56.188 169.56 56.64 169.872C57.096 170.18 57.662 170.334 58.338 170.334C59.114 170.334 59.74 170.134 60.216 169.734C60.692 169.33 61.022 168.788 61.206 168.108L62.106 168.342C61.87 169.206 61.434 169.896 60.798 170.412C60.162 170.924 59.342 171.18 58.338 171.18ZM66.0278 171.186C65.4238 171.182 64.9058 171.05 64.4738 170.79C64.0418 170.53 63.7058 170.142 63.4658 169.626C63.2298 169.11 63.1018 168.466 63.0818 167.694C63.0698 167.354 63.0778 166.984 63.1058 166.584C63.1338 166.18 63.1778 165.796 63.2378 165.432C63.2978 165.068 63.3698 164.772 63.4538 164.544C63.5578 164.248 63.7058 163.972 63.8978 163.716C64.0938 163.456 64.3198 163.244 64.5758 163.08C64.8238 162.912 65.1038 162.782 65.4158 162.69C65.7318 162.594 66.0598 162.52 66.3998 162.468C66.7438 162.416 67.0838 162.37 67.4198 162.33C67.7598 162.29 68.0738 162.24 68.3618 162.18L68.4578 162.978C68.2378 163.022 67.9778 163.062 67.6778 163.098C67.3778 163.134 67.0638 163.178 66.7358 163.23C66.4078 163.278 66.0938 163.344 65.7938 163.428C65.4938 163.512 65.2378 163.622 65.0258 163.758C64.7018 163.954 64.4518 164.25 64.2758 164.646C64.1038 165.042 63.9978 165.496 63.9578 166.008C64.2058 165.62 64.5338 165.328 64.9418 165.132C65.3538 164.936 65.7998 164.838 66.2798 164.838C66.8638 164.838 67.3658 164.972 67.7858 165.24C68.2098 165.508 68.5358 165.88 68.7638 166.356C68.9918 166.832 69.1058 167.378 69.1058 167.994C69.1058 168.638 68.9798 169.2 68.7278 169.68C68.4798 170.16 68.1258 170.532 67.6658 170.796C67.2058 171.056 66.6598 171.186 66.0278 171.186ZM66.0938 170.34C66.7738 170.34 67.2898 170.128 67.6418 169.704C67.9978 169.28 68.1758 168.716 68.1758 168.012C68.1758 167.292 67.9918 166.724 67.6238 166.308C67.2598 165.892 66.7458 165.684 66.0818 165.684C65.4178 165.684 64.9078 165.892 64.5518 166.308C64.1958 166.724 64.0178 167.292 64.0178 168.012C64.0178 168.732 64.1958 169.3 64.5518 169.716C64.9078 170.132 65.4218 170.34 66.0938 170.34ZM73.1679 171.18C72.5359 171.18 71.9879 171.04 71.5239 170.76C71.0639 170.48 70.7059 170.086 70.4499 169.578C70.1939 169.07 70.0659 168.474 70.0659 167.79C70.0659 167.082 70.1919 166.47 70.4439 165.954C70.6959 165.438 71.0499 165.04 71.5059 164.76C71.9659 164.48 72.5079 164.34 73.1319 164.34C73.7719 164.34 74.3179 164.488 74.7699 164.784C75.2219 165.076 75.5639 165.496 75.7959 166.044C76.0279 166.592 76.1339 167.246 76.1139 168.006H75.2139V167.694C75.1979 166.854 75.0159 166.22 74.6679 165.792C74.3239 165.364 73.8199 165.15 73.1559 165.15C72.4599 165.15 71.9259 165.376 71.5539 165.828C71.1859 166.28 71.0019 166.924 71.0019 167.76C71.0019 168.576 71.1859 169.21 71.5539 169.662C71.9259 170.11 72.4519 170.334 73.1319 170.334C73.5959 170.334 73.9999 170.228 74.3439 170.016C74.6919 169.8 74.9659 169.49 75.1659 169.086L75.9879 169.404C75.7319 169.968 75.3539 170.406 74.8539 170.718C74.3579 171.026 73.7959 171.18 73.1679 171.18ZM70.6899 168.006V167.268H75.6399V168.006H70.6899ZM80.3555 171.18C79.7595 171.18 79.2555 171.03 78.8435 170.73C78.4315 170.426 78.1195 170.016 77.9075 169.5C77.6955 168.98 77.5895 168.398 77.5895 167.754C77.5895 167.098 77.6955 166.514 77.9075 166.002C78.1235 165.486 78.4395 165.08 78.8555 164.784C79.2715 164.488 79.7835 164.34 80.3915 164.34C80.9835 164.34 81.4915 164.49 81.9155 164.79C82.3395 165.09 82.6635 165.498 82.8875 166.014C83.1155 166.53 83.2295 167.11 83.2295 167.754C83.2295 168.402 83.1155 168.984 82.8875 169.5C82.6595 170.016 82.3315 170.426 81.9035 170.73C81.4755 171.03 80.9595 171.18 80.3555 171.18ZM77.4395 173.88V164.52H78.2315V169.398H78.3275V173.88H77.4395ZM80.2655 170.358C80.7175 170.358 81.0935 170.244 81.3935 170.016C81.6935 169.788 81.9175 169.478 82.0655 169.086C82.2175 168.69 82.2935 168.246 82.2935 167.754C82.2935 167.266 82.2195 166.826 82.0715 166.434C81.9235 166.042 81.6975 165.732 81.3935 165.504C81.0935 165.276 80.7115 165.162 80.2475 165.162C79.7955 165.162 79.4195 165.272 79.1195 165.492C78.8235 165.712 78.6015 166.018 78.4535 166.41C78.3055 166.798 78.2315 167.246 78.2315 167.754C78.2315 168.254 78.3055 168.702 78.4535 169.098C78.6015 169.49 78.8255 169.798 79.1255 170.022C79.4255 170.246 79.8055 170.358 80.2655 170.358Z" fill="#555D74"/>
        <path d="M50.24 216L53.216 207.36H54.386L57.362 216H56.444L53.618 207.852H53.966L51.158 216H50.24ZM51.566 213.906V213.078H56.03V213.906H51.566ZM58.4395 216V209.52H61.1095C61.2455 209.52 61.4095 209.528 61.6015 209.544C61.7975 209.56 61.9795 209.59 62.1475 209.634C62.5115 209.73 62.8035 209.926 63.0235 210.222C63.2475 210.518 63.3595 210.874 63.3595 211.29C63.3595 211.522 63.3235 211.73 63.2515 211.914C63.1835 212.094 63.0855 212.25 62.9575 212.382C62.8975 212.45 62.8315 212.51 62.7595 212.562C62.6875 212.61 62.6175 212.65 62.5495 212.682C62.6775 212.706 62.8155 212.762 62.9635 212.85C63.1955 212.986 63.3715 213.17 63.4915 213.402C63.6115 213.63 63.6715 213.908 63.6715 214.236C63.6715 214.68 63.5655 215.042 63.3535 215.322C63.1415 215.602 62.8575 215.794 62.5015 215.898C62.3415 215.942 62.1675 215.97 61.9795 215.982C61.7955 215.994 61.6215 216 61.4575 216H58.4395ZM59.3275 215.25H61.4155C61.4995 215.25 61.6055 215.244 61.7335 215.232C61.8615 215.216 61.9755 215.196 62.0755 215.172C62.3115 215.112 62.4835 214.992 62.5915 214.812C62.7035 214.628 62.7595 214.428 62.7595 214.212C62.7595 213.928 62.6755 213.696 62.5075 213.516C62.3435 213.332 62.1235 213.22 61.8475 213.18C61.7555 213.16 61.6595 213.148 61.5595 213.144C61.4595 213.14 61.3695 213.138 61.2895 213.138H59.3275V215.25ZM59.3275 212.382H61.1395C61.2435 212.382 61.3595 212.376 61.4875 212.364C61.6195 212.348 61.7335 212.322 61.8295 212.286C62.0375 212.214 62.1895 212.09 62.2855 211.914C62.3855 211.738 62.4355 211.546 62.4355 211.338C62.4355 211.11 62.3815 210.91 62.2735 210.738C62.1695 210.566 62.0115 210.446 61.7995 210.378C61.6555 210.326 61.4995 210.296 61.3315 210.288C61.1675 210.28 61.0635 210.276 61.0195 210.276H59.3275V212.382ZM70.0153 209.52V216H69.1573V210.954L65.6053 216H64.8613V209.52H65.7193V214.524L69.2773 209.52H70.0153ZM73.4574 216V210.336H71.1594V209.52H76.6374V210.336H74.3394V216H73.4574ZM80.3702 216.18C79.7262 216.18 79.1762 216.034 78.7202 215.742C78.2642 215.45 77.9142 215.046 77.6702 214.53C77.4262 214.014 77.3042 213.422 77.3042 212.754C77.3042 212.074 77.4282 211.478 77.6762 210.966C77.9242 210.454 78.2762 210.056 78.7322 209.772C79.1922 209.484 79.7382 209.34 80.3702 209.34C81.0182 209.34 81.5702 209.486 82.0262 209.778C82.4862 210.066 82.8362 210.468 83.0762 210.984C83.3202 211.496 83.4422 212.086 83.4422 212.754C83.4422 213.434 83.3202 214.032 83.0762 214.548C82.8322 215.06 82.4802 215.46 82.0202 215.748C81.5602 216.036 81.0102 216.18 80.3702 216.18ZM80.3702 215.334C81.0902 215.334 81.6262 215.096 81.9782 214.62C82.3302 214.14 82.5062 213.518 82.5062 212.754C82.5062 211.97 82.3282 211.346 81.9722 210.882C81.6202 210.418 81.0862 210.186 80.3702 210.186C79.8862 210.186 79.4862 210.296 79.1702 210.516C78.8582 210.732 78.6242 211.034 78.4682 211.422C78.3162 211.806 78.2402 212.25 78.2402 212.754C78.2402 213.534 78.4202 214.16 78.7802 214.632C79.1402 215.1 79.6702 215.334 80.3702 215.334Z" fill="#555D74"/>
        <path d="M57.338 261.18C56.478 261.18 55.752 260.99 55.16 260.61C54.568 260.226 54.12 259.696 53.816 259.02C53.512 258.344 53.36 257.564 53.36 256.68C53.36 255.796 53.512 255.016 53.816 254.34C54.12 253.664 54.568 253.136 55.16 252.756C55.752 252.372 56.478 252.18 57.338 252.18C58.342 252.18 59.162 252.438 59.798 252.954C60.434 253.466 60.87 254.154 61.106 255.018L60.206 255.252C60.022 254.568 59.692 254.026 59.216 253.626C58.74 253.226 58.114 253.026 57.338 253.026C56.662 253.026 56.1 253.18 55.652 253.488C55.204 253.796 54.866 254.226 54.638 254.778C54.414 255.326 54.298 255.96 54.29 256.68C54.286 257.4 54.396 258.034 54.62 258.582C54.848 259.13 55.188 259.56 55.64 259.872C56.096 260.18 56.662 260.334 57.338 260.334C58.114 260.334 58.74 260.134 59.216 259.734C59.692 259.33 60.022 258.788 60.206 258.108L61.106 258.342C60.87 259.206 60.434 259.896 59.798 260.412C59.162 260.924 58.342 261.18 57.338 261.18ZM62.4298 261V252.36H65.0518C65.1438 252.36 65.2998 252.362 65.5198 252.366C65.7438 252.37 65.9578 252.386 66.1618 252.414C66.8178 252.506 67.3658 252.75 67.8058 253.146C68.2458 253.542 68.5758 254.046 68.7958 254.658C69.0158 255.27 69.1258 255.944 69.1258 256.68C69.1258 257.416 69.0158 258.09 68.7958 258.702C68.5758 259.314 68.2458 259.818 67.8058 260.214C67.3658 260.61 66.8178 260.854 66.1618 260.946C65.9618 260.97 65.7478 260.986 65.5198 260.994C65.2918 260.998 65.1358 261 65.0518 261H62.4298ZM63.3418 260.154H65.0518C65.2158 260.154 65.3918 260.15 65.5798 260.142C65.7718 260.13 65.9358 260.11 66.0718 260.082C66.5758 259.994 66.9818 259.79 67.2898 259.47C67.6018 259.15 67.8298 258.75 67.9738 258.27C68.1178 257.786 68.1898 257.256 68.1898 256.68C68.1898 256.1 68.1178 255.568 67.9738 255.084C67.8298 254.6 67.6018 254.2 67.2898 253.884C66.9778 253.568 66.5718 253.366 66.0718 253.278C65.9358 253.25 65.7698 253.232 65.5738 253.224C65.3818 253.212 65.2078 253.206 65.0518 253.206H63.3418V260.154ZM70.4923 261V252.36H75.8923V253.206H71.3743V256.194H75.1723V257.04H71.3743V260.154H75.8923V261H70.4923ZM77.3361 261V252.36H78.2181V256.44L82.1601 252.36H83.2881L79.2621 256.53L83.6181 261H82.4661L78.2181 256.68V261H77.3361Z" fill="#555D74"/>
    </g>
    <defs>
        <filter id="filter0_f_20015_25986" x="89.1985" y="195.198" width="62.6031" height="39.6031" filterUnits="userSpaceOnUse" color-interpolation-filters="sRGB">
            <feFlood flood-opacity="0" result="BackgroundImageFix"/>
            <feBlend mode="normal" in="SourceGraphic" in2="BackgroundImageFix" result="shape"/>
            <feGaussianBlur stdDeviation="2.90076" result="effect1_foregroundBlur_20015_25986"/>
        </filter>
        <clipPath id="clip0_20015_25986">
            <rect width="274" height="298" rx="20" fill="white"/>
        </clipPath>
    </defs>
</svg>