<svg width="487" height="298" viewBox="0 0 487 298" fill="none" xmlns="http://www.w3.org/2000/svg">
    <rect width="487" height="298" rx="20" fill="white"/>
    <path d="M18.92 34L20.296 31.144L16.24 22.48H17.832L21.04 29.624L24.32 22.48H25.84L20.464 34H18.92ZM29.5256 34.24C28.651 34.24 27.907 34.0453 27.2936 33.656C26.6856 33.2613 26.2216 32.72 25.9016 32.032C25.5816 31.344 25.4163 30.56 25.4056 29.68C25.4163 28.7787 25.5843 27.9867 25.9096 27.304C26.2403 26.616 26.7123 26.08 27.3256 25.696C27.939 25.312 28.6776 25.12 29.5416 25.12C30.4536 25.12 31.2376 25.344 31.8936 25.792C32.555 26.24 32.9976 26.8533 33.2216 27.632L31.8136 28.056C31.6323 27.5547 31.3363 27.1653 30.9256 26.888C30.5203 26.6107 30.0536 26.472 29.5256 26.472C28.9336 26.472 28.4456 26.6107 28.0616 26.888C27.6776 27.16 27.3923 27.5387 27.2056 28.024C27.019 28.504 26.923 29.056 26.9176 29.68C26.9283 30.64 27.1496 31.416 27.5816 32.008C28.019 32.5947 28.667 32.888 29.5256 32.888C30.091 32.888 30.5603 32.76 30.9336 32.504C31.307 32.2427 31.5896 31.8667 31.7816 31.376L33.2216 31.752C32.923 32.5573 32.4563 33.1733 31.8216 33.6C31.187 34.0267 30.4216 34.24 29.5256 34.24ZM33.82 34V32.776C34.14 32.8347 34.3827 32.824 34.548 32.744C34.7187 32.6587 34.844 32.512 34.924 32.304C35.0093 32.0907 35.0787 31.824 35.132 31.504C35.2227 30.9973 35.3 30.432 35.364 29.808C35.4333 29.184 35.4947 28.5013 35.548 27.76C35.6067 27.0133 35.66 26.2133 35.708 25.36H41.748V34H40.324V26.712H37.004C36.972 27.2027 36.932 27.7067 36.884 28.224C36.8413 28.7413 36.796 29.2453 36.748 29.736C36.7 30.2213 36.6467 30.6747 36.588 31.096C36.5347 31.512 36.476 31.872 36.412 32.176C36.3107 32.6987 36.1693 33.1173 35.988 33.432C35.8067 33.7413 35.5453 33.9413 35.204 34.032C34.8627 34.128 34.4013 34.1173 33.82 34ZM45.195 37.84L46.867 33.296L46.891 34.64L43.115 25.36H44.611L47.571 32.824H47.059L49.835 25.36H51.283L46.579 37.84H45.195ZM52.6044 34V25.36H58.6044V26.712H54.0284V34H52.6044ZM67.192 25.36V34H65.816V27.632L61.288 34H60.112V25.36H61.488V31.64L66.024 25.36H67.192Z" fill="#0F1015"/>
    <rect x="312.5" y="16.5" width="158" height="37" rx="7.5" fill="white"/>
    <path d="M332.511 41.68V39.013C332.903 39.013 333.218 38.915 333.456 38.719C333.694 38.5183 333.876 38.2523 334.002 37.921C334.128 37.5897 334.224 37.2187 334.289 36.808C334.354 36.3927 334.41 35.9727 334.457 35.548C334.522 34.9273 334.574 34.3277 334.611 33.749C334.653 33.1703 334.688 32.5707 334.716 31.95C334.749 31.3293 334.786 30.6503 334.828 29.913L341.044 29.92V39.013H341.765V41.68H340.743V40H333.54V41.68H332.511ZM334.478 39.013H340.015V30.907L335.787 30.9C335.759 31.4693 335.731 32.02 335.703 32.552C335.675 33.084 335.642 33.6207 335.605 34.162C335.568 34.7033 335.519 35.268 335.458 35.856C335.407 36.3927 335.346 36.8617 335.276 37.263C335.206 37.6643 335.108 38.0073 334.982 38.292C334.861 38.5767 334.693 38.817 334.478 39.013ZM346.501 40.21C345.764 40.21 345.125 40.0467 344.583 39.72C344.047 39.3933 343.629 38.9337 343.33 38.341C343.032 37.7483 342.882 37.053 342.882 36.255C342.882 35.429 343.029 34.715 343.323 34.113C343.617 33.511 344.03 33.0467 344.562 32.72C345.099 32.3933 345.731 32.23 346.459 32.23C347.206 32.23 347.843 32.4027 348.37 32.748C348.898 33.0887 349.297 33.5787 349.567 34.218C349.838 34.8573 349.962 35.6203 349.938 36.507H348.888V36.143C348.87 35.163 348.657 34.4233 348.251 33.924C347.85 33.4247 347.262 33.175 346.487 33.175C345.675 33.175 345.052 33.4387 344.618 33.966C344.189 34.4933 343.974 35.2447 343.974 36.22C343.974 37.172 344.189 37.9117 344.618 38.439C345.052 38.9617 345.666 39.223 346.459 39.223C347.001 39.223 347.472 39.0993 347.873 38.852C348.279 38.6 348.599 38.2383 348.832 37.767L349.791 38.138C349.493 38.796 349.052 39.307 348.468 39.671C347.89 40.0303 347.234 40.21 346.501 40.21ZM343.61 36.507V35.646H349.385V36.507H343.61ZM351.485 40V32.44H352.514V35.723H356.777V32.44H357.806V40H356.777V36.71H352.514V40H351.485ZM359.77 40L359.756 32.44H360.792V35.289H362.563C362.783 35.289 362.997 35.2937 363.207 35.303C363.422 35.3123 363.611 35.331 363.774 35.359C364.148 35.429 364.479 35.5527 364.768 35.73C365.062 35.9073 365.291 36.1523 365.454 36.465C365.622 36.7777 365.706 37.1697 365.706 37.641C365.706 38.2897 365.538 38.8007 365.202 39.174C364.871 39.5473 364.451 39.79 363.942 39.902C363.751 39.944 363.543 39.972 363.319 39.986C363.095 39.9953 362.874 40 362.654 40H359.77ZM360.792 39.118H362.612C362.771 39.118 362.948 39.1133 363.144 39.104C363.34 39.0947 363.513 39.069 363.662 39.027C363.91 38.957 364.134 38.817 364.334 38.607C364.54 38.3923 364.642 38.0703 364.642 37.641C364.642 37.2163 364.544 36.8967 364.348 36.682C364.152 36.4627 363.891 36.318 363.564 36.248C363.42 36.2153 363.263 36.1943 363.095 36.185C362.927 36.1757 362.766 36.171 362.612 36.171H360.792V39.118Z" fill="#9EA2B0"/>
    <path d="M439.454 32.6911C439.063 32.3849 438.497 32.4541 438.191 32.8457C437.885 33.2372 437.954 33.8029 438.346 34.109L442.442 37.3123C442.768 37.5669 443.225 37.567 443.551 37.3125L447.651 34.1092C448.042 33.8032 448.112 33.2376 447.806 32.8459C447.5 32.4543 446.934 32.3848 446.543 32.6908L442.997 35.461L439.454 32.6911Z" fill="#9EA2B0"/>
    <rect x="312.5" y="16.5" width="158" height="37" rx="7.5" stroke="#F5F6F9"/>
    <rect x="322" y="113" width="8" height="8" rx="4" fill="#F62E46"/>
    <path d="M338.438 123.44V121.154C338.774 121.154 339.044 121.07 339.248 120.902C339.452 120.73 339.608 120.502 339.716 120.218C339.824 119.934 339.906 119.616 339.962 119.264C340.018 118.908 340.066 118.548 340.106 118.184C340.162 117.652 340.206 117.138 340.238 116.642C340.274 116.146 340.304 115.632 340.328 115.1C340.356 114.568 340.388 113.986 340.424 113.354L345.752 113.36V121.154H346.37V123.44H345.494V122H339.32V123.44H338.438ZM340.124 121.154H344.87V114.206L341.246 114.2C341.222 114.688 341.198 115.16 341.174 115.616C341.15 116.072 341.122 116.532 341.09 116.996C341.058 117.46 341.016 117.944 340.964 118.448C340.92 118.908 340.868 119.31 340.808 119.654C340.748 119.998 340.664 120.292 340.556 120.536C340.452 120.78 340.308 120.986 340.124 121.154ZM350.394 122.18C349.75 122.18 349.2 122.034 348.744 121.742C348.288 121.45 347.938 121.046 347.694 120.53C347.45 120.014 347.328 119.422 347.328 118.754C347.328 118.074 347.452 117.478 347.7 116.966C347.948 116.454 348.3 116.056 348.756 115.772C349.216 115.484 349.762 115.34 350.394 115.34C351.042 115.34 351.594 115.486 352.05 115.778C352.51 116.066 352.86 116.468 353.1 116.984C353.344 117.496 353.466 118.086 353.466 118.754C353.466 119.434 353.344 120.032 353.1 120.548C352.856 121.06 352.504 121.46 352.044 121.748C351.584 122.036 351.034 122.18 350.394 122.18ZM350.394 121.334C351.114 121.334 351.65 121.096 352.002 120.62C352.354 120.14 352.53 119.518 352.53 118.754C352.53 117.97 352.352 117.346 351.996 116.882C351.644 116.418 351.11 116.186 350.394 116.186C349.91 116.186 349.51 116.296 349.194 116.516C348.882 116.732 348.648 117.034 348.492 117.422C348.34 117.806 348.264 118.25 348.264 118.754C348.264 119.534 348.444 120.16 348.804 120.632C349.164 121.1 349.694 121.334 350.394 121.334ZM357.477 122.18C356.825 122.18 356.273 122.034 355.821 121.742C355.369 121.45 355.025 121.048 354.789 120.536C354.557 120.02 354.437 119.428 354.429 118.76C354.437 118.08 354.561 117.484 354.801 116.972C355.041 116.456 355.387 116.056 355.839 115.772C356.291 115.484 356.839 115.34 357.483 115.34C358.139 115.34 358.709 115.5 359.193 115.82C359.681 116.14 360.015 116.578 360.195 117.134L359.331 117.41C359.179 117.022 358.937 116.722 358.605 116.51C358.277 116.294 357.901 116.186 357.477 116.186C357.001 116.186 356.607 116.296 356.295 116.516C355.983 116.732 355.751 117.034 355.599 117.422C355.447 117.81 355.369 118.256 355.365 118.76C355.373 119.536 355.553 120.16 355.905 120.632C356.257 121.1 356.781 121.334 357.477 121.334C357.917 121.334 358.291 121.234 358.599 121.034C358.911 120.83 359.147 120.534 359.307 120.146L360.195 120.41C359.955 120.986 359.603 121.426 359.139 121.73C358.675 122.03 358.121 122.18 357.477 122.18ZM363.039 122V116.336H360.741V115.52H366.219V116.336H363.921V122H363.039ZM368.971 122.18C368.483 122.18 368.073 122.092 367.741 121.916C367.413 121.74 367.167 121.506 367.003 121.214C366.839 120.922 366.757 120.604 366.757 120.26C366.757 119.908 366.827 119.608 366.967 119.36C367.111 119.108 367.305 118.902 367.549 118.742C367.797 118.582 368.083 118.46 368.407 118.376C368.735 118.296 369.097 118.226 369.493 118.166C369.893 118.102 370.283 118.048 370.663 118.004C371.047 117.956 371.383 117.91 371.671 117.866L371.359 118.058C371.371 117.418 371.247 116.944 370.987 116.636C370.727 116.328 370.275 116.174 369.631 116.174C369.187 116.174 368.811 116.274 368.503 116.474C368.199 116.674 367.985 116.99 367.861 117.422L367.003 117.17C367.151 116.59 367.449 116.14 367.897 115.82C368.345 115.5 368.927 115.34 369.643 115.34C370.235 115.34 370.737 115.452 371.149 115.676C371.565 115.896 371.859 116.216 372.031 116.636C372.111 116.824 372.163 117.034 372.187 117.266C372.211 117.498 372.223 117.734 372.223 117.974V122H371.437V120.374L371.665 120.47C371.445 121.026 371.103 121.45 370.639 121.742C370.175 122.034 369.619 122.18 368.971 122.18ZM369.073 121.418C369.485 121.418 369.845 121.344 370.153 121.196C370.461 121.048 370.709 120.846 370.897 120.59C371.085 120.33 371.207 120.038 371.263 119.714C371.311 119.506 371.337 119.278 371.341 119.03C371.345 118.778 371.347 118.59 371.347 118.466L371.683 118.64C371.383 118.68 371.057 118.72 370.705 118.76C370.357 118.8 370.013 118.846 369.673 118.898C369.337 118.95 369.033 119.012 368.761 119.084C368.577 119.136 368.399 119.21 368.227 119.306C368.055 119.398 367.913 119.522 367.801 119.678C367.693 119.834 367.639 120.028 367.639 120.26C367.639 120.448 367.685 120.63 367.777 120.806C367.873 120.982 368.025 121.128 368.233 121.244C368.445 121.36 368.725 121.418 369.073 121.418ZM373.779 122V115.52H376.449C376.585 115.52 376.749 115.528 376.941 115.544C377.137 115.56 377.319 115.59 377.487 115.634C377.851 115.73 378.143 115.926 378.363 116.222C378.587 116.518 378.699 116.874 378.699 117.29C378.699 117.522 378.663 117.73 378.591 117.914C378.523 118.094 378.425 118.25 378.297 118.382C378.237 118.45 378.171 118.51 378.099 118.562C378.027 118.61 377.957 118.65 377.889 118.682C378.017 118.706 378.155 118.762 378.303 118.85C378.535 118.986 378.711 119.17 378.831 119.402C378.951 119.63 379.011 119.908 379.011 120.236C379.011 120.68 378.905 121.042 378.693 121.322C378.481 121.602 378.197 121.794 377.841 121.898C377.681 121.942 377.507 121.97 377.319 121.982C377.135 121.994 376.961 122 376.797 122H373.779ZM374.667 121.25H376.755C376.839 121.25 376.945 121.244 377.073 121.232C377.201 121.216 377.315 121.196 377.415 121.172C377.651 121.112 377.823 120.992 377.931 120.812C378.043 120.628 378.099 120.428 378.099 120.212C378.099 119.928 378.015 119.696 377.847 119.516C377.683 119.332 377.463 119.22 377.187 119.18C377.095 119.16 376.999 119.148 376.899 119.144C376.799 119.14 376.709 119.138 376.629 119.138H374.667V121.25ZM374.667 118.382H376.479C376.583 118.382 376.699 118.376 376.827 118.364C376.959 118.348 377.073 118.322 377.169 118.286C377.377 118.214 377.529 118.09 377.625 117.914C377.725 117.738 377.775 117.546 377.775 117.338C377.775 117.11 377.721 116.91 377.613 116.738C377.509 116.566 377.351 116.446 377.139 116.378C376.995 116.326 376.839 116.296 376.671 116.288C376.507 116.28 376.403 116.276 376.359 116.276H374.667V118.382ZM380.201 122L380.207 115.52H381.095V118.64L383.987 115.52H385.163L382.127 118.76L385.559 122H384.275L381.095 118.88V122H380.201ZM388.014 122.18C387.526 122.18 387.116 122.092 386.784 121.916C386.456 121.74 386.21 121.506 386.046 121.214C385.882 120.922 385.8 120.604 385.8 120.26C385.8 119.908 385.87 119.608 386.01 119.36C386.154 119.108 386.348 118.902 386.592 118.742C386.84 118.582 387.126 118.46 387.45 118.376C387.778 118.296 388.14 118.226 388.536 118.166C388.936 118.102 389.326 118.048 389.706 118.004C390.09 117.956 390.426 117.91 390.714 117.866L390.402 118.058C390.414 117.418 390.29 116.944 390.03 116.636C389.77 116.328 389.318 116.174 388.674 116.174C388.23 116.174 387.854 116.274 387.546 116.474C387.242 116.674 387.028 116.99 386.904 117.422L386.046 117.17C386.194 116.59 386.492 116.14 386.94 115.82C387.388 115.5 387.97 115.34 388.686 115.34C389.278 115.34 389.78 115.452 390.192 115.676C390.608 115.896 390.902 116.216 391.074 116.636C391.154 116.824 391.206 117.034 391.23 117.266C391.254 117.498 391.266 117.734 391.266 117.974V122H390.48V120.374L390.708 120.47C390.488 121.026 390.146 121.45 389.682 121.742C389.218 122.034 388.662 122.18 388.014 122.18ZM388.116 121.418C388.528 121.418 388.888 121.344 389.196 121.196C389.504 121.048 389.752 120.846 389.94 120.59C390.128 120.33 390.25 120.038 390.306 119.714C390.354 119.506 390.38 119.278 390.384 119.03C390.388 118.778 390.39 118.59 390.39 118.466L390.726 118.64C390.426 118.68 390.1 118.72 389.748 118.76C389.4 118.8 389.056 118.846 388.716 118.898C388.38 118.95 388.076 119.012 387.804 119.084C387.62 119.136 387.442 119.21 387.27 119.306C387.098 119.398 386.956 119.522 386.844 119.678C386.736 119.834 386.682 120.028 386.682 120.26C386.682 120.448 386.728 120.63 386.82 120.806C386.916 120.982 387.068 121.128 387.276 121.244C387.488 121.36 387.768 121.418 388.116 121.418ZM395.225 122V115.52H400.379V122H399.497V116.366H396.107V122H395.225ZM404.769 122.18C404.125 122.18 403.575 122.034 403.119 121.742C402.663 121.45 402.313 121.046 402.069 120.53C401.825 120.014 401.703 119.422 401.703 118.754C401.703 118.074 401.827 117.478 402.075 116.966C402.323 116.454 402.675 116.056 403.131 115.772C403.591 115.484 404.137 115.34 404.769 115.34C405.417 115.34 405.969 115.486 406.425 115.778C406.885 116.066 407.235 116.468 407.475 116.984C407.719 117.496 407.841 118.086 407.841 118.754C407.841 119.434 407.719 120.032 407.475 120.548C407.231 121.06 406.879 121.46 406.419 121.748C405.959 122.036 405.409 122.18 404.769 122.18ZM404.769 121.334C405.489 121.334 406.025 121.096 406.377 120.62C406.729 120.14 406.905 119.518 406.905 118.754C406.905 117.97 406.727 117.346 406.371 116.882C406.019 116.418 405.485 116.186 404.769 116.186C404.285 116.186 403.885 116.296 403.569 116.516C403.257 116.732 403.023 117.034 402.867 117.422C402.715 117.806 402.639 118.25 402.639 118.754C402.639 119.534 402.819 120.16 403.179 120.632C403.539 121.1 404.069 121.334 404.769 121.334ZM411.852 122.18C411.2 122.18 410.648 122.034 410.196 121.742C409.744 121.45 409.4 121.048 409.164 120.536C408.932 120.02 408.812 119.428 408.804 118.76C408.812 118.08 408.936 117.484 409.176 116.972C409.416 116.456 409.762 116.056 410.214 115.772C410.666 115.484 411.214 115.34 411.858 115.34C412.514 115.34 413.084 115.5 413.568 115.82C414.056 116.14 414.39 116.578 414.57 117.134L413.706 117.41C413.554 117.022 413.312 116.722 412.98 116.51C412.652 116.294 412.276 116.186 411.852 116.186C411.376 116.186 410.982 116.296 410.67 116.516C410.358 116.732 410.126 117.034 409.974 117.422C409.822 117.81 409.744 118.256 409.74 118.76C409.748 119.536 409.928 120.16 410.28 120.632C410.632 121.1 411.156 121.334 411.852 121.334C412.292 121.334 412.666 121.234 412.974 121.034C413.286 120.83 413.522 120.534 413.682 120.146L414.57 120.41C414.33 120.986 413.978 121.426 413.514 121.73C413.05 122.03 412.496 122.18 411.852 122.18ZM415.815 122L415.803 115.52H416.691V117.962H417.819C418.007 117.962 418.191 117.966 418.371 117.974C418.551 117.982 418.713 117.998 418.857 118.022C419.177 118.086 419.461 118.194 419.709 118.346C419.957 118.498 420.153 118.708 420.297 118.976C420.441 119.24 420.513 119.574 420.513 119.978C420.513 120.534 420.369 120.972 420.081 121.292C419.793 121.612 419.431 121.82 418.995 121.916C418.831 121.952 418.653 121.976 418.461 121.988C418.269 121.996 418.081 122 417.897 122H415.815ZM416.691 121.244H417.861C417.993 121.244 418.143 121.24 418.311 121.232C418.479 121.224 418.627 121.202 418.755 121.166C418.971 121.106 419.165 120.986 419.337 120.806C419.513 120.622 419.601 120.346 419.601 119.978C419.601 119.614 419.517 119.34 419.349 119.156C419.181 118.968 418.957 118.844 418.677 118.784C418.549 118.756 418.413 118.738 418.269 118.73C418.129 118.722 417.993 118.718 417.861 118.718H416.691V121.244ZM421.287 122V115.52H422.169V122H421.287ZM423.248 122V121.226C423.488 121.27 423.67 121.26 423.794 121.196C423.922 121.128 424.016 121.016 424.076 120.86C424.136 120.7 424.186 120.502 424.226 120.266C424.29 119.874 424.348 119.442 424.4 118.97C424.452 118.498 424.498 117.978 424.538 117.41C424.582 116.838 424.626 116.208 424.67 115.52H429.074V122H428.198V116.366H425.486C425.458 116.79 425.426 117.212 425.39 117.632C425.354 118.052 425.316 118.456 425.276 118.844C425.24 119.228 425.2 119.582 425.156 119.906C425.112 120.23 425.066 120.51 425.018 120.746C424.946 121.102 424.85 121.386 424.73 121.598C424.614 121.81 424.44 121.95 424.208 122.018C423.976 122.086 423.656 122.08 423.248 122ZM433.456 122.18C432.812 122.18 432.262 122.034 431.806 121.742C431.35 121.45 431 121.046 430.756 120.53C430.512 120.014 430.39 119.422 430.39 118.754C430.39 118.074 430.514 117.478 430.762 116.966C431.01 116.454 431.362 116.056 431.818 115.772C432.278 115.484 432.824 115.34 433.456 115.34C434.104 115.34 434.656 115.486 435.112 115.778C435.572 116.066 435.922 116.468 436.162 116.984C436.406 117.496 436.528 118.086 436.528 118.754C436.528 119.434 436.406 120.032 436.162 120.548C435.918 121.06 435.566 121.46 435.106 121.748C434.646 122.036 434.096 122.18 433.456 122.18ZM433.456 121.334C434.176 121.334 434.712 121.096 435.064 120.62C435.416 120.14 435.592 119.518 435.592 118.754C435.592 117.97 435.414 117.346 435.058 116.882C434.706 116.418 434.172 116.186 433.456 116.186C432.972 116.186 432.572 116.296 432.256 116.516C431.944 116.732 431.71 117.034 431.554 117.422C431.402 117.806 431.326 118.25 431.326 118.754C431.326 119.534 431.506 120.16 431.866 120.632C432.226 121.1 432.756 121.334 433.456 121.334ZM437.846 122L437.852 115.52H438.74V118.64L441.632 115.52H442.808L439.772 118.76L443.204 122H441.92L438.74 118.88V122H437.846Z" fill="#555D74"/>
    <rect x="322" y="153" width="8" height="8" rx="4" fill="#FCBCC4"/>
    <path d="M338.84 162V153.36H344.174V154.206H339.722V156.72H342.176C342.26 156.72 342.354 156.724 342.458 156.732C342.566 156.736 342.674 156.746 342.782 156.762C343.226 156.822 343.604 156.974 343.916 157.218C344.232 157.462 344.472 157.77 344.636 158.142C344.804 158.514 344.888 158.92 344.888 159.36C344.888 159.8 344.804 160.206 344.636 160.578C344.472 160.95 344.232 161.258 343.916 161.502C343.604 161.746 343.226 161.898 342.782 161.958C342.674 161.97 342.566 161.98 342.458 161.988C342.354 161.996 342.26 162 342.176 162H338.84ZM339.722 161.154H342.152C342.224 161.154 342.308 161.15 342.404 161.142C342.5 161.134 342.594 161.122 342.686 161.106C343.13 161.018 343.456 160.806 343.664 160.47C343.876 160.13 343.982 159.76 343.982 159.36C343.982 158.956 343.876 158.586 343.664 158.25C343.456 157.914 343.13 157.702 342.686 157.614C342.594 157.594 342.5 157.582 342.404 157.578C342.308 157.57 342.224 157.566 342.152 157.566H339.722V161.154ZM346.088 162L346.076 155.52H346.964V157.962H348.092C348.28 157.962 348.464 157.966 348.644 157.974C348.824 157.982 348.986 157.998 349.13 158.022C349.45 158.086 349.734 158.194 349.982 158.346C350.23 158.498 350.426 158.708 350.57 158.976C350.714 159.24 350.786 159.574 350.786 159.978C350.786 160.534 350.642 160.972 350.354 161.292C350.066 161.612 349.704 161.82 349.268 161.916C349.104 161.952 348.926 161.976 348.734 161.988C348.542 161.996 348.354 162 348.17 162H346.088ZM346.964 161.244H348.134C348.266 161.244 348.416 161.24 348.584 161.232C348.752 161.224 348.9 161.202 349.028 161.166C349.244 161.106 349.438 160.986 349.61 160.806C349.786 160.622 349.874 160.346 349.874 159.978C349.874 159.614 349.79 159.34 349.622 159.156C349.454 158.968 349.23 158.844 348.95 158.784C348.822 158.756 348.686 158.738 348.542 158.73C348.402 158.722 348.266 158.718 348.134 158.718H346.964V161.244ZM351.56 162V155.52H352.442V162H351.56ZM355.879 162V156.336H353.581V155.52H359.059V156.336H356.761V162H355.879ZM362.792 162.18C362.148 162.18 361.598 162.034 361.142 161.742C360.686 161.45 360.336 161.046 360.092 160.53C359.848 160.014 359.726 159.422 359.726 158.754C359.726 158.074 359.85 157.478 360.098 156.966C360.346 156.454 360.698 156.056 361.154 155.772C361.614 155.484 362.16 155.34 362.792 155.34C363.44 155.34 363.992 155.486 364.448 155.778C364.908 156.066 365.258 156.468 365.498 156.984C365.742 157.496 365.864 158.086 365.864 158.754C365.864 159.434 365.742 160.032 365.498 160.548C365.254 161.06 364.902 161.46 364.442 161.748C363.982 162.036 363.432 162.18 362.792 162.18ZM362.792 161.334C363.512 161.334 364.048 161.096 364.4 160.62C364.752 160.14 364.928 159.518 364.928 158.754C364.928 157.97 364.75 157.346 364.394 156.882C364.042 156.418 363.508 156.186 362.792 156.186C362.308 156.186 361.908 156.296 361.592 156.516C361.28 156.732 361.046 157.034 360.89 157.422C360.738 157.806 360.662 158.25 360.662 158.754C360.662 159.534 360.842 160.16 361.202 160.632C361.562 161.1 362.092 161.334 362.792 161.334ZM367.182 162V155.52H369.852C369.988 155.52 370.152 155.528 370.344 155.544C370.54 155.56 370.722 155.59 370.89 155.634C371.254 155.73 371.546 155.926 371.766 156.222C371.99 156.518 372.102 156.874 372.102 157.29C372.102 157.522 372.066 157.73 371.994 157.914C371.926 158.094 371.828 158.25 371.7 158.382C371.64 158.45 371.574 158.51 371.502 158.562C371.43 158.61 371.36 158.65 371.292 158.682C371.42 158.706 371.558 158.762 371.706 158.85C371.938 158.986 372.114 159.17 372.234 159.402C372.354 159.63 372.414 159.908 372.414 160.236C372.414 160.68 372.308 161.042 372.096 161.322C371.884 161.602 371.6 161.794 371.244 161.898C371.084 161.942 370.91 161.97 370.722 161.982C370.538 161.994 370.364 162 370.2 162H367.182ZM368.07 161.25H370.158C370.242 161.25 370.348 161.244 370.476 161.232C370.604 161.216 370.718 161.196 370.818 161.172C371.054 161.112 371.226 160.992 371.334 160.812C371.446 160.628 371.502 160.428 371.502 160.212C371.502 159.928 371.418 159.696 371.25 159.516C371.086 159.332 370.866 159.22 370.59 159.18C370.498 159.16 370.402 159.148 370.302 159.144C370.202 159.14 370.112 159.138 370.032 159.138H368.07V161.25ZM368.07 158.382H369.882C369.986 158.382 370.102 158.376 370.23 158.364C370.362 158.348 370.476 158.322 370.572 158.286C370.78 158.214 370.932 158.09 371.028 157.914C371.128 157.738 371.178 157.546 371.178 157.338C371.178 157.11 371.124 156.91 371.016 156.738C370.912 156.566 370.754 156.446 370.542 156.378C370.398 156.326 370.242 156.296 370.074 156.288C369.91 156.28 369.806 156.276 369.762 156.276H368.07V158.382ZM373.616 162L373.604 155.52H374.492V157.962H375.62C375.808 157.962 375.992 157.966 376.172 157.974C376.352 157.982 376.514 157.998 376.658 158.022C376.978 158.086 377.262 158.194 377.51 158.346C377.758 158.498 377.954 158.708 378.098 158.976C378.242 159.24 378.314 159.574 378.314 159.978C378.314 160.534 378.17 160.972 377.882 161.292C377.594 161.612 377.232 161.82 376.796 161.916C376.632 161.952 376.454 161.976 376.262 161.988C376.07 161.996 375.882 162 375.698 162H373.616ZM374.492 161.244H375.662C375.794 161.244 375.944 161.24 376.112 161.232C376.28 161.224 376.428 161.202 376.556 161.166C376.772 161.106 376.966 160.986 377.138 160.806C377.314 160.622 377.402 160.346 377.402 159.978C377.402 159.614 377.318 159.34 377.15 159.156C376.982 158.968 376.758 158.844 376.478 158.784C376.35 158.756 376.214 158.738 376.07 158.73C375.93 158.722 375.794 158.718 375.662 158.718H374.492V161.244ZM379.088 162V155.52H379.97V162H379.088ZM384.391 162.18C383.759 162.18 383.211 162.04 382.747 161.76C382.287 161.48 381.929 161.086 381.673 160.578C381.417 160.07 381.289 159.474 381.289 158.79C381.289 158.082 381.415 157.47 381.667 156.954C381.919 156.438 382.273 156.04 382.729 155.76C383.189 155.48 383.731 155.34 384.355 155.34C384.995 155.34 385.541 155.488 385.993 155.784C386.445 156.076 386.787 156.496 387.019 157.044C387.251 157.592 387.357 158.246 387.337 159.006H386.437V158.694C386.421 157.854 386.239 157.22 385.891 156.792C385.547 156.364 385.043 156.15 384.379 156.15C383.683 156.15 383.149 156.376 382.777 156.828C382.409 157.28 382.225 157.924 382.225 158.76C382.225 159.576 382.409 160.21 382.777 160.662C383.149 161.11 383.675 161.334 384.355 161.334C384.819 161.334 385.223 161.228 385.567 161.016C385.915 160.8 386.189 160.49 386.389 160.086L387.211 160.404C386.955 160.968 386.577 161.406 386.077 161.718C385.581 162.026 385.019 162.18 384.391 162.18ZM381.913 159.006V158.268H386.863V159.006H381.913ZM391.994 164.88L393.248 161.478L393.266 162.486L390.428 155.52H391.364L393.692 161.346H393.308L395.456 155.52H396.356L392.876 164.88H391.994ZM399.852 162.18C399.2 162.18 398.648 162.034 398.196 161.742C397.744 161.45 397.4 161.048 397.164 160.536C396.932 160.02 396.812 159.428 396.804 158.76C396.812 158.08 396.936 157.484 397.176 156.972C397.416 156.456 397.762 156.056 398.214 155.772C398.666 155.484 399.214 155.34 399.858 155.34C400.514 155.34 401.084 155.5 401.568 155.82C402.056 156.14 402.39 156.578 402.57 157.134L401.706 157.41C401.554 157.022 401.312 156.722 400.98 156.51C400.652 156.294 400.276 156.186 399.852 156.186C399.376 156.186 398.982 156.296 398.67 156.516C398.358 156.732 398.126 157.034 397.974 157.422C397.822 157.81 397.744 158.256 397.74 158.76C397.748 159.536 397.928 160.16 398.28 160.632C398.632 161.1 399.156 161.334 399.852 161.334C400.292 161.334 400.666 161.234 400.974 161.034C401.286 160.83 401.522 160.534 401.682 160.146L402.57 160.41C402.33 160.986 401.978 161.426 401.514 161.73C401.05 162.03 400.496 162.18 399.852 162.18ZM403.033 162V161.226C403.273 161.27 403.455 161.26 403.579 161.196C403.707 161.128 403.801 161.016 403.861 160.86C403.921 160.7 403.971 160.502 404.011 160.266C404.075 159.874 404.133 159.442 404.185 158.97C404.237 158.498 404.283 157.978 404.323 157.41C404.367 156.838 404.411 156.208 404.455 155.52H408.859V162H407.983V156.366H405.271C405.243 156.79 405.211 157.212 405.175 157.632C405.139 158.052 405.101 158.456 405.061 158.844C405.025 159.228 404.985 159.582 404.941 159.906C404.897 160.23 404.851 160.51 404.803 160.746C404.731 161.102 404.635 161.386 404.515 161.598C404.399 161.81 404.225 161.95 403.993 162.018C403.761 162.086 403.441 162.08 403.033 162ZM411.459 164.88L412.713 161.478L412.731 162.486L409.893 155.52H410.829L413.157 161.346H412.773L414.921 155.52H415.821L412.341 164.88H411.459ZM416.863 162V155.52H421.303V156.366H417.745V162H416.863ZM427.59 155.52V162H426.732V156.954L423.18 162H422.436V155.52H423.294V160.524L426.852 155.52H427.59Z" fill="#555D74"/>
    <rect x="322" y="193" width="8" height="8" rx="4" fill="#9EA2B0"/>
    <path d="M338.84 202V193.36H344.24V194.206H339.722V202H338.84ZM346.948 202.18C346.304 202.18 345.754 202.034 345.298 201.742C344.842 201.45 344.492 201.046 344.248 200.53C344.004 200.014 343.882 199.422 343.882 198.754C343.882 198.074 344.006 197.478 344.254 196.966C344.502 196.454 344.854 196.056 345.31 195.772C345.77 195.484 346.316 195.34 346.948 195.34C347.596 195.34 348.148 195.486 348.604 195.778C349.064 196.066 349.414 196.468 349.654 196.984C349.898 197.496 350.02 198.086 350.02 198.754C350.02 199.434 349.898 200.032 349.654 200.548C349.41 201.06 349.058 201.46 348.598 201.748C348.138 202.036 347.588 202.18 346.948 202.18ZM346.948 201.334C347.668 201.334 348.204 201.096 348.556 200.62C348.908 200.14 349.084 199.518 349.084 198.754C349.084 197.97 348.906 197.346 348.55 196.882C348.198 196.418 347.664 196.186 346.948 196.186C346.464 196.186 346.064 196.296 345.748 196.516C345.436 196.732 345.202 197.034 345.046 197.422C344.894 197.806 344.818 198.25 344.818 198.754C344.818 199.534 344.998 200.16 345.358 200.632C345.718 201.1 346.248 201.334 346.948 201.334ZM354.254 202.18C353.658 202.18 353.154 202.03 352.742 201.73C352.33 201.426 352.018 201.016 351.806 200.5C351.594 199.98 351.488 199.398 351.488 198.754C351.488 198.098 351.594 197.514 351.806 197.002C352.022 196.486 352.338 196.08 352.754 195.784C353.17 195.488 353.682 195.34 354.29 195.34C354.882 195.34 355.39 195.49 355.814 195.79C356.238 196.09 356.562 196.498 356.786 197.014C357.014 197.53 357.128 198.11 357.128 198.754C357.128 199.402 357.014 199.984 356.786 200.5C356.558 201.016 356.23 201.426 355.802 201.73C355.374 202.03 354.858 202.18 354.254 202.18ZM351.338 204.88V195.52H352.13V200.398H352.226V204.88H351.338ZM354.164 201.358C354.616 201.358 354.992 201.244 355.292 201.016C355.592 200.788 355.816 200.478 355.964 200.086C356.116 199.69 356.192 199.246 356.192 198.754C356.192 198.266 356.118 197.826 355.97 197.434C355.822 197.042 355.596 196.732 355.292 196.504C354.992 196.276 354.61 196.162 354.146 196.162C353.694 196.162 353.318 196.272 353.018 196.492C352.722 196.712 352.5 197.018 352.352 197.41C352.204 197.798 352.13 198.246 352.13 198.754C352.13 199.254 352.204 199.702 352.352 200.098C352.5 200.49 352.724 200.798 353.024 201.022C353.324 201.246 353.704 201.358 354.164 201.358ZM361.151 202.18C360.507 202.18 359.957 202.034 359.501 201.742C359.045 201.45 358.695 201.046 358.451 200.53C358.207 200.014 358.085 199.422 358.085 198.754C358.085 198.074 358.209 197.478 358.457 196.966C358.705 196.454 359.057 196.056 359.513 195.772C359.973 195.484 360.519 195.34 361.151 195.34C361.799 195.34 362.351 195.486 362.807 195.778C363.267 196.066 363.617 196.468 363.857 196.984C364.101 197.496 364.223 198.086 364.223 198.754C364.223 199.434 364.101 200.032 363.857 200.548C363.613 201.06 363.261 201.46 362.801 201.748C362.341 202.036 361.791 202.18 361.151 202.18ZM361.151 201.334C361.871 201.334 362.407 201.096 362.759 200.62C363.111 200.14 363.287 199.518 363.287 198.754C363.287 197.97 363.109 197.346 362.753 196.882C362.401 196.418 361.867 196.186 361.151 196.186C360.667 196.186 360.267 196.296 359.951 196.516C359.639 196.732 359.405 197.034 359.249 197.422C359.097 197.806 359.021 198.25 359.021 198.754C359.021 199.534 359.201 200.16 359.561 200.632C359.921 201.1 360.451 201.334 361.151 201.334ZM365.067 203.44V201.244C365.435 201.244 365.699 201.126 365.859 200.89C366.019 200.65 366.149 200.268 366.249 199.744C366.317 199.404 366.373 199.038 366.417 198.646C366.461 198.254 366.499 197.806 366.531 197.302C366.563 196.794 366.593 196.2 366.621 195.52H370.905V201.244H371.529V203.44H370.677V202H365.913V203.44H365.067ZM366.561 201.244H370.029V196.276H367.437C367.425 196.58 367.407 196.902 367.383 197.242C367.363 197.582 367.337 197.922 367.305 198.262C367.277 198.602 367.243 198.922 367.203 199.222C367.167 199.518 367.123 199.778 367.071 200.002C367.011 200.29 366.945 200.536 366.873 200.74C366.805 200.944 366.701 201.112 366.561 201.244ZM375.419 202.18C374.767 202.18 374.215 202.034 373.763 201.742C373.311 201.45 372.967 201.048 372.731 200.536C372.499 200.02 372.379 199.428 372.371 198.76C372.379 198.08 372.503 197.484 372.743 196.972C372.983 196.456 373.329 196.056 373.781 195.772C374.233 195.484 374.781 195.34 375.425 195.34C376.081 195.34 376.651 195.5 377.135 195.82C377.623 196.14 377.957 196.578 378.137 197.134L377.273 197.41C377.121 197.022 376.879 196.722 376.547 196.51C376.219 196.294 375.843 196.186 375.419 196.186C374.943 196.186 374.549 196.296 374.237 196.516C373.925 196.732 373.693 197.034 373.541 197.422C373.389 197.81 373.311 198.256 373.307 198.76C373.315 199.536 373.495 200.16 373.847 200.632C374.199 201.1 374.723 201.334 375.419 201.334C375.859 201.334 376.233 201.234 376.541 201.034C376.853 200.83 377.089 200.534 377.249 200.146L378.137 200.41C377.897 200.986 377.545 201.426 377.081 201.73C376.617 202.03 376.063 202.18 375.419 202.18ZM379.369 202L379.375 195.52H380.263V198.64L383.155 195.52H384.331L381.295 198.76L384.727 202H383.443L380.263 198.88V202H379.369ZM390.476 195.52V202H389.618V196.954L386.066 202H385.322V195.52H386.18V200.524L389.738 195.52H390.476ZM394.902 202.18C394.27 202.18 393.722 202.04 393.258 201.76C392.798 201.48 392.44 201.086 392.184 200.578C391.928 200.07 391.8 199.474 391.8 198.79C391.8 198.082 391.926 197.47 392.178 196.954C392.43 196.438 392.784 196.04 393.24 195.76C393.7 195.48 394.242 195.34 394.866 195.34C395.506 195.34 396.052 195.488 396.504 195.784C396.956 196.076 397.298 196.496 397.53 197.044C397.762 197.592 397.868 198.246 397.848 199.006H396.948V198.694C396.932 197.854 396.75 197.22 396.402 196.792C396.058 196.364 395.554 196.15 394.89 196.15C394.194 196.15 393.66 196.376 393.288 196.828C392.92 197.28 392.736 197.924 392.736 198.76C392.736 199.576 392.92 200.21 393.288 200.662C393.66 201.11 394.186 201.334 394.866 201.334C395.33 201.334 395.734 201.228 396.078 201.016C396.426 200.8 396.7 200.49 396.9 200.086L397.722 200.404C397.466 200.968 397.088 201.406 396.588 201.718C396.092 202.026 395.53 202.18 394.902 202.18ZM392.424 199.006V198.268H397.374V199.006H392.424ZM404.27 202.18C403.618 202.18 403.066 202.034 402.614 201.742C402.162 201.45 401.818 201.048 401.582 200.536C401.35 200.02 401.23 199.428 401.222 198.76C401.23 198.08 401.354 197.484 401.594 196.972C401.834 196.456 402.18 196.056 402.632 195.772C403.084 195.484 403.632 195.34 404.276 195.34C404.932 195.34 405.502 195.5 405.986 195.82C406.474 196.14 406.808 196.578 406.988 197.134L406.124 197.41C405.972 197.022 405.73 196.722 405.398 196.51C405.07 196.294 404.694 196.186 404.27 196.186C403.794 196.186 403.4 196.296 403.088 196.516C402.776 196.732 402.544 197.034 402.392 197.422C402.24 197.81 402.162 198.256 402.158 198.76C402.166 199.536 402.346 200.16 402.698 200.632C403.05 201.1 403.574 201.334 404.27 201.334C404.71 201.334 405.084 201.234 405.392 201.034C405.704 200.83 405.94 200.534 406.1 200.146L406.988 200.41C406.748 200.986 406.396 201.426 405.932 201.73C405.468 202.03 404.914 202.18 404.27 202.18ZM410.969 202.18C410.337 202.18 409.789 202.04 409.325 201.76C408.865 201.48 408.507 201.086 408.251 200.578C407.995 200.07 407.867 199.474 407.867 198.79C407.867 198.082 407.993 197.47 408.245 196.954C408.497 196.438 408.851 196.04 409.307 195.76C409.767 195.48 410.309 195.34 410.933 195.34C411.573 195.34 412.119 195.488 412.571 195.784C413.023 196.076 413.365 196.496 413.597 197.044C413.829 197.592 413.935 198.246 413.915 199.006H413.015V198.694C412.999 197.854 412.817 197.22 412.469 196.792C412.125 196.364 411.621 196.15 410.957 196.15C410.261 196.15 409.727 196.376 409.355 196.828C408.987 197.28 408.803 197.924 408.803 198.76C408.803 199.576 408.987 200.21 409.355 200.662C409.727 201.11 410.253 201.334 410.933 201.334C411.397 201.334 411.801 201.228 412.145 201.016C412.493 200.8 412.767 200.49 412.967 200.086L413.789 200.404C413.533 200.968 413.155 201.406 412.655 201.718C412.159 202.026 411.597 202.18 410.969 202.18ZM408.491 199.006V198.268H413.441V199.006H408.491ZM418.156 202.18C417.56 202.18 417.056 202.03 416.644 201.73C416.232 201.426 415.92 201.016 415.708 200.5C415.496 199.98 415.39 199.398 415.39 198.754C415.39 198.098 415.496 197.514 415.708 197.002C415.924 196.486 416.24 196.08 416.656 195.784C417.072 195.488 417.584 195.34 418.192 195.34C418.784 195.34 419.292 195.49 419.716 195.79C420.14 196.09 420.464 196.498 420.688 197.014C420.916 197.53 421.03 198.11 421.03 198.754C421.03 199.402 420.916 199.984 420.688 200.5C420.46 201.016 420.132 201.426 419.704 201.73C419.276 202.03 418.76 202.18 418.156 202.18ZM415.24 204.88V195.52H416.032V200.398H416.128V204.88H415.24ZM418.066 201.358C418.518 201.358 418.894 201.244 419.194 201.016C419.494 200.788 419.718 200.478 419.866 200.086C420.018 199.69 420.094 199.246 420.094 198.754C420.094 198.266 420.02 197.826 419.872 197.434C419.724 197.042 419.498 196.732 419.194 196.504C418.894 196.276 418.512 196.162 418.048 196.162C417.596 196.162 417.22 196.272 416.92 196.492C416.624 196.712 416.402 197.018 416.254 197.41C416.106 197.798 416.032 198.246 416.032 198.754C416.032 199.254 416.106 199.702 416.254 200.098C416.402 200.49 416.626 200.798 416.926 201.022C417.226 201.246 417.606 201.358 418.066 201.358ZM422.342 202V195.52H425.012C425.148 195.52 425.312 195.528 425.504 195.544C425.7 195.56 425.882 195.59 426.05 195.634C426.414 195.73 426.706 195.926 426.926 196.222C427.15 196.518 427.262 196.874 427.262 197.29C427.262 197.522 427.226 197.73 427.154 197.914C427.086 198.094 426.988 198.25 426.86 198.382C426.8 198.45 426.734 198.51 426.662 198.562C426.59 198.61 426.52 198.65 426.452 198.682C426.58 198.706 426.718 198.762 426.866 198.85C427.098 198.986 427.274 199.17 427.394 199.402C427.514 199.63 427.574 199.908 427.574 200.236C427.574 200.68 427.468 201.042 427.256 201.322C427.044 201.602 426.76 201.794 426.404 201.898C426.244 201.942 426.07 201.97 425.882 201.982C425.698 201.994 425.524 202 425.36 202H422.342ZM423.23 201.25H425.318C425.402 201.25 425.508 201.244 425.636 201.232C425.764 201.216 425.878 201.196 425.978 201.172C426.214 201.112 426.386 200.992 426.494 200.812C426.606 200.628 426.662 200.428 426.662 200.212C426.662 199.928 426.578 199.696 426.41 199.516C426.246 199.332 426.026 199.22 425.75 199.18C425.658 199.16 425.562 199.148 425.462 199.144C425.362 199.14 425.272 199.138 425.192 199.138H423.23V201.25ZM423.23 198.382H425.042C425.146 198.382 425.262 198.376 425.39 198.364C425.522 198.348 425.636 198.322 425.732 198.286C425.94 198.214 426.092 198.09 426.188 197.914C426.288 197.738 426.338 197.546 426.338 197.338C426.338 197.11 426.284 196.91 426.176 196.738C426.072 196.566 425.914 196.446 425.702 196.378C425.558 196.326 425.402 196.296 425.234 196.288C425.07 196.28 424.966 196.276 424.922 196.276H423.23V198.382ZM433.918 195.52V202H433.06V196.954L429.508 202H428.764V195.52H429.622V200.524L433.18 195.52H433.918ZM438.29 202.18C437.638 202.18 437.086 202.034 436.634 201.742C436.182 201.45 435.838 201.048 435.602 200.536C435.37 200.02 435.25 199.428 435.242 198.76C435.25 198.08 435.374 197.484 435.614 196.972C435.854 196.456 436.2 196.056 436.652 195.772C437.104 195.484 437.652 195.34 438.296 195.34C438.952 195.34 439.522 195.5 440.006 195.82C440.494 196.14 440.828 196.578 441.008 197.134L440.144 197.41C439.992 197.022 439.75 196.722 439.418 196.51C439.09 196.294 438.714 196.186 438.29 196.186C437.814 196.186 437.42 196.296 437.108 196.516C436.796 196.732 436.564 197.034 436.412 197.422C436.26 197.81 436.182 198.256 436.178 198.76C436.186 199.536 436.366 200.16 436.718 200.632C437.07 201.1 437.594 201.334 438.29 201.334C438.73 201.334 439.104 201.234 439.412 201.034C439.724 200.83 439.96 200.534 440.12 200.146L441.008 200.41C440.768 200.986 440.416 201.426 439.952 201.73C439.488 202.03 438.934 202.18 438.29 202.18ZM442.252 202L442.24 195.52H443.128V197.962H444.256C444.444 197.962 444.628 197.966 444.808 197.974C444.988 197.982 445.15 197.998 445.294 198.022C445.614 198.086 445.898 198.194 446.146 198.346C446.394 198.498 446.59 198.708 446.734 198.976C446.878 199.24 446.95 199.574 446.95 199.978C446.95 200.534 446.806 200.972 446.518 201.292C446.23 201.612 445.868 201.82 445.432 201.916C445.268 201.952 445.09 201.976 444.898 201.988C444.706 201.996 444.518 202 444.334 202H442.252ZM443.128 201.244H444.298C444.43 201.244 444.58 201.24 444.748 201.232C444.916 201.224 445.064 201.202 445.192 201.166C445.408 201.106 445.602 200.986 445.774 200.806C445.95 200.622 446.038 200.346 446.038 199.978C446.038 199.614 445.954 199.34 445.786 199.156C445.618 198.968 445.394 198.844 445.114 198.784C444.986 198.756 444.85 198.738 444.706 198.73C444.566 198.722 444.43 198.718 444.298 198.718H443.128V201.244ZM447.724 202V195.52H448.606V202H447.724Z" fill="#555D74"/>
    <rect x="322" y="233" width="8" height="8" rx="4" fill="#EBEDF2"/>
    <path d="M338.84 242V233.36H344.24V234.206H339.722V242H338.84ZM346.948 242.18C346.304 242.18 345.754 242.034 345.298 241.742C344.842 241.45 344.492 241.046 344.248 240.53C344.004 240.014 343.882 239.422 343.882 238.754C343.882 238.074 344.006 237.478 344.254 236.966C344.502 236.454 344.854 236.056 345.31 235.772C345.77 235.484 346.316 235.34 346.948 235.34C347.596 235.34 348.148 235.486 348.604 235.778C349.064 236.066 349.414 236.468 349.654 236.984C349.898 237.496 350.02 238.086 350.02 238.754C350.02 239.434 349.898 240.032 349.654 240.548C349.41 241.06 349.058 241.46 348.598 241.748C348.138 242.036 347.588 242.18 346.948 242.18ZM346.948 241.334C347.668 241.334 348.204 241.096 348.556 240.62C348.908 240.14 349.084 239.518 349.084 238.754C349.084 237.97 348.906 237.346 348.55 236.882C348.198 236.418 347.664 236.186 346.948 236.186C346.464 236.186 346.064 236.296 345.748 236.516C345.436 236.732 345.202 237.034 345.046 237.422C344.894 237.806 344.818 238.25 344.818 238.754C344.818 239.534 344.998 240.16 345.358 240.632C345.718 241.1 346.248 241.334 346.948 241.334ZM354.032 242.18C353.38 242.18 352.828 242.034 352.376 241.742C351.924 241.45 351.58 241.048 351.344 240.536C351.112 240.02 350.992 239.428 350.984 238.76C350.992 238.08 351.116 237.484 351.356 236.972C351.596 236.456 351.942 236.056 352.394 235.772C352.846 235.484 353.394 235.34 354.038 235.34C354.694 235.34 355.264 235.5 355.748 235.82C356.236 236.14 356.57 236.578 356.75 237.134L355.886 237.41C355.734 237.022 355.492 236.722 355.16 236.51C354.832 236.294 354.456 236.186 354.032 236.186C353.556 236.186 353.162 236.296 352.85 236.516C352.538 236.732 352.306 237.034 352.154 237.422C352.002 237.81 351.924 238.256 351.92 238.76C351.928 239.536 352.108 240.16 352.46 240.632C352.812 241.1 353.336 241.334 354.032 241.334C354.472 241.334 354.846 241.234 355.154 241.034C355.466 240.83 355.702 240.534 355.862 240.146L356.75 240.41C356.51 240.986 356.158 241.426 355.694 241.73C355.23 242.03 354.676 242.18 354.032 242.18ZM358.678 244.88L359.932 241.478L359.95 242.486L357.112 235.52H358.048L360.376 241.346H359.992L362.14 235.52H363.04L359.56 244.88H358.678ZM366.536 242.18C365.884 242.18 365.332 242.034 364.88 241.742C364.428 241.45 364.084 241.048 363.848 240.536C363.616 240.02 363.496 239.428 363.488 238.76C363.496 238.08 363.62 237.484 363.86 236.972C364.1 236.456 364.446 236.056 364.898 235.772C365.35 235.484 365.898 235.34 366.542 235.34C367.198 235.34 367.768 235.5 368.252 235.82C368.74 236.14 369.074 236.578 369.254 237.134L368.39 237.41C368.238 237.022 367.996 236.722 367.664 236.51C367.336 236.294 366.96 236.186 366.536 236.186C366.06 236.186 365.666 236.296 365.354 236.516C365.042 236.732 364.81 237.034 364.658 237.422C364.506 237.81 364.428 238.256 364.424 238.76C364.432 239.536 364.612 240.16 364.964 240.632C365.316 241.1 365.84 241.334 366.536 241.334C366.976 241.334 367.35 241.234 367.658 241.034C367.97 240.83 368.206 240.534 368.366 240.146L369.254 240.41C369.014 240.986 368.662 241.426 368.198 241.73C367.734 242.03 367.18 242.18 366.536 242.18ZM369.717 242V241.226C369.957 241.27 370.139 241.26 370.263 241.196C370.391 241.128 370.485 241.016 370.545 240.86C370.605 240.7 370.655 240.502 370.695 240.266C370.759 239.874 370.817 239.442 370.869 238.97C370.921 238.498 370.967 237.978 371.007 237.41C371.051 236.838 371.095 236.208 371.139 235.52H375.543V242H374.667V236.366H371.955C371.927 236.79 371.895 237.212 371.859 237.632C371.823 238.052 371.785 238.456 371.745 238.844C371.709 239.228 371.669 239.582 371.625 239.906C371.581 240.23 371.535 240.51 371.487 240.746C371.415 241.102 371.319 241.386 371.199 241.598C371.083 241.81 370.909 241.95 370.677 242.018C370.445 242.086 370.125 242.08 369.717 242ZM378.143 244.88L379.397 241.478L379.415 242.486L376.577 235.52H377.513L379.841 241.346H379.457L381.605 235.52H382.505L379.025 244.88H378.143ZM383.547 242V235.52H387.987V236.366H384.429V242H383.547ZM394.273 235.52V242H393.415V236.954L389.863 242H389.119V235.52H389.977V240.524L393.535 235.52H394.273Z" fill="#555D74"/>
    <path d="M142.018 171.26C141.19 171.26 140.413 171.105 139.686 170.796C138.959 170.479 138.328 170.03 137.794 169.45C137.268 168.87 136.886 168.185 136.646 167.396L138.99 166.746C139.214 167.466 139.605 168.019 140.161 168.406C140.718 168.785 141.337 168.97 142.018 168.963C142.629 168.955 143.167 168.812 143.631 168.533C144.095 168.255 144.458 167.88 144.721 167.408C144.985 166.928 145.116 166.379 145.116 165.76C145.116 164.832 144.826 164.066 144.246 163.463C143.673 162.859 142.923 162.558 141.995 162.558C141.732 162.558 141.461 162.596 141.183 162.674C140.912 162.751 140.657 162.852 140.417 162.975L139.28 161.061L145.174 155.851L145.429 156.547H137.307V154.238H147.355V156.547L142.459 161.258L142.436 160.469C143.488 160.469 144.4 160.705 145.174 161.177C145.948 161.641 146.543 162.275 146.961 163.08C147.386 163.877 147.599 164.77 147.599 165.76C147.599 166.828 147.348 167.775 146.845 168.603C146.35 169.431 145.681 170.08 144.838 170.552C144.002 171.024 143.062 171.26 142.018 171.26ZM154.804 170.935L154.815 168.777L162.09 162.256C162.678 161.738 163.077 161.243 163.285 160.771C163.502 160.299 163.61 159.827 163.61 159.355C163.61 158.76 163.479 158.226 163.216 157.754C162.953 157.275 162.589 156.895 162.125 156.617C161.661 156.339 161.127 156.199 160.524 156.199C159.905 156.199 159.352 156.346 158.865 156.64C158.385 156.926 158.01 157.309 157.739 157.789C157.468 158.269 157.337 158.787 157.345 159.344H154.862C154.862 158.261 155.105 157.313 155.593 156.501C156.088 155.681 156.765 155.043 157.623 154.586C158.482 154.122 159.464 153.89 160.57 153.89C161.622 153.89 162.566 154.13 163.402 154.61C164.237 155.082 164.894 155.731 165.374 156.559C165.861 157.387 166.105 158.33 166.105 159.39C166.105 160.156 166.004 160.806 165.803 161.339C165.602 161.873 165.301 162.368 164.898 162.825C164.496 163.281 163.993 163.776 163.39 164.31L157.774 169.322L157.507 168.626H166.105V170.935H154.804ZM171.8 170.947V156.907L168.656 158.822V156.118L171.8 154.238H174.272V170.947H171.8ZM184.108 153.902C185.183 153.902 186.154 154.161 187.02 154.679C187.887 155.19 188.575 155.894 189.086 156.791C189.596 157.688 189.852 158.713 189.852 159.866V165.18C189.852 166.402 189.596 167.474 189.086 168.394C188.583 169.307 187.879 170.019 186.974 170.529C186.077 171.04 185.04 171.295 183.864 171.295C182.983 171.295 182.155 171.129 181.381 170.796C180.608 170.463 179.935 169.968 179.362 169.311L181.149 167.652C181.466 168.061 181.865 168.39 182.344 168.638C182.824 168.885 183.331 169.009 183.864 169.009C184.553 169.009 185.16 168.843 185.686 168.51C186.22 168.178 186.634 167.744 186.928 167.211C187.222 166.677 187.369 166.104 187.369 165.493V162.43L187.856 162.964C187.376 163.59 186.781 164.086 186.069 164.449C185.357 164.813 184.595 164.994 183.783 164.994C182.739 164.994 181.811 164.755 180.998 164.275C180.186 163.795 179.544 163.142 179.072 162.314C178.6 161.486 178.365 160.55 178.365 159.506C178.365 158.462 178.628 157.518 179.154 156.675C179.68 155.832 180.376 155.159 181.242 154.656C182.108 154.153 183.064 153.902 184.108 153.902ZM184.108 156.246C183.505 156.246 182.952 156.393 182.449 156.687C181.954 156.973 181.559 157.363 181.265 157.859C180.971 158.354 180.824 158.903 180.824 159.506C180.824 160.11 180.971 160.663 181.265 161.165C181.559 161.66 181.954 162.055 182.449 162.349C182.944 162.643 183.493 162.79 184.096 162.79C184.7 162.79 185.249 162.643 185.744 162.349C186.239 162.055 186.634 161.66 186.928 161.165C187.222 160.663 187.369 160.11 187.369 159.506C187.369 158.911 187.222 158.365 186.928 157.87C186.641 157.375 186.251 156.981 185.756 156.687C185.261 156.393 184.711 156.246 184.108 156.246Z" fill="#0F1015"/>
    <g filter="url(#filter0_f_20015_25985)">
        <mask id="path-15-inside-1_20015_25985" fill="white">
            <path d="M249.573 161C254.779 161 259.048 165.231 258.533 170.412C257.365 182.141 254.022 193.578 248.646 204.129C241.839 217.487 231.968 229.045 219.84 237.857C207.711 246.669 193.669 252.485 178.861 254.83C164.054 257.176 148.902 255.983 134.643 251.35C120.385 246.718 107.426 238.776 96.8249 228.175C86.2239 217.574 78.2824 204.615 73.6496 190.357C69.0169 176.098 67.8243 160.946 70.1696 146.139C72.022 134.443 76.04 123.225 81.9892 113.05C84.6172 108.555 90.5581 107.641 94.7704 110.702L95.9568 111.564C100.169 114.624 101.044 120.497 98.5379 125.061C94.406 132.587 91.5914 140.791 90.2409 149.318C88.3973 160.958 89.3347 172.869 92.9765 184.077C96.6183 195.285 102.861 205.472 111.194 213.806C119.528 222.139 129.715 228.382 140.923 232.023C152.131 235.665 164.042 236.603 175.682 234.759C187.322 232.915 198.361 228.343 207.895 221.416C217.429 214.489 225.189 205.404 230.539 194.903C234.458 187.211 237.003 178.92 238.084 170.403C238.74 165.237 242.899 161 248.106 161H249.573Z"/>
        </mask>
        <path d="M249.573 161C254.779 161 259.048 165.231 258.533 170.412C257.365 182.141 254.022 193.578 248.646 204.129C241.839 217.487 231.968 229.045 219.84 237.857C207.711 246.669 193.669 252.485 178.861 254.83C164.054 257.176 148.902 255.983 134.643 251.35C120.385 246.718 107.426 238.776 96.8249 228.175C86.2239 217.574 78.2824 204.615 73.6496 190.357C69.0169 176.098 67.8243 160.946 70.1696 146.139C72.022 134.443 76.04 123.225 81.9892 113.05C84.6172 108.555 90.5581 107.641 94.7704 110.702L95.9568 111.564C100.169 114.624 101.044 120.497 98.5379 125.061C94.406 132.587 91.5914 140.791 90.2409 149.318C88.3973 160.958 89.3347 172.869 92.9765 184.077C96.6183 195.285 102.861 205.472 111.194 213.806C119.528 222.139 129.715 228.382 140.923 232.023C152.131 235.665 164.042 236.603 175.682 234.759C187.322 232.915 198.361 228.343 207.895 221.416C217.429 214.489 225.189 205.404 230.539 194.903C234.458 187.211 237.003 178.92 238.084 170.403C238.74 165.237 242.899 161 248.106 161H249.573Z" fill="#F62E46"/>
        <path d="M249.573 161C254.779 161 259.048 165.231 258.533 170.412C257.365 182.141 254.022 193.578 248.646 204.129C241.839 217.487 231.968 229.045 219.84 237.857C207.711 246.669 193.669 252.485 178.861 254.83C164.054 257.176 148.902 255.983 134.643 251.35C120.385 246.718 107.426 238.776 96.8249 228.175C86.2239 217.574 78.2824 204.615 73.6496 190.357C69.0169 176.098 67.8243 160.946 70.1696 146.139C72.022 134.443 76.04 123.225 81.9892 113.05C84.6172 108.555 90.5581 107.641 94.7704 110.702L95.9568 111.564C100.169 114.624 101.044 120.497 98.5379 125.061C94.406 132.587 91.5914 140.791 90.2409 149.318C88.3973 160.958 89.3347 172.869 92.9765 184.077C96.6183 195.285 102.861 205.472 111.194 213.806C119.528 222.139 129.715 228.382 140.923 232.023C152.131 235.665 164.042 236.603 175.682 234.759C187.322 232.915 198.361 228.343 207.895 221.416C217.429 214.489 225.189 205.404 230.539 194.903C234.458 187.211 237.003 178.92 238.084 170.403C238.74 165.237 242.899 161 248.106 161H249.573Z" stroke="#9EA2B0" stroke-width="0.896226" mask="url(#path-15-inside-1_20015_25985)"/>
    </g>
    <path d="M249.573 161C254.779 161 259.048 165.231 258.533 170.412C257.365 182.141 254.022 193.578 248.646 204.129C241.839 217.487 231.968 229.045 219.84 237.857C207.711 246.669 193.669 252.485 178.861 254.83C164.054 257.176 148.902 255.983 134.643 251.35C120.385 246.718 107.426 238.776 96.8249 228.175C86.2239 217.574 78.2824 204.615 73.6496 190.357C69.0169 176.098 67.8243 160.946 70.1696 146.139C72.022 134.443 76.04 123.225 81.9892 113.05C84.6172 108.555 90.5581 107.641 94.7704 110.702L95.9568 111.564C100.169 114.624 101.044 120.497 98.5379 125.061C94.406 132.587 91.5914 140.791 90.2409 149.318C88.3973 160.958 89.3347 172.869 92.9765 184.077C96.6183 195.285 102.861 205.472 111.194 213.806C119.528 222.139 129.715 228.382 140.923 232.023C152.131 235.665 164.042 236.603 175.682 234.759C187.322 232.915 198.361 228.343 207.895 221.416C217.429 214.489 225.189 205.404 230.539 194.903C234.458 187.211 237.003 178.92 238.084 170.403C238.74 165.237 242.899 161 248.106 161H249.573Z" fill="#F62E46"/>
    <path d="M192.185 80.2024C193.9 75.2863 191.311 69.8615 186.249 68.6421C169.92 64.7083 152.78 65.1616 136.591 70.04C120.401 74.9183 105.864 84.0107 94.4271 96.3113C90.8818 100.124 91.7211 106.076 95.8666 109.226L97.0343 110.114C101.18 113.264 107.056 112.407 110.703 108.691C119.468 99.7597 130.376 93.1367 142.454 89.4973C154.532 85.8578 167.283 85.3514 179.523 87.9526C184.616 89.0349 189.987 86.5032 191.702 81.5871L192.185 80.2024Z" fill="#FCBCC4"/>
    <path d="M243.286 128.807C248.11 126.848 250.474 121.322 248.047 116.715C243.483 108.053 237.598 100.131 230.587 93.2422C223.577 86.3531 215.554 80.607 206.814 76.1945C202.166 73.848 196.682 76.3078 194.807 81.1653L194.279 82.5335C192.405 87.391 194.86 92.7972 199.443 95.2683C205.622 98.6 211.314 102.794 216.344 107.736C221.373 112.679 225.665 118.297 229.104 124.417C231.655 128.956 237.103 131.317 241.927 129.358L243.286 128.807Z" fill="#9EA2B0"/>
    <path d="M249.504 157.577C254.707 157.369 258.803 152.97 258.08 147.814C257.572 144.185 256.854 140.589 255.93 137.043C254.617 132.004 249.145 129.517 244.261 131.322L242.886 131.831C238.002 133.637 235.571 139.053 236.747 144.125C237.094 145.621 237.395 147.127 237.649 148.642C238.51 153.776 242.836 157.844 248.039 157.636L249.504 157.577Z" fill="#EBEDF2"/>
    <defs>
        <filter id="filter0_f_20015_25985" x="63.1985" y="103.11" width="201.178" height="158.692" filterUnits="userSpaceOnUse" color-interpolation-filters="sRGB">
            <feFlood flood-opacity="0" result="BackgroundImageFix"/>
            <feBlend mode="normal" in="SourceGraphic" in2="BackgroundImageFix" result="shape"/>
            <feGaussianBlur stdDeviation="2.90076" result="effect1_foregroundBlur_20015_25985"/>
        </filter>
    </defs>
</svg>