<svg width="487" height="298" viewBox="0 0 487 298" fill="none" xmlns="http://www.w3.org/2000/svg">
    <rect width="487" height="298" rx="20" fill="white"/>
    <path d="M18.675 118.14C18.3183 118.14 17.9867 118.075 17.68 117.945C17.3733 117.812 17.1083 117.625 16.885 117.385C16.665 117.142 16.5033 116.853 16.4 116.52L17.255 116.275C17.365 116.608 17.5483 116.862 17.805 117.035C18.0617 117.208 18.35 117.293 18.67 117.29C18.9633 117.283 19.2167 117.217 19.43 117.09C19.6467 116.96 19.8133 116.783 19.93 116.56C20.05 116.337 20.11 116.078 20.11 115.785C20.11 115.338 19.9767 114.977 19.71 114.7C19.4433 114.42 19.0933 114.28 18.66 114.28C18.54 114.28 18.4133 114.297 18.28 114.33C18.15 114.363 18.0283 114.41 17.915 114.47L17.485 113.765L20.155 111.35L20.27 111.65H16.685V110.8H20.93V111.655L18.655 113.835L18.645 113.52C19.1217 113.487 19.5383 113.565 19.895 113.755C20.2517 113.945 20.5283 114.217 20.725 114.57C20.925 114.923 21.025 115.328 21.025 115.785C21.025 116.245 20.9217 116.652 20.715 117.005C20.5083 117.358 20.2283 117.637 19.875 117.84C19.5217 118.04 19.1217 118.14 18.675 118.14ZM24.755 118.15C24.2883 118.15 23.8717 118.045 23.505 117.835C23.1417 117.622 22.8533 117.333 22.64 116.97C22.43 116.603 22.325 116.187 22.325 115.72V113.08C22.325 112.613 22.43 112.197 22.64 111.83C22.8533 111.463 23.1417 111.175 23.505 110.965C23.8717 110.755 24.2883 110.65 24.755 110.65C25.2217 110.65 25.6383 110.755 26.005 110.965C26.3717 111.175 26.66 111.463 26.87 111.83C27.08 112.197 27.185 112.613 27.185 113.08V115.72C27.185 116.187 27.08 116.603 26.87 116.97C26.66 117.333 26.3717 117.622 26.005 117.835C25.6383 118.045 25.2217 118.15 24.755 118.15ZM24.755 117.295C25.0383 117.295 25.295 117.227 25.525 117.09C25.755 116.953 25.9383 116.77 26.075 116.54C26.2117 116.307 26.28 116.05 26.28 115.77V113.025C26.28 112.742 26.2117 112.485 26.075 112.255C25.9383 112.025 25.755 111.842 25.525 111.705C25.295 111.568 25.0383 111.5 24.755 111.5C24.475 111.5 24.2183 111.568 23.985 111.705C23.755 111.842 23.5717 112.025 23.435 112.255C23.2983 112.485 23.23 112.742 23.23 113.025V115.77C23.23 116.05 23.2983 116.307 23.435 116.54C23.5717 116.77 23.755 116.953 23.985 117.09C24.2183 117.227 24.475 117.295 24.755 117.295ZM31.0148 118.15C30.5481 118.15 30.1314 118.045 29.7648 117.835C29.4014 117.622 29.1131 117.333 28.8998 116.97C28.6898 116.603 28.5848 116.187 28.5848 115.72V113.08C28.5848 112.613 28.6898 112.197 28.8998 111.83C29.1131 111.463 29.4014 111.175 29.7648 110.965C30.1314 110.755 30.5481 110.65 31.0148 110.65C31.4814 110.65 31.8981 110.755 32.2648 110.965C32.6314 111.175 32.9198 111.463 33.1298 111.83C33.3398 112.197 33.4448 112.613 33.4448 113.08V115.72C33.4448 116.187 33.3398 116.603 33.1298 116.97C32.9198 117.333 32.6314 117.622 32.2648 117.835C31.8981 118.045 31.4814 118.15 31.0148 118.15ZM31.0148 117.295C31.2981 117.295 31.5548 117.227 31.7848 117.09C32.0148 116.953 32.1981 116.77 32.3348 116.54C32.4714 116.307 32.5398 116.05 32.5398 115.77V113.025C32.5398 112.742 32.4714 112.485 32.3348 112.255C32.1981 112.025 32.0148 111.842 31.7848 111.705C31.5548 111.568 31.2981 111.5 31.0148 111.5C30.7348 111.5 30.4781 111.568 30.2448 111.705C30.0148 111.842 29.8314 112.025 29.6948 112.255C29.5581 112.485 29.4898 112.742 29.4898 113.025V115.77C29.4898 116.05 29.5581 116.307 29.6948 116.54C29.8314 116.77 30.0148 116.953 30.2448 117.09C30.4781 117.227 30.7348 117.295 31.0148 117.295ZM34.8395 118L34.8445 112.6H35.7445V115.2L38.0095 112.6H39.1645L36.7795 115.3L39.4445 118H38.1995L35.7445 115.4V118H34.8395Z" fill="#9EA2B0"/>
    <path d="M16.5 167.995L16.505 167.195L19.7 164.32C19.9667 164.08 20.145 163.853 20.235 163.64C20.3283 163.423 20.375 163.202 20.375 162.975C20.375 162.698 20.3117 162.448 20.185 162.225C20.0583 162.002 19.885 161.825 19.665 161.695C19.4483 161.565 19.2017 161.5 18.925 161.5C18.6383 161.5 18.3833 161.568 18.16 161.705C17.9367 161.838 17.76 162.017 17.63 162.24C17.5033 162.463 17.4417 162.707 17.445 162.97H16.535C16.535 162.517 16.64 162.117 16.85 161.77C17.06 161.42 17.345 161.147 17.705 160.95C18.0683 160.75 18.48 160.65 18.94 160.65C19.3867 160.65 19.7867 160.753 20.14 160.96C20.4933 161.163 20.7717 161.442 20.975 161.795C21.1817 162.145 21.285 162.542 21.285 162.985C21.285 163.298 21.245 163.57 21.165 163.8C21.0883 164.03 20.9683 164.243 20.805 164.44C20.6417 164.633 20.4367 164.84 20.19 165.06L17.535 167.445L17.42 167.145H21.285V167.995H16.5ZM24.9113 168.15C24.4446 168.15 24.0279 168.045 23.6613 167.835C23.2979 167.622 23.0096 167.333 22.7963 166.97C22.5863 166.603 22.4813 166.187 22.4813 165.72V163.08C22.4813 162.613 22.5863 162.197 22.7963 161.83C23.0096 161.463 23.2979 161.175 23.6613 160.965C24.0279 160.755 24.4446 160.65 24.9113 160.65C25.3779 160.65 25.7946 160.755 26.1613 160.965C26.5279 161.175 26.8163 161.463 27.0263 161.83C27.2363 162.197 27.3413 162.613 27.3413 163.08V165.72C27.3413 166.187 27.2363 166.603 27.0263 166.97C26.8163 167.333 26.5279 167.622 26.1613 167.835C25.7946 168.045 25.3779 168.15 24.9113 168.15ZM24.9113 167.295C25.1946 167.295 25.4513 167.227 25.6813 167.09C25.9113 166.953 26.0946 166.77 26.2313 166.54C26.3679 166.307 26.4363 166.05 26.4363 165.77V163.025C26.4363 162.742 26.3679 162.485 26.2313 162.255C26.0946 162.025 25.9113 161.842 25.6813 161.705C25.4513 161.568 25.1946 161.5 24.9113 161.5C24.6313 161.5 24.3746 161.568 24.1413 161.705C23.9113 161.842 23.7279 162.025 23.5913 162.255C23.4546 162.485 23.3863 162.742 23.3863 163.025V165.77C23.3863 166.05 23.4546 166.307 23.5913 166.54C23.7279 166.77 23.9113 166.953 24.1413 167.09C24.3746 167.227 24.6313 167.295 24.9113 167.295ZM31.171 168.15C30.7043 168.15 30.2877 168.045 29.921 167.835C29.5577 167.622 29.2693 167.333 29.056 166.97C28.846 166.603 28.741 166.187 28.741 165.72V163.08C28.741 162.613 28.846 162.197 29.056 161.83C29.2693 161.463 29.5577 161.175 29.921 160.965C30.2877 160.755 30.7043 160.65 31.171 160.65C31.6377 160.65 32.0543 160.755 32.421 160.965C32.7877 161.175 33.076 161.463 33.286 161.83C33.496 162.197 33.601 162.613 33.601 163.08V165.72C33.601 166.187 33.496 166.603 33.286 166.97C33.076 167.333 32.7877 167.622 32.421 167.835C32.0543 168.045 31.6377 168.15 31.171 168.15ZM31.171 167.295C31.4543 167.295 31.711 167.227 31.941 167.09C32.171 166.953 32.3543 166.77 32.491 166.54C32.6277 166.307 32.696 166.05 32.696 165.77V163.025C32.696 162.742 32.6277 162.485 32.491 162.255C32.3543 162.025 32.171 161.842 31.941 161.705C31.711 161.568 31.4543 161.5 31.171 161.5C30.891 161.5 30.6343 161.568 30.401 161.705C30.171 161.842 29.9877 162.025 29.851 162.255C29.7143 162.485 29.646 162.742 29.646 163.025V165.77C29.646 166.05 29.7143 166.307 29.851 166.54C29.9877 166.77 30.171 166.953 30.401 167.09C30.6343 167.227 30.891 167.295 31.171 167.295ZM34.9958 168L35.0008 162.6H35.9008V165.2L38.1658 162.6H39.3208L36.9358 165.3L39.6008 168H38.3558L35.9008 165.4V168H34.9958Z" fill="#9EA2B0"/>
    <path d="M19.955 218V211.785L18.6 212.605V211.61L19.955 210.8H20.86V218H19.955ZM25.1925 218.15C24.7258 218.15 24.3092 218.045 23.9425 217.835C23.5792 217.622 23.2908 217.333 23.0775 216.97C22.8675 216.603 22.7625 216.187 22.7625 215.72V213.08C22.7625 212.613 22.8675 212.197 23.0775 211.83C23.2908 211.463 23.5792 211.175 23.9425 210.965C24.3092 210.755 24.7258 210.65 25.1925 210.65C25.6592 210.65 26.0758 210.755 26.4425 210.965C26.8092 211.175 27.0975 211.463 27.3075 211.83C27.5175 212.197 27.6225 212.613 27.6225 213.08V215.72C27.6225 216.187 27.5175 216.603 27.3075 216.97C27.0975 217.333 26.8092 217.622 26.4425 217.835C26.0758 218.045 25.6592 218.15 25.1925 218.15ZM25.1925 217.295C25.4758 217.295 25.7325 217.227 25.9625 217.09C26.1925 216.953 26.3758 216.77 26.5125 216.54C26.6492 216.307 26.7175 216.05 26.7175 215.77V213.025C26.7175 212.742 26.6492 212.485 26.5125 212.255C26.3758 212.025 26.1925 211.842 25.9625 211.705C25.7325 211.568 25.4758 211.5 25.1925 211.5C24.9125 211.5 24.6558 211.568 24.4225 211.705C24.1925 211.842 24.0092 212.025 23.8725 212.255C23.7358 212.485 23.6675 212.742 23.6675 213.025V215.77C23.6675 216.05 23.7358 216.307 23.8725 216.54C24.0092 216.77 24.1925 216.953 24.4225 217.09C24.6558 217.227 24.9125 217.295 25.1925 217.295ZM31.4523 218.15C30.9856 218.15 30.5689 218.045 30.2023 217.835C29.8389 217.622 29.5506 217.333 29.3373 216.97C29.1273 216.603 29.0223 216.187 29.0223 215.72V213.08C29.0223 212.613 29.1273 212.197 29.3373 211.83C29.5506 211.463 29.8389 211.175 30.2023 210.965C30.5689 210.755 30.9856 210.65 31.4523 210.65C31.9189 210.65 32.3356 210.755 32.7023 210.965C33.0689 211.175 33.3573 211.463 33.5673 211.83C33.7773 212.197 33.8823 212.613 33.8823 213.08V215.72C33.8823 216.187 33.7773 216.603 33.5673 216.97C33.3573 217.333 33.0689 217.622 32.7023 217.835C32.3356 218.045 31.9189 218.15 31.4523 218.15ZM31.4523 217.295C31.7356 217.295 31.9923 217.227 32.2223 217.09C32.4523 216.953 32.6356 216.77 32.7723 216.54C32.9089 216.307 32.9773 216.05 32.9773 215.77V213.025C32.9773 212.742 32.9089 212.485 32.7723 212.255C32.6356 212.025 32.4523 211.842 32.2223 211.705C31.9923 211.568 31.7356 211.5 31.4523 211.5C31.1723 211.5 30.9156 211.568 30.6823 211.705C30.4523 211.842 30.2689 212.025 30.1323 212.255C29.9956 212.485 29.9273 212.742 29.9273 213.025V215.77C29.9273 216.05 29.9956 216.307 30.1323 216.54C30.2689 216.77 30.4523 216.953 30.6823 217.09C30.9156 217.227 31.1723 217.295 31.4523 217.295ZM35.277 218L35.282 212.6H36.182V215.2L38.447 212.6H39.602L37.217 215.3L39.882 218H38.637L36.182 215.4V218H35.277Z" fill="#9EA2B0"/>
    <path d="M36.13 268.15C35.6633 268.15 35.2467 268.045 34.88 267.835C34.5167 267.622 34.2283 267.333 34.015 266.97C33.805 266.603 33.7 266.187 33.7 265.72V263.08C33.7 262.613 33.805 262.197 34.015 261.83C34.2283 261.463 34.5167 261.175 34.88 260.965C35.2467 260.755 35.6633 260.65 36.13 260.65C36.5967 260.65 37.0133 260.755 37.38 260.965C37.7467 261.175 38.035 261.463 38.245 261.83C38.455 262.197 38.56 262.613 38.56 263.08V265.72C38.56 266.187 38.455 266.603 38.245 266.97C38.035 267.333 37.7467 267.622 37.38 267.835C37.0133 268.045 36.5967 268.15 36.13 268.15ZM36.13 267.295C36.4133 267.295 36.67 267.227 36.9 267.09C37.13 266.953 37.3133 266.77 37.45 266.54C37.5867 266.307 37.655 266.05 37.655 265.77V263.025C37.655 262.742 37.5867 262.485 37.45 262.255C37.3133 262.025 37.13 261.842 36.9 261.705C36.67 261.568 36.4133 261.5 36.13 261.5C35.85 261.5 35.5933 261.568 35.36 261.705C35.13 261.842 34.9467 262.025 34.81 262.255C34.6733 262.485 34.605 262.742 34.605 263.025V265.77C34.605 266.05 34.6733 266.307 34.81 266.54C34.9467 266.77 35.13 266.953 35.36 267.09C35.5933 267.227 35.85 267.295 36.13 267.295Z" fill="#9EA2B0"/>
    <rect x="48" y="105" width="1" height="423" rx="0.5" transform="rotate(-90 48 105)" fill="#F5F6F9"/>
    <rect x="48" y="158" width="1" height="423" rx="0.5" transform="rotate(-90 48 158)" fill="#F5F6F9"/>
    <rect x="48" y="211" width="1" height="423" rx="0.5" transform="rotate(-90 48 211)" fill="#F5F6F9"/>
    <rect x="48" y="264" width="1" height="423" rx="0.5" transform="rotate(-90 48 264)" fill="#F5F6F9"/>
    <path d="M82 135C82 132.791 83.7909 131 86 131C88.2091 131 90 132.791 90 135V264H82V135Z" fill="#3B3C3C"/>
    <path d="M82 230C82 227.791 83.7909 226 86 226C88.2091 226 90 227.791 90 230V264H82V230Z" fill="#F62E46"/>
    <path d="M140 199C140 196.791 141.791 195 144 195C146.209 195 148 196.791 148 199V264H140V199Z" fill="#3B3C3C"/>
    <path d="M140.333 246C140.333 243.791 142.124 242 144.333 242C146.542 242 148.333 243.791 148.333 246V264H140.333V246Z" fill="#F62E46"/>
    <path d="M198.667 179C198.667 176.791 200.458 175 202.667 175C204.876 175 206.667 176.791 206.667 179V264H198.667V179Z" fill="#3B3C3C"/>
    <path d="M198.667 254C198.667 251.791 200.458 250 202.667 250C204.876 250 206.667 251.791 206.667 254V264H198.667V254Z" fill="#F62E46"/>
    <path d="M257 190C257 187.791 258.791 186 261 186C263.209 186 265 187.791 265 190V264H257V190Z" fill="#3B3C3C"/>
    <path d="M257 239C257 236.791 258.791 235 261 235C263.209 235 265 236.791 265 239V264H257V239Z" fill="#F62E46"/>
    <path d="M315 168C315 165.791 316.791 164 319 164C321.209 164 323 165.791 323 168V264H315V168Z" fill="#3B3C3C"/>
    <path d="M315.333 230C315.333 227.791 317.124 226 319.333 226C321.542 226 323.333 227.791 323.333 230V264H315.333V230Z" fill="#F62E46"/>
    <path d="M373.667 135C373.667 132.791 375.458 131 377.667 131C379.876 131 381.667 132.791 381.667 135V264H373.667V135Z" fill="#3B3C3C"/>
    <path d="M373.667 237C373.667 234.791 375.458 233 377.667 233C379.876 233 381.667 234.791 381.667 237V264H373.667V237Z" fill="#F62E46"/>
    <path d="M432 123C432 120.791 433.791 119 436 119C438.209 119 440 120.791 440 123V264H432V123Z" fill="#3B3C3C"/>
    <path d="M432 223C432 220.791 433.791 219 436 219C438.209 219 440 220.791 440 223V264H432V223Z" fill="#F62E46"/>
    <path d="M79.7 281V273.8H85.32V281H84.43V274.645H80.59V281H79.7ZM86.7165 281V275.6H87.6065V277.875H90.4465V275.6H91.3365V281H90.4465V278.72H87.6065V281H86.7165Z" fill="#9EA2B0"/>
    <path d="M138.7 281V273.8H141.505C141.935 273.8 142.302 273.888 142.605 274.065C142.912 274.242 143.145 274.475 143.305 274.765C143.468 275.052 143.55 275.362 143.55 275.695C143.55 276.085 143.45 276.427 143.25 276.72C143.05 277.013 142.78 277.215 142.44 277.325L142.43 277.08C142.893 277.203 143.253 277.43 143.51 277.76C143.767 278.09 143.895 278.483 143.895 278.94C143.895 279.36 143.808 279.723 143.635 280.03C143.465 280.337 143.218 280.575 142.895 280.745C142.575 280.915 142.195 281 141.755 281H138.7ZM139.6 280.15H141.585C141.852 280.15 142.09 280.102 142.3 280.005C142.51 279.905 142.675 279.765 142.795 279.585C142.918 279.405 142.98 279.188 142.98 278.935C142.98 278.692 142.925 278.473 142.815 278.28C142.708 278.087 142.557 277.933 142.36 277.82C142.167 277.703 141.942 277.645 141.685 277.645H139.6V280.15ZM139.6 276.805H141.495C141.708 276.805 141.9 276.76 142.07 276.67C142.243 276.577 142.38 276.447 142.48 276.28C142.583 276.113 142.635 275.918 142.635 275.695C142.635 275.385 142.53 275.132 142.32 274.935C142.11 274.738 141.835 274.64 141.495 274.64H139.6V276.805ZM146.321 281V276.41H144.441V275.6H149.091V276.41H147.211V281H146.321Z" fill="#9EA2B0"/>
    <path d="M198.66 281.15C197.943 281.15 197.335 280.992 196.835 280.675C196.335 280.358 195.953 279.918 195.69 279.355C195.43 278.792 195.3 278.14 195.3 277.4C195.3 276.66 195.43 276.008 195.69 275.445C195.953 274.882 196.335 274.442 196.835 274.125C197.335 273.808 197.943 273.65 198.66 273.65C199.493 273.65 200.178 273.862 200.715 274.285C201.255 274.708 201.627 275.278 201.83 275.995L200.925 276.235C200.778 275.698 200.517 275.275 200.14 274.965C199.763 274.655 199.27 274.5 198.66 274.5C198.123 274.5 197.677 274.622 197.32 274.865C196.963 275.108 196.695 275.448 196.515 275.885C196.335 276.318 196.243 276.823 196.24 277.4C196.237 277.973 196.325 278.478 196.505 278.915C196.685 279.348 196.955 279.688 197.315 279.935C197.675 280.178 198.123 280.3 198.66 280.3C199.27 280.3 199.763 280.145 200.14 279.835C200.517 279.522 200.778 279.098 200.925 278.565L201.83 278.805C201.627 279.518 201.255 280.088 200.715 280.515C200.178 280.938 199.493 281.15 198.66 281.15ZM205.407 281.15C204.9 281.15 204.473 281.025 204.127 280.775C203.78 280.522 203.517 280.18 203.337 279.75C203.16 279.317 203.072 278.832 203.072 278.295C203.072 277.752 203.16 277.265 203.337 276.835C203.517 276.405 203.78 276.067 204.127 275.82C204.477 275.573 204.905 275.45 205.412 275.45C205.912 275.45 206.342 275.575 206.702 275.825C207.065 276.072 207.343 276.41 207.537 276.84C207.73 277.27 207.827 277.755 207.827 278.295C207.827 278.835 207.73 279.32 207.537 279.75C207.343 280.18 207.065 280.522 206.702 280.775C206.342 281.025 205.91 281.15 205.407 281.15ZM202.922 283.4V275.6H203.717V279.575H203.817V283.4H202.922ZM205.297 280.335C205.653 280.335 205.948 280.245 206.182 280.065C206.415 279.885 206.59 279.642 206.707 279.335C206.823 279.025 206.882 278.678 206.882 278.295C206.882 277.915 206.823 277.572 206.707 277.265C206.593 276.958 206.417 276.715 206.177 276.535C205.94 276.355 205.638 276.265 205.272 276.265C204.922 276.265 204.632 276.352 204.402 276.525C204.172 276.695 204 276.933 203.887 277.24C203.773 277.543 203.717 277.895 203.717 278.295C203.717 278.688 203.772 279.04 203.882 279.35C203.995 279.657 204.168 279.898 204.402 280.075C204.635 280.248 204.933 280.335 205.297 280.335Z" fill="#9EA2B0"/>
    <path d="M258.97 281V277.68L259.17 277.995C258.953 278.158 258.677 278.29 258.34 278.39C258.007 278.487 257.637 278.535 257.23 278.535C256.613 278.535 256.12 278.418 255.75 278.185C255.38 277.952 255.112 277.632 254.945 277.225C254.782 276.815 254.7 276.345 254.7 275.815V273.8H255.6V275.52C255.6 275.823 255.625 276.107 255.675 276.37C255.728 276.63 255.82 276.858 255.95 277.055C256.08 277.252 256.26 277.405 256.49 277.515C256.72 277.622 257.012 277.675 257.365 277.675C257.792 277.675 258.157 277.608 258.46 277.475C258.767 277.342 258.988 277.198 259.125 277.045L258.97 277.64V273.8H259.865V281H258.97ZM262.693 281V276.41H260.813V275.6H265.463V276.41H263.583V281H262.693Z" fill="#9EA2B0"/>
    <path d="M311.7 281V273.8H317.32V281H316.43V274.645H312.59V281H311.7ZM320.151 281V276.41H318.271V275.6H322.921V276.41H321.041V281H320.151Z" fill="#9EA2B0"/>
    <path d="M372.66 281.15C371.943 281.15 371.335 280.992 370.835 280.675C370.335 280.358 369.953 279.918 369.69 279.355C369.43 278.792 369.3 278.14 369.3 277.4C369.3 276.66 369.43 276.008 369.69 275.445C369.953 274.882 370.335 274.442 370.835 274.125C371.335 273.808 371.943 273.65 372.66 273.65C373.493 273.65 374.178 273.862 374.715 274.285C375.255 274.708 375.627 275.278 375.83 275.995L374.925 276.235C374.778 275.698 374.517 275.275 374.14 274.965C373.763 274.655 373.27 274.5 372.66 274.5C372.123 274.5 371.677 274.622 371.32 274.865C370.963 275.108 370.695 275.448 370.515 275.885C370.335 276.318 370.243 276.823 370.24 277.4C370.237 277.973 370.325 278.478 370.505 278.915C370.685 279.348 370.955 279.688 371.315 279.935C371.675 280.178 372.123 280.3 372.66 280.3C373.27 280.3 373.763 280.145 374.14 279.835C374.517 279.522 374.778 279.098 374.925 278.565L375.83 278.805C375.627 279.518 375.255 280.088 374.715 280.515C374.178 280.938 373.493 281.15 372.66 281.15ZM379.122 281.155C378.612 281.152 378.177 281.042 377.817 280.825C377.457 280.605 377.177 280.283 376.977 279.86C376.777 279.437 376.665 278.918 376.642 278.305C376.628 278.022 376.632 277.71 376.652 277.37C376.675 277.03 376.712 276.703 376.762 276.39C376.815 276.077 376.882 275.818 376.962 275.615C377.052 275.372 377.178 275.147 377.342 274.94C377.508 274.73 377.695 274.557 377.902 274.42C378.112 274.277 378.347 274.165 378.607 274.085C378.867 274.005 379.138 273.943 379.422 273.9C379.708 273.853 379.995 273.813 380.282 273.78C380.568 273.743 380.842 273.7 381.102 273.65L381.192 274.45C381.008 274.49 380.792 274.525 380.542 274.555C380.292 274.582 380.032 274.613 379.762 274.65C379.495 274.687 379.238 274.738 378.992 274.805C378.748 274.868 378.538 274.957 378.362 275.07C378.102 275.227 377.902 275.462 377.762 275.775C377.625 276.085 377.542 276.433 377.512 276.82C377.718 276.5 377.987 276.265 378.317 276.115C378.647 275.965 378.998 275.89 379.372 275.89C379.855 275.89 380.272 276.003 380.622 276.23C380.972 276.453 381.24 276.762 381.427 277.155C381.617 277.548 381.712 277.997 381.712 278.5C381.712 279.033 381.605 279.5 381.392 279.9C381.178 280.3 380.877 280.61 380.487 280.83C380.1 281.05 379.645 281.158 379.122 281.155ZM379.177 280.31C379.7 280.31 380.097 280.148 380.367 279.825C380.637 279.498 380.772 279.065 380.772 278.525C380.772 277.972 380.632 277.537 380.352 277.22C380.072 276.9 379.678 276.74 379.172 276.74C378.658 276.74 378.265 276.9 377.992 277.22C377.722 277.537 377.587 277.972 377.587 278.525C377.587 279.082 377.723 279.518 377.997 279.835C378.27 280.152 378.663 280.31 379.177 280.31Z" fill="#9EA2B0"/>
    <path d="M428.7 281V273.8H431.505C431.935 273.8 432.302 273.888 432.605 274.065C432.912 274.242 433.145 274.475 433.305 274.765C433.468 275.052 433.55 275.362 433.55 275.695C433.55 276.085 433.45 276.427 433.25 276.72C433.05 277.013 432.78 277.215 432.44 277.325L432.43 277.08C432.893 277.203 433.253 277.43 433.51 277.76C433.767 278.09 433.895 278.483 433.895 278.94C433.895 279.36 433.808 279.723 433.635 280.03C433.465 280.337 433.218 280.575 432.895 280.745C432.575 280.915 432.195 281 431.755 281H428.7ZM429.6 280.15H431.585C431.852 280.15 432.09 280.102 432.3 280.005C432.51 279.905 432.675 279.765 432.795 279.585C432.918 279.405 432.98 279.188 432.98 278.935C432.98 278.692 432.925 278.473 432.815 278.28C432.708 278.087 432.557 277.933 432.36 277.82C432.167 277.703 431.942 277.645 431.685 277.645H429.6V280.15ZM429.6 276.805H431.495C431.708 276.805 431.9 276.76 432.07 276.67C432.243 276.577 432.38 276.447 432.48 276.28C432.583 276.113 432.635 275.918 432.635 275.695C432.635 275.385 432.53 275.132 432.32 274.935C432.11 274.738 431.835 274.64 431.495 274.64H429.6V276.805ZM437.166 281.15C436.62 281.15 436.155 281.028 435.771 280.785C435.391 280.538 435.101 280.2 434.901 279.77C434.701 279.34 434.598 278.85 434.591 278.3C434.598 277.737 434.703 277.242 434.906 276.815C435.113 276.385 435.408 276.05 435.791 275.81C436.175 275.57 436.636 275.45 437.176 275.45C437.746 275.45 438.236 275.59 438.646 275.87C439.06 276.15 439.336 276.533 439.476 277.02L438.596 277.285C438.483 276.972 438.298 276.728 438.041 276.555C437.788 276.382 437.496 276.295 437.166 276.295C436.796 276.295 436.491 276.382 436.251 276.555C436.011 276.725 435.833 276.962 435.716 277.265C435.6 277.565 435.54 277.91 435.536 278.3C435.543 278.9 435.681 279.385 435.951 279.755C436.225 280.122 436.63 280.305 437.166 280.305C437.52 280.305 437.813 280.225 438.046 280.065C438.28 279.902 438.456 279.667 438.576 279.36L439.476 279.595C439.29 280.098 438.998 280.483 438.601 280.75C438.205 281.017 437.726 281.15 437.166 281.15Z" fill="#9EA2B0"/>
    <rect x="20" y="65" width="8" height="8" rx="4" fill="#F62E46"/>
    <path d="M36.84 74V65.36H40.176C40.26 65.36 40.354 65.364 40.458 65.372C40.566 65.376 40.674 65.388 40.782 65.408C41.234 65.476 41.616 65.634 41.928 65.882C42.244 66.126 42.482 66.434 42.642 66.806C42.806 67.178 42.888 67.59 42.888 68.042C42.888 68.49 42.806 68.9 42.642 69.272C42.478 69.644 42.238 69.954 41.922 70.202C41.61 70.446 41.23 70.602 40.782 70.67C40.674 70.686 40.566 70.698 40.458 70.706C40.354 70.714 40.26 70.718 40.176 70.718H37.722V74H36.84ZM37.722 69.878H40.152C40.224 69.878 40.308 69.874 40.404 69.866C40.5 69.858 40.594 69.844 40.686 69.824C40.982 69.76 41.224 69.638 41.412 69.458C41.604 69.278 41.746 69.064 41.838 68.816C41.934 68.568 41.982 68.31 41.982 68.042C41.982 67.774 41.934 67.516 41.838 67.268C41.746 67.016 41.604 66.8 41.412 66.62C41.224 66.44 40.982 66.318 40.686 66.254C40.594 66.234 40.5 66.222 40.404 66.218C40.308 66.21 40.224 66.206 40.152 66.206H37.722V69.878ZM45.9362 74.18C45.4482 74.18 45.0382 74.092 44.7062 73.916C44.3782 73.74 44.1322 73.506 43.9682 73.214C43.8042 72.922 43.7222 72.604 43.7222 72.26C43.7222 71.908 43.7922 71.608 43.9322 71.36C44.0762 71.108 44.2702 70.902 44.5142 70.742C44.7622 70.582 45.0482 70.46 45.3722 70.376C45.7002 70.296 46.0622 70.226 46.4582 70.166C46.8582 70.102 47.2482 70.048 47.6282 70.004C48.0122 69.956 48.3482 69.91 48.6362 69.866L48.3242 70.058C48.3362 69.418 48.2122 68.944 47.9522 68.636C47.6922 68.328 47.2402 68.174 46.5962 68.174C46.1522 68.174 45.7762 68.274 45.4682 68.474C45.1642 68.674 44.9502 68.99 44.8262 69.422L43.9682 69.17C44.1162 68.59 44.4142 68.14 44.8622 67.82C45.3102 67.5 45.8922 67.34 46.6082 67.34C47.2002 67.34 47.7022 67.452 48.1142 67.676C48.5302 67.896 48.8242 68.216 48.9962 68.636C49.0762 68.824 49.1282 69.034 49.1522 69.266C49.1762 69.498 49.1882 69.734 49.1882 69.974V74H48.4022V72.374L48.6302 72.47C48.4102 73.026 48.0682 73.45 47.6042 73.742C47.1402 74.034 46.5842 74.18 45.9362 74.18ZM46.0382 73.418C46.4502 73.418 46.8102 73.344 47.1182 73.196C47.4262 73.048 47.6742 72.846 47.8622 72.59C48.0502 72.33 48.1722 72.038 48.2282 71.714C48.2762 71.506 48.3022 71.278 48.3062 71.03C48.3102 70.778 48.3122 70.59 48.3122 70.466L48.6482 70.64C48.3482 70.68 48.0222 70.72 47.6702 70.76C47.3222 70.8 46.9782 70.846 46.6382 70.898C46.3022 70.95 45.9982 71.012 45.7262 71.084C45.5422 71.136 45.3642 71.21 45.1922 71.306C45.0202 71.398 44.8782 71.522 44.7662 71.678C44.6582 71.834 44.6042 72.028 44.6042 72.26C44.6042 72.448 44.6502 72.63 44.7422 72.806C44.8382 72.982 44.9902 73.128 45.1982 73.244C45.4102 73.36 45.6902 73.418 46.0382 73.418ZM53.4382 74.18C52.7862 74.18 52.2342 74.034 51.7822 73.742C51.3302 73.45 50.9862 73.048 50.7502 72.536C50.5182 72.02 50.3982 71.428 50.3902 70.76C50.3982 70.08 50.5222 69.484 50.7622 68.972C51.0022 68.456 51.3482 68.056 51.8002 67.772C52.2522 67.484 52.8002 67.34 53.4442 67.34C54.1002 67.34 54.6702 67.5 55.1542 67.82C55.6422 68.14 55.9762 68.578 56.1562 69.134L55.2922 69.41C55.1402 69.022 54.8982 68.722 54.5662 68.51C54.2382 68.294 53.8622 68.186 53.4382 68.186C52.9622 68.186 52.5682 68.296 52.2562 68.516C51.9442 68.732 51.7122 69.034 51.5602 69.422C51.4082 69.81 51.3302 70.256 51.3262 70.76C51.3342 71.536 51.5142 72.16 51.8662 72.632C52.2182 73.1 52.7422 73.334 53.4382 73.334C53.8782 73.334 54.2522 73.234 54.5602 73.034C54.8722 72.83 55.1082 72.534 55.2682 72.146L56.1562 72.41C55.9162 72.986 55.5642 73.426 55.1002 73.73C54.6362 74.03 54.0822 74.18 53.4382 74.18ZM56.6747 74L59.2067 70.724L56.7287 67.52H57.7847L59.7227 70.046L61.6427 67.52H62.6987L60.2207 70.724L62.7587 74H61.6967L59.7227 71.402L57.7367 74H56.6747ZM66.1944 74.18C65.5504 74.18 65.0004 74.034 64.5444 73.742C64.0884 73.45 63.7384 73.046 63.4944 72.53C63.2504 72.014 63.1284 71.422 63.1284 70.754C63.1284 70.074 63.2524 69.478 63.5004 68.966C63.7484 68.454 64.1004 68.056 64.5564 67.772C65.0164 67.484 65.5624 67.34 66.1944 67.34C66.8424 67.34 67.3944 67.486 67.8504 67.778C68.3104 68.066 68.6604 68.468 68.9004 68.984C69.1444 69.496 69.2664 70.086 69.2664 70.754C69.2664 71.434 69.1444 72.032 68.9004 72.548C68.6564 73.06 68.3044 73.46 67.8444 73.748C67.3844 74.036 66.8344 74.18 66.1944 74.18ZM66.1944 73.334C66.9144 73.334 67.4504 73.096 67.8024 72.62C68.1544 72.14 68.3304 71.518 68.3304 70.754C68.3304 69.97 68.1524 69.346 67.7964 68.882C67.4444 68.418 66.9104 68.186 66.1944 68.186C65.7104 68.186 65.3104 68.296 64.9944 68.516C64.6824 68.732 64.4484 69.034 64.2924 69.422C64.1404 69.806 64.0644 70.25 64.0644 70.754C64.0644 71.534 64.2444 72.16 64.6044 72.632C64.9644 73.1 65.4944 73.334 66.1944 73.334ZM70.11 75.44V73.244C70.478 73.244 70.742 73.126 70.902 72.89C71.062 72.65 71.192 72.268 71.292 71.744C71.36 71.404 71.416 71.038 71.46 70.646C71.504 70.254 71.542 69.806 71.574 69.302C71.606 68.794 71.636 68.2 71.664 67.52H75.948V73.244H76.572V75.44H75.72V74H70.956V75.44H70.11ZM71.604 73.244H75.072V68.276H72.48C72.468 68.58 72.45 68.902 72.426 69.242C72.406 69.582 72.38 69.922 72.348 70.262C72.32 70.602 72.286 70.922 72.246 71.222C72.21 71.518 72.166 71.778 72.114 72.002C72.054 72.29 71.988 72.536 71.916 72.74C71.848 72.944 71.744 73.112 71.604 73.244ZM77.7796 74L77.7676 67.52H78.6556V69.962H79.7836C79.9716 69.962 80.1556 69.966 80.3356 69.974C80.5156 69.982 80.6776 69.998 80.8216 70.022C81.1416 70.086 81.4256 70.194 81.6736 70.346C81.9216 70.498 82.1176 70.708 82.2616 70.976C82.4056 71.24 82.4776 71.574 82.4776 71.978C82.4776 72.534 82.3336 72.972 82.0456 73.292C81.7576 73.612 81.3956 73.82 80.9596 73.916C80.7956 73.952 80.6176 73.976 80.4256 73.988C80.2336 73.996 80.0456 74 79.8616 74H77.7796ZM78.6556 73.244H79.8256C79.9576 73.244 80.1076 73.24 80.2756 73.232C80.4436 73.224 80.5916 73.202 80.7196 73.166C80.9356 73.106 81.1296 72.986 81.3016 72.806C81.4776 72.622 81.5656 72.346 81.5656 71.978C81.5656 71.614 81.4816 71.34 81.3136 71.156C81.1456 70.968 80.9216 70.844 80.6416 70.784C80.5136 70.756 80.3776 70.738 80.2336 70.73C80.0936 70.722 79.9576 70.718 79.8256 70.718H78.6556V73.244ZM83.2516 74V67.52H84.1336V74H83.2516Z" fill="#9EA2B0"/>
    <rect x="115" y="65" width="8" height="8" rx="4" fill="#3B3C3C"/>
    <path d="M131.438 75.44V73.154C131.774 73.154 132.044 73.07 132.248 72.902C132.452 72.73 132.608 72.502 132.716 72.218C132.824 71.934 132.906 71.616 132.962 71.264C133.018 70.908 133.066 70.548 133.106 70.184C133.162 69.652 133.206 69.138 133.238 68.642C133.274 68.146 133.304 67.632 133.328 67.1C133.356 66.568 133.388 65.986 133.424 65.354L138.752 65.36V73.154H139.37V75.44H138.494V74H132.32V75.44H131.438ZM133.124 73.154H137.87V66.206L134.246 66.2C134.222 66.688 134.198 67.16 134.174 67.616C134.15 68.072 134.122 68.532 134.09 68.996C134.058 69.46 134.016 69.944 133.964 70.448C133.92 70.908 133.868 71.31 133.808 71.654C133.748 71.998 133.664 72.292 133.556 72.536C133.452 72.78 133.308 72.986 133.124 73.154ZM143.394 74.18C142.75 74.18 142.2 74.034 141.744 73.742C141.288 73.45 140.938 73.046 140.694 72.53C140.45 72.014 140.328 71.422 140.328 70.754C140.328 70.074 140.452 69.478 140.7 68.966C140.948 68.454 141.3 68.056 141.756 67.772C142.216 67.484 142.762 67.34 143.394 67.34C144.042 67.34 144.594 67.486 145.05 67.778C145.51 68.066 145.86 68.468 146.1 68.984C146.344 69.496 146.466 70.086 146.466 70.754C146.466 71.434 146.344 72.032 146.1 72.548C145.856 73.06 145.504 73.46 145.044 73.748C144.584 74.036 144.034 74.18 143.394 74.18ZM143.394 73.334C144.114 73.334 144.65 73.096 145.002 72.62C145.354 72.14 145.53 71.518 145.53 70.754C145.53 69.97 145.352 69.346 144.996 68.882C144.644 68.418 144.11 68.186 143.394 68.186C142.91 68.186 142.51 68.296 142.194 68.516C141.882 68.732 141.648 69.034 141.492 69.422C141.34 69.806 141.264 70.25 141.264 70.754C141.264 71.534 141.444 72.16 141.804 72.632C142.164 73.1 142.694 73.334 143.394 73.334ZM146.952 74L149.484 70.724L147.006 67.52H148.062L150 70.046L151.92 67.52H152.976L150.498 70.724L153.036 74H151.974L150 71.402L148.014 74H146.952ZM156.472 74.18C155.828 74.18 155.278 74.034 154.822 73.742C154.366 73.45 154.016 73.046 153.772 72.53C153.528 72.014 153.406 71.422 153.406 70.754C153.406 70.074 153.53 69.478 153.778 68.966C154.026 68.454 154.378 68.056 154.834 67.772C155.294 67.484 155.84 67.34 156.472 67.34C157.12 67.34 157.672 67.486 158.128 67.778C158.588 68.066 158.938 68.468 159.178 68.984C159.422 69.496 159.544 70.086 159.544 70.754C159.544 71.434 159.422 72.032 159.178 72.548C158.934 73.06 158.582 73.46 158.122 73.748C157.662 74.036 157.112 74.18 156.472 74.18ZM156.472 73.334C157.192 73.334 157.728 73.096 158.08 72.62C158.432 72.14 158.608 71.518 158.608 70.754C158.608 69.97 158.43 69.346 158.074 68.882C157.722 68.418 157.188 68.186 156.472 68.186C155.988 68.186 155.588 68.296 155.272 68.516C154.96 68.732 154.726 69.034 154.57 69.422C154.418 69.806 154.342 70.25 154.342 70.754C154.342 71.534 154.522 72.16 154.882 72.632C155.242 73.1 155.772 73.334 156.472 73.334ZM160.387 75.44V73.244C160.755 73.244 161.019 73.126 161.179 72.89C161.339 72.65 161.469 72.268 161.569 71.744C161.637 71.404 161.693 71.038 161.737 70.646C161.781 70.254 161.819 69.806 161.851 69.302C161.883 68.794 161.913 68.2 161.941 67.52H166.225V73.244H166.849V75.44H165.997V74H161.233V75.44H160.387ZM161.881 73.244H165.349V68.276H162.757C162.745 68.58 162.727 68.902 162.703 69.242C162.683 69.582 162.657 69.922 162.625 70.262C162.597 70.602 162.563 70.922 162.523 71.222C162.487 71.518 162.443 71.778 162.391 72.002C162.331 72.29 162.265 72.536 162.193 72.74C162.125 72.944 162.021 73.112 161.881 73.244ZM168.057 74L168.045 67.52H168.933V69.962H170.061C170.249 69.962 170.433 69.966 170.613 69.974C170.793 69.982 170.955 69.998 171.099 70.022C171.419 70.086 171.703 70.194 171.951 70.346C172.199 70.498 172.395 70.708 172.539 70.976C172.683 71.24 172.755 71.574 172.755 71.978C172.755 72.534 172.611 72.972 172.323 73.292C172.035 73.612 171.673 73.82 171.237 73.916C171.073 73.952 170.895 73.976 170.703 73.988C170.511 73.996 170.323 74 170.139 74H168.057ZM168.933 73.244H170.103C170.235 73.244 170.385 73.24 170.553 73.232C170.721 73.224 170.869 73.202 170.997 73.166C171.213 73.106 171.407 72.986 171.579 72.806C171.755 72.622 171.843 72.346 171.843 71.978C171.843 71.614 171.759 71.34 171.591 71.156C171.423 70.968 171.199 70.844 170.919 70.784C170.791 70.756 170.655 70.738 170.511 70.73C170.371 70.722 170.235 70.718 170.103 70.718H168.933V73.244ZM173.529 74V67.52H174.411V74H173.529Z" fill="#9EA2B0"/>
    <path d="M21.856 34.24C20.7093 34.24 19.736 33.9867 18.936 33.48C18.136 32.9733 17.5253 32.2693 17.104 31.368C16.688 30.4667 16.48 29.424 16.48 28.24C16.48 27.056 16.688 26.0133 17.104 25.112C17.5253 24.2107 18.136 23.5067 18.936 23C19.736 22.4933 20.7093 22.24 21.856 22.24C23.008 22.24 23.984 22.4933 24.784 23C25.584 23.5067 26.192 24.2107 26.608 25.112C27.024 26.0133 27.232 27.056 27.232 28.24C27.232 29.424 27.024 30.4667 26.608 31.368C26.192 32.2693 25.584 32.9733 24.784 33.48C23.984 33.9867 23.008 34.24 21.856 34.24ZM21.856 32.88C22.7147 32.8853 23.4293 32.6933 24 32.304C24.576 31.9093 25.0053 31.3627 25.288 30.664C25.576 29.9653 25.72 29.1573 25.72 28.24C25.72 27.3173 25.576 26.5093 25.288 25.816C25.0053 25.1227 24.576 24.5813 24 24.192C23.4293 23.8027 22.7147 23.6053 21.856 23.6C20.9973 23.5947 20.2827 23.7867 19.712 24.176C19.1467 24.5653 18.72 25.1093 18.432 25.808C18.144 26.5067 17.9973 27.3173 17.992 28.24C17.9867 29.1573 18.128 29.9627 18.416 30.656C18.704 31.3493 19.1333 31.8933 19.704 32.288C20.28 32.6773 20.9973 32.8747 21.856 32.88ZM32.3508 34.248C31.5348 34.2427 30.8388 34.0667 30.2628 33.72C29.6868 33.368 29.2388 32.8533 28.9188 32.176C28.5988 31.4987 28.4201 30.6693 28.3828 29.688C28.3614 29.2347 28.3668 28.736 28.3988 28.192C28.4361 27.648 28.4948 27.1253 28.5748 26.624C28.6601 26.1227 28.7668 25.7093 28.8947 25.384C29.0388 24.9947 29.2414 24.6347 29.5028 24.304C29.7694 23.968 30.0681 23.6907 30.3988 23.472C30.7348 23.2427 31.1108 23.064 31.5268 22.936C31.9428 22.808 32.3774 22.7093 32.8308 22.64C33.2894 22.5653 33.7481 22.5013 34.2068 22.448C34.6654 22.3893 35.1028 22.32 35.5188 22.24L35.6628 23.52C35.3694 23.584 35.0228 23.64 34.6228 23.688C34.2228 23.7307 33.8068 23.7813 33.3748 23.84C32.9481 23.8987 32.5374 23.9813 32.1428 24.088C31.7534 24.1893 31.4174 24.3307 31.1348 24.512C30.7188 24.7627 30.3988 25.1387 30.1748 25.64C29.9561 26.136 29.8228 26.6933 29.7747 27.312C30.1054 26.8 30.5348 26.424 31.0628 26.184C31.5908 25.944 32.1534 25.824 32.7508 25.824C33.5241 25.824 34.1908 26.0053 34.7508 26.368C35.3108 26.7253 35.7401 27.2187 36.0388 27.848C36.3428 28.4773 36.4948 29.1947 36.4948 30C36.4948 30.8533 36.3241 31.6 35.9827 32.24C35.6414 32.88 35.1588 33.376 34.5348 33.728C33.9161 34.08 33.1881 34.2533 32.3508 34.248ZM32.4388 32.896C33.2761 32.896 33.9108 32.6373 34.3428 32.12C34.7748 31.5973 34.9908 30.904 34.9908 30.04C34.9908 29.1547 34.7668 28.4587 34.3188 27.952C33.8708 27.44 33.2414 27.184 32.4308 27.184C31.6094 27.184 30.9801 27.44 30.5428 27.952C30.1108 28.4587 29.8948 29.1547 29.8948 30.04C29.8948 30.9307 30.1134 31.6293 30.5508 32.136C30.9881 32.6427 31.6174 32.896 32.4388 32.896ZM47.9246 35.6V34H38.2526V25.36H39.6286V32.704H42.6046V25.36H43.9806V32.704H46.9486V25.36H48.3246V32.704H49.3486V35.6H47.9246ZM57.7076 25.36V34H56.3316V27.632L51.8036 34H50.6276V25.36H52.0036V31.64L56.5396 25.36H57.7076ZM63.6681 24.352C63.2681 24.352 62.9028 24.2533 62.5721 24.056C62.2415 23.8587 61.9775 23.5973 61.7801 23.272C61.5828 22.9413 61.4841 22.5733 61.4841 22.168H62.6361C62.6361 22.4507 62.7375 22.6933 62.9401 22.896C63.1428 23.0987 63.3855 23.2 63.6681 23.2C63.9561 23.2 64.1988 23.0987 64.3961 22.896C64.5988 22.6933 64.7001 22.4507 64.7001 22.168H65.8521C65.8521 22.5733 65.7535 22.9413 65.5561 23.272C65.3641 23.5973 65.1001 23.8587 64.7641 24.056C64.4335 24.2533 64.0681 24.352 63.6681 24.352ZM67.0201 25.36V34H65.6441V27.632L61.1161 34H59.9401V25.36H61.3161V31.64L65.8521 25.36H67.0201ZM76.1438 34.24C75.2851 34.24 74.5438 34.0453 73.9198 33.656C73.3011 33.2667 72.8238 32.728 72.4878 32.04C72.1518 31.352 71.9838 30.5627 71.9838 29.672C71.9838 28.7653 72.1544 27.9707 72.4958 27.288C72.8371 26.6053 73.3198 26.0747 73.9438 25.696C74.5678 25.312 75.3011 25.12 76.1438 25.12C77.0078 25.12 77.7518 25.3147 78.3758 25.704C78.9998 26.088 79.4771 26.624 79.8078 27.312C80.1438 27.9947 80.3118 28.7813 80.3118 29.672C80.3118 30.5733 80.1438 31.368 79.8078 32.056C79.4718 32.7387 78.9918 33.2747 78.3678 33.664C77.7438 34.048 77.0024 34.24 76.1438 34.24ZM76.1438 32.888C77.0398 32.888 77.7064 32.5893 78.1438 31.992C78.5811 31.3947 78.7998 30.6213 78.7998 29.672C78.7998 28.696 78.5784 27.92 78.1358 27.344C77.6931 26.7627 77.0291 26.472 76.1438 26.472C75.5411 26.472 75.0451 26.608 74.6558 26.88C74.2664 27.152 73.9758 27.528 73.7838 28.008C73.5918 28.488 73.4958 29.0427 73.4958 29.672C73.4958 30.6427 73.7198 31.4213 74.1678 32.008C74.6158 32.5947 75.2744 32.888 76.1438 32.888ZM85.5851 34.248C84.7691 34.2427 84.0731 34.0667 83.4971 33.72C82.9211 33.368 82.4731 32.8533 82.1531 32.176C81.8331 31.4987 81.6545 30.6693 81.6171 29.688C81.5958 29.2347 81.6011 28.736 81.6331 28.192C81.6705 27.648 81.7291 27.1253 81.8091 26.624C81.8945 26.1227 82.0011 25.7093 82.1291 25.384C82.2731 24.9947 82.4758 24.6347 82.7371 24.304C83.0038 23.968 83.3025 23.6907 83.6331 23.472C83.9691 23.2427 84.3451 23.064 84.7611 22.936C85.1771 22.808 85.6118 22.7093 86.0651 22.64C86.5238 22.5653 86.9825 22.5013 87.4411 22.448C87.8998 22.3893 88.3371 22.32 88.7531 22.24L88.8971 23.52C88.6038 23.584 88.2571 23.64 87.8571 23.688C87.4571 23.7307 87.0411 23.7813 86.6091 23.84C86.1825 23.8987 85.7718 23.9813 85.3771 24.088C84.9878 24.1893 84.6518 24.3307 84.3691 24.512C83.9531 24.7627 83.6331 25.1387 83.4091 25.64C83.1905 26.136 83.0571 26.6933 83.0091 27.312C83.3398 26.8 83.7691 26.424 84.2971 26.184C84.8251 25.944 85.3878 25.824 85.9851 25.824C86.7585 25.824 87.4251 26.0053 87.9851 26.368C88.5451 26.7253 88.9745 27.2187 89.2731 27.848C89.5771 28.4773 89.7291 29.1947 89.7291 30C89.7291 30.8533 89.5585 31.6 89.2171 32.24C88.8758 32.88 88.3931 33.376 87.7691 33.728C87.1505 34.08 86.4225 34.2533 85.5851 34.248ZM85.6731 32.896C86.5105 32.896 87.1451 32.6373 87.5771 32.12C88.0091 31.5973 88.2251 30.904 88.2251 30.04C88.2251 29.1547 88.0011 28.4587 87.5531 27.952C87.1051 27.44 86.4758 27.184 85.6651 27.184C84.8438 27.184 84.2145 27.44 83.7771 27.952C83.3451 28.4587 83.1291 29.1547 83.1291 30.04C83.1291 30.9307 83.3478 31.6293 83.7851 32.136C84.2225 32.6427 84.8518 32.896 85.6731 32.896ZM95.175 34.24C94.3163 34.24 93.575 34.0453 92.951 33.656C92.3323 33.2667 91.855 32.728 91.519 32.04C91.183 31.352 91.015 30.5627 91.015 29.672C91.015 28.7653 91.1857 27.9707 91.527 27.288C91.8683 26.6053 92.351 26.0747 92.975 25.696C93.599 25.312 94.3323 25.12 95.175 25.12C96.039 25.12 96.783 25.3147 97.407 25.704C98.031 26.088 98.5083 26.624 98.839 27.312C99.175 27.9947 99.343 28.7813 99.343 29.672C99.343 30.5733 99.175 31.368 98.839 32.056C98.503 32.7387 98.023 33.2747 97.399 33.664C96.775 34.048 96.0337 34.24 95.175 34.24ZM95.175 32.888C96.071 32.888 96.7377 32.5893 97.175 31.992C97.6123 31.3947 97.831 30.6213 97.831 29.672C97.831 28.696 97.6097 27.92 97.167 27.344C96.7243 26.7627 96.0603 26.472 95.175 26.472C94.5723 26.472 94.0763 26.608 93.687 26.88C93.2977 27.152 93.007 27.528 92.815 28.008C92.623 28.488 92.527 29.0427 92.527 29.672C92.527 30.6427 92.751 31.4213 93.199 32.008C93.647 32.5947 94.3057 32.888 95.175 32.888ZM105.072 34.24C104.262 34.24 103.579 34.04 103.024 33.64C102.47 33.2347 102.048 32.688 101.76 32C101.478 31.3067 101.336 30.5307 101.336 29.672C101.336 28.8027 101.478 28.024 101.76 27.336C102.048 26.648 102.47 26.1067 103.024 25.712C103.584 25.3173 104.27 25.12 105.08 25.12C105.88 25.12 106.568 25.32 107.144 25.72C107.726 26.1147 108.171 26.656 108.48 27.344C108.79 28.032 108.944 28.808 108.944 29.672C108.944 30.536 108.79 31.312 108.48 32C108.171 32.688 107.726 33.2347 107.144 33.64C106.568 34.04 105.878 34.24 105.072 34.24ZM101.096 37.84V25.36H102.368V31.72H102.528V37.84H101.096ZM104.896 32.936C105.467 32.936 105.939 32.792 106.312 32.504C106.686 32.216 106.966 31.8267 107.152 31.336C107.339 30.84 107.432 30.2853 107.432 29.672C107.432 29.064 107.339 28.5147 107.152 28.024C106.971 27.5333 106.688 27.144 106.304 26.856C105.926 26.568 105.443 26.424 104.856 26.424C104.296 26.424 103.832 26.5627 103.464 26.84C103.096 27.112 102.822 27.4933 102.64 27.984C102.459 28.4693 102.368 29.032 102.368 29.672C102.368 30.3013 102.456 30.864 102.632 31.36C102.814 31.8507 103.091 32.2373 103.464 32.52C103.838 32.7973 104.315 32.936 104.896 32.936ZM114.378 34.24C113.519 34.24 112.778 34.0453 112.154 33.656C111.535 33.2667 111.058 32.728 110.722 32.04C110.386 31.352 110.218 30.5627 110.218 29.672C110.218 28.7653 110.389 27.9707 110.73 27.288C111.071 26.6053 111.554 26.0747 112.178 25.696C112.802 25.312 113.535 25.12 114.378 25.12C115.242 25.12 115.986 25.3147 116.61 25.704C117.234 26.088 117.711 26.624 118.042 27.312C118.378 27.9947 118.546 28.7813 118.546 29.672C118.546 30.5733 118.378 31.368 118.042 32.056C117.706 32.7387 117.226 33.2747 116.602 33.664C115.978 34.048 115.237 34.24 114.378 34.24ZM114.378 32.888C115.274 32.888 115.941 32.5893 116.378 31.992C116.815 31.3947 117.034 30.6213 117.034 29.672C117.034 28.696 116.813 27.92 116.37 27.344C115.927 26.7627 115.263 26.472 114.378 26.472C113.775 26.472 113.279 26.608 112.89 26.88C112.501 27.152 112.21 27.528 112.018 28.008C111.826 28.488 111.73 29.0427 111.73 29.672C111.73 30.6427 111.954 31.4213 112.402 32.008C112.85 32.5947 113.509 32.888 114.378 32.888ZM122.408 34V26.656H119.4V25.36H126.84V26.656H123.832V34H122.408Z" fill="#0F1015"/>
    <rect x="312.5" y="16.5" width="158" height="37" rx="7.5" fill="white"/>
    <path d="M332.98 40V29.92H334.009V34.463H339.581V29.92H340.603V40H339.581V35.45H334.009V40H332.98ZM345.763 40.21C345.026 40.21 344.386 40.0467 343.845 39.72C343.308 39.3933 342.891 38.9337 342.592 38.341C342.293 37.7483 342.144 37.053 342.144 36.255C342.144 35.429 342.291 34.715 342.585 34.113C342.879 33.511 343.292 33.0467 343.824 32.72C344.361 32.3933 344.993 32.23 345.721 32.23C346.468 32.23 347.105 32.4027 347.632 32.748C348.159 33.0887 348.558 33.5787 348.829 34.218C349.1 34.8573 349.223 35.6203 349.2 36.507H348.15V36.143C348.131 35.163 347.919 34.4233 347.513 33.924C347.112 33.4247 346.524 33.175 345.749 33.175C344.937 33.175 344.314 33.4387 343.88 33.966C343.451 34.4933 343.236 35.2447 343.236 36.22C343.236 37.172 343.451 37.9117 343.88 38.439C344.314 38.9617 344.928 39.223 345.721 39.223C346.262 39.223 346.734 39.0993 347.135 38.852C347.541 38.6 347.861 38.2383 348.094 37.767L349.053 38.138C348.754 38.796 348.313 39.307 347.73 39.671C347.151 40.0303 346.496 40.21 345.763 40.21ZM342.872 36.507V35.646H348.647V36.507H342.872ZM350.193 41.68V39.118C350.623 39.118 350.931 38.9803 351.117 38.705C351.304 38.425 351.456 37.9793 351.572 37.368C351.652 36.9713 351.717 36.5443 351.768 36.087C351.82 35.6297 351.864 35.107 351.901 34.519C351.939 33.9263 351.974 33.2333 352.006 32.44H357.004V39.118H357.732V41.68H356.738V40H351.18V41.68H350.193ZM351.936 39.118H355.982V33.322H352.958C352.944 33.6767 352.923 34.0523 352.895 34.449C352.872 34.8457 352.842 35.2423 352.804 35.639C352.772 36.0357 352.732 36.409 352.685 36.759C352.643 37.1043 352.592 37.4077 352.531 37.669C352.461 38.005 352.384 38.292 352.3 38.53C352.221 38.768 352.1 38.964 351.936 39.118ZM362.333 40.21C361.596 40.21 360.957 40.0467 360.415 39.72C359.879 39.3933 359.461 38.9337 359.162 38.341C358.864 37.7483 358.714 37.053 358.714 36.255C358.714 35.429 358.861 34.715 359.155 34.113C359.449 33.511 359.862 33.0467 360.394 32.72C360.931 32.3933 361.563 32.23 362.291 32.23C363.038 32.23 363.675 32.4027 364.202 32.748C364.73 33.0887 365.129 33.5787 365.399 34.218C365.67 34.8573 365.794 35.6203 365.77 36.507H364.72V36.143C364.702 35.163 364.489 34.4233 364.083 33.924C363.682 33.4247 363.094 33.175 362.319 33.175C361.507 33.175 360.884 33.4387 360.45 33.966C360.021 34.4933 359.806 35.2447 359.806 36.22C359.806 37.172 360.021 37.9117 360.45 38.439C360.884 38.9617 361.498 39.223 362.291 39.223C362.833 39.223 363.304 39.0993 363.705 38.852C364.111 38.6 364.431 38.2383 364.664 37.767L365.623 38.138C365.325 38.796 364.884 39.307 364.3 39.671C363.722 40.0303 363.066 40.21 362.333 40.21ZM359.442 36.507V35.646H365.217V36.507H359.442ZM366.624 40V39.097C366.904 39.1483 367.116 39.1367 367.261 39.062C367.41 38.9827 367.52 38.852 367.59 38.67C367.66 38.4833 367.718 38.2523 367.765 37.977C367.839 37.5197 367.907 37.0157 367.968 36.465C368.028 35.9143 368.082 35.3077 368.129 34.645C368.18 33.9777 368.231 33.2427 368.283 32.44H373.421V40H372.399V33.427H369.235C369.202 33.9217 369.165 34.414 369.123 34.904C369.081 35.394 369.036 35.8653 368.99 36.318C368.948 36.766 368.901 37.179 368.85 37.557C368.798 37.935 368.745 38.2617 368.689 38.537C368.605 38.9523 368.493 39.2837 368.353 39.531C368.217 39.7783 368.014 39.9417 367.744 40.021C367.473 40.1003 367.1 40.0933 366.624 40ZM380.115 40V37.151H378.351C378.146 37.151 377.934 37.144 377.714 37.13C377.5 37.1113 377.299 37.0857 377.112 37.053C376.58 36.9503 376.128 36.717 375.754 36.353C375.386 35.9843 375.201 35.4757 375.201 34.827C375.201 34.1923 375.374 33.6837 375.719 33.301C376.065 32.9137 376.482 32.6617 376.972 32.545C377.196 32.4937 377.423 32.4633 377.651 32.454C377.885 32.4447 378.085 32.44 378.253 32.44H381.144L381.151 40H380.115ZM374.956 40L377.063 36.829H378.204L376.083 40H374.956ZM378.295 36.269H380.115V33.322H378.295C378.183 33.322 378.027 33.3267 377.826 33.336C377.626 33.3453 377.437 33.3757 377.259 33.427C377.105 33.4737 376.951 33.5553 376.797 33.672C376.648 33.784 376.522 33.9357 376.419 34.127C376.317 34.3137 376.265 34.5423 376.265 34.813C376.265 35.191 376.368 35.4943 376.573 35.723C376.783 35.947 377.045 36.101 377.357 36.185C377.525 36.2223 377.693 36.2457 377.861 36.255C378.029 36.2643 378.174 36.269 378.295 36.269Z" fill="#9EA2B0"/>
    <path d="M439.454 32.6911C439.063 32.3849 438.497 32.4541 438.191 32.8457C437.885 33.2372 437.954 33.8029 438.346 34.109L442.442 37.3123C442.768 37.5669 443.225 37.567 443.551 37.3125L447.651 34.1092C448.042 33.8032 448.112 33.2376 447.806 32.8459C447.5 32.4543 446.934 32.3848 446.543 32.6908L442.997 35.461L439.454 32.6911Z" fill="#9EA2B0"/>
    <rect x="312.5" y="16.5" width="158" height="37" rx="7.5" stroke="#F5F6F9"/>
</svg>