<svg width="72" height="164" viewBox="0 0 72 164" fill="none" xmlns="http://www.w3.org/2000/svg">
    <rect width="72" height="164" rx="12" fill="white"/>
    <rect x="21.5" y="14" width="8" height="108" rx="4" fill="url(#paint0_linear_20337_44843)"/>
    <path d="M40.1526 29V21.542L38.5266 22.526V21.332L40.1526 20.36H41.2386V29H40.1526ZM46.4376 29.18C45.8776 29.18 45.3776 29.054 44.9376 28.802C44.5016 28.546 44.1556 28.2 43.8996 27.764C43.6476 27.324 43.5216 26.824 43.5216 26.264V23.096C43.5216 22.536 43.6476 22.036 43.8996 21.596C44.1556 21.156 44.5016 20.81 44.9376 20.558C45.3776 20.306 45.8776 20.18 46.4376 20.18C46.9976 20.18 47.4976 20.306 47.9376 20.558C48.3776 20.81 48.7236 21.156 48.9756 21.596C49.2276 22.036 49.3536 22.536 49.3536 23.096V26.264C49.3536 26.824 49.2276 27.324 48.9756 27.764C48.7236 28.2 48.3776 28.546 47.9376 28.802C47.4976 29.054 46.9976 29.18 46.4376 29.18ZM46.4376 28.154C46.7776 28.154 47.0856 28.072 47.3616 27.908C47.6376 27.744 47.8576 27.524 48.0216 27.248C48.1856 26.968 48.2676 26.66 48.2676 26.324V23.03C48.2676 22.69 48.1856 22.382 48.0216 22.106C47.8576 21.83 47.6376 21.61 47.3616 21.446C47.0856 21.282 46.7776 21.2 46.4376 21.2C46.1016 21.2 45.7936 21.282 45.5136 21.446C45.2376 21.61 45.0176 21.83 44.8536 22.106C44.6896 22.382 44.6076 22.69 44.6076 23.03V26.324C44.6076 26.66 44.6896 26.968 44.8536 27.248C45.0176 27.524 45.2376 27.744 45.5136 27.908C45.7936 28.072 46.1016 28.154 46.4376 28.154Z" fill="#F62E46"/>
    <path d="M43.5 95.5C43.5 95.7761 43.7239 96 44 96C44.2761 96 44.5 95.7761 44.5 95.5H43.5ZM44.3536 40.1464C44.1583 39.9512 43.8417 39.9512 43.6464 40.1464L40.4645 43.3284C40.2692 43.5237 40.2692 43.8403 40.4645 44.0355C40.6597 44.2308 40.9763 44.2308 41.1716 44.0355L44 41.2071L46.8284 44.0355C47.0237 44.2308 47.3403 44.2308 47.5355 44.0355C47.7308 43.8403 47.7308 43.5237 47.5355 43.3284L44.3536 40.1464ZM44.5 95.5V40.5H43.5V95.5H44.5Z" fill="url(#paint1_linear_20337_44843)"/>
    <path d="M43.9085 117V109.542L42.2825 110.526V109.332L43.9085 108.36H44.9945V117H43.9085Z" fill="#5E5F5F"/>
    <path d="M18.6361 145.18C17.7761 145.18 17.0461 144.99 16.4461 144.61C15.8461 144.23 15.3881 143.702 15.0721 143.026C14.7601 142.35 14.6041 141.568 14.6041 140.68C14.6041 139.792 14.7601 139.01 15.0721 138.334C15.3881 137.658 15.8461 137.13 16.4461 136.75C17.0461 136.37 17.7761 136.18 18.6361 136.18C19.5001 136.18 20.2321 136.37 20.8321 136.75C21.4321 137.13 21.8881 137.658 22.2001 138.334C22.5121 139.01 22.6681 139.792 22.6681 140.68C22.6681 141.568 22.5121 142.35 22.2001 143.026C21.8881 143.702 21.4321 144.23 20.8321 144.61C20.2321 144.99 19.5001 145.18 18.6361 145.18ZM18.6361 144.16C19.2801 144.164 19.8161 144.02 20.2441 143.728C20.6761 143.432 20.9981 143.022 21.2101 142.498C21.4261 141.974 21.5341 141.368 21.5341 140.68C21.5341 139.988 21.4261 139.382 21.2101 138.862C20.9981 138.342 20.6761 137.936 20.2441 137.644C19.8161 137.352 19.2801 137.204 18.6361 137.2C17.9921 137.196 17.4561 137.34 17.0281 137.632C16.6041 137.924 16.2841 138.332 16.0681 138.856C15.8521 139.38 15.7421 139.988 15.7381 140.68C15.7341 141.368 15.8401 141.972 16.0561 142.492C16.2721 143.012 16.5941 143.42 17.0221 143.716C17.4541 144.008 17.9921 144.156 18.6361 144.16ZM29.3932 146.2V145H23.8672V138.52H24.9352V143.986H28.1092V138.52H29.1772V144.028H30.4612V146.2H29.3932ZM34.2281 145.18C33.5921 145.18 33.0361 145.04 32.5601 144.76C32.0881 144.476 31.7201 144.082 31.4561 143.578C31.1921 143.07 31.0601 142.478 31.0601 141.802C31.0601 141.094 31.1901 140.482 31.4501 139.966C31.7101 139.446 32.0721 139.046 32.5361 138.766C33.0041 138.482 33.5521 138.34 34.1801 138.34C34.8321 138.34 35.3861 138.49 35.8421 138.79C36.3021 139.09 36.6461 139.518 36.8741 140.074C37.1061 140.63 37.2061 141.292 37.1741 142.06H36.0941V141.676C36.0821 140.88 35.9201 140.286 35.6081 139.894C35.2961 139.498 34.8321 139.3 34.2161 139.3C33.5561 139.3 33.0541 139.512 32.7101 139.936C32.3661 140.36 32.1941 140.968 32.1941 141.76C32.1941 142.524 32.3661 143.116 32.7101 143.536C33.0541 143.956 33.5441 144.166 34.1801 144.166C34.6081 144.166 34.9801 144.068 35.2961 143.872C35.6121 143.676 35.8601 143.394 36.0401 143.026L37.0661 143.38C36.8141 143.952 36.4341 144.396 35.9261 144.712C35.4221 145.024 34.8561 145.18 34.2281 145.18ZM31.8341 142.06V141.202H36.6221V142.06H31.8341ZM38.5039 145V138.52H39.5719V141.25H42.9799V138.52H44.0479V145H42.9799V142.264H39.5719V145H38.5039ZM45.7227 145L45.7287 138.52H46.8087V141.64L49.5267 138.52H50.9127L48.0507 141.76L51.2487 145H49.7547L46.8087 141.88V145H45.7227ZM53.6879 145.18C53.2039 145.18 52.7979 145.092 52.4699 144.916C52.1459 144.736 51.8999 144.5 51.7319 144.208C51.5679 143.916 51.4859 143.596 51.4859 143.248C51.4859 142.908 51.5499 142.614 51.6779 142.366C51.8099 142.114 51.9939 141.906 52.2299 141.742C52.4659 141.574 52.7479 141.442 53.0759 141.346C53.3839 141.262 53.7279 141.19 54.1079 141.13C54.4919 141.066 54.8799 141.008 55.2719 140.956C55.6639 140.904 56.0299 140.854 56.3699 140.806L55.9859 141.028C55.9979 140.452 55.8819 140.026 55.6379 139.75C55.3979 139.474 54.9819 139.336 54.3899 139.336C53.9979 139.336 53.6539 139.426 53.3579 139.606C53.0659 139.782 52.8599 140.07 52.7399 140.47L51.7259 140.164C51.8819 139.596 52.1839 139.15 52.6319 138.826C53.0799 138.502 53.6699 138.34 54.4019 138.34C54.9899 138.34 55.4939 138.446 55.9139 138.658C56.3379 138.866 56.6419 139.182 56.8259 139.606C56.9179 139.806 56.9759 140.024 56.9999 140.26C57.0239 140.492 57.0359 140.736 57.0359 140.992V145H56.0879V143.446L56.3099 143.59C56.0659 144.114 55.7239 144.51 55.2839 144.778C54.8479 145.046 54.3159 145.18 53.6879 145.18ZM53.8499 144.286C54.2339 144.286 54.5659 144.218 54.8459 144.082C55.1299 143.942 55.3579 143.76 55.5299 143.536C55.7019 143.308 55.8139 143.06 55.8659 142.792C55.9259 142.592 55.9579 142.37 55.9619 142.126C55.9699 141.878 55.9739 141.688 55.9739 141.556L56.3459 141.718C55.9979 141.766 55.6559 141.812 55.3199 141.856C54.9839 141.9 54.6659 141.948 54.3659 142C54.0659 142.048 53.7959 142.106 53.5559 142.174C53.3799 142.23 53.2139 142.302 53.0579 142.39C52.9059 142.478 52.7819 142.592 52.6859 142.732C52.5939 142.868 52.5479 143.038 52.5479 143.242C52.5479 143.418 52.5919 143.586 52.6799 143.746C52.7719 143.906 52.9119 144.036 53.0999 144.136C53.2919 144.236 53.5419 144.286 53.8499 144.286Z" fill="#3B3C3C"/>
    <defs>
        <linearGradient id="paint0_linear_20337_44843" x1="25.5" y1="14" x2="25.5" y2="122" gradientUnits="userSpaceOnUse">
            <stop stop-color="#FD1A41"/>
            <stop offset="0.135417" stop-color="#FF3B59" stop-opacity="0.72"/>
            <stop offset="0.276042" stop-color="#FF567A" stop-opacity="0.63"/>
            <stop offset="0.411458" stop-color="#FF778B" stop-opacity="0.81"/>
            <stop offset="0.5625" stop-color="#FFA7B6" stop-opacity="0.82"/>
            <stop offset="0.71875" stop-color="#BEB9B9" stop-opacity="0.74"/>
            <stop offset="0.854167" stop-color="#9B9898" stop-opacity="0.74"/>
            <stop offset="1" stop-color="#505050" stop-opacity="0.74"/>
        </linearGradient>
        <linearGradient id="paint1_linear_20337_44843" x1="44.5" y1="41.5" x2="44.5" y2="86.5" gradientUnits="userSpaceOnUse">
            <stop stop-color="#FD1A41"/>
            <stop offset="0.135417" stop-color="#FF3B59" stop-opacity="0.72"/>
            <stop offset="0.276042" stop-color="#FF567A" stop-opacity="0.63"/>
            <stop offset="0.411458" stop-color="#FF778B" stop-opacity="0.81"/>
            <stop offset="0.5625" stop-color="#FFA7B6" stop-opacity="0.82"/>
            <stop offset="0.71875" stop-color="#BEB9B9" stop-opacity="0.74"/>
            <stop offset="0.854167" stop-color="#9B9898" stop-opacity="0.74"/>
            <stop offset="1" stop-color="#505050" stop-opacity="0.74"/>
        </linearGradient>
    </defs>
</svg>