<svg width="459" height="142" viewBox="0 0 459 142" fill="none" xmlns="http://www.w3.org/2000/svg">
    <rect x="0.5" y="0.5" width="458" height="141" rx="19.5" fill="white"/>
    <path d="M18.466 30.994L19.162 28.396H16.72L16.942 27.55H19.39L19.9 25.624H17.458L17.686 24.778H20.134L20.776 22.36H21.658L21.004 24.778H23.014L23.656 22.36H24.538L23.884 24.778H26.326L26.098 25.624H23.662L23.14 27.55H25.582L25.354 28.396H22.918L22.222 30.994H21.346L22.036 28.396H20.038L19.342 30.994H18.466ZM20.266 27.55H22.27L22.78 25.624H20.782L20.266 27.55ZM29.3968 31V23.344L27.7708 24.322V23.332L29.3968 22.36H30.2908V31H29.3968ZM35.4106 22.186C35.9546 22.186 36.4466 22.318 36.8866 22.582C37.3306 22.842 37.6826 23.198 37.9426 23.65C38.2026 24.098 38.3326 24.602 38.3326 25.162V28.162C38.3326 28.738 38.2026 29.254 37.9426 29.71C37.6826 30.166 37.3266 30.526 36.8746 30.79C36.4266 31.05 35.9166 31.18 35.3446 31.18C34.8526 31.18 34.3966 31.072 33.9766 30.856C33.5606 30.636 33.2166 30.334 32.9446 29.95L33.6166 29.392C33.8006 29.676 34.0446 29.904 34.3486 30.076C34.6566 30.248 34.9886 30.334 35.3446 30.334C35.7526 30.334 36.1126 30.238 36.4246 30.046C36.7406 29.85 36.9886 29.594 37.1686 29.278C37.3526 28.958 37.4446 28.612 37.4446 28.24V26.356L37.6606 26.608C37.4126 27.004 37.0826 27.324 36.6706 27.568C36.2626 27.812 35.8146 27.934 35.3266 27.934C34.7946 27.934 34.3126 27.806 33.8806 27.55C33.4526 27.294 33.1126 26.95 32.8606 26.518C32.6126 26.086 32.4886 25.604 32.4886 25.072C32.4886 24.54 32.6206 24.056 32.8846 23.62C33.1486 23.18 33.5026 22.832 33.9466 22.576C34.3906 22.316 34.8786 22.186 35.4106 22.186ZM35.4106 23.038C35.0346 23.038 34.6926 23.13 34.3846 23.314C34.0766 23.494 33.8306 23.738 33.6466 24.046C33.4666 24.354 33.3766 24.696 33.3766 25.072C33.3766 25.448 33.4666 25.79 33.6466 26.098C33.8266 26.406 34.0706 26.652 34.3786 26.836C34.6866 27.016 35.0286 27.106 35.4046 27.106C35.7806 27.106 36.1226 27.016 36.4306 26.836C36.7426 26.652 36.9886 26.406 37.1686 26.098C37.3526 25.79 37.4446 25.448 37.4446 25.072C37.4446 24.7 37.3526 24.36 37.1686 24.052C36.9886 23.744 36.7446 23.498 36.4366 23.314C36.1286 23.13 35.7866 23.038 35.4106 23.038ZM39.768 30.994L39.774 30.19L43.68 26.662C44.016 26.358 44.238 26.07 44.346 25.798C44.458 25.522 44.514 25.234 44.514 24.934C44.514 24.578 44.43 24.256 44.262 23.968C44.094 23.68 43.868 23.452 43.584 23.284C43.3 23.112 42.982 23.026 42.63 23.026C42.262 23.026 41.934 23.114 41.646 23.29C41.358 23.466 41.13 23.698 40.962 23.986C40.798 24.274 40.718 24.588 40.722 24.928H39.822C39.822 24.404 39.946 23.934 40.194 23.518C40.442 23.102 40.778 22.776 41.202 22.54C41.626 22.3 42.106 22.18 42.642 22.18C43.166 22.18 43.636 22.304 44.052 22.552C44.472 22.796 44.802 23.128 45.042 23.548C45.286 23.964 45.408 24.428 45.408 24.94C45.408 25.3 45.364 25.618 45.276 25.894C45.192 26.166 45.058 26.42 44.874 26.656C44.694 26.888 44.464 27.128 44.184 27.376L40.716 30.508L40.578 30.148H45.408V30.994H39.768ZM47.3137 31L50.4937 23.218H46.4917V22.36H51.4357V23.218L48.2617 31H47.3137ZM55.7972 31.18C55.2572 31.18 54.7652 31.05 54.3212 30.79C53.8812 30.526 53.5292 30.17 53.2652 29.722C53.0052 29.27 52.8752 28.762 52.8752 28.198V25.204C52.8752 24.624 53.0052 24.108 53.2652 23.656C53.5252 23.2 53.8792 22.842 54.3272 22.582C54.7792 22.318 55.2912 22.186 55.8632 22.186C56.3552 22.186 56.8112 22.294 57.2312 22.51C57.6552 22.726 58.0012 23.028 58.2692 23.416L57.5912 23.974C57.4072 23.686 57.1632 23.456 56.8592 23.284C56.5552 23.112 56.2232 23.026 55.8632 23.026C55.4592 23.026 55.0992 23.124 54.7832 23.32C54.4672 23.516 54.2192 23.774 54.0392 24.094C53.8592 24.41 53.7692 24.754 53.7692 25.126V27.01L53.5472 26.758C53.7992 26.362 54.1292 26.042 54.5372 25.798C54.9492 25.554 55.3972 25.432 55.8812 25.432C56.4172 25.432 56.8992 25.56 57.3272 25.816C57.7552 26.068 58.0952 26.41 58.3472 26.842C58.5992 27.274 58.7252 27.758 58.7252 28.294C58.7252 28.826 58.5912 29.31 58.3232 29.746C58.0592 30.182 57.7052 30.53 57.2612 30.79C56.8212 31.05 56.3332 31.18 55.7972 31.18ZM55.7972 30.322C56.1732 30.322 56.5152 30.232 56.8232 30.052C57.1352 29.872 57.3812 29.628 57.5612 29.32C57.7452 29.012 57.8372 28.67 57.8372 28.294C57.8372 27.918 57.7452 27.576 57.5612 27.268C57.3812 26.956 57.1372 26.71 56.8292 26.53C56.5212 26.346 56.1792 26.254 55.8032 26.254C55.4272 26.254 55.0852 26.346 54.7772 26.53C54.4692 26.71 54.2232 26.956 54.0392 27.268C53.8592 27.576 53.7692 27.918 53.7692 28.294C53.7692 28.666 53.8592 29.006 54.0392 29.314C54.2192 29.622 54.4632 29.868 54.7712 30.052C55.0792 30.232 55.4212 30.322 55.7972 30.322ZM64.1206 31V29.326H60.0766V28.486L62.9686 22.36H63.9586L61.0666 28.486H64.1206V25.966H65.0086V28.486H65.9506V29.326H65.0086V31H64.1206ZM70.1215 22.186C70.6655 22.186 71.1575 22.318 71.5975 22.582C72.0415 22.842 72.3935 23.198 72.6535 23.65C72.9135 24.098 73.0435 24.602 73.0435 25.162V28.162C73.0435 28.738 72.9135 29.254 72.6535 29.71C72.3935 30.166 72.0375 30.526 71.5855 30.79C71.1375 31.05 70.6275 31.18 70.0555 31.18C69.5635 31.18 69.1075 31.072 68.6875 30.856C68.2715 30.636 67.9275 30.334 67.6555 29.95L68.3275 29.392C68.5115 29.676 68.7555 29.904 69.0595 30.076C69.3675 30.248 69.6995 30.334 70.0555 30.334C70.4635 30.334 70.8235 30.238 71.1355 30.046C71.4515 29.85 71.6995 29.594 71.8795 29.278C72.0635 28.958 72.1555 28.612 72.1555 28.24V26.356L72.3715 26.608C72.1235 27.004 71.7935 27.324 71.3815 27.568C70.9735 27.812 70.5255 27.934 70.0375 27.934C69.5055 27.934 69.0235 27.806 68.5915 27.55C68.1635 27.294 67.8235 26.95 67.5715 26.518C67.3235 26.086 67.1995 25.604 67.1995 25.072C67.1995 24.54 67.3315 24.056 67.5955 23.62C67.8595 23.18 68.2135 22.832 68.6575 22.576C69.1015 22.316 69.5895 22.186 70.1215 22.186ZM70.1215 23.038C69.7455 23.038 69.4035 23.13 69.0955 23.314C68.7875 23.494 68.5415 23.738 68.3575 24.046C68.1775 24.354 68.0875 24.696 68.0875 25.072C68.0875 25.448 68.1775 25.79 68.3575 26.098C68.5375 26.406 68.7815 26.652 69.0895 26.836C69.3975 27.016 69.7395 27.106 70.1155 27.106C70.4915 27.106 70.8335 27.016 71.1415 26.836C71.4535 26.652 71.6995 26.406 71.8795 26.098C72.0635 25.79 72.1555 25.448 72.1555 25.072C72.1555 24.7 72.0635 24.36 71.8795 24.052C71.6995 23.744 71.4555 23.498 71.1475 23.314C70.8395 23.13 70.4975 23.038 70.1215 23.038ZM76.2249 31V23.344L74.5989 24.322V23.332L76.2249 22.36H77.1189V31H76.2249ZM80.9007 31V23.344L79.2747 24.322V23.332L80.9007 22.36H81.7947V31H80.9007ZM83.8305 30.994L83.8365 30.19L87.7425 26.662C88.0785 26.358 88.3005 26.07 88.4085 25.798C88.5205 25.522 88.5765 25.234 88.5765 24.934C88.5765 24.578 88.4925 24.256 88.3245 23.968C88.1565 23.68 87.9305 23.452 87.6465 23.284C87.3625 23.112 87.0445 23.026 86.6925 23.026C86.3245 23.026 85.9965 23.114 85.7085 23.29C85.4205 23.466 85.1925 23.698 85.0245 23.986C84.8605 24.274 84.7805 24.588 84.7845 24.928H83.8845C83.8845 24.404 84.0085 23.934 84.2565 23.518C84.5045 23.102 84.8405 22.776 85.2645 22.54C85.6885 22.3 86.1685 22.18 86.7045 22.18C87.2285 22.18 87.6985 22.304 88.1145 22.552C88.5345 22.796 88.8645 23.128 89.1045 23.548C89.3485 23.964 89.4705 24.428 89.4705 24.94C89.4705 25.3 89.4265 25.618 89.3385 25.894C89.2545 26.166 89.1205 26.42 88.9365 26.656C88.7565 26.888 88.5265 27.128 88.2465 27.376L84.7785 30.508L84.6405 30.148H89.4705V30.994H83.8305Z" fill="#0F1015"/>
    <rect x="16" y="45" width="36" height="36" rx="12" fill="#F5F6F9"/>
    <path fill-rule="evenodd" clip-rule="evenodd" d="M33.9999 60.7142C33.9999 60.3986 33.7441 60.1428 33.4285 60.1428C33.1129 60.1428 32.8571 60.3986 32.8571 60.7142V61.8571H31.7142C31.3986 61.8571 31.1428 62.1129 31.1428 62.4285C31.1428 62.7441 31.3986 62.9999 31.7142 62.9999H32.8571V64.1428C32.8571 64.4584 33.1129 64.7142 33.4285 64.7142C33.7441 64.7142 33.9999 64.4584 33.9999 64.1428V62.9999H35.1428C35.4584 62.9999 35.7142 62.7441 35.7142 62.4285C35.7142 62.1129 35.4584 61.8571 35.1428 61.8571H33.9999V60.7142Z" fill="#555D74"/>
    <path fill-rule="evenodd" clip-rule="evenodd" d="M33.4285 57.2856C30.5882 57.2856 28.2856 59.5882 28.2856 62.4285C28.2856 65.2688 30.5882 67.5714 33.4285 67.5714C34.6428 67.5714 35.7588 67.1505 36.6386 66.4467L39.3102 69.1183C39.5333 69.3414 39.8951 69.3414 40.1183 69.1183C40.3414 68.8951 40.3414 68.5333 40.1183 68.3102L37.4467 65.6386C38.1505 64.7588 38.5714 63.6428 38.5714 62.4285C38.5714 59.5882 36.2688 57.2856 33.4285 57.2856ZM33.4285 58.4285C31.2194 58.4285 29.4285 60.2194 29.4285 62.4285C29.4285 64.6376 31.2194 66.4285 33.4285 66.4285C35.6376 66.4285 37.4285 64.6376 37.4285 62.4285C37.4285 60.2194 35.6376 58.4285 33.4285 58.4285Z" fill="#555D74"/>
    <path d="M62.555 57V50.645H60.1V49.8H65.9V50.645H63.445V57H62.555ZM67.528 57.15C67.1246 57.15 66.7863 57.0767 66.513 56.93C66.243 56.78 66.038 56.5833 65.898 56.34C65.7613 56.0967 65.693 55.83 65.693 55.54C65.693 55.2567 65.7463 55.0117 65.853 54.805C65.963 54.595 66.1163 54.4217 66.313 54.285C66.5096 54.145 66.7446 54.035 67.018 53.955C67.2746 53.885 67.5613 53.825 67.878 53.775C68.198 53.7217 68.5213 53.6733 68.848 53.63C69.1746 53.5867 69.4796 53.545 69.763 53.505L69.443 53.69C69.453 53.21 69.3563 52.855 69.153 52.625C68.953 52.395 68.6063 52.28 68.113 52.28C67.7863 52.28 67.4996 52.355 67.253 52.505C67.0096 52.6517 66.838 52.8917 66.738 53.225L65.893 52.97C66.023 52.4967 66.2746 52.125 66.648 51.855C67.0213 51.585 67.513 51.45 68.123 51.45C68.613 51.45 69.033 51.5383 69.383 51.715C69.7363 51.8883 69.9896 52.1517 70.143 52.505C70.2196 52.6717 70.268 52.8533 70.288 53.05C70.308 53.2433 70.318 53.4467 70.318 53.66V57H69.528V55.705L69.713 55.825C69.5096 56.2617 69.2246 56.5917 68.858 56.815C68.4946 57.0383 68.0513 57.15 67.528 57.15ZM67.663 56.405C67.983 56.405 68.2596 56.3483 68.493 56.235C68.7296 56.1183 68.9196 55.9667 69.063 55.78C69.2063 55.59 69.2996 55.3833 69.343 55.16C69.393 54.9933 69.4196 54.8083 69.423 54.605C69.4296 54.3983 69.433 54.24 69.433 54.13L69.743 54.265C69.453 54.305 69.168 54.3433 68.888 54.38C68.608 54.4167 68.343 54.4567 68.093 54.5C67.843 54.54 67.618 54.5883 67.418 54.645C67.2713 54.6917 67.133 54.7517 67.003 54.825C66.8763 54.8983 66.773 54.9933 66.693 55.11C66.6163 55.2233 66.578 55.365 66.578 55.535C66.578 55.6817 66.6146 55.8217 66.688 55.955C66.7646 56.0883 66.8813 56.1967 67.038 56.28C67.198 56.3633 67.4063 56.405 67.663 56.405ZM71.613 57V51.6H72.473V56.19H74.333V51.6H75.193V56.19H77.048V51.6H77.908V57H71.613ZM79.2985 57L79.3035 51.6H80.2035V54.2L82.4685 51.6H83.6235L81.2385 54.3L83.9035 57H82.6585L80.2035 54.4V57H79.2985ZM86.5459 57.15C86.0159 57.15 85.5525 57.0333 85.1559 56.8C84.7625 56.5633 84.4559 56.235 84.2359 55.815C84.0159 55.3917 83.9059 54.8983 83.9059 54.335C83.9059 53.745 84.0142 53.235 84.2309 52.805C84.4475 52.3717 84.7492 52.0383 85.1359 51.805C85.5259 51.5683 85.9825 51.45 86.5059 51.45C87.0492 51.45 87.5109 51.575 87.8909 51.825C88.2742 52.075 88.5609 52.4317 88.7509 52.895C88.9442 53.3583 89.0275 53.91 89.0009 54.55H88.1009V54.23C88.0909 53.5667 87.9559 53.0717 87.6959 52.745C87.4359 52.415 87.0492 52.25 86.5359 52.25C85.9859 52.25 85.5675 52.4267 85.2809 52.78C84.9942 53.1333 84.8509 53.64 84.8509 54.3C84.8509 54.9367 84.9942 55.43 85.2809 55.78C85.5675 56.13 85.9759 56.305 86.5059 56.305C86.8625 56.305 87.1725 56.2233 87.4359 56.06C87.6992 55.8967 87.9059 55.6617 88.0559 55.355L88.9109 55.65C88.7009 56.1267 88.3842 56.4967 87.9609 56.76C87.5409 57.02 87.0692 57.15 86.5459 57.15ZM84.5509 54.55V53.835H88.5409V54.55H84.5509ZM90.1091 57V51.6H90.9991V53.875H93.8391V51.6H94.7291V57H93.8391V54.72H90.9991V57H90.1091ZM97.5597 57V52.41H95.6797V51.6H100.33V52.41H98.4497V57H97.5597ZM103.454 57.15C102.907 57.15 102.442 57.0283 102.059 56.785C101.679 56.5383 101.389 56.2 101.189 55.77C100.989 55.34 100.885 54.85 100.879 54.3C100.885 53.7367 100.99 53.2417 101.194 52.815C101.4 52.385 101.695 52.05 102.079 51.81C102.462 51.57 102.924 51.45 103.464 51.45C104.034 51.45 104.524 51.59 104.934 51.87C105.347 52.15 105.624 52.5333 105.764 53.02L104.884 53.285C104.77 52.9717 104.585 52.7283 104.329 52.555C104.075 52.3817 103.784 52.295 103.454 52.295C103.084 52.295 102.779 52.3817 102.539 52.555C102.299 52.725 102.12 52.9617 102.004 53.265C101.887 53.565 101.827 53.91 101.824 54.3C101.83 54.9 101.969 55.385 102.239 55.755C102.512 56.1217 102.917 56.305 103.454 56.305C103.807 56.305 104.1 56.225 104.334 56.065C104.567 55.9017 104.744 55.6667 104.864 55.36L105.764 55.595C105.577 56.0983 105.285 56.4833 104.889 56.75C104.492 57.0167 104.014 57.15 103.454 57.15ZM106.779 57L106.784 51.6H107.684V54.2L109.949 51.6H111.104L108.719 54.3L111.384 57H110.139L107.684 54.4V57H106.779ZM113.417 57.15C113.013 57.15 112.675 57.0767 112.402 56.93C112.132 56.78 111.927 56.5833 111.787 56.34C111.65 56.0967 111.582 55.83 111.582 55.54C111.582 55.2567 111.635 55.0117 111.742 54.805C111.852 54.595 112.005 54.4217 112.202 54.285C112.398 54.145 112.633 54.035 112.907 53.955C113.163 53.885 113.45 53.825 113.767 53.775C114.087 53.7217 114.41 53.6733 114.737 53.63C115.063 53.5867 115.368 53.545 115.652 53.505L115.332 53.69C115.342 53.21 115.245 52.855 115.042 52.625C114.842 52.395 114.495 52.28 114.002 52.28C113.675 52.28 113.388 52.355 113.142 52.505C112.898 52.6517 112.727 52.8917 112.627 53.225L111.782 52.97C111.912 52.4967 112.163 52.125 112.537 51.855C112.91 51.585 113.402 51.45 114.012 51.45C114.502 51.45 114.922 51.5383 115.272 51.715C115.625 51.8883 115.878 52.1517 116.032 52.505C116.108 52.6717 116.157 52.8533 116.177 53.05C116.197 53.2433 116.207 53.4467 116.207 53.66V57H115.417V55.705L115.602 55.825C115.398 56.2617 115.113 56.5917 114.747 56.815C114.383 57.0383 113.94 57.15 113.417 57.15ZM113.552 56.405C113.872 56.405 114.148 56.3483 114.382 56.235C114.618 56.1183 114.808 55.9667 114.952 55.78C115.095 55.59 115.188 55.3833 115.232 55.16C115.282 54.9933 115.308 54.8083 115.312 54.605C115.318 54.3983 115.322 54.24 115.322 54.13L115.632 54.265C115.342 54.305 115.057 54.3433 114.777 54.38C114.497 54.4167 114.232 54.4567 113.982 54.5C113.732 54.54 113.507 54.5883 113.307 54.645C113.16 54.6917 113.022 54.7517 112.892 54.825C112.765 54.8983 112.662 54.9933 112.582 55.11C112.505 55.2233 112.467 55.365 112.467 55.535C112.467 55.6817 112.503 55.8217 112.577 55.955C112.653 56.0883 112.77 56.1967 112.927 56.28C113.087 56.3633 113.295 56.405 113.552 56.405ZM120.842 57V55.045H119.677C119.54 55.045 119.388 55.04 119.222 55.03C119.058 55.0167 118.905 54.9983 118.762 54.975C118.372 54.9017 118.042 54.73 117.772 54.46C117.505 54.19 117.372 53.8167 117.372 53.34C117.372 52.8767 117.497 52.505 117.747 52.225C118 51.9417 118.312 51.7583 118.682 51.675C118.848 51.635 119.017 51.6133 119.187 51.61C119.36 51.6033 119.507 51.6 119.627 51.6H121.732L121.737 57H120.842ZM117.207 57L118.642 54.8H119.602L118.167 57H117.207ZM119.612 54.31H120.842V52.335H119.612C119.535 52.335 119.433 52.3383 119.307 52.345C119.183 52.3517 119.065 52.3717 118.952 52.405C118.845 52.435 118.74 52.49 118.637 52.57C118.537 52.65 118.453 52.7533 118.387 52.88C118.32 53.0067 118.287 53.1567 118.287 53.33C118.287 53.58 118.357 53.7833 118.497 53.94C118.637 54.0933 118.807 54.1967 119.007 54.25C119.117 54.2767 119.225 54.2933 119.332 54.3C119.442 54.3067 119.535 54.31 119.612 54.31ZM123.041 58.12L123.096 57.705C123.236 57.715 123.341 57.6883 123.411 57.625C123.481 57.5617 123.526 57.475 123.546 57.365C123.566 57.255 123.57 57.1333 123.556 57H123.041V55.87H124.021V57.15C124.021 57.5 123.935 57.7633 123.761 57.94C123.591 58.1167 123.351 58.1767 123.041 58.12ZM127.727 56.995L127.732 56.195L130.927 53.32C131.193 53.08 131.372 52.8533 131.462 52.64C131.555 52.4233 131.602 52.2017 131.602 51.975C131.602 51.6983 131.538 51.4483 131.412 51.225C131.285 51.0017 131.112 50.825 130.892 50.695C130.675 50.565 130.428 50.5 130.152 50.5C129.865 50.5 129.61 50.5683 129.387 50.705C129.163 50.8383 128.987 51.0167 128.857 51.24C128.73 51.4633 128.668 51.7067 128.672 51.97H127.762C127.762 51.5167 127.867 51.1167 128.077 50.77C128.287 50.42 128.572 50.1467 128.932 49.95C129.295 49.75 129.707 49.65 130.167 49.65C130.613 49.65 131.013 49.7533 131.367 49.96C131.72 50.1633 131.998 50.4417 132.202 50.795C132.408 51.145 132.512 51.5417 132.512 51.985C132.512 52.2983 132.472 52.57 132.392 52.8C132.315 53.03 132.195 53.2433 132.032 53.44C131.868 53.6333 131.663 53.84 131.417 54.06L128.762 56.445L128.647 56.145H132.512V56.995H127.727ZM136.138 57.15C135.671 57.15 135.254 57.045 134.888 56.835C134.524 56.6217 134.236 56.3333 134.023 55.97C133.813 55.6033 133.708 55.1867 133.708 54.72V52.08C133.708 51.6133 133.813 51.1967 134.023 50.83C134.236 50.4633 134.524 50.175 134.888 49.965C135.254 49.755 135.671 49.65 136.138 49.65C136.604 49.65 137.021 49.755 137.388 49.965C137.754 50.175 138.043 50.4633 138.253 50.83C138.463 51.1967 138.568 51.6133 138.568 52.08V54.72C138.568 55.1867 138.463 55.6033 138.253 55.97C138.043 56.3333 137.754 56.6217 137.388 56.835C137.021 57.045 136.604 57.15 136.138 57.15ZM136.138 56.295C136.421 56.295 136.678 56.2267 136.908 56.09C137.138 55.9533 137.321 55.77 137.458 55.54C137.594 55.3067 137.663 55.05 137.663 54.77V52.025C137.663 51.7417 137.594 51.485 137.458 51.255C137.321 51.025 137.138 50.8417 136.908 50.705C136.678 50.5683 136.421 50.5 136.138 50.5C135.858 50.5 135.601 50.5683 135.368 50.705C135.138 50.8417 134.954 51.025 134.818 51.255C134.681 51.485 134.613 51.7417 134.613 52.025V54.77C134.613 55.05 134.681 55.3067 134.818 55.54C134.954 55.77 135.138 55.9533 135.368 56.09C135.601 56.2267 135.858 56.295 136.138 56.295Z" fill="#9EA2B0"/>
    <path d="M60.84 77V68.36H61.908V72.416L65.688 68.36H67.032L63.108 72.554L67.338 77H65.958L61.908 72.776V77H60.84ZM73.4799 70.52V77H72.4479V72.224L69.0519 77H68.1699V70.52H69.2019V75.23L72.6039 70.52H73.4799ZM77.9203 77.18C77.2763 77.18 76.7203 77.034 76.2523 76.742C75.7883 76.45 75.4303 76.046 75.1783 75.53C74.9263 75.014 74.8003 74.422 74.8003 73.754C74.8003 73.074 74.9283 72.478 75.1843 71.966C75.4403 71.454 75.8023 71.056 76.2703 70.772C76.7383 70.484 77.2883 70.34 77.9203 70.34C78.5683 70.34 79.1263 70.486 79.5943 70.778C80.0623 71.066 80.4203 71.468 80.6683 71.984C80.9203 72.496 81.0463 73.086 81.0463 73.754C81.0463 74.43 80.9203 75.026 80.6683 75.542C80.4163 76.054 80.0563 76.456 79.5883 76.748C79.1203 77.036 78.5643 77.18 77.9203 77.18ZM77.9203 76.166C78.5923 76.166 79.0923 75.942 79.4203 75.494C79.7483 75.046 79.9123 74.466 79.9123 73.754C79.9123 73.022 79.7463 72.44 79.4143 72.008C79.0823 71.572 78.5843 71.354 77.9203 71.354C77.4683 71.354 77.0963 71.456 76.8043 71.66C76.5123 71.864 76.2943 72.146 76.1503 72.506C76.0063 72.866 75.9343 73.282 75.9343 73.754C75.9343 74.482 76.1023 75.066 76.4383 75.506C76.7743 75.946 77.2683 76.166 77.9203 76.166ZM85.0973 77.18C84.4413 77.18 83.8833 77.034 83.4233 76.742C82.9673 76.446 82.6193 76.04 82.3793 75.524C82.1393 75.008 82.0153 74.42 82.0073 73.76C82.0153 73.084 82.1413 72.49 82.3853 71.978C82.6333 71.462 82.9873 71.06 83.4473 70.772C83.9073 70.484 84.4613 70.34 85.1093 70.34C85.7933 70.34 86.3813 70.508 86.8733 70.844C87.3693 71.18 87.7013 71.64 87.8693 72.224L86.8133 72.542C86.6773 72.166 86.4553 71.874 86.1473 71.666C85.8433 71.458 85.4933 71.354 85.0973 71.354C84.6533 71.354 84.2873 71.458 83.9993 71.666C83.7113 71.87 83.4973 72.154 83.3573 72.518C83.2173 72.878 83.1453 73.292 83.1413 73.76C83.1493 74.48 83.3153 75.062 83.6393 75.506C83.9673 75.946 84.4533 76.166 85.0973 76.166C85.5213 76.166 85.8733 76.07 86.1533 75.878C86.4333 75.682 86.6453 75.4 86.7893 75.032L87.8693 75.314C87.6453 75.918 87.2953 76.38 86.8193 76.7C86.3433 77.02 85.7693 77.18 85.0973 77.18ZM89.0879 77L89.0939 70.52H90.1739V73.64L92.8919 70.52H94.2779L91.4159 73.76L94.6139 77H93.1199L90.1739 73.88V77H89.0879Z" fill="#0F1015"/>
    <rect x="407" y="16" width="36" height="36" rx="12" fill="#F5F6F9"/>
    <path d="M429 32.6665C429.733 32.6665 430.333 33.2665 430.333 33.9998C430.333 34.7332 429.733 35.3332 429 35.3332C428.267 35.3332 427.667 34.7332 427.667 33.9998C427.667 33.2665 428.267 32.6665 429 32.6665ZM425 35.3332C424.267 35.3332 423.667 34.7332 423.667 33.9998C423.667 33.2665 424.267 32.6665 425 32.6665C425.733 32.6665 426.333 33.2665 426.333 33.9998C426.333 34.7332 425.733 35.3332 425 35.3332ZM421 35.3332C420.267 35.3332 419.667 34.7332 419.667 33.9998C419.667 33.2665 420.267 32.6665 421 32.6665C421.733 32.6665 422.333 33.2665 422.333 33.9998C422.333 34.7332 421.733 35.3332 421 35.3332Z" fill="#555D74"/>
    <path d="M16.84 113V104.36H20.176C20.26 104.36 20.354 104.364 20.458 104.372C20.566 104.376 20.674 104.388 20.782 104.408C21.234 104.476 21.616 104.634 21.928 104.882C22.244 105.126 22.482 105.434 22.642 105.806C22.806 106.178 22.888 106.59 22.888 107.042C22.888 107.49 22.806 107.9 22.642 108.272C22.478 108.644 22.238 108.954 21.922 109.202C21.61 109.446 21.23 109.602 20.782 109.67C20.674 109.686 20.566 109.698 20.458 109.706C20.354 109.714 20.26 109.718 20.176 109.718H17.722V113H16.84ZM17.722 108.878H20.152C20.224 108.878 20.308 108.874 20.404 108.866C20.5 108.858 20.594 108.844 20.686 108.824C20.982 108.76 21.224 108.638 21.412 108.458C21.604 108.278 21.746 108.064 21.838 107.816C21.934 107.568 21.982 107.31 21.982 107.042C21.982 106.774 21.934 106.516 21.838 106.268C21.746 106.016 21.604 105.8 21.412 105.62C21.224 105.44 20.982 105.318 20.686 105.254C20.594 105.234 20.5 105.222 20.404 105.218C20.308 105.21 20.224 105.206 20.152 105.206H17.722V108.878ZM26.8242 113.18C26.1922 113.18 25.6442 113.04 25.1802 112.76C24.7202 112.48 24.3622 112.086 24.1062 111.578C23.8502 111.07 23.7222 110.474 23.7222 109.79C23.7222 109.082 23.8482 108.47 24.1002 107.954C24.3522 107.438 24.7062 107.04 25.1622 106.76C25.6222 106.48 26.1642 106.34 26.7882 106.34C27.4282 106.34 27.9742 106.488 28.4262 106.784C28.8782 107.076 29.2202 107.496 29.4522 108.044C29.6842 108.592 29.7902 109.246 29.7702 110.006H28.8702V109.694C28.8542 108.854 28.6722 108.22 28.3242 107.792C27.9802 107.364 27.4762 107.15 26.8122 107.15C26.1162 107.15 25.5822 107.376 25.2102 107.828C24.8422 108.28 24.6582 108.924 24.6582 109.76C24.6582 110.576 24.8422 111.21 25.2102 111.662C25.5822 112.11 26.1082 112.334 26.7882 112.334C27.2522 112.334 27.6562 112.228 28.0002 112.016C28.3482 111.8 28.6222 111.49 28.8222 111.086L29.6442 111.404C29.3882 111.968 29.0102 112.406 28.5102 112.718C28.0142 113.026 27.4522 113.18 26.8242 113.18ZM24.3462 110.006V109.268H29.2962V110.006H24.3462ZM33.7897 105.752C33.5057 105.752 33.2457 105.682 33.0097 105.542C32.7737 105.402 32.5857 105.216 32.4457 104.984C32.3097 104.748 32.2417 104.488 32.2417 104.204H32.9737C32.9737 104.428 33.0537 104.62 33.2137 104.78C33.3737 104.94 33.5657 105.02 33.7897 105.02C34.0177 105.02 34.2097 104.94 34.3657 104.78C34.5257 104.62 34.6057 104.428 34.6057 104.204H35.3377C35.3377 104.488 35.2677 104.748 35.1277 104.984C34.9917 105.216 34.8057 105.402 34.5697 105.542C34.3337 105.682 34.0737 105.752 33.7897 105.752ZM36.2497 106.52V113H35.3917V107.954L31.8397 113H31.0957V106.52H31.9537V111.524L35.5117 106.52H36.2497ZM39.6918 113V107.336H37.3938V106.52H42.8718V107.336H40.5738V113H39.6918ZM49.1638 106.52V113H48.3058V107.954L44.7538 113H44.0098V106.52H44.8678V111.524L48.4258 106.52H49.1638ZM50.8418 113V106.52H51.7238V109.334H55.3778V106.52H56.2598V113H55.3778V110.18H51.7238V113H50.8418ZM57.9377 113V106.52H62.3777V107.366H58.8197V113H57.9377Z" fill="#9EA2B0"/>
    <path d="M75.13 113.21C74.486 113.21 73.9167 113.082 73.422 112.825C72.9273 112.564 72.54 112.202 72.26 111.74C71.98 111.278 71.84 110.739 71.84 110.123C71.84 109.521 71.9823 108.977 72.267 108.492C72.5563 108.007 72.9903 107.633 73.569 107.372L73.548 107.827C73.0767 107.598 72.715 107.276 72.463 106.861C72.211 106.441 72.085 105.977 72.085 105.468C72.085 104.899 72.2157 104.409 72.477 103.998C72.7383 103.587 73.0977 103.27 73.555 103.046C74.0123 102.822 74.5373 102.71 75.13 102.71C75.7227 102.71 76.2477 102.822 76.705 103.046C77.1623 103.27 77.5217 103.587 77.783 103.998C78.0443 104.409 78.175 104.899 78.175 105.468C78.175 105.977 78.056 106.439 77.818 106.854C77.58 107.265 77.2137 107.589 76.719 107.827L76.691 107.379C77.2697 107.631 77.7037 108.002 77.993 108.492C78.287 108.977 78.434 109.521 78.434 110.123C78.434 110.739 78.2917 111.278 78.007 111.74C77.727 112.202 77.3373 112.564 76.838 112.825C76.3433 113.082 75.774 113.21 75.13 113.21ZM75.13 112.02C75.718 112.02 76.194 111.859 76.558 111.537C76.9267 111.21 77.111 110.739 77.111 110.123C77.111 109.502 76.929 109.031 76.565 108.709C76.2057 108.382 75.7273 108.219 75.13 108.219C74.5373 108.219 74.059 108.382 73.695 108.709C73.3357 109.031 73.156 109.502 73.156 110.123C73.156 110.739 73.338 111.21 73.702 111.537C74.066 111.859 74.542 112.02 75.13 112.02ZM75.13 107.022C75.6433 107.022 76.0587 106.894 76.376 106.637C76.6933 106.376 76.852 105.986 76.852 105.468C76.852 104.95 76.6933 104.563 76.376 104.306C76.0587 104.045 75.6433 103.914 75.13 103.914C74.6213 103.914 74.206 104.045 73.884 104.306C73.5667 104.563 73.408 104.95 73.408 105.468C73.408 105.986 73.5667 106.376 73.884 106.637C74.206 106.894 74.6213 107.022 75.13 107.022ZM80.4755 113V111.628H81.8475V113H80.4755ZM83.7449 112.993L83.7519 111.873L88.2249 107.848C88.5983 107.512 88.8479 107.195 88.9739 106.896C89.1046 106.593 89.1699 106.282 89.1699 105.965C89.1699 105.578 89.0813 105.228 88.9039 104.915C88.7266 104.602 88.4839 104.355 88.1759 104.173C87.8726 103.991 87.5273 103.9 87.1399 103.9C86.7386 103.9 86.3816 103.996 86.0689 104.187C85.7563 104.374 85.5089 104.623 85.3269 104.936C85.1496 105.249 85.0633 105.589 85.0679 105.958H83.7939C83.7939 105.323 83.9409 104.763 84.2349 104.278C84.5289 103.788 84.9279 103.405 85.4319 103.13C85.9406 102.85 86.5169 102.71 87.1609 102.71C87.7863 102.71 88.3463 102.855 88.8409 103.144C89.3356 103.429 89.7253 103.818 90.0099 104.313C90.2993 104.803 90.4439 105.358 90.4439 105.979C90.4439 106.418 90.3879 106.798 90.2759 107.12C90.1686 107.442 90.0006 107.741 89.7719 108.016C89.5433 108.287 89.2563 108.576 88.9109 108.884L85.1939 112.223L85.0329 111.803H90.4439V112.993H83.7449ZM94.6667 102.92H95.9337L93.2457 113H91.9787L94.6667 102.92ZM99.5085 113V104.299L97.6115 105.447V104.054L99.5085 102.92H100.775V113H99.5085ZM106.841 113.21C106.188 113.21 105.604 113.063 105.091 112.769C104.582 112.47 104.179 112.067 103.88 111.558C103.586 111.045 103.439 110.461 103.439 109.808V106.112C103.439 105.459 103.586 104.875 103.88 104.362C104.179 103.849 104.582 103.445 105.091 103.151C105.604 102.857 106.188 102.71 106.841 102.71C107.494 102.71 108.078 102.857 108.591 103.151C109.104 103.445 109.508 103.849 109.802 104.362C110.096 104.875 110.243 105.459 110.243 106.112V109.808C110.243 110.461 110.096 111.045 109.802 111.558C109.508 112.067 109.104 112.47 108.591 112.769C108.078 113.063 107.494 113.21 106.841 113.21ZM106.841 112.013C107.238 112.013 107.597 111.917 107.919 111.726C108.241 111.535 108.498 111.278 108.689 110.956C108.88 110.629 108.976 110.27 108.976 109.878V106.035C108.976 105.638 108.88 105.279 108.689 104.957C108.498 104.635 108.241 104.378 107.919 104.187C107.597 103.996 107.238 103.9 106.841 103.9C106.449 103.9 106.09 103.996 105.763 104.187C105.441 104.378 105.184 104.635 104.993 104.957C104.802 105.279 104.706 105.638 104.706 106.035V109.878C104.706 110.27 104.802 110.629 104.993 110.956C105.184 111.278 105.441 111.535 105.763 111.726C106.09 111.917 106.449 112.013 106.841 112.013Z" fill="#F62E46"/>
    <path d="M131.356 113.18C130.768 113.18 130.258 113.094 129.826 112.922C129.398 112.75 129.046 112.524 128.77 112.244C128.494 111.96 128.288 111.654 128.152 111.326L128.956 110.858C129.052 111.13 129.204 111.378 129.412 111.602C129.62 111.826 129.888 112.004 130.216 112.136C130.544 112.268 130.934 112.334 131.386 112.334C131.854 112.334 132.25 112.26 132.574 112.112C132.902 111.964 133.15 111.756 133.318 111.488C133.486 111.22 133.57 110.908 133.57 110.552C133.57 110.16 133.476 109.856 133.288 109.64C133.1 109.424 132.848 109.272 132.532 109.184C132.216 109.092 131.864 109.04 131.476 109.028C131.184 109.016 130.976 109.008 130.852 109.004C130.728 109 130.646 108.998 130.606 108.998C130.566 108.998 130.528 108.998 130.492 108.998V108.146C130.52 108.146 130.594 108.146 130.714 108.146C130.834 108.146 130.962 108.146 131.098 108.146C131.234 108.142 131.342 108.138 131.422 108.134C131.994 108.106 132.444 107.956 132.772 107.684C133.1 107.412 133.264 107.044 133.264 106.58C133.264 106.088 133.09 105.706 132.742 105.434C132.398 105.162 131.952 105.026 131.404 105.026C130.888 105.026 130.452 105.15 130.096 105.398C129.744 105.642 129.456 105.97 129.232 106.382L128.512 105.848C128.784 105.36 129.168 104.96 129.664 104.648C130.16 104.336 130.748 104.18 131.428 104.18C131.792 104.18 132.14 104.23 132.472 104.33C132.808 104.43 133.104 104.578 133.36 104.774C133.62 104.97 133.824 105.218 133.972 105.518C134.124 105.814 134.2 106.162 134.2 106.562C134.2 107.03 134.096 107.438 133.888 107.786C133.684 108.134 133.42 108.396 133.096 108.572C133.536 108.704 133.88 108.936 134.128 109.268C134.38 109.6 134.506 110.034 134.506 110.57C134.506 111.098 134.376 111.558 134.116 111.95C133.856 112.342 133.488 112.646 133.012 112.862C132.54 113.074 131.988 113.18 131.356 113.18ZM137.604 113.18C137.116 113.18 136.706 113.092 136.374 112.916C136.046 112.74 135.8 112.506 135.636 112.214C135.472 111.922 135.39 111.604 135.39 111.26C135.39 110.908 135.46 110.608 135.6 110.36C135.744 110.108 135.938 109.902 136.182 109.742C136.43 109.582 136.716 109.46 137.04 109.376C137.368 109.296 137.73 109.226 138.126 109.166C138.526 109.102 138.916 109.048 139.296 109.004C139.68 108.956 140.016 108.91 140.304 108.866L139.992 109.058C140.004 108.418 139.88 107.944 139.62 107.636C139.36 107.328 138.908 107.174 138.264 107.174C137.82 107.174 137.444 107.274 137.136 107.474C136.832 107.674 136.618 107.99 136.494 108.422L135.636 108.17C135.784 107.59 136.082 107.14 136.53 106.82C136.978 106.5 137.56 106.34 138.276 106.34C138.868 106.34 139.37 106.452 139.782 106.676C140.198 106.896 140.492 107.216 140.664 107.636C140.744 107.824 140.796 108.034 140.82 108.266C140.844 108.498 140.856 108.734 140.856 108.974V113H140.07V111.374L140.298 111.47C140.078 112.026 139.736 112.45 139.272 112.742C138.808 113.034 138.252 113.18 137.604 113.18ZM137.706 112.418C138.118 112.418 138.478 112.344 138.786 112.196C139.094 112.048 139.342 111.846 139.53 111.59C139.718 111.33 139.84 111.038 139.896 110.714C139.944 110.506 139.97 110.278 139.974 110.03C139.978 109.778 139.98 109.59 139.98 109.466L140.316 109.64C140.016 109.68 139.69 109.72 139.338 109.76C138.99 109.8 138.646 109.846 138.306 109.898C137.97 109.95 137.666 110.012 137.394 110.084C137.21 110.136 137.032 110.21 136.86 110.306C136.688 110.398 136.546 110.522 136.434 110.678C136.326 110.834 136.272 111.028 136.272 111.26C136.272 111.448 136.318 111.63 136.41 111.806C136.506 111.982 136.658 112.128 136.866 112.244C137.078 112.36 137.358 112.418 137.706 112.418ZM142.418 113V106.52H146.858V107.366H143.3V113H142.418ZM150.906 113.18C150.31 113.18 149.806 113.03 149.394 112.73C148.982 112.426 148.67 112.016 148.458 111.5C148.246 110.98 148.14 110.398 148.14 109.754C148.14 109.098 148.246 108.514 148.458 108.002C148.674 107.486 148.99 107.08 149.406 106.784C149.822 106.488 150.334 106.34 150.942 106.34C151.534 106.34 152.042 106.49 152.466 106.79C152.89 107.09 153.214 107.498 153.438 108.014C153.666 108.53 153.78 109.11 153.78 109.754C153.78 110.402 153.666 110.984 153.438 111.5C153.21 112.016 152.882 112.426 152.454 112.73C152.026 113.03 151.51 113.18 150.906 113.18ZM147.99 115.88V106.52H148.782V111.398H148.878V115.88H147.99ZM150.816 112.358C151.268 112.358 151.644 112.244 151.944 112.016C152.244 111.788 152.468 111.478 152.616 111.086C152.768 110.69 152.844 110.246 152.844 109.754C152.844 109.266 152.77 108.826 152.622 108.434C152.474 108.042 152.248 107.732 151.944 107.504C151.644 107.276 151.262 107.162 150.798 107.162C150.346 107.162 149.97 107.272 149.67 107.492C149.374 107.712 149.152 108.018 149.004 108.41C148.856 108.798 148.782 109.246 148.782 109.754C148.782 110.254 148.856 110.702 149.004 111.098C149.152 111.49 149.376 111.798 149.676 112.022C149.976 112.246 150.356 112.358 150.816 112.358ZM155.787 115.88L157.041 112.478L157.059 113.486L154.221 106.52H155.157L157.485 112.346H157.101L159.249 106.52H160.149L156.669 115.88H155.787ZM163.526 113.18C162.874 113.18 162.304 113.038 161.816 112.754C161.332 112.466 160.95 112.068 160.67 111.56L161.378 111.11C161.614 111.51 161.908 111.814 162.26 112.022C162.612 112.23 163.016 112.334 163.472 112.334C163.948 112.334 164.33 112.224 164.618 112.004C164.906 111.784 165.05 111.482 165.05 111.098C165.05 110.834 164.988 110.624 164.864 110.468C164.744 110.312 164.56 110.2 164.312 110.132C164.068 110.064 163.762 110.03 163.394 110.03H162.626V109.274H163.382C163.83 109.274 164.19 109.194 164.462 109.034C164.738 108.87 164.876 108.614 164.876 108.266C164.876 107.898 164.738 107.626 164.462 107.45C164.19 107.27 163.864 107.18 163.484 107.18C163.1 107.18 162.736 107.26 162.392 107.42C162.052 107.576 161.766 107.778 161.534 108.026L160.97 107.432C161.294 107.076 161.672 106.806 162.104 106.622C162.54 106.434 163.022 106.34 163.55 106.34C163.966 106.34 164.342 106.414 164.678 106.562C165.018 106.706 165.286 106.918 165.482 107.198C165.682 107.478 165.782 107.814 165.782 108.206C165.782 108.574 165.692 108.892 165.512 109.16C165.336 109.428 165.086 109.65 164.762 109.826L164.714 109.496C164.994 109.548 165.226 109.66 165.41 109.832C165.594 110.004 165.73 110.21 165.818 110.45C165.906 110.69 165.95 110.934 165.95 111.182C165.95 111.594 165.842 111.95 165.626 112.25C165.414 112.546 165.124 112.776 164.756 112.94C164.392 113.1 163.982 113.18 163.526 113.18ZM167.268 113L167.274 106.52H168.162V109.64L171.054 106.52H172.23L169.194 109.76L172.626 113H171.342L168.162 109.88V113H167.268ZM175.081 113.18C174.593 113.18 174.183 113.092 173.851 112.916C173.523 112.74 173.277 112.506 173.113 112.214C172.949 111.922 172.867 111.604 172.867 111.26C172.867 110.908 172.937 110.608 173.077 110.36C173.221 110.108 173.415 109.902 173.659 109.742C173.907 109.582 174.193 109.46 174.517 109.376C174.845 109.296 175.207 109.226 175.603 109.166C176.003 109.102 176.393 109.048 176.773 109.004C177.157 108.956 177.493 108.91 177.781 108.866L177.469 109.058C177.481 108.418 177.357 107.944 177.097 107.636C176.837 107.328 176.385 107.174 175.741 107.174C175.297 107.174 174.921 107.274 174.613 107.474C174.309 107.674 174.095 107.99 173.971 108.422L173.113 108.17C173.261 107.59 173.559 107.14 174.007 106.82C174.455 106.5 175.037 106.34 175.753 106.34C176.345 106.34 176.847 106.452 177.259 106.676C177.675 106.896 177.969 107.216 178.141 107.636C178.221 107.824 178.273 108.034 178.297 108.266C178.321 108.498 178.333 108.734 178.333 108.974V113H177.547V111.374L177.775 111.47C177.555 112.026 177.213 112.45 176.749 112.742C176.285 113.034 175.729 113.18 175.081 113.18ZM175.183 112.418C175.595 112.418 175.955 112.344 176.263 112.196C176.571 112.048 176.819 111.846 177.007 111.59C177.195 111.33 177.317 111.038 177.373 110.714C177.421 110.506 177.447 110.278 177.451 110.03C177.455 109.778 177.457 109.59 177.457 109.466L177.793 109.64C177.493 109.68 177.167 109.72 176.815 109.76C176.467 109.8 176.123 109.846 175.783 109.898C175.447 109.95 175.143 110.012 174.871 110.084C174.687 110.136 174.509 110.21 174.337 110.306C174.165 110.398 174.023 110.522 173.911 110.678C173.803 110.834 173.749 111.028 173.749 111.26C173.749 111.448 173.795 111.63 173.887 111.806C173.983 111.982 174.135 112.128 174.343 112.244C174.555 112.36 174.835 112.418 175.183 112.418Z" fill="#9EA2B0"/>
    <path d="M190.096 113V105.542L188.47 106.526V105.332L190.096 104.36H191.182V113H190.096ZM196.381 113.18C195.821 113.18 195.321 113.054 194.881 112.802C194.445 112.546 194.099 112.2 193.843 111.764C193.591 111.324 193.465 110.824 193.465 110.264V107.096C193.465 106.536 193.591 106.036 193.843 105.596C194.099 105.156 194.445 104.81 194.881 104.558C195.321 104.306 195.821 104.18 196.381 104.18C196.941 104.18 197.441 104.306 197.881 104.558C198.321 104.81 198.667 105.156 198.919 105.596C199.171 106.036 199.297 106.536 199.297 107.096V110.264C199.297 110.824 199.171 111.324 198.919 111.764C198.667 112.2 198.321 112.546 197.881 112.802C197.441 113.054 196.941 113.18 196.381 113.18ZM196.381 112.154C196.721 112.154 197.029 112.072 197.305 111.908C197.581 111.744 197.801 111.524 197.965 111.248C198.129 110.968 198.211 110.66 198.211 110.324V107.03C198.211 106.69 198.129 106.382 197.965 106.106C197.801 105.83 197.581 105.61 197.305 105.446C197.029 105.282 196.721 105.2 196.381 105.2C196.045 105.2 195.737 105.282 195.457 105.446C195.181 105.61 194.961 105.83 194.797 106.106C194.633 106.382 194.551 106.69 194.551 107.03V110.324C194.551 110.66 194.633 110.968 194.797 111.248C194.961 111.524 195.181 111.744 195.457 111.908C195.737 112.072 196.045 112.154 196.381 112.154ZM203.893 113.18C203.333 113.18 202.833 113.054 202.393 112.802C201.957 112.546 201.611 112.2 201.355 111.764C201.103 111.324 200.977 110.824 200.977 110.264V107.096C200.977 106.536 201.103 106.036 201.355 105.596C201.611 105.156 201.957 104.81 202.393 104.558C202.833 104.306 203.333 104.18 203.893 104.18C204.453 104.18 204.953 104.306 205.393 104.558C205.833 104.81 206.179 105.156 206.431 105.596C206.683 106.036 206.809 106.536 206.809 107.096V110.264C206.809 110.824 206.683 111.324 206.431 111.764C206.179 112.2 205.833 112.546 205.393 112.802C204.953 113.054 204.453 113.18 203.893 113.18ZM203.893 112.154C204.233 112.154 204.541 112.072 204.817 111.908C205.093 111.744 205.313 111.524 205.477 111.248C205.641 110.968 205.723 110.66 205.723 110.324V107.03C205.723 106.69 205.641 106.382 205.477 106.106C205.313 105.83 205.093 105.61 204.817 105.446C204.541 105.282 204.233 105.2 203.893 105.2C203.557 105.2 203.249 105.282 202.969 105.446C202.693 105.61 202.473 105.83 202.309 106.106C202.145 106.382 202.063 106.69 202.063 107.03V110.324C202.063 110.66 202.145 110.968 202.309 111.248C202.473 111.524 202.693 111.744 202.969 111.908C203.249 112.072 203.557 112.154 203.893 112.154ZM209.448 113L208.728 112.28L216.66 104.36L217.38 105.08L209.448 113ZM215.58 113.18C215.184 113.18 214.822 113.084 214.494 112.892C214.17 112.696 213.91 112.436 213.714 112.112C213.518 111.784 213.42 111.42 213.42 111.02C213.42 110.628 213.52 110.268 213.72 109.94C213.92 109.612 214.184 109.35 214.512 109.154C214.84 108.958 215.196 108.86 215.58 108.86C215.976 108.86 216.338 108.958 216.666 109.154C216.994 109.346 217.254 109.606 217.446 109.934C217.642 110.258 217.74 110.62 217.74 111.02C217.74 111.42 217.642 111.784 217.446 112.112C217.254 112.436 216.994 112.696 216.666 112.892C216.338 113.084 215.976 113.18 215.58 113.18ZM215.58 112.238C215.8 112.238 216.002 112.182 216.186 112.07C216.374 111.958 216.522 111.81 216.63 111.626C216.742 111.442 216.798 111.24 216.798 111.02C216.798 110.8 216.742 110.598 216.63 110.414C216.522 110.226 216.374 110.078 216.186 109.97C216.002 109.858 215.8 109.802 215.58 109.802C215.36 109.802 215.158 109.858 214.974 109.97C214.79 110.078 214.642 110.226 214.53 110.414C214.418 110.598 214.362 110.8 214.362 111.02C214.362 111.24 214.418 111.442 214.53 111.626C214.642 111.81 214.79 111.958 214.974 112.07C215.158 112.182 215.36 112.238 215.58 112.238ZM210.528 108.5C210.132 108.5 209.77 108.404 209.442 108.212C209.114 108.016 208.852 107.756 208.656 107.432C208.464 107.104 208.368 106.74 208.368 106.34C208.368 105.948 208.468 105.588 208.668 105.26C208.868 104.932 209.132 104.67 209.46 104.474C209.788 104.278 210.144 104.18 210.528 104.18C210.924 104.18 211.284 104.278 211.608 104.474C211.936 104.666 212.198 104.926 212.394 105.254C212.59 105.578 212.688 105.94 212.688 106.34C212.688 106.74 212.59 107.104 212.394 107.432C212.198 107.756 211.936 108.016 211.608 108.212C211.284 108.404 210.924 108.5 210.528 108.5ZM210.528 107.558C210.748 107.558 210.95 107.502 211.134 107.39C211.322 107.278 211.47 107.13 211.578 106.946C211.69 106.762 211.746 106.56 211.746 106.34C211.746 106.12 211.69 105.918 211.578 105.734C211.47 105.546 211.322 105.398 211.134 105.29C210.95 105.178 210.748 105.122 210.528 105.122C210.308 105.122 210.106 105.178 209.922 105.29C209.738 105.398 209.59 105.546 209.478 105.734C209.366 105.918 209.31 106.12 209.31 106.34C209.31 106.56 209.366 106.762 209.478 106.946C209.59 107.13 209.738 107.278 209.922 107.39C210.106 107.502 210.308 107.558 210.528 107.558Z" fill="#F62E46"/>
    <g clip-path="url(#clip0_19002_112382)">
        <rect x="226.75" y="105" width="52" height="6" rx="3" fill="#F5F6F9"/>
        <rect x="226.25" y="105" width="32" height="6" rx="3" fill="#F62E46"/>
    </g>
    <path d="M333.428 109.143C333.744 109.143 334 109.399 334 109.714V113.143C334 113.458 333.744 113.714 333.428 113.714C333.113 113.714 332.857 113.458 332.857 113.143V109.714C332.857 109.399 333.113 109.143 333.428 109.143ZM336.286 102.286C336.601 102.286 336.857 102.541 336.857 102.857V113.143C336.857 113.458 336.601 113.714 336.286 113.714C335.97 113.714 335.714 113.458 335.714 113.143V102.857C335.714 102.541 335.97 102.286 336.286 102.286ZM339.143 106.857C339.458 106.857 339.714 107.113 339.714 107.429V113.143C339.714 113.458 339.458 113.714 339.143 113.714C338.827 113.714 338.571 113.458 338.571 113.143V107.429C338.571 107.113 338.827 106.857 339.143 106.857ZM342 104.571C342.315 104.571 342.571 104.827 342.571 105.143V113.143C342.571 113.458 342.315 113.714 342 113.714C341.684 113.714 341.428 113.458 341.428 113.143V105.143C341.428 104.827 341.684 104.571 342 104.571Z" fill="#6D7488"/>
    <path d="M356.82 113.18C355.96 113.18 355.234 112.99 354.642 112.61C354.05 112.226 353.602 111.696 353.298 111.02C352.994 110.344 352.842 109.564 352.842 108.68C352.842 107.796 352.994 107.016 353.298 106.34C353.602 105.664 354.05 105.136 354.642 104.756C355.234 104.372 355.96 104.18 356.82 104.18C357.824 104.18 358.644 104.438 359.28 104.954C359.916 105.466 360.352 106.154 360.588 107.018L359.688 107.252C359.504 106.568 359.174 106.026 358.698 105.626C358.222 105.226 357.596 105.026 356.82 105.026C356.144 105.026 355.582 105.18 355.134 105.488C354.686 105.796 354.348 106.226 354.12 106.778C353.896 107.326 353.78 107.96 353.772 108.68C353.768 109.4 353.878 110.034 354.102 110.582C354.33 111.13 354.67 111.56 355.122 111.872C355.578 112.18 356.144 112.334 356.82 112.334C357.596 112.334 358.222 112.134 358.698 111.734C359.174 111.33 359.504 110.788 359.688 110.108L360.588 110.342C360.352 111.206 359.916 111.896 359.28 112.412C358.644 112.924 357.824 113.18 356.82 113.18ZM363.67 113V107.336H361.372V106.52H366.85V107.336H364.552V113H363.67ZM369.602 113.18C369.114 113.18 368.704 113.092 368.372 112.916C368.044 112.74 367.798 112.506 367.634 112.214C367.47 111.922 367.388 111.604 367.388 111.26C367.388 110.908 367.458 110.608 367.598 110.36C367.742 110.108 367.936 109.902 368.18 109.742C368.428 109.582 368.714 109.46 369.038 109.376C369.366 109.296 369.728 109.226 370.124 109.166C370.524 109.102 370.914 109.048 371.294 109.004C371.678 108.956 372.014 108.91 372.302 108.866L371.99 109.058C372.002 108.418 371.878 107.944 371.618 107.636C371.358 107.328 370.906 107.174 370.262 107.174C369.818 107.174 369.442 107.274 369.134 107.474C368.83 107.674 368.616 107.99 368.492 108.422L367.634 108.17C367.782 107.59 368.08 107.14 368.528 106.82C368.976 106.5 369.558 106.34 370.274 106.34C370.866 106.34 371.368 106.452 371.78 106.676C372.196 106.896 372.49 107.216 372.662 107.636C372.742 107.824 372.794 108.034 372.818 108.266C372.842 108.498 372.854 108.734 372.854 108.974V113H372.068V111.374L372.296 111.47C372.076 112.026 371.734 112.45 371.27 112.742C370.806 113.034 370.25 113.18 369.602 113.18ZM369.704 112.418C370.116 112.418 370.476 112.344 370.784 112.196C371.092 112.048 371.34 111.846 371.528 111.59C371.716 111.33 371.838 111.038 371.894 110.714C371.942 110.506 371.968 110.278 371.972 110.03C371.976 109.778 371.978 109.59 371.978 109.466L372.314 109.64C372.014 109.68 371.688 109.72 371.336 109.76C370.988 109.8 370.644 109.846 370.304 109.898C369.968 109.95 369.664 110.012 369.392 110.084C369.208 110.136 369.03 110.21 368.858 110.306C368.686 110.398 368.544 110.522 368.432 110.678C368.324 110.834 368.27 111.028 368.27 111.26C368.27 111.448 368.316 111.63 368.408 111.806C368.504 111.982 368.656 112.128 368.864 112.244C369.076 112.36 369.356 112.418 369.704 112.418ZM376.174 113V107.336H373.876V106.52H379.354V107.336H377.056V113H376.174ZM385.646 106.52V113H384.788V107.954L381.236 113H380.492V106.52H381.35V111.524L384.908 106.52H385.646ZM390.018 113.18C389.366 113.18 388.814 113.034 388.362 112.742C387.91 112.45 387.566 112.048 387.33 111.536C387.098 111.02 386.978 110.428 386.97 109.76C386.978 109.08 387.102 108.484 387.342 107.972C387.582 107.456 387.928 107.056 388.38 106.772C388.832 106.484 389.38 106.34 390.024 106.34C390.68 106.34 391.25 106.5 391.734 106.82C392.222 107.14 392.556 107.578 392.736 108.134L391.872 108.41C391.72 108.022 391.478 107.722 391.146 107.51C390.818 107.294 390.442 107.186 390.018 107.186C389.542 107.186 389.148 107.296 388.836 107.516C388.524 107.732 388.292 108.034 388.14 108.422C387.988 108.81 387.91 109.256 387.906 109.76C387.914 110.536 388.094 111.16 388.446 111.632C388.798 112.1 389.322 112.334 390.018 112.334C390.458 112.334 390.832 112.234 391.14 112.034C391.452 111.83 391.688 111.534 391.848 111.146L392.736 111.41C392.496 111.986 392.144 112.426 391.68 112.73C391.216 113.03 390.662 113.18 390.018 113.18ZM395.58 113V107.336H393.282V106.52H398.76V107.336H396.462V113H395.58ZM405.052 106.52V113H404.194V107.954L400.642 113H399.898V106.52H400.756V111.524L404.314 106.52H405.052ZM406.73 113L406.736 106.52H407.624V109.64L410.516 106.52H411.692L408.656 109.76L412.088 113H410.804L407.624 109.88V113H406.73ZM414.544 113.18C414.056 113.18 413.646 113.092 413.314 112.916C412.986 112.74 412.74 112.506 412.576 112.214C412.412 111.922 412.33 111.604 412.33 111.26C412.33 110.908 412.4 110.608 412.54 110.36C412.684 110.108 412.878 109.902 413.122 109.742C413.37 109.582 413.656 109.46 413.98 109.376C414.308 109.296 414.67 109.226 415.066 109.166C415.466 109.102 415.856 109.048 416.236 109.004C416.62 108.956 416.956 108.91 417.244 108.866L416.932 109.058C416.944 108.418 416.82 107.944 416.56 107.636C416.3 107.328 415.848 107.174 415.204 107.174C414.76 107.174 414.384 107.274 414.076 107.474C413.772 107.674 413.558 107.99 413.434 108.422L412.576 108.17C412.724 107.59 413.022 107.14 413.47 106.82C413.918 106.5 414.5 106.34 415.216 106.34C415.808 106.34 416.31 106.452 416.722 106.676C417.138 106.896 417.432 107.216 417.604 107.636C417.684 107.824 417.736 108.034 417.76 108.266C417.784 108.498 417.796 108.734 417.796 108.974V113H417.01V111.374L417.238 111.47C417.018 112.026 416.676 112.45 416.212 112.742C415.748 113.034 415.192 113.18 414.544 113.18ZM414.646 112.418C415.058 112.418 415.418 112.344 415.726 112.196C416.034 112.048 416.282 111.846 416.47 111.59C416.658 111.33 416.78 111.038 416.836 110.714C416.884 110.506 416.91 110.278 416.914 110.03C416.918 109.778 416.92 109.59 416.92 109.466L417.256 109.64C416.956 109.68 416.63 109.72 416.278 109.76C415.93 109.8 415.586 109.846 415.246 109.898C414.91 109.95 414.606 110.012 414.334 110.084C414.15 110.136 413.972 110.21 413.8 110.306C413.628 110.398 413.486 110.522 413.374 110.678C413.266 110.834 413.212 111.028 413.212 111.26C413.212 111.448 413.258 111.63 413.35 111.806C413.446 111.982 413.598 112.128 413.806 112.244C414.018 112.36 414.298 112.418 414.646 112.418Z" fill="#6D7488"/>
    <rect x="0.5" y="0.5" width="458" height="141" rx="19.5" stroke="#EBEDF2"/>
    <rect x="313" y="22" width="88" height="26" rx="13" fill="#FEEEF0"/>
    <path d="M336.389 39.15C335.895 39.15 335.465 39.0783 335.099 38.935C334.735 38.7883 334.434 38.5983 334.194 38.365C333.957 38.1283 333.777 37.875 333.654 37.605L334.444 37.115C334.524 37.325 334.647 37.52 334.814 37.7C334.984 37.88 335.2 38.025 335.464 38.135C335.73 38.245 336.05 38.3 336.424 38.3C336.804 38.3 337.122 38.2417 337.379 38.125C337.635 38.005 337.827 37.8433 337.954 37.64C338.084 37.4333 338.149 37.1967 338.149 36.93C338.149 36.6267 338.074 36.3933 337.924 36.23C337.774 36.0633 337.572 35.9467 337.319 35.88C337.069 35.81 336.792 35.77 336.489 35.76C336.252 35.75 336.082 35.7433 335.979 35.74C335.875 35.7367 335.805 35.735 335.769 35.735C335.735 35.735 335.704 35.735 335.674 35.735V34.885C335.704 34.885 335.767 34.885 335.864 34.885C335.96 34.885 336.062 34.885 336.169 34.885C336.275 34.8817 336.36 34.8783 336.424 34.875C336.87 34.8517 337.225 34.7383 337.489 34.535C337.752 34.3283 337.884 34.045 337.884 33.685C337.884 33.3117 337.749 33.02 337.479 32.81C337.212 32.6 336.864 32.495 336.434 32.495C336.027 32.495 335.68 32.59 335.394 32.78C335.11 32.97 334.884 33.215 334.714 33.515L334.029 32.93C334.262 32.56 334.585 32.255 334.999 32.015C335.415 31.7717 335.902 31.65 336.459 31.65C336.765 31.65 337.06 31.6917 337.344 31.775C337.63 31.855 337.884 31.9783 338.104 32.145C338.327 32.3083 338.504 32.5167 338.634 32.77C338.764 33.02 338.829 33.3167 338.829 33.66C338.829 34.03 338.75 34.3583 338.594 34.645C338.437 34.9317 338.232 35.1533 337.979 35.31C338.329 35.4267 338.602 35.62 338.799 35.89C338.995 36.16 339.094 36.51 339.094 36.94C339.094 37.39 338.979 37.78 338.749 38.11C338.522 38.44 338.205 38.6967 337.799 38.88C337.392 39.06 336.922 39.15 336.389 39.15ZM341.681 39.15C341.278 39.15 340.94 39.0767 340.666 38.93C340.396 38.78 340.191 38.5833 340.051 38.34C339.915 38.0967 339.846 37.83 339.846 37.54C339.846 37.2567 339.9 37.0117 340.006 36.805C340.116 36.595 340.27 36.4217 340.466 36.285C340.663 36.145 340.898 36.035 341.171 35.955C341.428 35.885 341.715 35.825 342.031 35.775C342.351 35.7217 342.675 35.6733 343.001 35.63C343.328 35.5867 343.633 35.545 343.916 35.505L343.596 35.69C343.606 35.21 343.51 34.855 343.306 34.625C343.106 34.395 342.76 34.28 342.266 34.28C341.94 34.28 341.653 34.355 341.406 34.505C341.163 34.6517 340.991 34.8917 340.891 35.225L340.046 34.97C340.176 34.4967 340.428 34.125 340.801 33.855C341.175 33.585 341.666 33.45 342.276 33.45C342.766 33.45 343.186 33.5383 343.536 33.715C343.89 33.8883 344.143 34.1517 344.296 34.505C344.373 34.6717 344.421 34.8533 344.441 35.05C344.461 35.2433 344.471 35.4467 344.471 35.66V39H343.681V37.705L343.866 37.825C343.663 38.2617 343.378 38.5917 343.011 38.815C342.648 39.0383 342.205 39.15 341.681 39.15ZM341.816 38.405C342.136 38.405 342.413 38.3483 342.646 38.235C342.883 38.1183 343.073 37.9667 343.216 37.78C343.36 37.59 343.453 37.3833 343.496 37.16C343.546 36.9933 343.573 36.8083 343.576 36.605C343.583 36.3983 343.586 36.24 343.586 36.13L343.896 36.265C343.606 36.305 343.321 36.3433 343.041 36.38C342.761 36.4167 342.496 36.4567 342.246 36.5C341.996 36.54 341.771 36.5883 341.571 36.645C341.425 36.6917 341.286 36.7517 341.156 36.825C341.03 36.8983 340.926 36.9933 340.846 37.11C340.77 37.2233 340.731 37.365 340.731 37.535C340.731 37.6817 340.768 37.8217 340.841 37.955C340.918 38.0883 341.035 38.1967 341.191 38.28C341.351 38.3633 341.56 38.405 341.816 38.405ZM345.766 39V33.6H350.191V39H349.301V34.445H346.656V39H345.766ZM353.892 39.15C353.355 39.15 352.892 39.0283 352.502 38.785C352.115 38.5417 351.817 38.205 351.607 37.775C351.397 37.345 351.292 36.8517 351.292 36.295C351.292 35.7283 351.398 35.2317 351.612 34.805C351.825 34.3783 352.127 34.0467 352.517 33.81C352.907 33.57 353.365 33.45 353.892 33.45C354.432 33.45 354.897 33.5717 355.287 33.815C355.677 34.055 355.975 34.39 356.182 34.82C356.392 35.2467 356.497 35.7383 356.497 36.295C356.497 36.8583 356.392 37.355 356.182 37.785C355.972 38.2117 355.672 38.5467 355.282 38.79C354.892 39.03 354.428 39.15 353.892 39.15ZM353.892 38.305C354.452 38.305 354.868 38.1183 355.142 37.745C355.415 37.3717 355.552 36.8883 355.552 36.295C355.552 35.685 355.413 35.2 355.137 34.84C354.86 34.4767 354.445 34.295 353.892 34.295C353.515 34.295 353.205 34.38 352.962 34.55C352.718 34.72 352.537 34.955 352.417 35.255C352.297 35.555 352.237 35.9017 352.237 36.295C352.237 36.9017 352.377 37.3883 352.657 37.755C352.937 38.1217 353.348 38.305 353.892 38.305ZM357.097 39V38.235C357.297 38.2717 357.449 38.265 357.552 38.215C357.659 38.1617 357.737 38.07 357.787 37.94C357.841 37.8067 357.884 37.64 357.917 37.44C357.974 37.1233 358.022 36.77 358.062 36.38C358.106 35.99 358.144 35.5633 358.177 35.1C358.214 34.6333 358.247 34.1333 358.277 33.6H362.052V39H361.162V34.445H359.087C359.067 34.7517 359.042 35.0667 359.012 35.39C358.986 35.7133 358.957 36.0283 358.927 36.335C358.897 36.6383 358.864 36.9217 358.827 37.185C358.794 37.445 358.757 37.67 358.717 37.86C358.654 38.1867 358.566 38.4483 358.452 38.645C358.339 38.8383 358.176 38.9633 357.962 39.02C357.749 39.08 357.461 39.0733 357.097 39ZM363.452 39V33.6H364.342V35.875H367.182V33.6H368.072V39H367.182V36.72H364.342V39H363.452ZM371.812 39.15C371.282 39.15 370.819 39.0333 370.422 38.8C370.029 38.5633 369.722 38.235 369.502 37.815C369.282 37.3917 369.172 36.8983 369.172 36.335C369.172 35.745 369.281 35.235 369.497 34.805C369.714 34.3717 370.016 34.0383 370.402 33.805C370.792 33.5683 371.249 33.45 371.772 33.45C372.316 33.45 372.777 33.575 373.157 33.825C373.541 34.075 373.827 34.4317 374.017 34.895C374.211 35.3583 374.294 35.91 374.267 36.55H373.367V36.23C373.357 35.5667 373.222 35.0717 372.962 34.745C372.702 34.415 372.316 34.25 371.802 34.25C371.252 34.25 370.834 34.4267 370.547 34.78C370.261 35.1333 370.117 35.64 370.117 36.3C370.117 36.9367 370.261 37.43 370.547 37.78C370.834 38.13 371.242 38.305 371.772 38.305C372.129 38.305 372.439 38.2233 372.702 38.06C372.966 37.8967 373.172 37.6617 373.322 37.355L374.177 37.65C373.967 38.1267 373.651 38.4967 373.227 38.76C372.807 39.02 372.336 39.15 371.812 39.15ZM369.817 36.55V35.835H373.807V36.55H369.817ZM375.376 39V33.6H376.266V35.875H379.106V33.6H379.996V39H379.106V36.72H376.266V39H375.376Z" fill="#0F1015"/>
    <defs>
        <clipPath id="clip0_19002_112382">
            <rect x="226.75" y="105" width="52" height="6" rx="3" fill="white"/>
        </clipPath>
    </defs>
</svg>