<svg width="459" height="142" viewBox="0 0 459 142" fill="none" xmlns="http://www.w3.org/2000/svg">
    <rect x="0.5" y="0.5" width="458" height="141" rx="19.5" fill="white"/>
    <path d="M18.466 30.994L19.162 28.396H16.72L16.942 27.55H19.39L19.9 25.624H17.458L17.686 24.778H20.134L20.776 22.36H21.658L21.004 24.778H23.014L23.656 22.36H24.538L23.884 24.778H26.326L26.098 25.624H23.662L23.14 27.55H25.582L25.354 28.396H22.918L22.222 30.994H21.346L22.036 28.396H20.038L19.342 30.994H18.466ZM20.266 27.55H22.27L22.78 25.624H20.782L20.266 27.55ZM29.3968 31V23.344L27.7708 24.322V23.332L29.3968 22.36H30.2908V31H29.3968ZM35.4106 22.186C35.9546 22.186 36.4466 22.318 36.8866 22.582C37.3306 22.842 37.6826 23.198 37.9426 23.65C38.2026 24.098 38.3326 24.602 38.3326 25.162V28.162C38.3326 28.738 38.2026 29.254 37.9426 29.71C37.6826 30.166 37.3266 30.526 36.8746 30.79C36.4266 31.05 35.9166 31.18 35.3446 31.18C34.8526 31.18 34.3966 31.072 33.9766 30.856C33.5606 30.636 33.2166 30.334 32.9446 29.95L33.6166 29.392C33.8006 29.676 34.0446 29.904 34.3486 30.076C34.6566 30.248 34.9886 30.334 35.3446 30.334C35.7526 30.334 36.1126 30.238 36.4246 30.046C36.7406 29.85 36.9886 29.594 37.1686 29.278C37.3526 28.958 37.4446 28.612 37.4446 28.24V26.356L37.6606 26.608C37.4126 27.004 37.0826 27.324 36.6706 27.568C36.2626 27.812 35.8146 27.934 35.3266 27.934C34.7946 27.934 34.3126 27.806 33.8806 27.55C33.4526 27.294 33.1126 26.95 32.8606 26.518C32.6126 26.086 32.4886 25.604 32.4886 25.072C32.4886 24.54 32.6206 24.056 32.8846 23.62C33.1486 23.18 33.5026 22.832 33.9466 22.576C34.3906 22.316 34.8786 22.186 35.4106 22.186ZM35.4106 23.038C35.0346 23.038 34.6926 23.13 34.3846 23.314C34.0766 23.494 33.8306 23.738 33.6466 24.046C33.4666 24.354 33.3766 24.696 33.3766 25.072C33.3766 25.448 33.4666 25.79 33.6466 26.098C33.8266 26.406 34.0706 26.652 34.3786 26.836C34.6866 27.016 35.0286 27.106 35.4046 27.106C35.7806 27.106 36.1226 27.016 36.4306 26.836C36.7426 26.652 36.9886 26.406 37.1686 26.098C37.3526 25.79 37.4446 25.448 37.4446 25.072C37.4446 24.7 37.3526 24.36 37.1686 24.052C36.9886 23.744 36.7446 23.498 36.4366 23.314C36.1286 23.13 35.7866 23.038 35.4106 23.038ZM39.768 30.994L39.774 30.19L43.68 26.662C44.016 26.358 44.238 26.07 44.346 25.798C44.458 25.522 44.514 25.234 44.514 24.934C44.514 24.578 44.43 24.256 44.262 23.968C44.094 23.68 43.868 23.452 43.584 23.284C43.3 23.112 42.982 23.026 42.63 23.026C42.262 23.026 41.934 23.114 41.646 23.29C41.358 23.466 41.13 23.698 40.962 23.986C40.798 24.274 40.718 24.588 40.722 24.928H39.822C39.822 24.404 39.946 23.934 40.194 23.518C40.442 23.102 40.778 22.776 41.202 22.54C41.626 22.3 42.106 22.18 42.642 22.18C43.166 22.18 43.636 22.304 44.052 22.552C44.472 22.796 44.802 23.128 45.042 23.548C45.286 23.964 45.408 24.428 45.408 24.94C45.408 25.3 45.364 25.618 45.276 25.894C45.192 26.166 45.058 26.42 44.874 26.656C44.694 26.888 44.464 27.128 44.184 27.376L40.716 30.508L40.578 30.148H45.408V30.994H39.768ZM47.3137 31L50.4937 23.218H46.4917V22.36H51.4357V23.218L48.2617 31H47.3137ZM55.7972 31.18C55.2572 31.18 54.7652 31.05 54.3212 30.79C53.8812 30.526 53.5292 30.17 53.2652 29.722C53.0052 29.27 52.8752 28.762 52.8752 28.198V25.204C52.8752 24.624 53.0052 24.108 53.2652 23.656C53.5252 23.2 53.8792 22.842 54.3272 22.582C54.7792 22.318 55.2912 22.186 55.8632 22.186C56.3552 22.186 56.8112 22.294 57.2312 22.51C57.6552 22.726 58.0012 23.028 58.2692 23.416L57.5912 23.974C57.4072 23.686 57.1632 23.456 56.8592 23.284C56.5552 23.112 56.2232 23.026 55.8632 23.026C55.4592 23.026 55.0992 23.124 54.7832 23.32C54.4672 23.516 54.2192 23.774 54.0392 24.094C53.8592 24.41 53.7692 24.754 53.7692 25.126V27.01L53.5472 26.758C53.7992 26.362 54.1292 26.042 54.5372 25.798C54.9492 25.554 55.3972 25.432 55.8812 25.432C56.4172 25.432 56.8992 25.56 57.3272 25.816C57.7552 26.068 58.0952 26.41 58.3472 26.842C58.5992 27.274 58.7252 27.758 58.7252 28.294C58.7252 28.826 58.5912 29.31 58.3232 29.746C58.0592 30.182 57.7052 30.53 57.2612 30.79C56.8212 31.05 56.3332 31.18 55.7972 31.18ZM55.7972 30.322C56.1732 30.322 56.5152 30.232 56.8232 30.052C57.1352 29.872 57.3812 29.628 57.5612 29.32C57.7452 29.012 57.8372 28.67 57.8372 28.294C57.8372 27.918 57.7452 27.576 57.5612 27.268C57.3812 26.956 57.1372 26.71 56.8292 26.53C56.5212 26.346 56.1792 26.254 55.8032 26.254C55.4272 26.254 55.0852 26.346 54.7772 26.53C54.4692 26.71 54.2232 26.956 54.0392 27.268C53.8592 27.576 53.7692 27.918 53.7692 28.294C53.7692 28.666 53.8592 29.006 54.0392 29.314C54.2192 29.622 54.4632 29.868 54.7712 30.052C55.0792 30.232 55.4212 30.322 55.7972 30.322ZM64.1206 31V29.326H60.0766V28.486L62.9686 22.36H63.9586L61.0666 28.486H64.1206V25.966H65.0086V28.486H65.9506V29.326H65.0086V31H64.1206ZM70.1215 22.186C70.6655 22.186 71.1575 22.318 71.5975 22.582C72.0415 22.842 72.3935 23.198 72.6535 23.65C72.9135 24.098 73.0435 24.602 73.0435 25.162V28.162C73.0435 28.738 72.9135 29.254 72.6535 29.71C72.3935 30.166 72.0375 30.526 71.5855 30.79C71.1375 31.05 70.6275 31.18 70.0555 31.18C69.5635 31.18 69.1075 31.072 68.6875 30.856C68.2715 30.636 67.9275 30.334 67.6555 29.95L68.3275 29.392C68.5115 29.676 68.7555 29.904 69.0595 30.076C69.3675 30.248 69.6995 30.334 70.0555 30.334C70.4635 30.334 70.8235 30.238 71.1355 30.046C71.4515 29.85 71.6995 29.594 71.8795 29.278C72.0635 28.958 72.1555 28.612 72.1555 28.24V26.356L72.3715 26.608C72.1235 27.004 71.7935 27.324 71.3815 27.568C70.9735 27.812 70.5255 27.934 70.0375 27.934C69.5055 27.934 69.0235 27.806 68.5915 27.55C68.1635 27.294 67.8235 26.95 67.5715 26.518C67.3235 26.086 67.1995 25.604 67.1995 25.072C67.1995 24.54 67.3315 24.056 67.5955 23.62C67.8595 23.18 68.2135 22.832 68.6575 22.576C69.1015 22.316 69.5895 22.186 70.1215 22.186ZM70.1215 23.038C69.7455 23.038 69.4035 23.13 69.0955 23.314C68.7875 23.494 68.5415 23.738 68.3575 24.046C68.1775 24.354 68.0875 24.696 68.0875 25.072C68.0875 25.448 68.1775 25.79 68.3575 26.098C68.5375 26.406 68.7815 26.652 69.0895 26.836C69.3975 27.016 69.7395 27.106 70.1155 27.106C70.4915 27.106 70.8335 27.016 71.1415 26.836C71.4535 26.652 71.6995 26.406 71.8795 26.098C72.0635 25.79 72.1555 25.448 72.1555 25.072C72.1555 24.7 72.0635 24.36 71.8795 24.052C71.6995 23.744 71.4555 23.498 71.1475 23.314C70.8395 23.13 70.4975 23.038 70.1215 23.038ZM76.2249 31V23.344L74.5989 24.322V23.332L76.2249 22.36H77.1189V31H76.2249ZM80.9007 31V23.344L79.2747 24.322V23.332L80.9007 22.36H81.7947V31H80.9007ZM85.5765 31V23.344L83.9505 24.322V23.332L85.5765 22.36H86.4705V31H85.5765Z" fill="#0F1015"/>
    <rect x="16" y="45" width="36" height="36" rx="12" fill="#F5F6F9"/>
    <path fill-rule="evenodd" clip-rule="evenodd" d="M33.9999 60.7142C33.9999 60.3986 33.7441 60.1428 33.4285 60.1428C33.1129 60.1428 32.8571 60.3986 32.8571 60.7142V61.8571H31.7142C31.3986 61.8571 31.1428 62.1129 31.1428 62.4285C31.1428 62.7441 31.3986 62.9999 31.7142 62.9999H32.8571V64.1428C32.8571 64.4584 33.1129 64.7142 33.4285 64.7142C33.7441 64.7142 33.9999 64.4584 33.9999 64.1428V62.9999H35.1428C35.4584 62.9999 35.7142 62.7441 35.7142 62.4285C35.7142 62.1129 35.4584 61.8571 35.1428 61.8571H33.9999V60.7142Z" fill="#555D74"/>
    <path fill-rule="evenodd" clip-rule="evenodd" d="M33.4285 57.2856C30.5882 57.2856 28.2856 59.5882 28.2856 62.4285C28.2856 65.2688 30.5882 67.5714 33.4285 67.5714C34.6428 67.5714 35.7588 67.1505 36.6386 66.4467L39.3102 69.1183C39.5333 69.3414 39.8951 69.3414 40.1183 69.1183C40.3414 68.8951 40.3414 68.5333 40.1183 68.3102L37.4467 65.6386C38.1505 64.7588 38.5714 63.6428 38.5714 62.4285C38.5714 59.5882 36.2688 57.2856 33.4285 57.2856ZM33.4285 58.4285C31.2194 58.4285 29.4285 60.2194 29.4285 62.4285C29.4285 64.6376 31.2194 66.4285 33.4285 66.4285C35.6376 66.4285 37.4285 64.6376 37.4285 62.4285C37.4285 60.2194 35.6376 58.4285 33.4285 58.4285Z" fill="#555D74"/>
    <path d="M62.555 57V50.645H60.1V49.8H65.9V50.645H63.445V57H62.555ZM67.528 57.15C67.1246 57.15 66.7863 57.0767 66.513 56.93C66.243 56.78 66.038 56.5833 65.898 56.34C65.7613 56.0967 65.693 55.83 65.693 55.54C65.693 55.2567 65.7463 55.0117 65.853 54.805C65.963 54.595 66.1163 54.4217 66.313 54.285C66.5096 54.145 66.7446 54.035 67.018 53.955C67.2746 53.885 67.5613 53.825 67.878 53.775C68.198 53.7217 68.5213 53.6733 68.848 53.63C69.1746 53.5867 69.4796 53.545 69.763 53.505L69.443 53.69C69.453 53.21 69.3563 52.855 69.153 52.625C68.953 52.395 68.6063 52.28 68.113 52.28C67.7863 52.28 67.4996 52.355 67.253 52.505C67.0096 52.6517 66.838 52.8917 66.738 53.225L65.893 52.97C66.023 52.4967 66.2746 52.125 66.648 51.855C67.0213 51.585 67.513 51.45 68.123 51.45C68.613 51.45 69.033 51.5383 69.383 51.715C69.7363 51.8883 69.9896 52.1517 70.143 52.505C70.2196 52.6717 70.268 52.8533 70.288 53.05C70.308 53.2433 70.318 53.4467 70.318 53.66V57H69.528V55.705L69.713 55.825C69.5096 56.2617 69.2246 56.5917 68.858 56.815C68.4946 57.0383 68.0513 57.15 67.528 57.15ZM67.663 56.405C67.983 56.405 68.2596 56.3483 68.493 56.235C68.7296 56.1183 68.9196 55.9667 69.063 55.78C69.2063 55.59 69.2996 55.3833 69.343 55.16C69.393 54.9933 69.4196 54.8083 69.423 54.605C69.4296 54.3983 69.433 54.24 69.433 54.13L69.743 54.265C69.453 54.305 69.168 54.3433 68.888 54.38C68.608 54.4167 68.343 54.4567 68.093 54.5C67.843 54.54 67.618 54.5883 67.418 54.645C67.2713 54.6917 67.133 54.7517 67.003 54.825C66.8763 54.8983 66.773 54.9933 66.693 55.11C66.6163 55.2233 66.578 55.365 66.578 55.535C66.578 55.6817 66.6146 55.8217 66.688 55.955C66.7646 56.0883 66.8813 56.1967 67.038 56.28C67.198 56.3633 67.4063 56.405 67.663 56.405ZM71.613 57V51.6H72.473V56.19H74.333V51.6H75.193V56.19H77.048V51.6H77.908V57H71.613ZM79.2985 57L79.3035 51.6H80.2035V54.2L82.4685 51.6H83.6235L81.2385 54.3L83.9035 57H82.6585L80.2035 54.4V57H79.2985ZM86.5459 57.15C86.0159 57.15 85.5525 57.0333 85.1559 56.8C84.7625 56.5633 84.4559 56.235 84.2359 55.815C84.0159 55.3917 83.9059 54.8983 83.9059 54.335C83.9059 53.745 84.0142 53.235 84.2309 52.805C84.4475 52.3717 84.7492 52.0383 85.1359 51.805C85.5259 51.5683 85.9825 51.45 86.5059 51.45C87.0492 51.45 87.5109 51.575 87.8909 51.825C88.2742 52.075 88.5609 52.4317 88.7509 52.895C88.9442 53.3583 89.0275 53.91 89.0009 54.55H88.1009V54.23C88.0909 53.5667 87.9559 53.0717 87.6959 52.745C87.4359 52.415 87.0492 52.25 86.5359 52.25C85.9859 52.25 85.5675 52.4267 85.2809 52.78C84.9942 53.1333 84.8509 53.64 84.8509 54.3C84.8509 54.9367 84.9942 55.43 85.2809 55.78C85.5675 56.13 85.9759 56.305 86.5059 56.305C86.8625 56.305 87.1725 56.2233 87.4359 56.06C87.6992 55.8967 87.9059 55.6617 88.0559 55.355L88.9109 55.65C88.7009 56.1267 88.3842 56.4967 87.9609 56.76C87.5409 57.02 87.0692 57.15 86.5459 57.15ZM84.5509 54.55V53.835H88.5409V54.55H84.5509ZM90.1091 57V51.6H90.9991V53.875H93.8391V51.6H94.7291V57H93.8391V54.72H90.9991V57H90.1091ZM97.5597 57V52.41H95.6797V51.6H100.33V52.41H98.4497V57H97.5597ZM103.454 57.15C102.907 57.15 102.442 57.0283 102.059 56.785C101.679 56.5383 101.389 56.2 101.189 55.77C100.989 55.34 100.885 54.85 100.879 54.3C100.885 53.7367 100.99 53.2417 101.194 52.815C101.4 52.385 101.695 52.05 102.079 51.81C102.462 51.57 102.924 51.45 103.464 51.45C104.034 51.45 104.524 51.59 104.934 51.87C105.347 52.15 105.624 52.5333 105.764 53.02L104.884 53.285C104.77 52.9717 104.585 52.7283 104.329 52.555C104.075 52.3817 103.784 52.295 103.454 52.295C103.084 52.295 102.779 52.3817 102.539 52.555C102.299 52.725 102.12 52.9617 102.004 53.265C101.887 53.565 101.827 53.91 101.824 54.3C101.83 54.9 101.969 55.385 102.239 55.755C102.512 56.1217 102.917 56.305 103.454 56.305C103.807 56.305 104.1 56.225 104.334 56.065C104.567 55.9017 104.744 55.6667 104.864 55.36L105.764 55.595C105.577 56.0983 105.285 56.4833 104.889 56.75C104.492 57.0167 104.014 57.15 103.454 57.15ZM106.779 57L106.784 51.6H107.684V54.2L109.949 51.6H111.104L108.719 54.3L111.384 57H110.139L107.684 54.4V57H106.779ZM113.417 57.15C113.013 57.15 112.675 57.0767 112.402 56.93C112.132 56.78 111.927 56.5833 111.787 56.34C111.65 56.0967 111.582 55.83 111.582 55.54C111.582 55.2567 111.635 55.0117 111.742 54.805C111.852 54.595 112.005 54.4217 112.202 54.285C112.398 54.145 112.633 54.035 112.907 53.955C113.163 53.885 113.45 53.825 113.767 53.775C114.087 53.7217 114.41 53.6733 114.737 53.63C115.063 53.5867 115.368 53.545 115.652 53.505L115.332 53.69C115.342 53.21 115.245 52.855 115.042 52.625C114.842 52.395 114.495 52.28 114.002 52.28C113.675 52.28 113.388 52.355 113.142 52.505C112.898 52.6517 112.727 52.8917 112.627 53.225L111.782 52.97C111.912 52.4967 112.163 52.125 112.537 51.855C112.91 51.585 113.402 51.45 114.012 51.45C114.502 51.45 114.922 51.5383 115.272 51.715C115.625 51.8883 115.878 52.1517 116.032 52.505C116.108 52.6717 116.157 52.8533 116.177 53.05C116.197 53.2433 116.207 53.4467 116.207 53.66V57H115.417V55.705L115.602 55.825C115.398 56.2617 115.113 56.5917 114.747 56.815C114.383 57.0383 113.94 57.15 113.417 57.15ZM113.552 56.405C113.872 56.405 114.148 56.3483 114.382 56.235C114.618 56.1183 114.808 55.9667 114.952 55.78C115.095 55.59 115.188 55.3833 115.232 55.16C115.282 54.9933 115.308 54.8083 115.312 54.605C115.318 54.3983 115.322 54.24 115.322 54.13L115.632 54.265C115.342 54.305 115.057 54.3433 114.777 54.38C114.497 54.4167 114.232 54.4567 113.982 54.5C113.732 54.54 113.507 54.5883 113.307 54.645C113.16 54.6917 113.022 54.7517 112.892 54.825C112.765 54.8983 112.662 54.9933 112.582 55.11C112.505 55.2233 112.467 55.365 112.467 55.535C112.467 55.6817 112.503 55.8217 112.577 55.955C112.653 56.0883 112.77 56.1967 112.927 56.28C113.087 56.3633 113.295 56.405 113.552 56.405ZM120.842 57V55.045H119.677C119.54 55.045 119.388 55.04 119.222 55.03C119.058 55.0167 118.905 54.9983 118.762 54.975C118.372 54.9017 118.042 54.73 117.772 54.46C117.505 54.19 117.372 53.8167 117.372 53.34C117.372 52.8767 117.497 52.505 117.747 52.225C118 51.9417 118.312 51.7583 118.682 51.675C118.848 51.635 119.017 51.6133 119.187 51.61C119.36 51.6033 119.507 51.6 119.627 51.6H121.732L121.737 57H120.842ZM117.207 57L118.642 54.8H119.602L118.167 57H117.207ZM119.612 54.31H120.842V52.335H119.612C119.535 52.335 119.433 52.3383 119.307 52.345C119.183 52.3517 119.065 52.3717 118.952 52.405C118.845 52.435 118.74 52.49 118.637 52.57C118.537 52.65 118.453 52.7533 118.387 52.88C118.32 53.0067 118.287 53.1567 118.287 53.33C118.287 53.58 118.357 53.7833 118.497 53.94C118.637 54.0933 118.807 54.1967 119.007 54.25C119.117 54.2767 119.225 54.2933 119.332 54.3C119.442 54.3067 119.535 54.31 119.612 54.31ZM123.041 58.12L123.096 57.705C123.236 57.715 123.341 57.6883 123.411 57.625C123.481 57.5617 123.526 57.475 123.546 57.365C123.566 57.255 123.57 57.1333 123.556 57H123.041V55.87H124.021V57.15C124.021 57.5 123.935 57.7633 123.761 57.94C123.591 58.1167 123.351 58.1767 123.041 58.12ZM127.727 56.995L127.732 56.195L130.927 53.32C131.193 53.08 131.372 52.8533 131.462 52.64C131.555 52.4233 131.602 52.2017 131.602 51.975C131.602 51.6983 131.538 51.4483 131.412 51.225C131.285 51.0017 131.112 50.825 130.892 50.695C130.675 50.565 130.428 50.5 130.152 50.5C129.865 50.5 129.61 50.5683 129.387 50.705C129.163 50.8383 128.987 51.0167 128.857 51.24C128.73 51.4633 128.668 51.7067 128.672 51.97H127.762C127.762 51.5167 127.867 51.1167 128.077 50.77C128.287 50.42 128.572 50.1467 128.932 49.95C129.295 49.75 129.707 49.65 130.167 49.65C130.613 49.65 131.013 49.7533 131.367 49.96C131.72 50.1633 131.998 50.4417 132.202 50.795C132.408 51.145 132.512 51.5417 132.512 51.985C132.512 52.2983 132.472 52.57 132.392 52.8C132.315 53.03 132.195 53.2433 132.032 53.44C131.868 53.6333 131.663 53.84 131.417 54.06L128.762 56.445L128.647 56.145H132.512V56.995H127.727ZM136.138 57.15C135.671 57.15 135.254 57.045 134.888 56.835C134.524 56.6217 134.236 56.3333 134.023 55.97C133.813 55.6033 133.708 55.1867 133.708 54.72V52.08C133.708 51.6133 133.813 51.1967 134.023 50.83C134.236 50.4633 134.524 50.175 134.888 49.965C135.254 49.755 135.671 49.65 136.138 49.65C136.604 49.65 137.021 49.755 137.388 49.965C137.754 50.175 138.043 50.4633 138.253 50.83C138.463 51.1967 138.568 51.6133 138.568 52.08V54.72C138.568 55.1867 138.463 55.6033 138.253 55.97C138.043 56.3333 137.754 56.6217 137.388 56.835C137.021 57.045 136.604 57.15 136.138 57.15ZM136.138 56.295C136.421 56.295 136.678 56.2267 136.908 56.09C137.138 55.9533 137.321 55.77 137.458 55.54C137.594 55.3067 137.663 55.05 137.663 54.77V52.025C137.663 51.7417 137.594 51.485 137.458 51.255C137.321 51.025 137.138 50.8417 136.908 50.705C136.678 50.5683 136.421 50.5 136.138 50.5C135.858 50.5 135.601 50.5683 135.368 50.705C135.138 50.8417 134.954 51.025 134.818 51.255C134.681 51.485 134.613 51.7417 134.613 52.025V54.77C134.613 55.05 134.681 55.3067 134.818 55.54C134.954 55.77 135.138 55.9533 135.368 56.09C135.601 56.2267 135.858 56.295 136.138 56.295Z" fill="#9EA2B0"/>
    <path d="M60.84 77V68.36H61.812L65.076 75.242L68.322 68.36H69.306V76.994H68.292V70.706L65.358 77H64.788L61.854 70.706V77H60.84ZM77.6904 78.2V77H70.9884V68.36H72.0564V76.028H76.7604V68.48H77.8284V76.028H78.7584V78.2H77.6904ZM79.2989 78.44V75.986C79.6149 75.986 79.8709 75.906 80.0669 75.746C80.2669 75.586 80.4229 75.37 80.5349 75.098C80.6469 74.822 80.7309 74.512 80.7869 74.168C80.8469 73.824 80.8949 73.468 80.9309 73.1C80.9829 72.58 81.0249 72.076 81.0569 71.588C81.0929 71.1 81.1249 70.594 81.1529 70.07C81.1809 69.546 81.2129 68.974 81.2489 68.354L86.6789 68.36V75.986H87.3089V78.44H86.2409V77H80.3669V78.44H79.2989ZM81.1709 75.986H85.6109V69.374L82.2389 69.368C82.2149 69.832 82.1909 70.278 82.1669 70.706C82.1469 71.13 82.1209 71.558 82.0889 71.99C82.0569 72.422 82.0169 72.88 81.9689 73.364C81.9249 73.812 81.8749 74.2 81.8189 74.528C81.7669 74.852 81.6909 75.132 81.5909 75.368C81.4909 75.6 81.3509 75.806 81.1709 75.986Z" fill="#0F1015"/>
    <rect x="407" y="16" width="36" height="36" rx="12" fill="#F5F6F9"/>
    <path d="M429 32.6665C429.733 32.6665 430.333 33.2665 430.333 33.9998C430.333 34.7332 429.733 35.3332 429 35.3332C428.267 35.3332 427.667 34.7332 427.667 33.9998C427.667 33.2665 428.267 32.6665 429 32.6665ZM425 35.3332C424.267 35.3332 423.667 34.7332 423.667 33.9998C423.667 33.2665 424.267 32.6665 425 32.6665C425.733 32.6665 426.333 33.2665 426.333 33.9998C426.333 34.7332 425.733 35.3332 425 35.3332ZM421 35.3332C420.267 35.3332 419.667 34.7332 419.667 33.9998C419.667 33.2665 420.267 32.6665 421 32.6665C421.733 32.6665 422.333 33.2665 422.333 33.9998C422.333 34.7332 421.733 35.3332 421 35.3332Z" fill="#555D74"/>
    <path d="M16.84 113V104.36H20.176C20.26 104.36 20.354 104.364 20.458 104.372C20.566 104.376 20.674 104.388 20.782 104.408C21.234 104.476 21.616 104.634 21.928 104.882C22.244 105.126 22.482 105.434 22.642 105.806C22.806 106.178 22.888 106.59 22.888 107.042C22.888 107.49 22.806 107.9 22.642 108.272C22.478 108.644 22.238 108.954 21.922 109.202C21.61 109.446 21.23 109.602 20.782 109.67C20.674 109.686 20.566 109.698 20.458 109.706C20.354 109.714 20.26 109.718 20.176 109.718H17.722V113H16.84ZM17.722 108.878H20.152C20.224 108.878 20.308 108.874 20.404 108.866C20.5 108.858 20.594 108.844 20.686 108.824C20.982 108.76 21.224 108.638 21.412 108.458C21.604 108.278 21.746 108.064 21.838 107.816C21.934 107.568 21.982 107.31 21.982 107.042C21.982 106.774 21.934 106.516 21.838 106.268C21.746 106.016 21.604 105.8 21.412 105.62C21.224 105.44 20.982 105.318 20.686 105.254C20.594 105.234 20.5 105.222 20.404 105.218C20.308 105.21 20.224 105.206 20.152 105.206H17.722V108.878ZM26.8242 113.18C26.1922 113.18 25.6442 113.04 25.1802 112.76C24.7202 112.48 24.3622 112.086 24.1062 111.578C23.8502 111.07 23.7222 110.474 23.7222 109.79C23.7222 109.082 23.8482 108.47 24.1002 107.954C24.3522 107.438 24.7062 107.04 25.1622 106.76C25.6222 106.48 26.1642 106.34 26.7882 106.34C27.4282 106.34 27.9742 106.488 28.4262 106.784C28.8782 107.076 29.2202 107.496 29.4522 108.044C29.6842 108.592 29.7902 109.246 29.7702 110.006H28.8702V109.694C28.8542 108.854 28.6722 108.22 28.3242 107.792C27.9802 107.364 27.4762 107.15 26.8122 107.15C26.1162 107.15 25.5822 107.376 25.2102 107.828C24.8422 108.28 24.6582 108.924 24.6582 109.76C24.6582 110.576 24.8422 111.21 25.2102 111.662C25.5822 112.11 26.1082 112.334 26.7882 112.334C27.2522 112.334 27.6562 112.228 28.0002 112.016C28.3482 111.8 28.6222 111.49 28.8222 111.086L29.6442 111.404C29.3882 111.968 29.0102 112.406 28.5102 112.718C28.0142 113.026 27.4522 113.18 26.8242 113.18ZM24.3462 110.006V109.268H29.2962V110.006H24.3462ZM33.7897 105.752C33.5057 105.752 33.2457 105.682 33.0097 105.542C32.7737 105.402 32.5857 105.216 32.4457 104.984C32.3097 104.748 32.2417 104.488 32.2417 104.204H32.9737C32.9737 104.428 33.0537 104.62 33.2137 104.78C33.3737 104.94 33.5657 105.02 33.7897 105.02C34.0177 105.02 34.2097 104.94 34.3657 104.78C34.5257 104.62 34.6057 104.428 34.6057 104.204H35.3377C35.3377 104.488 35.2677 104.748 35.1277 104.984C34.9917 105.216 34.8057 105.402 34.5697 105.542C34.3337 105.682 34.0737 105.752 33.7897 105.752ZM36.2497 106.52V113H35.3917V107.954L31.8397 113H31.0957V106.52H31.9537V111.524L35.5117 106.52H36.2497ZM39.6918 113V107.336H37.3938V106.52H42.8718V107.336H40.5738V113H39.6918ZM49.1638 106.52V113H48.3058V107.954L44.7538 113H44.0098V106.52H44.8678V111.524L48.4258 106.52H49.1638ZM50.8418 113V106.52H51.7238V109.334H55.3778V106.52H56.2598V113H55.3778V110.18H51.7238V113H50.8418ZM57.9377 113V106.52H62.3777V107.366H58.8197V113H57.9377Z" fill="#9EA2B0"/>
    <path d="M75.13 113.21C74.486 113.21 73.9167 113.082 73.422 112.825C72.9273 112.564 72.54 112.202 72.26 111.74C71.98 111.278 71.84 110.739 71.84 110.123C71.84 109.521 71.9823 108.977 72.267 108.492C72.5563 108.007 72.9903 107.633 73.569 107.372L73.548 107.827C73.0767 107.598 72.715 107.276 72.463 106.861C72.211 106.441 72.085 105.977 72.085 105.468C72.085 104.899 72.2157 104.409 72.477 103.998C72.7383 103.587 73.0977 103.27 73.555 103.046C74.0123 102.822 74.5373 102.71 75.13 102.71C75.7227 102.71 76.2477 102.822 76.705 103.046C77.1623 103.27 77.5217 103.587 77.783 103.998C78.0443 104.409 78.175 104.899 78.175 105.468C78.175 105.977 78.056 106.439 77.818 106.854C77.58 107.265 77.2137 107.589 76.719 107.827L76.691 107.379C77.2697 107.631 77.7037 108.002 77.993 108.492C78.287 108.977 78.434 109.521 78.434 110.123C78.434 110.739 78.2917 111.278 78.007 111.74C77.727 112.202 77.3373 112.564 76.838 112.825C76.3433 113.082 75.774 113.21 75.13 113.21ZM75.13 112.02C75.718 112.02 76.194 111.859 76.558 111.537C76.9267 111.21 77.111 110.739 77.111 110.123C77.111 109.502 76.929 109.031 76.565 108.709C76.2057 108.382 75.7273 108.219 75.13 108.219C74.5373 108.219 74.059 108.382 73.695 108.709C73.3357 109.031 73.156 109.502 73.156 110.123C73.156 110.739 73.338 111.21 73.702 111.537C74.066 111.859 74.542 112.02 75.13 112.02ZM75.13 107.022C75.6433 107.022 76.0587 106.894 76.376 106.637C76.6933 106.376 76.852 105.986 76.852 105.468C76.852 104.95 76.6933 104.563 76.376 104.306C76.0587 104.045 75.6433 103.914 75.13 103.914C74.6213 103.914 74.206 104.045 73.884 104.306C73.5667 104.563 73.408 104.95 73.408 105.468C73.408 105.986 73.5667 106.376 73.884 106.637C74.206 106.894 74.6213 107.022 75.13 107.022ZM80.4755 113V111.628H81.8475V113H80.4755ZM88.3789 113V111.145H83.7449V109.962L87.0699 102.92H88.4839L85.1589 109.962H88.3789V107.127H89.6389V109.962H90.6889V111.145H89.6389V113H88.3789ZM94.9128 102.92H96.1798L93.4918 113H92.2248L94.9128 102.92ZM99.7546 113V104.299L97.8576 105.447V104.054L99.7546 102.92H101.022V113H99.7546ZM107.087 113.21C106.434 113.21 105.85 113.063 105.337 112.769C104.828 112.47 104.425 112.067 104.126 111.558C103.832 111.045 103.685 110.461 103.685 109.808V106.112C103.685 105.459 103.832 104.875 104.126 104.362C104.425 103.849 104.828 103.445 105.337 103.151C105.85 102.857 106.434 102.71 107.087 102.71C107.74 102.71 108.324 102.857 108.837 103.151C109.35 103.445 109.754 103.849 110.048 104.362C110.342 104.875 110.489 105.459 110.489 106.112V109.808C110.489 110.461 110.342 111.045 110.048 111.558C109.754 112.067 109.35 112.47 108.837 112.769C108.324 113.063 107.74 113.21 107.087 113.21ZM107.087 112.013C107.484 112.013 107.843 111.917 108.165 111.726C108.487 111.535 108.744 111.278 108.935 110.956C109.126 110.629 109.222 110.27 109.222 109.878V106.035C109.222 105.638 109.126 105.279 108.935 104.957C108.744 104.635 108.487 104.378 108.165 104.187C107.843 103.996 107.484 103.9 107.087 103.9C106.695 103.9 106.336 103.996 106.009 104.187C105.687 104.378 105.43 104.635 105.239 104.957C105.048 105.279 104.952 105.638 104.952 106.035V109.878C104.952 110.27 105.048 110.629 105.239 110.956C105.43 111.278 105.687 111.535 106.009 111.726C106.336 111.917 106.695 112.013 107.087 112.013Z" fill="#F62E46"/>
    <path d="M333.428 109.143C333.744 109.143 334 109.399 334 109.714V113.143C334 113.458 333.744 113.714 333.428 113.714C333.113 113.714 332.857 113.458 332.857 113.143V109.714C332.857 109.399 333.113 109.143 333.428 109.143ZM336.286 102.286C336.601 102.286 336.857 102.541 336.857 102.857V113.143C336.857 113.458 336.601 113.714 336.286 113.714C335.97 113.714 335.714 113.458 335.714 113.143V102.857C335.714 102.541 335.97 102.286 336.286 102.286ZM339.143 106.857C339.458 106.857 339.714 107.113 339.714 107.429V113.143C339.714 113.458 339.458 113.714 339.143 113.714C338.827 113.714 338.571 113.458 338.571 113.143V107.429C338.571 107.113 338.827 106.857 339.143 106.857ZM342 104.571C342.315 104.571 342.571 104.827 342.571 105.143V113.143C342.571 113.458 342.315 113.714 342 113.714C341.684 113.714 341.428 113.458 341.428 113.143V105.143C341.428 104.827 341.684 104.571 342 104.571Z" fill="#6D7488"/>
    <path d="M356.82 113.18C355.96 113.18 355.234 112.99 354.642 112.61C354.05 112.226 353.602 111.696 353.298 111.02C352.994 110.344 352.842 109.564 352.842 108.68C352.842 107.796 352.994 107.016 353.298 106.34C353.602 105.664 354.05 105.136 354.642 104.756C355.234 104.372 355.96 104.18 356.82 104.18C357.824 104.18 358.644 104.438 359.28 104.954C359.916 105.466 360.352 106.154 360.588 107.018L359.688 107.252C359.504 106.568 359.174 106.026 358.698 105.626C358.222 105.226 357.596 105.026 356.82 105.026C356.144 105.026 355.582 105.18 355.134 105.488C354.686 105.796 354.348 106.226 354.12 106.778C353.896 107.326 353.78 107.96 353.772 108.68C353.768 109.4 353.878 110.034 354.102 110.582C354.33 111.13 354.67 111.56 355.122 111.872C355.578 112.18 356.144 112.334 356.82 112.334C357.596 112.334 358.222 112.134 358.698 111.734C359.174 111.33 359.504 110.788 359.688 110.108L360.588 110.342C360.352 111.206 359.916 111.896 359.28 112.412C358.644 112.924 357.824 113.18 356.82 113.18ZM363.67 113V107.336H361.372V106.52H366.85V107.336H364.552V113H363.67ZM369.602 113.18C369.114 113.18 368.704 113.092 368.372 112.916C368.044 112.74 367.798 112.506 367.634 112.214C367.47 111.922 367.388 111.604 367.388 111.26C367.388 110.908 367.458 110.608 367.598 110.36C367.742 110.108 367.936 109.902 368.18 109.742C368.428 109.582 368.714 109.46 369.038 109.376C369.366 109.296 369.728 109.226 370.124 109.166C370.524 109.102 370.914 109.048 371.294 109.004C371.678 108.956 372.014 108.91 372.302 108.866L371.99 109.058C372.002 108.418 371.878 107.944 371.618 107.636C371.358 107.328 370.906 107.174 370.262 107.174C369.818 107.174 369.442 107.274 369.134 107.474C368.83 107.674 368.616 107.99 368.492 108.422L367.634 108.17C367.782 107.59 368.08 107.14 368.528 106.82C368.976 106.5 369.558 106.34 370.274 106.34C370.866 106.34 371.368 106.452 371.78 106.676C372.196 106.896 372.49 107.216 372.662 107.636C372.742 107.824 372.794 108.034 372.818 108.266C372.842 108.498 372.854 108.734 372.854 108.974V113H372.068V111.374L372.296 111.47C372.076 112.026 371.734 112.45 371.27 112.742C370.806 113.034 370.25 113.18 369.602 113.18ZM369.704 112.418C370.116 112.418 370.476 112.344 370.784 112.196C371.092 112.048 371.34 111.846 371.528 111.59C371.716 111.33 371.838 111.038 371.894 110.714C371.942 110.506 371.968 110.278 371.972 110.03C371.976 109.778 371.978 109.59 371.978 109.466L372.314 109.64C372.014 109.68 371.688 109.72 371.336 109.76C370.988 109.8 370.644 109.846 370.304 109.898C369.968 109.95 369.664 110.012 369.392 110.084C369.208 110.136 369.03 110.21 368.858 110.306C368.686 110.398 368.544 110.522 368.432 110.678C368.324 110.834 368.27 111.028 368.27 111.26C368.27 111.448 368.316 111.63 368.408 111.806C368.504 111.982 368.656 112.128 368.864 112.244C369.076 112.36 369.356 112.418 369.704 112.418ZM376.174 113V107.336H373.876V106.52H379.354V107.336H377.056V113H376.174ZM385.646 106.52V113H384.788V107.954L381.236 113H380.492V106.52H381.35V111.524L384.908 106.52H385.646ZM390.018 113.18C389.366 113.18 388.814 113.034 388.362 112.742C387.91 112.45 387.566 112.048 387.33 111.536C387.098 111.02 386.978 110.428 386.97 109.76C386.978 109.08 387.102 108.484 387.342 107.972C387.582 107.456 387.928 107.056 388.38 106.772C388.832 106.484 389.38 106.34 390.024 106.34C390.68 106.34 391.25 106.5 391.734 106.82C392.222 107.14 392.556 107.578 392.736 108.134L391.872 108.41C391.72 108.022 391.478 107.722 391.146 107.51C390.818 107.294 390.442 107.186 390.018 107.186C389.542 107.186 389.148 107.296 388.836 107.516C388.524 107.732 388.292 108.034 388.14 108.422C387.988 108.81 387.91 109.256 387.906 109.76C387.914 110.536 388.094 111.16 388.446 111.632C388.798 112.1 389.322 112.334 390.018 112.334C390.458 112.334 390.832 112.234 391.14 112.034C391.452 111.83 391.688 111.534 391.848 111.146L392.736 111.41C392.496 111.986 392.144 112.426 391.68 112.73C391.216 113.03 390.662 113.18 390.018 113.18ZM395.58 113V107.336H393.282V106.52H398.76V107.336H396.462V113H395.58ZM405.052 106.52V113H404.194V107.954L400.642 113H399.898V106.52H400.756V111.524L404.314 106.52H405.052ZM406.73 113L406.736 106.52H407.624V109.64L410.516 106.52H411.692L408.656 109.76L412.088 113H410.804L407.624 109.88V113H406.73ZM414.544 113.18C414.056 113.18 413.646 113.092 413.314 112.916C412.986 112.74 412.74 112.506 412.576 112.214C412.412 111.922 412.33 111.604 412.33 111.26C412.33 110.908 412.4 110.608 412.54 110.36C412.684 110.108 412.878 109.902 413.122 109.742C413.37 109.582 413.656 109.46 413.98 109.376C414.308 109.296 414.67 109.226 415.066 109.166C415.466 109.102 415.856 109.048 416.236 109.004C416.62 108.956 416.956 108.91 417.244 108.866L416.932 109.058C416.944 108.418 416.82 107.944 416.56 107.636C416.3 107.328 415.848 107.174 415.204 107.174C414.76 107.174 414.384 107.274 414.076 107.474C413.772 107.674 413.558 107.99 413.434 108.422L412.576 108.17C412.724 107.59 413.022 107.14 413.47 106.82C413.918 106.5 414.5 106.34 415.216 106.34C415.808 106.34 416.31 106.452 416.722 106.676C417.138 106.896 417.432 107.216 417.604 107.636C417.684 107.824 417.736 108.034 417.76 108.266C417.784 108.498 417.796 108.734 417.796 108.974V113H417.01V111.374L417.238 111.47C417.018 112.026 416.676 112.45 416.212 112.742C415.748 113.034 415.192 113.18 414.544 113.18ZM414.646 112.418C415.058 112.418 415.418 112.344 415.726 112.196C416.034 112.048 416.282 111.846 416.47 111.59C416.658 111.33 416.78 111.038 416.836 110.714C416.884 110.506 416.91 110.278 416.914 110.03C416.918 109.778 416.92 109.59 416.92 109.466L417.256 109.64C416.956 109.68 416.63 109.72 416.278 109.76C415.93 109.8 415.586 109.846 415.246 109.898C414.91 109.95 414.606 110.012 414.334 110.084C414.15 110.136 413.972 110.21 413.8 110.306C413.628 110.398 413.486 110.522 413.374 110.678C413.266 110.834 413.212 111.028 413.212 111.26C413.212 111.448 413.258 111.63 413.35 111.806C413.446 111.982 413.598 112.128 413.806 112.244C414.018 112.36 414.298 112.418 414.646 112.418Z" fill="#6D7488"/>
    <rect x="0.5" y="0.5" width="458" height="141" rx="19.5" stroke="#EBEDF2"/>
    <rect x="285" y="22" width="116" height="26" rx="13" fill="#3B3C3C"/>
    <path d="M305.8 39V31.8H308.605C309.035 31.8 309.401 31.8883 309.705 32.065C310.011 32.2417 310.245 32.475 310.405 32.765C310.568 33.0517 310.65 33.3617 310.65 33.695C310.65 34.085 310.55 34.4267 310.35 34.72C310.15 35.0133 309.88 35.215 309.54 35.325L309.53 35.08C309.993 35.2033 310.353 35.43 310.61 35.76C310.866 36.09 310.995 36.4833 310.995 36.94C310.995 37.36 310.908 37.7233 310.735 38.03C310.565 38.3367 310.318 38.575 309.995 38.745C309.675 38.915 309.295 39 308.855 39H305.8ZM306.7 38.15H308.685C308.951 38.15 309.19 38.1017 309.4 38.005C309.61 37.905 309.775 37.765 309.895 37.585C310.018 37.405 310.08 37.1883 310.08 36.935C310.08 36.6917 310.025 36.4733 309.915 36.28C309.808 36.0867 309.656 35.9333 309.46 35.82C309.266 35.7033 309.041 35.645 308.785 35.645H306.7V38.15ZM306.7 34.805H308.595C308.808 34.805 309 34.76 309.17 34.67C309.343 34.5767 309.48 34.4467 309.58 34.28C309.683 34.1133 309.735 33.9183 309.735 33.695C309.735 33.385 309.63 33.1317 309.42 32.935C309.21 32.7383 308.935 32.64 308.595 32.64H306.7V34.805ZM311.991 39L311.986 33.6H312.881V35.555H313.706C313.863 35.555 314.023 35.5583 314.186 35.565C314.349 35.5717 314.491 35.5867 314.611 35.61C314.891 35.6667 315.136 35.7617 315.346 35.895C315.556 36.0283 315.719 36.2083 315.836 36.435C315.953 36.6617 316.011 36.9433 316.011 37.28C316.011 37.7467 315.889 38.1167 315.646 38.39C315.406 38.66 315.091 38.84 314.701 38.93C314.568 38.96 314.414 38.98 314.241 38.99C314.071 38.9967 313.909 39 313.756 39H311.991ZM312.881 38.265H313.771C313.871 38.265 313.983 38.2617 314.106 38.255C314.229 38.2483 314.339 38.2317 314.436 38.205C314.606 38.155 314.758 38.0567 314.891 37.91C315.028 37.7633 315.096 37.5533 315.096 37.28C315.096 37.0033 315.029 36.79 314.896 36.64C314.766 36.49 314.594 36.3917 314.381 36.345C314.284 36.3217 314.183 36.3067 314.076 36.3C313.969 36.2933 313.868 36.29 313.771 36.29H312.881V38.265ZM316.631 39V33.6H317.521V39H316.631ZM318.92 39V33.6H319.78V38.19H321.64V33.6H322.5V38.19H324.355V33.6H325.215V39H318.92ZM328.95 39.15C328.42 39.15 327.957 39.0333 327.56 38.8C327.167 38.5633 326.86 38.235 326.64 37.815C326.42 37.3917 326.31 36.8983 326.31 36.335C326.31 35.745 326.418 35.235 326.635 34.805C326.852 34.3717 327.153 34.0383 327.54 33.805C327.93 33.5683 328.387 33.45 328.91 33.45C329.453 33.45 329.915 33.575 330.295 33.825C330.678 34.075 330.965 34.4317 331.155 34.895C331.348 35.3583 331.432 35.91 331.405 36.55H330.505V36.23C330.495 35.5667 330.36 35.0717 330.1 34.745C329.84 34.415 329.453 34.25 328.94 34.25C328.39 34.25 327.972 34.4267 327.685 34.78C327.398 35.1333 327.255 35.64 327.255 36.3C327.255 36.9367 327.398 37.43 327.685 37.78C327.972 38.13 328.38 38.305 328.91 38.305C329.267 38.305 329.577 38.2233 329.84 38.06C330.103 37.8967 330.31 37.6617 330.46 37.355L331.315 37.65C331.105 38.1267 330.788 38.4967 330.365 38.76C329.945 39.02 329.473 39.15 328.95 39.15ZM326.955 36.55V35.835H330.945V36.55H326.955ZM332.018 39V38.235C332.218 38.2717 332.37 38.265 332.473 38.215C332.58 38.1617 332.658 38.07 332.708 37.94C332.762 37.8067 332.805 37.64 332.838 37.44C332.895 37.1233 332.943 36.77 332.983 36.38C333.027 35.99 333.065 35.5633 333.098 35.1C333.135 34.6333 333.168 34.1333 333.198 33.6H336.973V39H336.083V34.445H334.008C333.988 34.7517 333.963 35.0667 333.933 35.39C333.907 35.7133 333.878 36.0283 333.848 36.335C333.818 36.6383 333.785 36.9217 333.748 37.185C333.715 37.445 333.678 37.67 333.638 37.86C333.575 38.1867 333.487 38.4483 333.373 38.645C333.26 38.8383 333.097 38.9633 332.883 39.02C332.67 39.08 332.382 39.0733 332.018 39ZM344.8 33.6V39H343.94V35.02L341.11 39H340.375V33.6H341.235V37.525L344.07 33.6H344.8ZM348.135 39.15C347.602 39.15 347.13 39.035 346.72 38.805C346.31 38.5717 345.987 38.2517 345.75 37.845L346.46 37.385C346.657 37.6817 346.892 37.91 347.165 38.07C347.438 38.2267 347.75 38.305 348.1 38.305C348.467 38.305 348.758 38.2217 348.975 38.055C349.192 37.885 349.3 37.6567 349.3 37.37C349.3 37.1567 349.247 36.9933 349.14 36.88C349.033 36.7667 348.88 36.6883 348.68 36.645C348.48 36.6017 348.242 36.58 347.965 36.58H347.405V35.845H347.96C348.31 35.845 348.595 35.7883 348.815 35.675C349.035 35.5617 349.145 35.3683 349.145 35.095C349.145 34.815 349.042 34.6117 348.835 34.485C348.632 34.355 348.388 34.29 348.105 34.29C347.805 34.29 347.518 34.3533 347.245 34.48C346.972 34.6033 346.737 34.76 346.54 34.95L346 34.345C346.28 34.0583 346.602 33.8383 346.965 33.685C347.332 33.5283 347.73 33.45 348.16 33.45C348.507 33.45 348.823 33.5117 349.11 33.635C349.4 33.755 349.63 33.9333 349.8 34.17C349.973 34.4033 350.06 34.6883 350.06 35.025C350.06 35.3117 349.993 35.5667 349.86 35.79C349.727 36.0133 349.53 36.2083 349.27 36.375L349.235 36.06C349.455 36.1133 349.637 36.2117 349.78 36.355C349.927 36.495 350.035 36.6617 350.105 36.855C350.175 37.0483 350.21 37.25 350.21 37.46C350.21 37.8133 350.117 38.1167 349.93 38.37C349.747 38.62 349.498 38.8133 349.185 38.95C348.872 39.0833 348.522 39.15 348.135 39.15ZM355.584 39.15C355.038 39.15 354.573 39.0283 354.189 38.785C353.809 38.5383 353.519 38.2 353.319 37.77C353.119 37.34 353.016 36.85 353.009 36.3C353.016 35.7367 353.121 35.2417 353.324 34.815C353.531 34.385 353.826 34.05 354.209 33.81C354.593 33.57 355.054 33.45 355.594 33.45C356.164 33.45 356.654 33.59 357.064 33.87C357.478 34.15 357.754 34.5333 357.894 35.02L357.014 35.285C356.901 34.9717 356.716 34.7283 356.459 34.555C356.206 34.3817 355.914 34.295 355.584 34.295C355.214 34.295 354.909 34.3817 354.669 34.555C354.429 34.725 354.251 34.9617 354.134 35.265C354.018 35.565 353.958 35.91 353.954 36.3C353.961 36.9 354.099 37.385 354.369 37.755C354.643 38.1217 355.048 38.305 355.584 38.305C355.938 38.305 356.231 38.225 356.464 38.065C356.698 37.9017 356.874 37.6667 356.994 37.36L357.894 37.595C357.708 38.0983 357.416 38.4833 357.019 38.75C356.623 39.0167 356.144 39.15 355.584 39.15ZM360.247 39V34.41H358.367V33.6H363.017V34.41H361.137V39H360.247ZM366.444 39.15C365.937 39.15 365.51 39.025 365.164 38.775C364.817 38.5217 364.554 38.18 364.374 37.75C364.197 37.3167 364.109 36.8317 364.109 36.295C364.109 35.7517 364.197 35.265 364.374 34.835C364.554 34.405 364.817 34.0667 365.164 33.82C365.514 33.5733 365.942 33.45 366.449 33.45C366.949 33.45 367.379 33.575 367.739 33.825C368.102 34.0717 368.38 34.41 368.574 34.84C368.767 35.27 368.864 35.755 368.864 36.295C368.864 36.835 368.767 37.32 368.574 37.75C368.38 38.18 368.102 38.5217 367.739 38.775C367.379 39.025 366.947 39.15 366.444 39.15ZM363.959 41.4V33.6H364.754V37.575H364.854V41.4H363.959ZM366.334 38.335C366.69 38.335 366.985 38.245 367.219 38.065C367.452 37.885 367.627 37.6417 367.744 37.335C367.86 37.025 367.919 36.6783 367.919 36.295C367.919 35.915 367.86 35.5717 367.744 35.265C367.63 34.9583 367.454 34.715 367.214 34.535C366.977 34.355 366.675 34.265 366.309 34.265C365.959 34.265 365.669 34.3517 365.439 34.525C365.209 34.695 365.037 34.9333 364.924 35.24C364.81 35.5433 364.754 35.895 364.754 36.295C364.754 36.6883 364.809 37.04 364.919 37.35C365.032 37.6567 365.205 37.8983 365.439 38.075C365.672 38.2483 365.97 38.335 366.334 38.335ZM372.26 39.15C371.723 39.15 371.26 39.0283 370.87 38.785C370.483 38.5417 370.185 38.205 369.975 37.775C369.765 37.345 369.66 36.8517 369.66 36.295C369.66 35.7283 369.766 35.2317 369.98 34.805C370.193 34.3783 370.495 34.0467 370.885 33.81C371.275 33.57 371.733 33.45 372.26 33.45C372.8 33.45 373.265 33.5717 373.655 33.815C374.045 34.055 374.343 34.39 374.55 34.82C374.76 35.2467 374.865 35.7383 374.865 36.295C374.865 36.8583 374.76 37.355 374.55 37.785C374.34 38.2117 374.04 38.5467 373.65 38.79C373.26 39.03 372.796 39.15 372.26 39.15ZM372.26 38.305C372.82 38.305 373.236 38.1183 373.51 37.745C373.783 37.3717 373.92 36.8883 373.92 36.295C373.92 35.685 373.781 35.2 373.505 34.84C373.228 34.4767 372.813 34.295 372.26 34.295C371.883 34.295 371.573 34.38 371.33 34.55C371.086 34.72 370.905 34.955 370.785 35.255C370.665 35.555 370.605 35.9017 370.605 36.295C370.605 36.9017 370.745 37.3883 371.025 37.755C371.305 38.1217 371.716 38.305 372.26 38.305ZM379.301 39V37.045H378.136C377.999 37.045 377.847 37.04 377.681 37.03C377.517 37.0167 377.364 36.9983 377.221 36.975C376.831 36.9017 376.501 36.73 376.231 36.46C375.964 36.19 375.831 35.8167 375.831 35.34C375.831 34.8767 375.956 34.505 376.206 34.225C376.459 33.9417 376.771 33.7583 377.141 33.675C377.307 33.635 377.476 33.6133 377.646 33.61C377.819 33.6033 377.966 33.6 378.086 33.6H380.191L380.196 39H379.301ZM375.666 39L377.101 36.8H378.061L376.626 39H375.666ZM378.071 36.31H379.301V34.335H378.071C377.994 34.335 377.892 34.3383 377.766 34.345C377.642 34.3517 377.524 34.3717 377.411 34.405C377.304 34.435 377.199 34.49 377.096 34.57C376.996 34.65 376.912 34.7533 376.846 34.88C376.779 35.0067 376.746 35.1567 376.746 35.33C376.746 35.58 376.816 35.7833 376.956 35.94C377.096 36.0933 377.266 36.1967 377.466 36.25C377.576 36.2767 377.684 36.2933 377.791 36.3C377.901 36.3067 377.994 36.31 378.071 36.31Z" fill="white"/>
</svg>