<svg width="175" height="44" viewBox="0 0 175 44" fill="none" xmlns="http://www.w3.org/2000/svg">
    <rect width="175" height="44" rx="12" fill="white"/>
    <path d="M32.6668 17.3335C32.6668 16.9653 32.3684 16.6668 32.0002 16.6668C31.632 16.6668 31.3335 16.9653 31.3335 17.3335L31.3335 25.0574L28.4716 22.1954C28.2112 21.9351 27.7891 21.9351 27.5288 22.1954C27.2684 22.4558 27.2684 22.8779 27.5288 23.1382L31.5288 27.1382C31.7891 27.3986 32.2112 27.3986 32.4716 27.1382L36.4716 23.1382C36.7319 22.8779 36.7319 22.4558 36.4716 22.1954C36.2112 21.9351 35.7891 21.9351 35.5288 22.1954L32.6668 25.0574L32.6668 17.3335Z" fill="#3B3C3C"/>
    <path d="M47.3071 27V16.92H55.0281V27H53.9991V17.907H48.3361V27H47.3071ZM60.1438 27.21C59.3925 27.21 58.7508 27.0397 58.2188 26.699C57.6868 26.3583 57.2785 25.887 56.9938 25.285C56.7092 24.683 56.5668 23.9923 56.5668 23.213C56.5668 22.4197 56.7115 21.7243 57.0008 21.127C57.2902 20.5297 57.7008 20.0653 58.2328 19.734C58.7695 19.398 59.4065 19.23 60.1438 19.23C60.8998 19.23 61.5438 19.4003 62.0758 19.741C62.6125 20.077 63.0208 20.546 63.3008 21.148C63.5855 21.7453 63.7278 22.4337 63.7278 23.213C63.7278 24.0063 63.5855 24.704 63.3008 25.306C63.0162 25.9033 62.6055 26.37 62.0688 26.706C61.5322 27.042 60.8905 27.21 60.1438 27.21ZM60.1438 26.223C60.9838 26.223 61.6092 25.9453 62.0198 25.39C62.4305 24.83 62.6358 24.1043 62.6358 23.213C62.6358 22.2983 62.4282 21.5703 62.0128 21.029C61.6022 20.4877 60.9792 20.217 60.1438 20.217C59.5792 20.217 59.1125 20.3453 58.7438 20.602C58.3798 20.854 58.1068 21.2063 57.9248 21.659C57.7475 22.107 57.6588 22.625 57.6588 23.213C57.6588 24.123 57.8688 24.8533 58.2888 25.404C58.7088 25.95 59.3272 26.223 60.1438 26.223ZM71.4697 27.21C70.7744 27.21 70.1864 27.035 69.7057 26.685C69.2251 26.3303 68.8611 25.852 68.6137 25.25C68.3664 24.6433 68.2427 23.9643 68.2427 23.213C68.2427 22.4477 68.3664 21.7663 68.6137 21.169C68.8657 20.567 69.2344 20.0933 69.7197 19.748C70.2051 19.4027 70.8024 19.23 71.5117 19.23C72.2024 19.23 72.7951 19.405 73.2897 19.755C73.7844 20.105 74.1624 20.581 74.4237 21.183C74.6897 21.785 74.8227 22.4617 74.8227 23.213C74.8227 23.969 74.6897 24.648 74.4237 25.25C74.1577 25.852 73.7751 26.3303 73.2757 26.685C72.7764 27.035 72.1744 27.21 71.4697 27.21ZM68.0677 30.36V19.44H68.9917V25.131H69.1037V30.36H68.0677ZM71.3647 26.251C71.8921 26.251 72.3307 26.118 72.6807 25.852C73.0307 25.586 73.2921 25.2243 73.4647 24.767C73.6421 24.305 73.7307 23.787 73.7307 23.213C73.7307 22.6437 73.6444 22.1303 73.4717 21.673C73.2991 21.2157 73.0354 20.854 72.6807 20.588C72.3307 20.322 71.8851 20.189 71.3437 20.189C70.8164 20.189 70.3777 20.3173 70.0277 20.574C69.6824 20.8307 69.4234 21.1877 69.2507 21.645C69.0781 22.0977 68.9917 22.6203 68.9917 23.213C68.9917 23.7963 69.0781 24.319 69.2507 24.781C69.4234 25.2383 69.6847 25.5977 70.0347 25.859C70.3847 26.1203 70.8281 26.251 71.3647 26.251ZM79.5589 27.21C78.8215 27.21 78.1822 27.0467 77.6409 26.72C77.1042 26.3933 76.6865 25.9337 76.3879 25.341C76.0892 24.7483 75.9399 24.053 75.9399 23.255C75.9399 22.429 76.0869 21.715 76.3809 21.113C76.6749 20.511 77.0879 20.0467 77.6199 19.72C78.1565 19.3933 78.7889 19.23 79.5169 19.23C80.2635 19.23 80.9005 19.4027 81.4279 19.748C81.9552 20.0887 82.3542 20.5787 82.6249 21.218C82.8955 21.8573 83.0192 22.6203 82.9959 23.507H81.9459V23.143C81.9272 22.163 81.7149 21.4233 81.3089 20.924C80.9075 20.4247 80.3195 20.175 79.5449 20.175C78.7329 20.175 78.1099 20.4387 77.6759 20.966C77.2465 21.4933 77.0319 22.2447 77.0319 23.22C77.0319 24.172 77.2465 24.9117 77.6759 25.439C78.1099 25.9617 78.7235 26.223 79.5169 26.223C80.0582 26.223 80.5295 26.0993 80.9309 25.852C81.3369 25.6 81.6565 25.2383 81.8899 24.767L82.8489 25.138C82.5502 25.796 82.1092 26.307 81.5259 26.671C80.9472 27.0303 80.2915 27.21 79.5589 27.21ZM76.6679 23.507V22.646H82.4429V23.507H76.6679ZM87.6853 18.544C87.354 18.544 87.0507 18.4623 86.7753 18.299C86.5 18.1357 86.2807 17.9187 86.1173 17.648C85.9587 17.3727 85.8793 17.0693 85.8793 16.738H86.7333C86.7333 16.9993 86.8267 17.2233 87.0133 17.41C87.2 17.5967 87.424 17.69 87.6853 17.69C87.9513 17.69 88.1753 17.5967 88.3573 17.41C88.544 17.2233 88.6373 16.9993 88.6373 16.738H89.4913C89.4913 17.0693 89.4097 17.3727 89.2463 17.648C89.0877 17.9187 88.8707 18.1357 88.5953 18.299C88.32 18.4623 88.0167 18.544 87.6853 18.544ZM90.5553 19.44V27H89.5543V21.113L85.4103 27H84.5423V19.44H85.5433V25.278L89.6943 19.44H90.5553ZM94.571 27V20.392H91.89V19.44H98.281V20.392H95.6V27H94.571ZM105.622 19.44V27H104.621V21.113L100.477 27H99.6087V19.44H100.61V25.278L104.761 19.44H105.622ZM107.579 27V19.44H108.608V22.723H112.871V19.44H113.9V27H112.871V23.71H108.608V27H107.579ZM115.858 27V19.44H121.038V20.427H116.887V27H115.858ZM123.348 30.36L124.811 26.391L124.832 27.567L121.521 19.44H122.613L125.329 26.237H124.881L127.387 19.44H128.437L124.377 30.36H123.348Z" fill="#3B3C3C"/>
    <path fill-rule="evenodd" clip-rule="evenodd" d="M146.824 20.1758C146.59 19.9415 146.21 19.9415 145.976 20.1758L143 23.1516L140.024 20.1758C139.79 19.9415 139.41 19.9415 139.176 20.1758C138.941 20.4102 138.941 20.79 139.176 21.0244L142.576 24.4244C142.81 24.6587 143.19 24.6587 143.424 24.4244L146.824 21.0244C147.059 20.79 147.059 20.4101 146.824 20.1758Z" fill="#3B3C3C"/>
</svg>