<svg width="268" height="42" viewBox="0 0 268 42" fill="none" xmlns="http://www.w3.org/2000/svg">
    <rect x="0.5" y="0.5" width="267" height="41" rx="11.5" fill="white"/>
    <path d="M20.98 26V15.92H24.872C24.97 15.92 25.0797 15.9247 25.201 15.934C25.327 15.9387 25.453 15.9527 25.579 15.976C26.1063 16.0553 26.552 16.2397 26.916 16.529C27.2847 16.8137 27.5623 17.173 27.749 17.607C27.9403 18.041 28.036 18.5217 28.036 19.049C28.036 19.5717 27.9403 20.05 27.749 20.484C27.5577 20.918 27.2777 21.2797 26.909 21.569C26.545 21.8537 26.1017 22.0357 25.579 22.115C25.453 22.1337 25.327 22.1477 25.201 22.157C25.0797 22.1663 24.97 22.171 24.872 22.171H22.009V26H20.98ZM22.009 21.191H24.844C24.928 21.191 25.026 21.1863 25.138 21.177C25.25 21.1677 25.3597 21.1513 25.467 21.128C25.8123 21.0533 26.0947 20.911 26.314 20.701C26.538 20.491 26.7037 20.2413 26.811 19.952C26.923 19.6627 26.979 19.3617 26.979 19.049C26.979 18.7363 26.923 18.4353 26.811 18.146C26.7037 17.852 26.538 17.6 26.314 17.39C26.0947 17.18 25.8123 17.0377 25.467 16.963C25.3597 16.9397 25.25 16.9257 25.138 16.921C25.026 16.9117 24.928 16.907 24.844 16.907H22.009V21.191ZM31.5922 26.21C31.0229 26.21 30.5446 26.1073 30.1572 25.902C29.7746 25.6967 29.4876 25.4237 29.2962 25.083C29.1049 24.7423 29.0092 24.3713 29.0092 23.97C29.0092 23.5593 29.0909 23.2093 29.2542 22.92C29.4222 22.626 29.6486 22.3857 29.9332 22.199C30.2226 22.0123 30.5562 21.87 30.9342 21.772C31.3169 21.6787 31.7392 21.597 32.2012 21.527C32.6679 21.4523 33.1229 21.3893 33.5662 21.338C34.0142 21.282 34.4062 21.2283 34.7422 21.177L34.3782 21.401C34.3922 20.6543 34.2476 20.1013 33.9442 19.742C33.6409 19.3827 33.1136 19.203 32.3622 19.203C31.8442 19.203 31.4056 19.3197 31.0462 19.553C30.6916 19.7863 30.4419 20.155 30.2972 20.659L29.2962 20.365C29.4689 19.6883 29.8166 19.1633 30.3392 18.79C30.8619 18.4167 31.5409 18.23 32.3762 18.23C33.0669 18.23 33.6526 18.3607 34.1332 18.622C34.6186 18.8787 34.9616 19.252 35.1622 19.742C35.2556 19.9613 35.3162 20.2063 35.3442 20.477C35.3722 20.7477 35.3862 21.023 35.3862 21.303V26H34.4692V24.103L34.7352 24.215C34.4786 24.8637 34.0796 25.3583 33.5382 25.699C32.9969 26.0397 32.3482 26.21 31.5922 26.21ZM31.7112 25.321C32.1919 25.321 32.6119 25.2347 32.9712 25.062C33.3306 24.8893 33.6199 24.6537 33.8392 24.355C34.0586 24.0517 34.2009 23.711 34.2662 23.333C34.3222 23.0903 34.3526 22.8243 34.3572 22.535C34.3619 22.241 34.3642 22.0217 34.3642 21.877L34.7562 22.08C34.4062 22.1267 34.0259 22.1733 33.6152 22.22C33.2092 22.2667 32.8079 22.3203 32.4112 22.381C32.0192 22.4417 31.6646 22.514 31.3472 22.598C31.1326 22.6587 30.9249 22.745 30.7242 22.857C30.5236 22.9643 30.3579 23.109 30.2272 23.291C30.1012 23.473 30.0382 23.6993 30.0382 23.97C30.0382 24.1893 30.0919 24.4017 30.1992 24.607C30.3112 24.8123 30.4886 24.9827 30.7312 25.118C30.9786 25.2533 31.3052 25.321 31.7112 25.321ZM40.3445 17.544C40.0132 17.544 39.7098 17.4623 39.4345 17.299C39.1592 17.1357 38.9398 16.9187 38.7765 16.648C38.6178 16.3727 38.5385 16.0693 38.5385 15.738H39.3925C39.3925 15.9993 39.4858 16.2233 39.6725 16.41C39.8592 16.5967 40.0832 16.69 40.3445 16.69C40.6105 16.69 40.8345 16.5967 41.0165 16.41C41.2032 16.2233 41.2965 15.9993 41.2965 15.738H42.1505C42.1505 16.0693 42.0688 16.3727 41.9055 16.648C41.7468 16.9187 41.5298 17.1357 41.2545 17.299C40.9792 17.4623 40.6758 17.544 40.3445 17.544ZM43.2145 18.44V26H42.2135V20.113L38.0695 26H37.2015V18.44H38.2025V24.278L42.3535 18.44H43.2145ZM48.3362 26.21C47.5849 26.21 46.9432 26.0397 46.4112 25.699C45.8792 25.3583 45.4709 24.887 45.1862 24.285C44.9016 23.683 44.7592 22.9923 44.7592 22.213C44.7592 21.4197 44.9039 20.7243 45.1932 20.127C45.4826 19.5297 45.8932 19.0653 46.4252 18.734C46.9619 18.398 47.5989 18.23 48.3362 18.23C49.0922 18.23 49.7362 18.4003 50.2682 18.741C50.8049 19.077 51.2132 19.546 51.4932 20.148C51.7779 20.7453 51.9202 21.4337 51.9202 22.213C51.9202 23.0063 51.7779 23.704 51.4932 24.306C51.2086 24.9033 50.7979 25.37 50.2612 25.706C49.7246 26.042 49.0829 26.21 48.3362 26.21ZM48.3362 25.223C49.1762 25.223 49.8016 24.9453 50.2122 24.39C50.6229 23.83 50.8282 23.1043 50.8282 22.213C50.8282 21.2983 50.6206 20.5703 50.2052 20.029C49.7946 19.4877 49.1716 19.217 48.3362 19.217C47.7716 19.217 47.3049 19.3453 46.9362 19.602C46.5722 19.854 46.2992 20.2063 46.1172 20.659C45.9399 21.107 45.8512 21.625 45.8512 22.213C45.8512 23.123 46.0612 23.8533 46.4812 24.404C46.9012 24.95 47.5196 25.223 48.3362 25.223ZM53.4574 26V18.44H54.4864V21.723H58.7494V18.44H59.7784V26H58.7494V22.71H54.4864V26H53.4574ZM64.5316 26V18.44H70.5446V26H69.5156V19.427H65.5606V26H64.5316ZM75.6663 26.21C74.915 26.21 74.2733 26.0397 73.7413 25.699C73.2093 25.3583 72.801 24.887 72.5163 24.285C72.2316 23.683 72.0893 22.9923 72.0893 22.213C72.0893 21.4197 72.234 20.7243 72.5233 20.127C72.8126 19.5297 73.2233 19.0653 73.7553 18.734C74.292 18.398 74.929 18.23 75.6663 18.23C76.4223 18.23 77.0663 18.4003 77.5983 18.741C78.135 19.077 78.5433 19.546 78.8233 20.148C79.108 20.7453 79.2503 21.4337 79.2503 22.213C79.2503 23.0063 79.108 23.704 78.8233 24.306C78.5386 24.9033 78.128 25.37 77.5913 25.706C77.0546 26.042 76.413 26.21 75.6663 26.21ZM75.6663 25.223C76.5063 25.223 77.1316 24.9453 77.5423 24.39C77.953 23.83 78.1583 23.1043 78.1583 22.213C78.1583 21.2983 77.9506 20.5703 77.5353 20.029C77.1246 19.4877 76.5016 19.217 75.6663 19.217C75.1016 19.217 74.635 19.3453 74.2663 19.602C73.9023 19.854 73.6293 20.2063 73.4473 20.659C73.27 21.107 73.1813 21.625 73.1813 22.213C73.1813 23.123 73.3913 23.8533 73.8113 24.404C74.2313 24.95 74.8496 25.223 75.6663 25.223ZM86.8005 18.44V26H85.7995V20.113L81.6555 26H80.7875V18.44H81.7885V24.278L85.9395 18.44H86.8005ZM91.9012 26.21C91.1405 26.21 90.4965 26.0397 89.9692 25.699C89.4418 25.3583 89.0405 24.8893 88.7652 24.292C88.4945 23.69 88.3545 22.9993 88.3452 22.22C88.3545 21.4267 88.4992 20.7313 88.7792 20.134C89.0592 19.532 89.4628 19.0653 89.9902 18.734C90.5175 18.398 91.1568 18.23 91.9082 18.23C92.6735 18.23 93.3385 18.4167 93.9032 18.79C94.4725 19.1633 94.8622 19.6743 95.0722 20.323L94.0642 20.645C93.8868 20.1923 93.6045 19.8423 93.2172 19.595C92.8345 19.343 92.3958 19.217 91.9012 19.217C91.3458 19.217 90.8862 19.3453 90.5222 19.602C90.1582 19.854 89.8875 20.2063 89.7102 20.659C89.5328 21.1117 89.4418 21.632 89.4372 22.22C89.4465 23.1253 89.6565 23.8533 90.0672 24.404C90.4778 24.95 91.0892 25.223 91.9012 25.223C92.4145 25.223 92.8508 25.1063 93.2102 24.873C93.5742 24.635 93.8495 24.2897 94.0362 23.837L95.0722 24.145C94.7922 24.817 94.3815 25.3303 93.8402 25.685C93.2988 26.035 92.6525 26.21 91.9012 26.21ZM96.5101 26L96.5171 18.44H97.5531V22.08L100.927 18.44H102.299L98.7571 22.22L102.761 26H101.263L97.5531 22.36V26H96.5101ZM105.625 26.21C105.056 26.21 104.578 26.1073 104.19 25.902C103.808 25.6967 103.521 25.4237 103.329 25.083C103.138 24.7423 103.042 24.3713 103.042 23.97C103.042 23.5593 103.124 23.2093 103.287 22.92C103.455 22.626 103.682 22.3857 103.966 22.199C104.256 22.0123 104.589 21.87 104.967 21.772C105.35 21.6787 105.772 21.597 106.234 21.527C106.701 21.4523 107.156 21.3893 107.599 21.338C108.047 21.282 108.439 21.2283 108.775 21.177L108.411 21.401C108.425 20.6543 108.281 20.1013 107.977 19.742C107.674 19.3827 107.147 19.203 106.395 19.203C105.877 19.203 105.439 19.3197 105.079 19.553C104.725 19.7863 104.475 20.155 104.33 20.659L103.329 20.365C103.502 19.6883 103.85 19.1633 104.372 18.79C104.895 18.4167 105.574 18.23 106.409 18.23C107.1 18.23 107.686 18.3607 108.166 18.622C108.652 18.8787 108.995 19.252 109.195 19.742C109.289 19.9613 109.349 20.2063 109.377 20.477C109.405 20.7477 109.419 21.023 109.419 21.303V26H108.502V24.103L108.768 24.215C108.512 24.8637 108.113 25.3583 107.571 25.699C107.03 26.0397 106.381 26.21 105.625 26.21ZM105.744 25.321C106.225 25.321 106.645 25.2347 107.004 25.062C107.364 24.8893 107.653 24.6537 107.872 24.355C108.092 24.0517 108.234 23.711 108.299 23.333C108.355 23.0903 108.386 22.8243 108.39 22.535C108.395 22.241 108.397 22.0217 108.397 21.877L108.789 22.08C108.439 22.1267 108.059 22.1733 107.648 22.22C107.242 22.2667 106.841 22.3203 106.444 22.381C106.052 22.4417 105.698 22.514 105.38 22.598C105.166 22.6587 104.958 22.745 104.757 22.857C104.557 22.9643 104.391 23.109 104.26 23.291C104.134 23.473 104.071 23.6993 104.071 23.97C104.071 24.1893 104.125 24.4017 104.232 24.607C104.344 24.8123 104.522 24.9827 104.764 25.118C105.012 25.2533 105.338 25.321 105.744 25.321Z" fill="#9EA2B0"/>
    <path d="M236.454 18.6911C236.063 18.3849 235.497 18.4541 235.191 18.8457C234.885 19.2372 234.954 19.8029 235.346 20.109L239.442 23.3123C239.768 23.5669 240.225 23.567 240.551 23.3125L244.651 20.1092C245.042 19.8032 245.112 19.2376 244.806 18.8459C244.5 18.4543 243.934 18.3848 243.543 18.6908L239.997 21.461L236.454 18.6911Z" fill="#9EA2B0"/>
    <rect x="0.5" y="0.5" width="267" height="41" rx="11.5" stroke="#F5F6F9"/>
</svg>